<svg id="_7eleven" data-name="7eleven" xmlns="http://www.w3.org/2000/svg" viewBox="0 0 1293 950">
  <defs>
    <style>
      .cls-1 {
        fill: #f1f1f1;
      }

      .cls-2 {
        fill: #cbf3fb;
      }

      .cls-11, .cls-14, .cls-2 {
        stroke: #000;
        stroke-miterlimit: 10;
      }

      .cls-11, .cls-2 {
        stroke-width: 5px;
      }

      .cls-3 {
        fill: #f7f7f7;
      }

      .cls-4 {
        fill: #b2b2b2;
      }

      .cls-5 {
        fill: #ff6744;
      }

      .cls-6 {
        fill: #e63328;
      }

      .cls-7 {
        font-size: 21.64px;
      }

      .cls-17, .cls-7 {
        font-family: Roboto-Bold, Roboto;
        font-weight: 700;
      }

      .cls-8 {
        font-size: 29.19px;
      }

      .cls-16, .cls-18, .cls-8 {
        font-family: Roboto-Medium, Roboto;
        font-weight: 500;
      }

      .cls-9 {
        fill: #ef9037;
      }

      .cls-10 {
        fill: #387f5e;
      }

      .cls-11 {
        fill: none;
      }

      .cls-12 {
        fill: #aebfcc;
      }

      .cls-13 {
        fill: #b3de87;
      }

      .cls-14 {
        fill: #a0d063;
        stroke-width: 8px;
      }

      .cls-15, .cls-16 {
        fill: #2a644d;
      }

      .cls-16 {
        font-size: 51.87px;
      }

      .cls-17 {
        font-size: 25.21px;
      }

      .cls-18 {
        font-size: 34px;
      }

      .cls-19 {
        fill: #d8cdb7;
      }

      .cls-20 {
        fill: #a79f8f;
      }
    </style>
  </defs>
  <rect class="cls-1" x="43.28" y="239.56" width="1201.03" height="605.92"/>
  <rect class="cls-1" x="43.28" y="-2.08" width="1201.03" height="241.65"/>
  <path class="cls-2" d="M757.87,396.46h394A13.09,13.09,0,0,1,1165,409.54V845.49a0,0,0,0,1,0,0H744.78a0,0,0,0,1,0,0V409.54A13.09,13.09,0,0,1,757.87,396.46Z"/>
  <path class="cls-3" d="M899.27,690.4c-.33,5-3.79,8.1-7,11.34q-64.82,64.77-129.61,129.58c-2.86,2.86-5.72,5.61-10,6.08q.06-42.81.13-85.64c22.75-18,42.63-38.78,60.72-61.36Z"/>
  <path class="cls-3" d="M982.4,840.08c-.06-5,3.58-7.82,6.82-10.86,50.4-47.42,98.88-96.69,151-142.46l17.7.15a2.77,2.77,0,0,0,2.18,2.18q0,18.13,0,36.27c-43,35.16-83.13,73.14-119.52,114.66Z"/>
  <path class="cls-3" d="M961.33,771.76c19.72-15.34,35.3-35,53.49-51.9,10-9.29,19.66-19,29.79-28.11,4.23-3.82,10-4.26,14-.19,3.43,3.49.49,7.52-2.46,10.43q-47.35,46.82-94.78,93.54Q961.32,783.65,961.33,771.76Z"/>
  <path class="cls-3" d="M883.71,595.45c20.59-21.42,39.58-44.54,64.75-61.11.24,17.49.16,35,.88,52.47.31,7.67-2.53,9.6-9.73,9.37C921,595.58,902.34,595.65,883.71,595.45Z"/>
  <path class="cls-3" d="M752.39,519.21c4.45-4.34,9.12-8.48,13.28-13.08,3.65-4,7.74-5.37,11.77-1.75a7.52,7.52,0,0,1,.07,10.87c-8.57,8.85-15.15,20-27.59,24.58q-.17-8.46-.31-16.91Z"/>
  <path class="cls-4" d="M884.29,400.22c1.19,10.84-8.15,15.11-13.58,21.87-5.82,7.26-15.65,11.38-17.31,21.91l-27.73,0c11.28-15.78,30.05-25,38.08-43.63Z"/>
  <path class="cls-3" d="M1063.2,461.27l13.91,1.23c-.07,5.35-4.44,7.4-7.94,9.95-5.25,3.83-7.87,15.09-16.81,8.93-7.16-4.92.47-12.14.88-18.37Z"/>
  <path class="cls-4" d="M1135,400.45c-14.82,15.31-29.69,30.57-44.42,46-4.18,4.37-9.89,7.75-10.6,14.65l-6.65.73-13.91-1.22c9.45-17.38,26.32-28,38.85-42.56,4.71-5.49,12.06-9.07,12.83-17.46Z"/>
  <path class="cls-3" d="M1160,491c-8.64,1.7-12.29,9.81-18.6,14.5-4,2.94-8.65,4.78-12.45,1.13-4.54-4.36-.55-8.3,2.56-11.65q11.07-11.89,22.33-23.61c3.85-4,3.93,2.29,6.3,2.41Q1160.09,482.4,1160,491Z"/>
  <g id="logo">
    <path class="cls-5" d="M802.4,458.08l.2,23.43,46.26-.39L871,459Z"/>
    <path class="cls-6" d="M880,461.38a104.78,104.78,0,0,0-23.44,18,97.25,97.25,0,0,0-23.44,39.67h21.49a81.51,81.51,0,0,1,11.72-21.64,85.83,85.83,0,0,1,11.72-12.62Z"/>
    <ellipse class="cls-6" cx="842.16" cy="558.76" rx="15.3" ry="25.5"/>
    <text class="cls-7" transform="translate(806.22 537.46)">ELEVE</text>
    <text class="cls-8" transform="translate(868.11 537.32) scale(1.05 1)">n</text>
  </g>
  <g id="door-nob">
    <rect class="cls-6" x="744.78" y="661.55" width="420.18" height="16.23"/>
    <rect class="cls-9" x="744.78" y="607.45" width="420.18" height="16.23"/>
    <rect class="cls-10" x="744.78" y="634.5" width="420.18" height="16.23"/>
    <rect class="cls-11" x="743.88" y="602.94" width="421.98" height="79.35"/>
    <line class="cls-11" x1="954.87" y1="395.55" x2="954.87" y2="840.98"/>
    <path class="cls-12" d="M917.47,618.27h25.68a0,0,0,0,1,0,0v50.49a0,0,0,0,1,0,0H917.47a1.37,1.37,0,0,1-1.37-1.37V619.64A1.37,1.37,0,0,1,917.47,618.27Z"/>
  </g>
  <g id="time-board">
    <path class="cls-13" d="M226.39,560.21a11.32,11.32,0,0,1-.16-3.34C229.79,557.82,229,559,226.39,560.21Z"/>
    <path class="cls-2" d="M156.22,401H545.28a12.86,12.86,0,0,1,12.86,12.86V848.19a0,0,0,0,1,0,0H143.37a0,0,0,0,1,0,0V413.82A12.86,12.86,0,0,1,156.22,401Z"/>
    <path class="cls-3" d="M552.56,531.42Q437.77,638.76,323,746.08c-31.17,29.09-62.66,57.87-94,86.79-12.52-12.45-25.38-24-6.91-42.09,4.31-4.22,1.2-15.17,1.5-23,3.92-4.46,7.49-9.26,11.81-13.34Q388.58,610,542,465.66c3.25-3.05,7.06-5.57,10.61-8.34Q552.57,494.37,552.56,531.42Z"/>
    <path class="cls-3" d="M395.59,468.34l20.83-.68c-.5,5.55-4.17,9.15-7.83,12.81q-40,39.88-79.94,79.8c-4.34,4.32-9.27,10.91-15.66,4.58-7.25-7.18,1.73-11,5.5-14.86,21.94-22.42,44.3-44.44,66.42-66.69C389.25,478.93,394.83,475.32,395.59,468.34Z"/>
    <g id="time-board-2" data-name="time-board">
      <rect class="cls-14" x="188.45" y="435.23" width="196.56" height="191.15" rx="12.87"/>
      <rect class="cls-15" x="211.89" y="577.69" width="140.66" height="22.54" rx="2.4"/>
      <rect class="cls-15" x="212.36" y="541.02" width="106.84" height="22.54" rx="2.4"/>
      <text class="cls-16" transform="translate(212.36 515.85)">24/7</text>
    </g>
  </g>
  <rect class="cls-15" x="43.28" y="272.03" width="1201.03" height="64.92"/>
  <rect class="cls-10" x="43.28" y="239.56" width="1201.03" height="32.46"/>
  <rect class="cls-6" x="43.28" y="165.63" width="1201.03" height="43.28"/>
  <rect class="cls-6" x="43.28" y="91.69" width="1201.03" height="43.28"/>
  <rect class="cls-9" x="43.28" y="17.75" width="1201.03" height="43.28"/>
  <rect class="cls-1" x="541" y="5.13" width="207.38" height="227.22"/>
  <g id="logo-2" data-name="logo">
    <path class="cls-5" d="M599.44,47.17l.23,27.29L653.56,74,679.3,48.2Z"/>
    <path class="cls-6" d="M689.88,51a122.22,122.22,0,0,0-27.31,21,113.27,113.27,0,0,0-27.31,46.22h25A94.88,94.88,0,0,1,674,93,99.66,99.66,0,0,1,687.6,78.32Z"/>
    <ellipse class="cls-6" cx="645.76" cy="164.46" rx="17.83" ry="29.71"/>
    <text class="cls-17" transform="translate(603.89 139.64)">ELEVE</text>
    <text class="cls-18" transform="translate(675.99 139.49) scale(1.05 1)">n</text>
  </g>
  <rect class="cls-19" x="21.64" y="847.29" width="1249.72" height="52.3"/>
  <rect class="cls-19" y="897.79" width="1293" height="52.3"/>
  <rect class="cls-20" x="21.64" y="872.54" width="1249.72" height="25.25"/>
  <rect class="cls-20" y="924.84" width="1293" height="25.25"/>
</svg>
