<svg xmlns="http://www.w3.org/2000/svg" viewBox="0 0 121 206">
  <defs>
    <style>
      .cls-1 {
        fill: #9babab;
      }

      .cls-2 {
        fill: #d3d6d0;
      }

      .cls-3, .cls-7 {
        fill: none;
      }

      .cls-3 {
        stroke: #424242;
        stroke-width: 0.25px;
      }

      .cls-3, .cls-6, .cls-7 {
        stroke-miterlimit: 10;
      }

      .cls-4 {
        font-size: 4.9px;
        font-family: MyriadPro-Regular, Myriad Pro;
      }

      .cls-5 {
        letter-spacing: 0.02em;
      }

      .cls-6 {
        fill: #fff;
      }

      .cls-6, .cls-7 {
        stroke: #ec1f00;
      }
    </style>
  </defs>
  <g id="bin">
    <g id="bin-2" data-name="bin">
      <rect class="cls-1" y="12" width="121" height="194"/>
      <rect class="cls-2" x="38" y="26" width="43" height="72.89" rx="5.16"/>
      <g id="holes">
        <polygon points="11.81 33.06 11.83 36.06 16.83 36.03 11.81 33.06"/>
        <polygon points="20.81 33.01 20.83 36.01 25.83 35.98 20.81 33.01"/>
        <polygon points="28.81 32.97 28.83 35.97 33.83 35.94 28.81 32.97"/>
        <polygon points="11.86 42.06 11.88 45.06 16.88 45.03 11.86 42.06"/>
        <polygon points="20.86 42.01 20.88 45.01 25.88 44.98 20.86 42.01"/>
        <polygon points="28.86 41.97 28.88 44.97 33.88 44.94 28.86 41.97"/>
        <polygon points="11.91 51.06 11.93 54.06 16.93 54.03 11.91 51.06"/>
        <polygon points="20.91 51.01 20.93 54.01 25.93 53.98 20.91 51.01"/>
        <polygon points="28.91 50.97 28.93 53.97 33.93 53.94 28.91 50.97"/>
        <polygon points="11.97 60.06 11.98 63.06 16.98 63.03 11.97 60.06"/>
        <polygon points="20.97 60.01 20.98 63.01 25.98 62.98 20.97 60.01"/>
        <polygon points="28.96 59.97 28.98 62.97 33.98 62.94 28.96 59.97"/>
        <polygon points="12.02 69.06 12.04 72.06 17.04 72.03 12.02 69.06"/>
        <polygon points="21.02 69.01 21.04 72.01 26.03 71.98 21.02 69.01"/>
        <polygon points="29.02 68.97 29.03 71.97 34.03 71.94 29.02 68.97"/>
        <polygon points="12.07 78.06 12.09 81.06 17.09 81.03 12.07 78.06"/>
        <polygon points="21.07 78.01 21.09 81.01 26.09 80.98 21.07 78.01"/>
        <polygon points="29.07 77.97 29.09 80.97 34.09 80.94 29.07 77.97"/>
        <polygon points="12.12 87.06 12.14 90.06 17.14 90.03 12.12 87.06"/>
        <polygon points="21.12 87.01 21.14 90.01 26.14 89.98 21.12 87.01"/>
        <polygon points="29.12 86.97 29.14 89.97 34.14 89.94 29.12 86.97"/>
        <polygon points="12.17 96.06 12.19 99.06 17.19 99.03 12.17 96.06"/>
        <polygon points="21.17 96.01 21.19 99.01 26.19 98.98 21.17 96.01"/>
        <polygon points="29.17 95.97 29.19 98.97 34.19 98.94 29.17 95.97"/>
        <polygon points="12 104 12 107 17 107 12 104"/>
        <polygon points="21 104 21 107 26 107 21 104"/>
        <polygon points="29 104 29 107 34 107 29 104"/>
        <polygon points="12 113 12 116 17 116 12 113"/>
        <polygon points="21 113 21 116 26 116 21 113"/>
        <polygon points="29 113 29 116 34 116 29 113"/>
        <polygon points="12 122 12 125 17 125 12 122"/>
        <polygon points="21 122 21 125 26 125 21 122"/>
        <polygon points="29 122 29 125 34 125 29 122"/>
        <polygon points="12 131 12 134 17 134 12 131"/>
        <polygon points="21 131 21 134 26 134 21 131"/>
        <polygon points="29 131 29 134 34 134 29 131"/>
        <polygon points="12 140 12 143 17 143 12 140"/>
        <polygon points="21 140 21 143 26 143 21 140"/>
        <polygon points="29 140 29 143 34 143 29 140"/>
        <polygon points="12 149 12 152 17 152 12 149"/>
        <polygon points="21 149 21 152 26 152 21 149"/>
        <polygon points="29 149 29 152 34 152 29 149"/>
        <polygon points="12 158 12 161 17 161 12 158"/>
        <polygon points="21 158 21 161 26 161 21 158"/>
        <polygon points="29 158 29 161 34 161 29 158"/>
        <polygon points="12 167 12 170 17 170 12 167"/>
        <polygon points="21 167 21 170 26 170 21 167"/>
        <polygon points="29 167 29 170 34 170 29 167"/>
        <polygon points="12 176 12 179 17 179 12 176"/>
        <polygon points="21 176 21 179 26 179 21 176"/>
        <polygon points="29 176 29 179 34 179 29 176"/>
        <polygon points="12 185 12 188 17 188 12 185"/>
        <polygon points="21 185 21 188 26 188 21 185"/>
        <polygon points="29 185 29 188 34 188 29 185"/>
        <polygon points="37 104 37 107 42 107 37 104"/>
        <polygon points="46 104 46 107 51 107 46 104"/>
        <polygon points="54 104 54 107 59 107 54 104"/>
        <polygon points="37 113 37 116 42 116 37 113"/>
        <polygon points="46 113 46 116 51 116 46 113"/>
        <polygon points="54 113 54 116 59 116 54 113"/>
        <polygon points="37 122 37 125 42 125 37 122"/>
        <polygon points="46 122 46 125 51 125 46 122"/>
        <polygon points="54 122 54 125 59 125 54 122"/>
        <polygon points="37 131 37 134 42 134 37 131"/>
        <polygon points="46 131 46 134 51 134 46 131"/>
        <polygon points="54 131 54 134 59 134 54 131"/>
        <polygon points="37 140 37 143 42 143 37 140"/>
        <polygon points="46 140 46 143 51 143 46 140"/>
        <polygon points="54 140 54 143 59 143 54 140"/>
        <polygon points="37 149 37 152 42 152 37 149"/>
        <polygon points="46 149 46 152 51 152 46 149"/>
        <polygon points="54 149 54 152 59 152 54 149"/>
        <polygon points="37 158 37 161 42 161 37 158"/>
        <polygon points="46 158 46 161 51 161 46 158"/>
        <polygon points="54 158 54 161 59 161 54 158"/>
        <polygon points="37 167 37 170 42 170 37 167"/>
        <polygon points="46 167 46 170 51 170 46 167"/>
        <polygon points="54 167 54 170 59 170 54 167"/>
        <polygon points="37 176 37 179 42 179 37 176"/>
        <polygon points="46 176 46 179 51 179 46 176"/>
        <polygon points="54 176 54 179 59 179 54 176"/>
        <polygon points="37 185 37 188 42 188 37 185"/>
        <polygon points="46 185 46 188 51 188 46 185"/>
        <polygon points="54 185 54 188 59 188 54 185"/>
        <polygon points="62 104 62 107 67 107 62 104"/>
        <polygon points="71 104 71 107 76 107 71 104"/>
        <polygon points="79 104 79 107 84 107 79 104"/>
        <polygon points="62 113 62 116 67 116 62 113"/>
        <polygon points="71 113 71 116 76 116 71 113"/>
        <polygon points="79 113 79 116 84 116 79 113"/>
        <polygon points="62 122 62 125 67 125 62 122"/>
        <polygon points="71 122 71 125 76 125 71 122"/>
        <polygon points="79 122 79 125 84 125 79 122"/>
        <polygon points="62 131 62 134 67 134 62 131"/>
        <polygon points="71 131 71 134 76 134 71 131"/>
        <polygon points="79 131 79 134 84 134 79 131"/>
        <polygon points="62 140 62 143 67 143 62 140"/>
        <polygon points="71 140 71 143 76 143 71 140"/>
        <polygon points="79 140 79 143 84 143 79 140"/>
        <polygon points="62 149 62 152 67 152 62 149"/>
        <polygon points="71 149 71 152 76 152 71 149"/>
        <polygon points="79 149 79 152 84 152 79 149"/>
        <polygon points="62 158 62 161 67 161 62 158"/>
        <polygon points="71 158 71 161 76 161 71 158"/>
        <polygon points="79 158 79 161 84 161 79 158"/>
        <polygon points="62 167 62 170 67 170 62 167"/>
        <polygon points="71 167 71 170 76 170 71 167"/>
        <polygon points="79 167 79 170 84 170 79 167"/>
        <polygon points="62 176 62 179 67 179 62 176"/>
        <polygon points="71 176 71 179 76 179 71 176"/>
        <polygon points="79 176 79 179 84 179 79 176"/>
        <polygon points="62 185 62 188 67 188 62 185"/>
        <polygon points="71 185 71 188 76 188 71 185"/>
        <polygon points="79 185 79 188 84 188 79 185"/>
        <polygon points="87 104 87 107 92 107 87 104"/>
        <polygon points="96 104 96 107 101 107 96 104"/>
        <polygon points="104 104 104 107 109 107 104 104"/>
        <polygon points="87 113 87 116 92 116 87 113"/>
        <polygon points="96 113 96 116 101 116 96 113"/>
        <polygon points="104 113 104 116 109 116 104 113"/>
        <polygon points="87 122 87 125 92 125 87 122"/>
        <polygon points="96 122 96 125 101 125 96 122"/>
        <polygon points="104 122 104 125 109 125 104 122"/>
        <polygon points="87 131 87 134 92 134 87 131"/>
        <polygon points="96 131 96 134 101 134 96 131"/>
        <polygon points="104 131 104 134 109 134 104 131"/>
        <polygon points="87 140 87 143 92 143 87 140"/>
        <polygon points="96 140 96 143 101 143 96 140"/>
        <polygon points="104 140 104 143 109 143 104 140"/>
        <polygon points="87 149 87 152 92 152 87 149"/>
        <polygon points="96 149 96 152 101 152 96 149"/>
        <polygon points="104 149 104 152 109 152 104 149"/>
        <polygon points="87 158 87 161 92 161 87 158"/>
        <polygon points="96 158 96 161 101 161 96 158"/>
        <polygon points="104 158 104 161 109 161 104 158"/>
        <polygon points="87 167 87 170 92 170 87 167"/>
        <polygon points="96 167 96 170 101 170 96 167"/>
        <polygon points="104 167 104 170 109 170 104 167"/>
        <polygon points="87 176 87 179 92 179 87 176"/>
        <polygon points="96 176 96 179 101 179 96 176"/>
        <polygon points="104 176 104 179 109 179 104 176"/>
        <polygon points="87 185 87 188 92 188 87 185"/>
        <polygon points="96 185 96 188 101 188 96 185"/>
        <polygon points="104 185 104 188 109 188 104 185"/>
        <polygon points="11.4 25.78 11.41 28.78 16.41 28.75 11.4 25.78"/>
        <polygon points="20.4 25.73 20.41 28.73 25.41 28.7 20.4 25.73"/>
        <polygon points="28.4 25.68 28.41 28.68 33.41 28.66 28.4 25.68"/>
        <polygon points="86.94 32.1 86.95 35.1 91.95 35.07 86.94 32.1"/>
        <polygon points="95.94 32.05 95.95 35.05 100.95 35.02 95.94 32.05"/>
        <polygon points="103.94 32 103.95 35 108.95 34.97 103.94 32"/>
        <polygon points="86.99 41.1 87 44.1 92 44.07 86.99 41.1"/>
        <polygon points="95.99 41.05 96 44.05 101 44.02 95.99 41.05"/>
        <polygon points="103.99 41 104 44 109 43.97 103.99 41"/>
        <polygon points="87.04 50.1 87.06 53.1 92.06 53.07 87.04 50.1"/>
        <polygon points="96.04 50.05 96.06 53.05 101.06 53.02 96.04 50.05"/>
        <polygon points="104.04 50 104.06 53 109.06 52.97 104.04 50"/>
        <polygon points="87.09 59.1 87.11 62.1 92.11 62.07 87.09 59.1"/>
        <polygon points="96.09 59.05 96.11 62.05 101.11 62.02 96.09 59.05"/>
        <polygon points="104.09 59 104.11 62 109.11 61.97 104.09 59"/>
        <polygon points="87.14 68.1 87.16 71.1 92.16 71.07 87.14 68.1"/>
        <polygon points="96.14 68.05 96.16 71.05 101.16 71.02 96.14 68.05"/>
        <polygon points="104.14 68 104.16 71 109.16 70.97 104.14 68"/>
        <polygon points="87.19 77.1 87.21 80.1 92.21 80.07 87.19 77.1"/>
        <polygon points="96.19 77.05 96.21 80.05 101.21 80.02 96.19 77.05"/>
        <polygon points="104.19 77 104.21 80 109.21 79.97 104.19 77"/>
        <polygon points="87.25 86.1 87.26 89.1 92.26 89.07 87.25 86.1"/>
        <polygon points="96.25 86.05 96.26 89.04 101.26 89.02 96.25 86.05"/>
        <polygon points="104.25 86 104.26 89 109.26 88.97 104.25 86"/>
        <polygon points="87.3 95.1 87.31 98.1 92.31 98.07 87.3 95.1"/>
        <polygon points="96.3 95.04 96.31 98.04 101.31 98.02 96.3 95.04"/>
        <polygon points="104.3 95 104.31 98 109.31 97.97 104.3 95"/>
        <polygon points="86.52 24.82 86.54 27.82 91.54 27.79 86.52 24.82"/>
        <polygon points="95.52 24.76 95.54 27.76 100.54 27.73 95.52 24.76"/>
        <polygon points="103.52 24.72 103.54 27.72 108.54 27.69 103.52 24.72"/>
      </g>
      <rect class="cls-1" width="121" height="10" rx="1.36"/>
      <line class="cls-3" x1="38" y1="36.64" x2="81" y2="36.64"/>
      <text class="cls-4" transform="translate(53.87 33.78)">No Smo<tspan class="cls-5" x="16.14" y="0">k</tspan><tspan x="18.52" y="0">ing</tspan></text>
      <circle class="cls-6" cx="59.5" cy="65.5" r="17"/>
      <rect x="45" y="63" width="25" height="3"/>
      <line class="cls-7" x1="49.5" y1="51.5" x2="70.5" y2="77.5"/>
      <rect x="70.25" y="63" width="1" height="3"/>
      <path d="M65,55a7.47,7.47,0,0,0,2,4c1.91,1.89,4.73,2.23,5,4a2.66,2.66,0,0,1,0,1,3.06,3.06,0,0,1-.24-.77C71.35,61.52,69.24,60.11,68,59A13.12,13.12,0,0,1,65,55Z"/>
      <path d="M65.24,52.88a7.4,7.4,0,0,0,2,4c1.91,1.9,4.73,2.23,5,4a3.19,3.19,0,0,1,0,1c-.07,0-.2-.6-.24-.76-.41-1.71-2.52-3.13-3.76-4.24A13,13,0,0,1,65.24,52.88Z"/>
    </g>
  </g>
</svg>
