<svg id="Layer_15" data-name="Layer 15" xmlns="http://www.w3.org/2000/svg" viewBox="0 0 1010 555">
  <defs>
    <style>
      .cls-1 {
        fill: #ff9d28;
      }

      .cls-2 {
        fill: #5c000b;
      }

      .cls-3, .cls-5 {
        fill: #fc0001;
      }

      .cls-4 {
        fill: #fdc816;
      }

      .cls-5 {
        stroke: #000;
        stroke-miterlimit: 10;
        stroke-width: 2px;
      }

      .cls-6 {
        fill: #230505;
      }

      .cls-7 {
        fill: #fec916;
      }

      .cls-8 {
        fill: #5bb186;
      }
    </style>
  </defs>
  <rect class="cls-1" x="247" y="165" width="37" height="368"/>
  <rect class="cls-1" x="726" y="165" width="37" height="368"/>
  <rect class="cls-1" x="94" y="319" width="37" height="214"/>
  <rect class="cls-1" x="879" y="319" width="37" height="214"/>
  <rect class="cls-2" x="227" y="533" width="77" height="22"/>
  <rect class="cls-2" x="706" y="533" width="77" height="22"/>
  <rect class="cls-2" x="865" y="533" width="65" height="22"/>
  <rect class="cls-2" x="80" y="533" width="65" height="22"/>
  <rect class="cls-2" x="233" y="138" width="544" height="27"/>
  <rect class="cls-2" x="80" y="284" width="167" height="35"/>
  <rect class="cls-2" x="763" y="284" width="167" height="35"/>
  <rect class="cls-2" x="146" y="272" width="52" height="12"/>
  <rect class="cls-2" x="812" y="272" width="52" height="12"/>
  <rect class="cls-3" x="284" y="185" width="442" height="78"/>
  <rect class="cls-4" x="284" y="202" width="442" height="5"/>
  <rect class="cls-4" x="284" y="238" width="442" height="5"/>
  <rect class="cls-5" x="448" y="165" width="113" height="113"/>
  <rect x="284" y="279" width="442" height="5"/>
  <g>
    <g>
      <rect class="cls-6" x="328.08" y="283" width="2.92" height="19.42" rx="1.14"/>
      <rect class="cls-6" x="328.72" y="339" width="2.28" height="12" rx="1.14"/>
      <path class="cls-3" d="M330,301c-8.82,3.72-15,9.88-15,16a16.25,16.25,0,0,0,1,5c1.09,2.95,2.71,4.67,8,10,2.61,2.63,4.72,4.73,6,6a50.28,50.28,0,0,1,5-6c4.29-4.38,7.26-5.75,9-10a15.14,15.14,0,0,0,1-4C345.44,312,339.17,305.44,330,301Z"/>
      <path class="cls-7" d="M322,306a22,22,0,0,0-3.38,8.13A22.93,22.93,0,0,0,321,329l4,4a34.08,34.08,0,0,1,1-30Z"/>
      <path class="cls-7" d="M336.75,305.74a22.09,22.09,0,0,1,3.37,8.13,22.94,22.94,0,0,1-2.37,14.87l-4,4a34.08,34.08,0,0,0-1-30Z"/>
    </g>
    <g>
      <rect class="cls-6" x="386.77" y="284.08" width="2.92" height="19.42" rx="1.14"/>
      <rect class="cls-6" x="387.41" y="340.08" width="2.28" height="12" rx="1.14"/>
      <path class="cls-3" d="M388.69,302.08c-8.82,3.71-15,9.88-15,16a16.33,16.33,0,0,0,1,5c1.09,2.94,2.71,4.67,8,10l6,6a48.69,48.69,0,0,1,5-6c4.29-4.39,7.26-5.75,9-10a14.73,14.73,0,0,0,1-4C404.13,313.08,397.86,306.51,388.69,302.08Z"/>
      <path class="cls-7" d="M380.69,307.08a22,22,0,0,0-3.37,8.12,23,23,0,0,0,2.37,14.88l4,4a34.08,34.08,0,0,1,1-30Z"/>
      <path class="cls-7" d="M395.44,306.82a22,22,0,0,1,3.38,8.13,22.93,22.93,0,0,1-2.38,14.87l-4,4a34.08,34.08,0,0,0-1-30Z"/>
    </g>
    <g>
      <rect class="cls-6" x="443.77" y="282.08" width="2.92" height="19.42" rx="1.14"/>
      <rect class="cls-6" x="444.41" y="338.08" width="2.28" height="12" rx="1.14"/>
      <path class="cls-3" d="M445.69,300.08c-8.82,3.71-15,9.88-15,16a16.33,16.33,0,0,0,1,5c1.09,2.94,2.71,4.67,8,10l6,6a48.69,48.69,0,0,1,5-6c4.29-4.39,7.26-5.75,9-10a14.73,14.73,0,0,0,1-4C461.13,311.08,454.86,304.51,445.69,300.08Z"/>
      <path class="cls-7" d="M437.69,305.08a22,22,0,0,0-3.37,8.12,23,23,0,0,0,2.37,14.88l4,4a34.08,34.08,0,0,1,1-30Z"/>
      <path class="cls-7" d="M452.44,304.82a22,22,0,0,1,3.38,8.13,22.93,22.93,0,0,1-2.38,14.87l-4,4a34.08,34.08,0,0,0-1-30Z"/>
    </g>
    <g>
      <rect class="cls-6" x="502.77" y="281.08" width="2.92" height="19.42" rx="1.14"/>
      <rect class="cls-6" x="503.41" y="337.08" width="2.28" height="12" rx="1.14"/>
      <path class="cls-3" d="M504.69,299.08c-8.82,3.71-15,9.88-15,16a16.33,16.33,0,0,0,1,5c1.09,2.94,2.71,4.67,8,10l6,6a48.69,48.69,0,0,1,5-6c4.29-4.39,7.26-5.75,9-10a14.73,14.73,0,0,0,1-4C520.13,310.08,513.86,303.51,504.69,299.08Z"/>
      <path class="cls-7" d="M496.69,304.08a22,22,0,0,0-3.37,8.12,23,23,0,0,0,2.37,14.88l4,4a34.08,34.08,0,0,1,1-30Z"/>
      <path class="cls-7" d="M511.44,303.82a22,22,0,0,1,3.38,8.13,22.93,22.93,0,0,1-2.38,14.87l-4,4a34.08,34.08,0,0,0-1-30Z"/>
    </g>
    <g>
      <rect class="cls-6" x="561.63" y="283.89" width="2.92" height="19.42" rx="1.14"/>
      <rect class="cls-6" x="562.27" y="339.89" width="2.28" height="12" rx="1.14"/>
      <path class="cls-3" d="M563.55,301.89c-8.83,3.71-15,9.88-15,16a15.94,15.94,0,0,0,1,5c1.09,2.95,2.7,4.67,8,10,2.61,2.63,4.72,4.73,6,6a47.8,47.8,0,0,1,5-6c4.29-4.39,7.25-5.75,9-10a15.58,15.58,0,0,0,1-4C579,312.89,572.71,306.32,563.55,301.89Z"/>
      <path class="cls-7" d="M555.55,306.89a21.77,21.77,0,0,0-3.38,8.12,23,23,0,0,0,2.38,14.88l4,4a34.08,34.08,0,0,1,1-30Z"/>
      <path class="cls-7" d="M570.3,306.63a22,22,0,0,1,3.37,8.13,23,23,0,0,1-2.37,14.87l-4,4a34.08,34.08,0,0,0-1-30Z"/>
    </g>
    <g>
      <rect class="cls-6" x="620.63" y="282.89" width="2.92" height="19.42" rx="1.14"/>
      <rect class="cls-6" x="621.27" y="338.89" width="2.28" height="12" rx="1.14"/>
      <path class="cls-3" d="M622.55,300.89c-8.83,3.71-15,9.88-15,16a15.94,15.94,0,0,0,1,5c1.09,2.95,2.7,4.67,8,10,2.61,2.63,4.72,4.73,6,6a47.8,47.8,0,0,1,5-6c4.29-4.39,7.25-5.75,9-10a15.58,15.58,0,0,0,1-4C638,311.89,631.71,305.32,622.55,300.89Z"/>
      <path class="cls-7" d="M614.55,305.89a21.77,21.77,0,0,0-3.38,8.12,23,23,0,0,0,2.38,14.88l4,4a34.08,34.08,0,0,1,1-30Z"/>
      <path class="cls-7" d="M629.3,305.63a22,22,0,0,1,3.37,8.13,23,23,0,0,1-2.37,14.87l-4,4a34.08,34.08,0,0,0-1-30Z"/>
    </g>
    <g>
      <rect class="cls-6" x="678.63" y="282.89" width="2.92" height="19.42" rx="1.14"/>
      <rect class="cls-6" x="679.27" y="338.89" width="2.28" height="12" rx="1.14"/>
      <path class="cls-3" d="M680.55,300.89c-8.83,3.71-15,9.88-15,16a15.94,15.94,0,0,0,1,5c1.09,2.95,2.7,4.67,8,10,2.61,2.63,4.72,4.73,6,6a47.8,47.8,0,0,1,5-6c4.29-4.39,7.25-5.75,9-10a15.58,15.58,0,0,0,1-4C696,311.89,689.71,305.32,680.55,300.89Z"/>
      <path class="cls-7" d="M672.55,305.89a21.77,21.77,0,0,0-3.38,8.12,23,23,0,0,0,2.38,14.88l4,4a34.08,34.08,0,0,1,1-30Z"/>
      <path class="cls-7" d="M687.3,305.63a22,22,0,0,1,3.37,8.13,23,23,0,0,1-2.37,14.87l-4,4a34.08,34.08,0,0,0-1-30Z"/>
    </g>
  </g>
  <g>
    <g>
      <rect class="cls-6" x="157.36" y="410.3" width="2.92" height="19.42" rx="1.14"/>
      <rect class="cls-6" x="158" y="466.3" width="2.28" height="12" rx="1.14"/>
      <path class="cls-3" d="M159.28,428.3c-8.82,3.71-15,9.88-15,16a15.94,15.94,0,0,0,1,5c1.09,2.95,2.7,4.67,8,10,2.61,2.63,4.72,4.73,6,6a49.47,49.47,0,0,1,5-6c4.29-4.38,7.26-5.75,9-10a15.14,15.14,0,0,0,1-4C174.72,439.3,168.44,432.74,159.28,428.3Z"/>
      <path class="cls-7" d="M151.28,433.3a21.77,21.77,0,0,0-3.38,8.12,22.94,22.94,0,0,0,2.38,14.88l4,4a34.08,34.08,0,0,1,1-30Z"/>
      <path class="cls-7" d="M166,433a22,22,0,0,1,3.37,8.13A22.94,22.94,0,0,1,167,456l-4,4a34.08,34.08,0,0,0-1-30Z"/>
    </g>
    <g>
      <rect class="cls-6" x="212.43" y="409.85" width="2.92" height="19.42" rx="1.14"/>
      <rect class="cls-6" x="213.08" y="465.85" width="2.28" height="12" rx="1.14"/>
      <path class="cls-3" d="M214.36,427.85c-8.83,3.71-15,9.88-15,16a16,16,0,0,0,1,5c1.08,2.94,2.7,4.67,8,10,2.61,2.63,4.72,4.72,6,6a47.8,47.8,0,0,1,5-6c4.28-4.39,7.25-5.75,9-10a15.58,15.58,0,0,0,1-4C229.8,438.85,223.52,432.28,214.36,427.85Z"/>
      <path class="cls-7" d="M206.36,432.85A21.77,21.77,0,0,0,203,441a23,23,0,0,0,2.38,14.88l4,4a34.08,34.08,0,0,1,1-30Z"/>
      <path class="cls-7" d="M221.1,432.59a21.77,21.77,0,0,1,3.38,8.12,22.94,22.94,0,0,1-2.38,14.88l-4,4a34.08,34.08,0,0,0-1-30Z"/>
    </g>
  </g>
  <rect x="131" y="407" width="116" height="4"/>
  <rect class="cls-5" x="159" y="319" width="56" height="90"/>
  <g>
    <g>
      <rect class="cls-6" x="789.69" y="410.53" width="2.92" height="19.42" rx="1.14"/>
      <rect class="cls-6" x="790.34" y="466.53" width="2.28" height="12" rx="1.14"/>
      <path class="cls-3" d="M791.61,428.53c-8.82,3.71-15,9.88-15,16a16.65,16.65,0,0,0,1,5c1.09,2.94,2.71,4.67,8,10,2.62,2.63,4.73,4.73,6,6a48.69,48.69,0,0,1,5-6c4.29-4.39,7.26-5.75,9-10a14.73,14.73,0,0,0,1-4C807.05,439.53,800.78,433,791.61,428.53Z"/>
      <path class="cls-7" d="M783.61,433.53a22,22,0,0,0-3.37,8.12,23,23,0,0,0,2.37,14.88l4,4a34.08,34.08,0,0,1,1-30Z"/>
      <path class="cls-7" d="M798.36,433.27a21.85,21.85,0,0,1,3.38,8.12,22.94,22.94,0,0,1-2.38,14.88l-4,4a34.08,34.08,0,0,0-1-30Z"/>
    </g>
    <g>
      <rect class="cls-6" x="844.77" y="410.07" width="2.92" height="19.42" rx="1.14"/>
      <rect class="cls-6" x="845.41" y="466.07" width="2.28" height="12" rx="1.14"/>
      <path class="cls-3" d="M846.69,428.07c-8.82,3.72-15,9.89-15,16a16.17,16.17,0,0,0,1,5c1.09,2.95,2.71,4.67,8,10,2.62,2.63,4.72,4.73,6,6a50.28,50.28,0,0,1,5-6c4.29-4.38,7.26-5.75,9-10a14.5,14.5,0,0,0,1-4C862.13,439.07,855.86,432.51,846.69,428.07Z"/>
      <path class="cls-7" d="M838.69,433.07a22.09,22.09,0,0,0-3.37,8.13,22.94,22.94,0,0,0,2.37,14.87l4,4a34.08,34.08,0,0,1,1-30Z"/>
      <path class="cls-7" d="M853.44,432.82a21.94,21.94,0,0,1,3.38,8.12,23,23,0,0,1-2.38,14.88l-4,4a34.08,34.08,0,0,0-1-30Z"/>
    </g>
  </g>
  <rect x="763.34" y="407.23" width="116" height="4"/>
  <rect class="cls-5" x="791.34" y="319.23" width="56" height="90"/>
  <path class="cls-8" d="M247,273l-82-1L75,274c-1.5.79-36,18.24-61-1.05A48.37,48.37,0,0,1,0,255.07a58.2,58.2,0,0,0,25.5-2.19C42,247.46,62.67,232.47,75,193H247Z"/>
  <path class="cls-8" d="M763,273l82-1,90,2.1c1.5.79,36,18.24,61-1.05a48.37,48.37,0,0,0,14-17.89,58.2,58.2,0,0,1-25.5-2.19C968,247.46,947.33,232.47,935,193H763Z"/>
  <path class="cls-8" d="M507,142h0Z"/>
  <path class="cls-8" d="M899,124.07A59.81,59.81,0,0,1,876.72,142c-39.77,19.29-94.66,1.84-97.05,1l-143.2-2.1L507,142h-1l-130.47-1L231.24,143c-2.4.79-57.72,18.24-97.79-1A60.18,60.18,0,0,1,111,124.07a147.56,147.56,0,0,0,40.88-2.19c26.48-5.42,59.6-20.41,79.36-59.88H779.67c19.61,39.47,52.48,54.46,78.76,59.88A145.36,145.36,0,0,0,899,124.07Z"/>
  <path class="cls-8" d="M506.5,142h0Z"/>
  <path class="cls-1" d="M210.66,9.84l3.13-3.9,12,.39,6.13-3.8s19,1.61,23.09-2.26-5.36,10.84-5.36,10.84a28.82,28.82,0,0,1,8.54,14.28c2.36,10.43-3.21,18-.64,20,4,3.11,15.91-16.49,31.53-16,17.15.55,25.87,24.91,36.33,21.19,3.69-1.31,6.76-5.82,7.32-9.77.68-4.75-2.58-6.46-2.61-12.09,0-7.28,5.4-13.21,6.42-12.8s-2.89,6.5-.42,13c1.79,4.71,5,4.57,6.71,9.23,2.1,5.75-.72,11.61-1.42,13-4.48,8.58-14.54,10.18-16.35,10.47-11.71,1.87-21.22-5.48-22.8-6.74-7.93-6.34-8.51-13.33-13.57-13.45-2.32-.05-3.37,1.4-10.25,7.68C265.91,60.48,263.29,61.25,262,61.53A18.61,18.61,0,0,1,245.19,56c-7.35-8.16.22-18-6.16-26.21-7.78-10-27.6-6.35-27.72-8.9-.05-.83,2-2,10.12-3.67Z"/>
  <path class="cls-1" d="M799.1,10,796,6.11l-12,.36-6.12-3.82s-19,1.56-23.08-2.32,5.33,10.85,5.33,10.85a28.86,28.86,0,0,0-8.58,14.26c-2.39,10.42,3.16,18,.59,20-4,3.1-15.87-16.53-31.49-16.07-17.15.5-25.94,24.84-36.39,21.09-3.69-1.32-6.74-5.84-7.29-9.79-.67-4.75,2.6-6.46,2.64-12.08,0-7.28-5.36-13.23-6.39-12.82s2.88,6.51.39,13c-1.8,4.69-5,4.55-6.73,9.2-2.12,5.75.69,11.62,1.39,13,4.45,8.6,14.51,10.23,16.32,10.52,11.7,1.9,21.22-5.42,22.81-6.68,8-6.32,8.55-13.3,13.61-13.41,2.32-.05,3.37,1.41,10.23,7.7,12.49,11.46,15.11,12.24,16.38,12.52a18.62,18.62,0,0,0,16.84-5.5c7.37-8.15-.17-18,6.23-26.2,7.81-10,27.61-6.28,27.75-8.83,0-.83-2-2-10.12-3.7Z"/>
</svg>
