<?xml version="1.0" encoding="utf-8"?>
<!-- Generator: Adobe Illustrator 24.1.0, SVG Export Plug-In . SVG Version: 6.00 Build 0)  -->
<svg version="1.1" id="Layer_1" xmlns="http://www.w3.org/2000/svg" xmlns:xlink="http://www.w3.org/1999/xlink" x="0px" y="0px"
	 viewBox="0 0 2246.3 182.4" style="enable-background:new 0 0 2246.3 182.4;" xml:space="preserve">
<style type="text/css">
	.st0{fill:#ADEAFE;}
</style>
<path class="st0" d="M2246.8,76.2v-292.1H1.1v286c-1,0.1-1.2,0.7-1.1,2.1c0.1,4.7,0,9.3,0,14h0.1v3H0l-0.4,12.9
	c0.1,0.1,0.3,0.2,0.4,0.3c4.4,3.2,9.3,4.3,14.4,1.7c2.4-1.2,3.1,0,4,1.9c5,10,15.8,15.8,27,14.4c4.8-0.6,9.5-1.2,13.8-3.7
	c1.7-1,3.1-0.7,4.4,0.7c13.4,13.7,32.5,11.9,46.9,0.5c0.2-0.3,0.3-0.7,0.5-1c0,0,0,0,0-0.1c1.8-3.7,3.5-6.6,9.2-3.6
	c3.9,2.1,8.4-0.1,11.6-3.4c1.5-1.5,2.4-2.2,4.5-0.9c11.1,6.7,22.2,5.8,33.3-0.1c0.4-0.3,0.8-0.6,1.1-1c3.7-4.1,7.1-5.1,12.8-2.5
	c7.1,3.3,13.9,0.2,18.7-5.9c1.7-2.1,2.9-2.8,5.7-1.6c4.4,1.8,9,2.1,13.3-0.8c1.6-1.1,2.9-1.2,4.2,0.6c6.3,8.7,16.7,9,22.7,1.3
	c0.5-0.6,1.8-1.6,1.9-1.2c2.4,6.2,9.7-1,12,4.3c1.1,2.1,2.3,4,3.6,5.9c2.8,2.3,6.4,3.1,9.2,1.6c4.7-2.5,5.9-0.6,6.4,2.4
	c0.1,0.6,0.2,1.3,0.3,2.1c6.9,11.8,17.2,17.7,30.9,16.8c6.9-0.5,13.1-3.4,19.2-6.3c0.9-1.4,1.8-3.5,3.4-2.9c0.3,0.1,0.5,0.2,0.7,0.4
	c0,0,0.1,0,0.1,0.1c1.9,1.2,1.7,3.8,2.2,5.9c-0.1,0-0.1,0-0.2,0c4.1,5.3,9,8.5,16.1,6.2c1.7-0.5,2.6,0.1,3.7,1.5
	c6,7.8,12.6,8.6,20.4,2.3c1.4-1.1,2.3-1.5,3.8-0.3c7,5.8,14.7,6.6,22.9,3.4c2.9-4.4,6.3-7.8,12.1-8c5.3-0.1,8.5-3.3,9.9-8.3
	c0-0.2,0.1-0.3,0.1-0.5c0.6-1.4,14.8-7.6,16.3-7.1c0.1,0,0.2,0.1,0.3,0.1c0.1,0,0.3,0.1,0.4,0.1c5.8,1.8,9.5,0.4,13-4.8
	c1-1.5,9-3.9,10.7-3c0.2,0,0.3,0.1,0.4,0.2c1,0.8,2,1.3,3,1.7c0.2,0.1,0.3,0.1,0.5,0.2c2.6,0.7,5.1,0.2,7.8-1.5
	c0.8-0.6,1.9-0.8,2.8-0.5l0,0c0.6,0.1,1.1,0.4,1.5,0.8c1.1,0.9,2.3,1.7,3.5,2.3h0.1c4.5,2.1,9.5,2.5,14.5,2.3l1.9-0.1
	c7.6-2.6,13.7-6.6,15.9-14.8c0.1,0,0.2,0,0.3,0l0.1-0.1l1.9-1.8l0,0c0.6-1.2,1.4-1.7,2.4-1.9c-0.9,0.2-1.8,0.7-2.4,1.9l0.1-0.1
	c0.8,1,1.8,1.9,2.8,2.8c10.1,7,20.6,6.7,30.9,0.7c3.2-1.9,5.3-2.3,7.5,1c1.7,2.6,5.3,3.9,7.5,3c6.5-2.6,9.2-0.1,13.2,5.2
	c8.4,11.2,22.4,13.2,36,6.6c3-1.5,4.9-1.3,7.4,1.1c11.7,11.1,30.2,11.1,42.3,1.3c0.4-0.3,0.8-0.6,1.2-1c0.7-0.6,1.4-1.3,2-2
	c0.9-1,1.7-2,2.5-3.1c0.1-0.2,0.2-0.3,0.4-0.5l0.1-0.1c0.1-0.1,0.2-0.2,0.3-0.3c1.2-1.4,2.3-1.5,4.2-0.5c2.3,1.3,4.6,1.7,6.7,1.4
	c0.2,0,0.3,0,0.5-0.1c0.5-0.1,1-0.2,1.6-0.4c1.3-0.5,2.5-1.2,3.7-2.1c0.1-0.1,0.2-0.2,0.4-0.3c0.2-0.2,0.4-0.3,0.6-0.5
	c0.2-0.2,0.3-0.3,0.5-0.5c0.1-0.1,0.2-0.2,0.4-0.4c1.6-1.5,2.6-1.5,4.7-0.2c7.1,4.1,14.3,5.4,21.2,4.2c0.6-0.1,1.1-0.2,1.7-0.4
	c0.5-0.1,0.9-0.2,1.3-0.4c4.5-1.4,8.7-3.9,12.7-7.6c0.3-0.3,0.7-0.6,1-0.8c0.1-0.1,0.3-0.2,0.4-0.2c1.5-0.9,2.9-0.9,4.9-0.1
	c7.8,3.7,13.9,3.2,19.5-1.7c0.2-0.2,0.4-0.4,0.6-0.6c0.5-0.5,1-0.9,1.5-1.5c0.3-0.3,0.5-0.6,0.8-0.9l0.1-0.1c0-0.1,0.1-0.1,0.1-0.2
	c0.1-0.1,0.2-0.2,0.3-0.3c0.1-0.1,0.2-0.2,0.3-0.3c1.4-1.3,2.5-1.6,4.7-0.6c4.1,1.8,8.5,2.1,12.5-0.3c2.7-1.6,4-1.5,6,1.2
	c5,6.5,12.9,7.8,18.8,2.9c0.1-0.1,0.3-0.2,0.4-0.3c0.2-0.2,0.4-0.3,0.5-0.4c0.4-0.3,0.7-0.6,1.1-0.8c0.1-0.1,0.2-0.1,0.2-0.2
	c0,0,0,0,0.1,0c2.1-1.4,4-1.9,6.7,0.6c1.1,0.8,2.7,0.8,3.8,0c2.9-2.2,3.5-0.2,4.3,2c2.3,6.1,7.1,9.4,12.2,7.1c5.6-2.5,6.6-0.1,7,4.4
	c0,0-0.1,0-0.1-0.1c0,0.1,0,0.1,0,0.2c6.8,12.1,17.2,17.6,30.9,17.2c6.9-0.3,13-3.5,19.2-6.3l0.1-0.1c0,0-0.1-0.1-0.1-0.2l2.9-3.4
	l0.1-0.2h1.8v0.1c0.4,2.3,0.8,4.5,1.2,6.8l0,0v0.1c4.2,5.5,9.1,8.8,16.3,6.4c1.7-0.6,2.6,0.1,3.7,1.5c5.8,7.6,13,8.5,20,2.6
	c1.5-1.2,2.4-2.2,4.2-0.6c6.8,6,14.6,6.4,22.8,3.3v-0.1l0,0c3-4,5.6-7.7,11.7-7.6c3.2,0.1,6.2-1.3,8.2-3.7c0.2-0.2,0.3-0.4,0.5-0.6
	c0.8-1.2,1.4-2.7,1.6-4.2v-0.3c0.3-1.8,2-3.1,3.8-2.8h0.6c0.3,0,0.6,0,0.8,0s0.3,0,0.5-0.1c0.5-0.1,0.9-0.2,1.3-0.4
	c0.1,0,0.2-0.1,0.3-0.1c0.1-0.1,0.2-0.1,0.4-0.2c0.1,0,0.1-0.1,0.2-0.1c0.1,0,0.2-0.1,0.3-0.2s0.2-0.1,0.3-0.2
	c0.3-0.2,0.5-0.4,0.8-0.6c0.7-0.6,1.4-1.3,2.1-1.8c0.1-0.1,0.2-0.2,0.3-0.3c0.1-0.1,0.2-0.2,0.3-0.2c0.1-0.1,0.2-0.1,0.2-0.2
	c0.6-0.4,1.2-0.7,1.8-0.7c0.1,0,0.1,0,0.2,0c0.1,0,0.2,0,0.3,0s0.2,0,0.3,0c2.3-0.1,4.8,1.1,7.3,1.2c0.2,0,0.3,0,0.5,0s0.4,0,0.6,0
	c0.1,0,0.2,0,0.3,0c0.4-0.1,0.7-0.1,1.1-0.3c1.4-0.5,3.3-1.3,3.7-2.4c0.7-1.9,1.8-3,3.2-3.6c0.2-0.1,0.4-0.2,0.7-0.3
	c0.2-0.1,0.4-0.2,0.6-0.2c1.4-0.5,2.9-0.7,4.4-1.1h0.1c0.4-0.1,0.9-0.3,1.3-0.5c0.3-0.1,0.6-0.2,0.9-0.2c0.1,0,0.2,0,0.2,0
	c1,0,1.8,0.7,2.6,1.3c0.6,0.4,1.1,0.8,1.7,1c0,0,0,0,0.1,0c2.6,1.1,5.3,0.7,8-0.7c0.4-0.2,0.8-0.4,1.1-0.6h0.1
	c1.3-0.6,2.5-0.8,3.9,0.3c2.5,2,5.2,3.2,8.1,4l0,0c0.4,0.1,0.8,0.2,1.2,0.3c0.5,0.1,1,0.2,1.4,0.2c0.6,0.1,1.2,0.1,1.8,0.2
	c0.2,0,0.5,0,0.8,0c0.5,0,1,0.1,1.5,0.1c0.2,0,0.4,0,0.7,0c0.9,0,1.8,0,2.8,0l1.8-0.1c0,0,0,0,0.1,0c0,0,0-0.1-0.1-0.1
	c7.6-2.5,13.7-6.6,16-14.9v-0.1v-0.1c0.8-1.4,1.2-3.2,3.4-1.1c10.3,9.9,24,8.4,33.9,2c1.3-0.9,2.5-2.4,4-0.8c0,0,0.1,0,0.1,0.1
	c0.2,0.2,0.4,0.4,0.6,0.8c0.3,0.4,0.5,0.8,0.8,1.1c0.1,0.1,0.2,0.3,0.4,0.4c3.6,3.8,8.2,3.6,13.1,1.8c1.5-0.5,2.7-1,3.6,0
	c0.4,0.3,0.7,0.8,0.9,1.5c0.8,2.6,2.3,4.9,4.2,6.9c0.2,0.2,0.4,0.4,0.5,0.6c0.2,0.2,0.4,0.4,0.6,0.6c7.8,7,21.2,9.7,32.5,4.1
	c3.9-1.9,6.2-1.6,9.4,1.5c11.5,10.7,30.3,10.1,43.8-1l1.9-1.6c0.1,0.1,0.1,0.2,0.2,0.3l0,0c0,0,0-0.1,0.1-0.1c0,0,0-0.1-0.1-0.1
	c3-6.2,3-6.2,8.1-3c2.7,0.5,5.3-0.2,8-0.8c4.5-5.1,9.4-5.1,14.5-0.9c1.3,1.1,3.3,0.4,4.5,1.8v0.1h4v-0.1c6.8,0.3,13-1.8,18.9-4.9
	c0-0.1,0-0.1-0.1-0.2c0.4-0.3,0.7-0.6,1.1-1c3.6-4.2,7.1-5.1,12.8-2.5c7.1,3.3,14,0.3,18.9-5.9c1.7-2.2,3.1-2.9,5.7-1.5
	c4.4,2.3,9,2.2,13.1-0.9c1.8-1.3,3-1,4.5,0.8c7.2,8.7,14.1,8.9,22.4,1c1.5-1.5,2.2-1.4,3.5,0.1c1.1,1.3,3.1,2.3,4.5,1.6
	c3.2-1.7,4.9-1,5.9,0.7c0,0,0,0.1,0.1,0.1c0.6,0.9,1,2.1,1.4,3.5c0.3,1.2,1.5,2.2,2.3,3.2c2.8,2.3,6.4,3.1,9.2,1.6
	c2.9-1.5,4.4-1.4,5.3-0.4c1,0.9,1.2,2.9,1.5,5c0,0,0,0-0.1,0c6.8,12,17.2,17.5,30.9,16.8c6.9-0.3,13-3.5,19.2-6.3l-0.1-0.1
	c1-1.5,2.4-2.7,4-3.6c0,0,0,0.1,0.1,0.1c0.1,0.2,0.2,0.5,0.3,0.7c0.9,1.9,1.4,4,1.7,6c4.1,5.4,9,8.7,16.2,6.4
	c1.7-0.5,2.6,0.1,3.7,1.5c6,7.8,12.6,8.6,20.4,2.3c1.4-1.1,2.3-1.5,3.8-0.3c6.9,5.8,14.6,6.6,22.8,3.4c2.9-4.4,6.3-7.8,12.1-8h0.1
	c0.2,0,0.3,0,0.4,0h0.1c0.2,0,0.4,0,0.6-0.1c0.2,0,0.5-0.1,0.7-0.1c1.2-0.2,2.2-0.7,3.2-1.2c0.2-0.1,0.5-0.3,0.7-0.5
	s0.4-0.3,0.6-0.5c0.1-0.1,0.3-0.2,0.4-0.4c0.1-0.1,0.3-0.3,0.4-0.4c0.2-0.3,0.5-0.6,0.7-0.9c0.8-1.2,1.5-2.6,1.9-4.2
	c0-0.2,0.1-0.3,0.1-0.5c0.5-1.2,11.5-6.1,15.2-7c0.1,0,0.2-0.1,0.3-0.1c0.1,0,0.2,0,0.3,0c0.1,0,0.2,0,0.3,0c0.1,0,0.1,0,0.1,0
	c0.1,0,0.1,0,0.2,0c1.6,0.5,3.1,0.9,4.4,0.9c0.4,0,0.8,0,1.1,0c3.2-0.2,5.7-2,8-5.5c0.9-1.3,7.5-3.4,10-3.1c0.1,0,0.2,0,0.3,0
	c0,0,0,0,0.1,0c0.2,0,0.4,0.1,0.5,0.2c1.5,1.1,3,1.9,4.5,2.1c0.2,0,0.4,0.1,0.7,0.1c0.2,0,0.5,0,0.8,0c0.2,0,0.4,0,0.7,0
	c1.6-0.1,3.2-0.7,4.9-1.8c0.6-0.4,1.3-0.6,2-0.6h0.1c0.8,0,1.6,0.3,2.2,0.8c0.9,0.7,1.8,1.4,2.8,1.9c0.3,0.1,0.5,0.3,0.8,0.4
	c0.2,0.1,0.4,0.2,0.6,0.3c0.2,0.1,0.5,0.2,0.7,0.3c0.3,0.1,0.6,0.2,0.9,0.3c0.8,0.3,1.7,0.5,2.5,0.7c0.6,0.2,1.3,0.3,1.9,0.4
	c2.6,0.4,5.4,0.5,8.1,0.4h0.1l2.8,0.1c0.8-1.5,2.5-1.4,3.8-2.1c5.5-2.9,9.7-6.8,11.2-13.1c0.6-0.6,1.3-1.2,1.9-1.9
	c0.1,0,0.2,0.1,0.3,0.1c0,0,0,0,0.1,0c2.1,3,5.2,4.5,8.4,5.9c2.1,0.9,4.2,1.5,6.2,1.8c0.4,0.1,0.8,0.1,1.2,0.2
	c0.4,0,0.8,0.1,1.2,0.1c0.7,0,1.5,0,2.2,0c5.6-0.2,10.9-2.4,16.1-5.4c0.8-0.4,1.4-1,2.1-1.1c0.1,0,0.1,0,0.2,0
	c0.5,0,1.1,0.3,1.7,1.2c1.9,2.8,4.3,4.3,6.9,4.7l0,0c0.4,0.1,0.8,0.1,1.2,0.1c0.4,0,0.8,0,1.2,0c0.2,0,0.4,0,0.6,0
	c1.3-0.1,2.7-0.5,4.1-1c0.5-0.2,0.9-0.3,1.3-0.4c0.1,0,0.2,0,0.4,0c0.1,0,0.3,0,0.4,0s0.1,0,0.2,0c1.4,0.1,2.4,1.1,3.3,2.8
	c3.6,6.8,9.3,10.9,16.7,13c1.5,0.4,3,0.7,4.5,0.9l0,0c0.5,0,1,0.1,1.5,0.1c0.6,0,1.2,0,1.8,0c0.3,0,0.6,0,0.9,0c0.1,0,0.1,0,0.2,0
	c4.7-0.4,9.2-1.9,13.7-3.8c0.7-0.3,1.4-0.5,2-0.7c0.1,0,0.2-0.1,0.4-0.1c0.1,0,0.2,0,0.4,0c0.1,0,0.2,0,0.3,0c0.1,0,0.2,0,0.3,0
	c0.9,0.1,1.7,0.5,2.5,1.4c8,8.4,19.4,10.8,29.8,8.6c0.8-0.2,1.6-0.4,2.4-0.6c0.3-0.1,0.6-0.2,1-0.3c1.2-0.4,2.4-0.9,3.6-1.4
	c0.3-0.2,0.6-0.3,0.9-0.5c0.3-0.1,0.6-0.3,0.9-0.5c0.5-0.3,1.1-0.6,1.6-0.9c3.6-2.2,6.8-5.1,9.1-8.6c0.7-1,1.2-1.5,1.9-1.6h0.1
	c0.7-0.2,1.5,0.1,2.5,0.7c1.6,0.9,3.2,1.4,4.7,1.5c0.4,0,0.7,0,1.1,0c0.2,0,0.3,0,0.5,0s0.3,0,0.5-0.1c2.2-0.4,4.3-1.6,6.3-3.6
	c1.2-1.2,2.2-1.9,3.4-1.9l0,0c0.1,0,0.2,0,0.3,0c0.8,0.1,1.7,0.4,2.7,1.2c1.8,1.3,3.8,2.3,5.9,3c0.3,0.1,0.6,0.2,0.9,0.3
	c11.2,3.2,24.8-1.4,30.8-8.8c0.8-1,1.4-1.5,2.2-1.5h0.1c0.5,0,1.1,0.2,1.8,0.6c2.9,1.6,5.6,2.6,8.1,3c0.2,0,0.4,0.1,0.6,0.1
	c0,0,0,0,0.1,0c0.4,0,0.8,0.1,1.2,0.1c0.5,0,0.9,0,1.4,0c4.4-0.3,8.4-2.7,12.3-7.3c1.3-1.5,2.3-2,3.7-1.8l0,0c0.1,0,0.2,0,0.4,0.1
	c0.4,0.1,0.9,0.2,1.4,0.5c2.8,1.2,5.8,1.7,8.7,1.2c0.2,0,0.4-0.1,0.6-0.1s0.4-0.1,0.6-0.2c0.1,0,0.2,0,0.2-0.1
	c0.1,0,0.2-0.1,0.3-0.1c0.1,0,0.2-0.1,0.3-0.1c0.6-0.2,1.1-0.5,1.6-0.9c0.4-0.3,0.9-0.5,1.2-0.6c0.1-0.1,0.2-0.1,0.3-0.1
	c1.8-0.7,2.9,0.1,4.5,2.1c3.8,4.9,9.2,6.8,14.3,5.3c0.2,0,0.3-0.1,0.5-0.2h0.1c0.2-0.1,0.3-0.1,0.5-0.2c1.2-0.5,2.3-1.2,3.4-2.1
	c2.1-1.7,3.9-3.6,6.1-3c0.1,0,0.2,0,0.3,0.1c0,0,0,0,0.1,0l0,0l0,0c0.1,0,0.2,0.1,0.3,0.2c0.6,0.3,1.2,0.7,1.9,1.4
	c0.6,0.3,1.2,0.5,1.8,0.5h0.1c0.1,0,0.2,0,0.3,0c0.3,0,0.7-0.1,1-0.2c0.8-0.4,1.5-0.5,2-0.5h0.1c0.1,0,0.2,0,0.3,0
	c1.5,0.1,2.2,1.6,3.1,3.4c1.5,3,3.8,5.3,6.3,6.2c0.4,0.2,0.9,0.3,1.3,0.3c0.2,0,0.4,0.1,0.7,0.1c0.5,0,0.9,0,1.4,0
	c0.2,0,0.4,0,0.6-0.1c0.6-0.1,1.2-0.3,1.8-0.5c2-0.8,3.4-1.1,4.3-0.8c0.1,0,0.2,0.1,0.3,0.1c0.1,0,0.2,0.1,0.3,0.1
	c1.2,0.7,1.7,2.5,1.9,4.8c0,0-0.1,0-0.1-0.1c0,0,0,0,0,0.1c6.8,12,17.2,17.7,30.9,17c6.9-0.5,13.1-3.4,19.2-6.3v-0.1
	c1.4,2.1,3.7,2.8,6,3.3c-0.3-2.4-1-4.7-2.1-6.9c0.3-0.3,0.5-0.5,0.7-0.5c-0.2,0.1-0.4,0.2-0.6,0.5c-0.2,0.4-0.8,1.8-0.4,3.4
	c0.5,2.2,2.2,3.3,2.5,3.5c4.3,5.5,9.4,8.8,16.7,6.2c1.5-0.5,2.3,0.4,3.2,1.6c5.9,7.7,12.5,8.5,20.4,2.3c1.4-1.1,2.4-1.4,3.8-0.2
	c6.9,5.9,14.6,6.5,22.8,3.3c2.9-4.4,6.2-8,12.2-7.9c3.6,0,6-2.4,8.7-4.3c0.9-2.2,1.3-4.5,1.2-6.9l-0.1-0.1c-1.5,0.7-4,1.7-7.3,2.6
	c-12.4,3.5-16.3,0-25.2,3.8c-3.6,1.6-5.4,3.2-9.8,3.9c-3.4,0.5-6.1-0.3-8.5-0.2c-13.9,0.8-25.8-4.9-37.6-11
	c-0.2-0.1-0.4-0.2-0.6-0.3c0.2,0.1,0.3,0.1,0.5,0.2c4.7,3.6,12.6,8.7,23.4,11.7c7.7,2.1,13.3,2.1,23.5,2c14.3,0,24.9-0.2,34.8-6.9
	c3.2-2.2,5.5-4.4,6.8-5.9v-4.9c6.3-5.9,13.2-10.4,22.2-9.9l0,0c0.5-0.2,1-0.3,1.5-0.5c1.1-0.3,2.2-0.5,3.3-0.6
	c9.2-4.1,19.4-5.2,29.2-3.1c4.8,1.1,9.5,1.7,14.3,1.7c5.2,0,10.4-0.8,15.5-2.6c0-1.3,0.8-2.5,2-3c2.2-1.4,4.1-3.2,7-3l2-1
	c4.6-1.4,9.1-0.6,13.7-0.1c4.5,0.5,9,0.2,13.3-0.9l2-1h2c1-2.9,3.7-2.6,6-3c0-4-0.2-8-0.1-12C2246.7,77.5,2246.7,76.9,2246.8,76.2z
	 M1801.8,104.3L1801.8,104.3L1801.8,104.3L1801.8,104.3z M2067.8,129.1c-0.1,0-0.2,0-0.4,0V129C2067.5,129,2067.6,129,2067.8,129.1
	C2067.7,129,2067.7,129.1,2067.8,129.1z M1973.8,111.5v-0.3l0,0c0.1,0.1,0.2,0.2,0.3,0.3C1974,111.5,1973.9,111.5,1973.8,111.5z
	 M2019.7,121.2L2019.7,121.2C2019.7,121.1,2019.7,121.2,2019.7,121.2L2019.7,121.2z"/>
</svg>
