<?xml version="1.0" encoding="utf-8"?>
<!-- Generator: Adobe Illustrator 24.1.0, SVG Export Plug-In . SVG Version: 6.00 Build 0)  -->
<svg version="1.1" id="Layer_1" xmlns="http://www.w3.org/2000/svg" xmlns:xlink="http://www.w3.org/1999/xlink" x="0px" y="0px"
	 viewBox="0 0 2246.3 182.4" style="enable-background:new 0 0 2246.3 182.4;" xml:space="preserve">
<style type="text/css">
	.st0{fill:#66DBFE;}
	.st1{fill:#A7E8FE;}
	.st2{fill:#67DBFE;}
	.st3{fill:#ACEAFE;}
	.st4{fill:#68DBFE;}
	.st5{fill:#6EDDFE;}
	.st6{fill:#ADEAFE;}
	.st7{fill:#6BDCFE;}
	.st8{fill:#A9E8FE;}
	.st9{display:none;fill:#ADEAFE;}
</style>
<g>
	<rect x="1.1" class="st0" width="2258.5" height="91.2"/>
	<g>
		<g>
			<path class="st1" d="M1786.3,125.9L1786.3,125.9L1786.3,125.9L1786.3,125.9z"/>
			<path class="st1" d="M2119.4,128.9c-2,0.7-4,1.5-6.2,1.9l-2,1c-2.5,0.7-5.1,1-7,3c-1.1,0-2,0.9-2,2h-1c-1.1,0-2,0.9-2,2
				c-0.9,0-1.5,0.3-2,0.8v-0.9C2103.5,132.8,2110.4,128.3,2119.4,128.9z"/>
			<path class="st1" d="M2231.4,96.3c0,0.5-0.1,1-0.1,1.5v-4C2231.4,94.5,2231.4,95.3,2231.4,96.3z"/>
			<path class="st1" d="M1958.6,133.1c-0.1,0-0.2,0-0.3,0v-0.3l0,0C1958.4,132.9,1958.5,133,1958.6,133.1z"/>
			<path class="st1" d="M2121,128.4v0.6c-0.5-0.1-1-0.1-1.5-0.1C2120,128.7,2120.5,128.5,2121,128.4z"/>
			<path class="st2" d="M654,141.5c-12.1,9.9-30.7,9.9-42.4-1.2c-2.5-2.4-4.4-2.6-7.4-1.1c-13.6,6.5-27.6,4.6-36-6.6
				c-4-5.3-6.7-7.8-13.2-5.2c-2.1,0.8-5.7-0.4-7.5-3c-2.2-3.4-4.3-2.9-7.5-1c-10.3,6-20.8,6.3-30.9-0.7c-1-0.8-1.9-1.8-2.8-2.8l0,0
				l0.1-0.1c0.8,1,1.8,1.9,2.8,2.8c10.1,7,20.6,6.7,30.9,0.7c3.2-1.9,5.3-2.3,7.5,1c1.7,2.6,5.3,3.9,7.5,3c6.5-2.6,9.2-0.1,13.2,5.2
				c8.4,11.2,22.4,13.2,36,6.6c3-1.5,4.9-1.3,7.4,1.1C623.4,151.3,641.9,151.4,654,141.5z"/>
			<path class="st2" d="M654.6,148.3c-0.6,0.3-1.2,0.7-1.7,1.1c-0.2,0.2-0.5,0.3-0.8,0.5c0.2-0.1,0.4-0.2,0.6-0.3
				C653.3,149.1,653.9,148.7,654.6,148.3z"/>
			<path class="st2" d="M671.3,135.5c-2.1,0.3-4.4-0.1-6.8-1.3c-1.8-1-2.9-0.9-4.1,0.4c1.2-1.4,2.3-1.5,4.2-0.5
				C666.9,135.4,669.2,135.8,671.3,135.5z"/>
			<path class="st2" d="M704.8,135.2c-6.9,1.3-14.2,0-21.3-4.2c-2-1.1-3-1.3-4.6,0.2c1.6-1.5,2.6-1.5,4.7-0.2
				C690.7,135.1,697.9,136.5,704.8,135.2z"/>
			<path class="st2" d="M746.4,124c-5.7,5-11.8,5.5-19.6,1.8c-1.9-0.9-3.3-0.9-4.8,0c1.5-0.9,2.9-0.9,4.9-0.1
				C734.7,129.4,740.8,128.9,746.4,124z"/>
			<path class="st2" d="M792.5,123.1c-0.2,0.1-0.3,0.3-0.5,0.5c-5.9,4.9-13.9,3.6-18.8-2.9c-2-2.6-3.3-2.8-6-1.2
				c-4,2.4-8.4,2-12.5,0.3c-2.1-0.9-3.3-0.7-4.6,0.5c1.4-1.3,2.5-1.6,4.7-0.6c4.1,1.8,8.5,2.1,12.5-0.3c2.7-1.6,4-1.5,6,1.2
				c5,6.5,12.9,7.8,18.8,2.9C792.2,123.3,792.3,123.2,792.5,123.1z"/>
			<path class="st2" d="M828.4,135.7c0,0-0.1,0-0.1-0.1c-0.4-4.4-1.4-6.7-7-4.2c-5.1,2.3-9.9-1-12.2-7.1c-0.8-2.2-1.4-4.2-4.3-2
				c-1.1,0.8-2.7,0.8-3.8,0c-2.7-2.4-4.6-2.1-6.6-0.8c2.1-1.4,4-1.9,6.7,0.6c1.1,0.8,2.7,0.8,3.8,0c2.9-2.2,3.5-0.2,4.3,2
				c2.3,6.1,7.1,9.4,12.2,7.1C827,128.8,828,131.2,828.4,135.7z"/>
			<path class="st3" d="M1107.6,121.8c-1.4-1.2-2.6,0.2-3.8,1c-9.9,6.5-23.7,7.9-33.9-2c-2.2-2.1-2.6-0.3-3.4,1.1
				c-0.1,0-0.2,0-0.2,0l0,0v-0.1v-0.1c0.8-1.4,1.2-3.2,3.4-1.1c10.3,9.9,24,8.4,33.9,2C1104.8,121.7,1106.1,120.3,1107.6,121.8z"/>
			<path class="st3" d="M1126.2,125.9c-0.8-0.7-2-0.3-3.4,0.2c-5,1.9-9.7,2-13.3-2c3.6,3.8,8.2,3.6,13.1,1.8
				C1124.1,125.4,1125.3,124.9,1126.2,125.9z"/>
			<path class="st3" d="M1220.2,138.8l-1.9,1.5c-13.5,11.1-32.3,11.7-43.8,1c-3.2-3-5.5-3.4-9.4-1.5c-11.4,5.6-25,2.8-32.7-4.3
				c7.8,7,21.2,9.7,32.5,4.1c3.9-1.9,6.2-1.6,9.4,1.5c11.5,10.7,30.3,10.1,43.8-1l1.9-1.6C1220.1,138.6,1220.2,138.7,1220.2,138.8z"
				/>
			<path class="st3" d="M1370.6,123.1c-1.1-1.5-2.7-2-5.7-0.4c-1.4,0.7-3.4-0.4-4.5-1.6c-1.3-1.5-2-1.5-3.5-0.1
				c-8.3,7.9-15.2,7.6-22.4-1c-1.5-1.8-2.7-2.2-4.5-0.8c-4.2,3-8.7,3.1-13.1,0.9c-2.7-1.4-4-0.7-5.7,1.5c-4.9,6.2-11.7,9.2-18.9,5.9
				c-5.7-2.6-9.2-1.7-12.8,2.5c-0.3,0.4-0.7,0.7-1.1,1l0,0h-0.1c-5.9,3.3-12.1,5.3-18.9,5h-4c-1.2-1.4-3.2-0.7-4.5-1.8
				c-5.1-4.2-10-4.2-14.5,0.9l0,0c-2.6,0.6-5.2,1.2-8,0.8l0,0l0,0c-5.1-3.2-5.1-3.2-8.1,2.9c0,0,0-0.1-0.1-0.1c3-6.2,3-6.2,8.1-3
				c2.7,0.5,5.3-0.2,8-0.8c4.5-5.1,9.4-5.1,14.5-0.9c1.3,1.1,3.3,0.4,4.5,1.8v0.1h4v-0.1c6.8,0.3,13-1.8,18.9-4.9
				c0-0.1,0-0.1-0.1-0.2c0.4-0.3,0.7-0.6,1.1-1c3.6-4.2,7.1-5.1,12.8-2.5c7.1,3.3,14,0.3,18.9-5.9c1.7-2.2,3.1-2.9,5.7-1.5
				c4.4,2.3,9,2.2,13.1-0.9c1.8-1.3,3-1,4.5,0.8c7.2,8.7,14.1,8.9,22.4,1c1.5-1.5,2.2-1.4,3.5,0.1c1.1,1.3,3.1,2.3,4.5,1.6
				C1367.9,120.6,1369.5,121.3,1370.6,123.1z"/>
			<path class="st3" d="M1390.4,136C1390.3,136,1390.3,136,1390.4,136c-0.1-0.1-0.1-0.1-0.1-0.1c-0.2-2-0.5-3.9-1.4-4.9
				C1389.8,132,1390.1,133.9,1390.4,136z"/>
			<path class="st3" d="M1444.3,142.9c-1.6,0.8-3,2.1-4,3.6l0,0l-0.1-0.1c1-1.5,2.4-2.7,4-3.6
				C1444.3,142.9,1444.3,142.9,1444.3,142.9z"/>
			<path class="st4" d="M1370.6,123.1c-1.1-1.5-2.7-2-5.7-0.4c-1.4,0.7-3.4-0.4-4.5-1.6c-1.3-1.5-2-1.5-3.5-0.1
				c-8.3,7.9-15.2,7.6-22.4-1c-1.5-1.8-2.7-2.2-4.5-0.8c-4.2,3-8.7,3.1-13.1,0.9c-2.7-1.4-4-0.7-5.7,1.5c-4.9,6.2-11.7,9.2-18.9,5.9
				c-5.7-2.6-9.2-1.7-12.8,2.5c-0.3,0.4-0.7,0.7-1.1,1c0,0,0-0.1,0-0.2c-0.1,0-0.1,0.1-0.1,0.1c0-0.1,0-0.1-0.1-0.2
				c0.4-0.3,0.7-0.6,1.1-1c3.6-4.2,7.1-5.1,12.8-2.5c7.1,3.3,14,0.3,18.9-5.9c1.7-2.2,3.1-2.9,5.7-1.5c4.4,2.3,9,2.2,13.1-0.9
				c1.8-1.3,3-1,4.5,0.8c7.2,8.7,14.1,8.9,22.4,1c1.5-1.5,2.2-1.4,3.5,0.1c1.1,1.3,3.1,2.3,4.5,1.6
				C1367.9,120.6,1369.5,121.3,1370.6,123.1z"/>
			<path class="st4" d="M1390.3,136c-3.8-2-6.4-0.8-9.3,2.4c-5.5,5.9-12.9,6-18.5,0.9c-2.4-2.2-4.2-4-7.2-1
				c-0.7,0.7-2.5,0.4-3.8,0.5c0.1-1.2,0-2.3-0.5-3.1c0.4,0.8,0.5,1.8,0.4,2.9l-4.1-0.9c-1.5-0.1-3.3,0.3-4.1-1.2
				c0.9,1.9,2.7,1.3,4.2,1.4c-0.2,1.5,0.3,3.3-1.9,3.9c-0.1,0-0.1,0-0.2,0c0.1,1.4-0.7,2.5-1.9,3c-2.9,4.6-7.2,3.3-11.2,2.3
				c-2.1-0.5-3.3-0.9-4,1.7c-5.4,19.6-30.6,25.5-48.9,14.2c-1-0.6-2-1.3-2.9-2c-2-1.6-3-1-4,1.2c-4.4,9.6-7.3,11.2-17.4,10
				c-2.2-0.3-2.9,0.7-3.9,2c-5.4,6.9-12.6,7.7-19.5,2c-2.2-1.9-3.5-1.3-5.5,0.2c-7.5,5.5-16.5,6.5-22.1,1.2c-3.8-3.8-8.7-6.2-14-7
				c-3.6-0.6-6.5-3.3-7.3-6.8c-0.8-3.1-3.2-3.2-5.5-4.5c-5.7-3.3-12.3-4.7-18.9-4.1c-3.7,0.2-6.2-3.4-6.9-7.4h-0.1
				c-2.4,0.4-4.8,1.9-7-0.4c-1.2-1.3-1.8-0.3-2.8,0.4c-3,2.6-7.3,3-10.7,1c-2.5-1.3-4-1.1-6.2,0.3c-8.8,6.1-23.5,4.7-29.3-1.3
				c-2.3-2.4-4.7-5.6-7.6-12.6c-6.1,6.6-13.7,9.5-22.3,8.3c-5.5-0.8-11.1-1.8-15-6.6c0,0,0-0.1-0.1-0.1c7.6-2.5,13.7-6.6,16-14.9
				l0,0c0.1,0,0.2,0,0.2,0c0.8-1.4,1.2-3.2,3.4-1.1c10.2,9.9,24,8.5,33.9,2c1.2-0.9,2.4-2.2,3.8-1c0,0,0.1,0,0.1,0.1
				c0.1,0.2,0.3,0.3,0.4,0.6c0.3,0.5,0.7,0.9,1,1.3c0.1,0.1,0.2,0.3,0.4,0.4c3.6,4,8.3,3.9,13.3,2c1.4-0.5,2.6-0.9,3.4-0.2
				c0.3,0.3,0.5,0.7,0.7,1.3c0.9,2.7,2.4,5.1,4.4,7.1c0.2,0.2,0.4,0.4,0.5,0.6c0.2,0.2,0.4,0.4,0.6,0.6c7.7,7.2,21.3,9.9,32.7,4.3
				c3.9-1.9,6.2-1.5,9.4,1.5c11.5,10.7,30.3,10.1,43.8-1l1.9-1.5c0.5,0.8,1.2,1.3,1.9,1.6c-0.7-0.3-1.3-0.8-1.8-1.7
				c2.9-6.1,3-6.1,8.1-2.9l0,0l0,0c2.8,0.4,5.4-0.2,8-0.8l0,0c4.5-5.1,9.4-5.1,14.5-0.9c1.3,1.1,3.3,0.4,4.5,1.8h4
				c6.9,0.3,13-1.7,18.9-5c0,0.1,0,0.1,0.1,0.2c0,0.1,0.1,0.2,0.1,0.2s0,0.1,0.1,0.2c0,0.1,0.1,0.2,0.1,0.2c0,0.1,0.1,0.1,0.1,0.2
				c0.1,0.1,0.1,0.2,0.2,0.2s0.1,0.1,0.1,0.1c0.2,0.2,0.4,0.3,0.6,0.4c-0.2-0.1-0.4-0.3-0.6-0.5c-0.1-0.1-0.2-0.2-0.3-0.4
				c0-0.1-0.1-0.1-0.1-0.2c0-0.1-0.1-0.1-0.1-0.2c-0.1-0.2-0.1-0.3-0.2-0.5c0.4-0.3,0.8-0.6,1.1-1c3.6-4.2,7.1-5.1,12.8-2.5
				c7.2,3.3,14,0.3,18.9-5.9c1.7-2.2,3-2.9,5.7-1.5c4.4,2.2,8.9,2.1,13.1-0.9c1.8-1.4,3-1,4.5,0.8c7.2,8.6,14.1,8.9,22.4,1
				c1.5-1.4,2.2-1.4,3.5,0.1c1.1,1.2,3.1,2.3,4.5,1.6c3-1.6,4.7-1.1,5.7,0.4c0,0,0,0.1,0.1,0.1c0.6,0.9,1,2.1,1.4,3.5
				c0.3,1.2,1.5,2.2,2.3,3.2c2.8,2.3,6.4,3.1,9.2,1.6c2.9-1.5,4.4-1.4,5.3-0.4C1389.8,132,1390,133.9,1390.3,136
				C1390.3,135.9,1390.3,136,1390.3,136z"/>
			<path class="st4" d="M1107.6,121.8c-1.4-1.2-2.6,0.2-3.8,1c-9.9,6.5-23.7,7.9-33.9-2c-2.2-2.1-2.6-0.3-3.4,1.1
				c-0.1,0-0.2,0-0.2,0l0,0v-0.1v-0.1c0.8-1.4,1.2-3.2,3.4-1.1c10.3,9.9,24,8.4,33.9,2C1104.8,121.7,1106.1,120.3,1107.6,121.8z"/>
			<path class="st4" d="M1126.2,125.9c-0.8-0.7-2-0.3-3.4,0.2c-5,1.9-9.7,2-13.3-2c3.6,3.8,8.2,3.6,13.1,1.8
				C1124.1,125.4,1125.3,124.9,1126.2,125.9z"/>
			<path class="st4" d="M1220.2,138.8l-1.9,1.5c-13.5,11.1-32.3,11.7-43.8,1c-3.2-3-5.5-3.4-9.4-1.5c-11.4,5.6-25,2.8-32.7-4.3
				c7.8,7,21.2,9.7,32.5,4.1c3.9-1.9,6.2-1.6,9.4,1.5c11.5,10.7,30.3,10.1,43.8-1l1.9-1.6C1220.1,138.6,1220.2,138.7,1220.2,138.8z"
				/>
			<path class="st4" d="M1228.4,135.8L1228.4,135.8c-5.1-3.2-5.1-3.2-8.1,2.9c0,0,0-0.1-0.1-0.1c3-6.2,3-6.2,8.1-3
				C1228.4,135.7,1228.4,135.8,1228.4,135.8z"/>
			<path class="st4" d="M1255.4,135.8L1255.4,135.8L1255.4,135.8c-1.2-1.3-3.2-0.6-4.5-1.7c-5.1-4.2-10-4.2-14.5,0.9l0,0
				c0-0.1,0-0.1,0-0.2c4.5-5.1,9.4-5.1,14.5-0.9C1252.2,135,1254.2,134.3,1255.4,135.8C1255.4,135.8,1255.4,135.8,1255.4,135.8
				L1255.4,135.8z"/>
			<path class="st4" d="M1278.3,131c-5.9,3.3-12.1,5.3-18.9,5l0,0v-0.1v-0.1c6.8,0.3,13-1.8,18.9-4.9
				C1278.2,130.8,1278.2,130.9,1278.3,131z"/>
			<path class="st4" d="M1390.4,136C1390.3,136,1390.3,136,1390.4,136c-0.1-0.1-0.1-0.1-0.1-0.1c-0.2-2-0.5-3.9-1.4-4.9
				C1389.8,132,1390.1,133.9,1390.4,136z"/>
			<path class="st4" d="M1279.7,132.7c-0.6-0.3-1.2-0.8-1.5-1.9c0.1,0,0.1,0,0.1-0.1C1278.6,131.7,1279.1,132.3,1279.7,132.7z"/>
			<path class="st5" d="M580.5,144.8c-2.6,4.1-7,5.6-11.5,3c-2.7-1.5-4.4-1.1-6.6,0.4c-8.7,5.8-23,4.7-29.3-1.6
				c-0.8-0.7-1.5-1.7-1.8-2.8C547.7,144.2,564.2,142.6,580.5,144.8z"/>
			<path class="st5" d="M828.2,135.7c-3.5-1.9-5.9-1.3-8.8,2.2c-5.4,6.4-15,5.9-20.4-0.5c-1.8-2-2.4-2-3.9-0.1
				c-1.1,1.4-2.9,1.9-4.5,1.2c-3.7-1.4-5.4,0.1-6.4,3.5c-0.2,1.4-1.3,2.4-2.6,2.7c-35.5,0-71,0.1-106.4-0.1c-7-0.1-13.7,0-19.8,3.3
				c6.1-3.1,12.8-3.2,19.6-3.2c35.5,0.2,71,0.1,106.4,0.1c-3,4.4-7.3,3.3-11.3,2.2c-2.1-0.5-3.3-1-4.1,1.7
				c-5.4,19.6-30.5,25.5-48.9,14.3c-1-0.6-2-1.3-2.9-2c-2-1.6-3-1-4,1.2c-4.5,9.6-7.3,11.2-17.4,10c-2.2-0.3-2.9,0.7-3.9,2
				c-5.4,6.9-12.7,7.7-19.5,2c-2.2-1.9-3.5-1.3-5.5,0.2c-7.5,5.5-16.5,6.5-22.1,1.2c-3.8-3.8-8.7-6.3-14-7c-3.6-0.6-6.5-3.3-7.3-6.8
				c-0.8-3.1-3.2-3.2-5.5-4.5c-5.7-3.3-12.3-4.7-18.9-4.1c-3.5,0.4-6.1-3.4-6.8-7.4c9.1,0.2,18,0.6,27.1,2.3
				c10.8,2.1,22.2,0.6,33.4,0.5c0.8-0.1,1.6-0.3,2.2-0.7c0.3-0.1,0.5-0.3,0.8-0.5c0.6-0.4,1.2-0.8,1.7-1.1c-0.7,0.4-1.3,0.8-1.9,1.2
				c-0.2,0.1-0.4,0.2-0.6,0.3c-0.6,0.3-1.3,0.5-2,0.5c-11.2,0-22.6,1.6-33.4-0.5c-9.2-1.7-18.1-2-27.2-2.3c-3.5,1.6-6.4,0.7-8.9-2
				c-0.2,0-0.4,0-0.6-0.1c-16.1-2.1-32.3-0.5-48.4-0.9h-0.2c-3.5-2.1-3.6-6.1-5.5-9.6c-5.9,6.6-13.3,9.5-21.8,8.5
				c-5.9-0.6-11.7-1.7-15.7-6.7c7.6-2.6,13.8-6.7,16-15.1l1.9-1.8c0.9,1,1.8,2,2.8,2.8c10.1,7,20.6,6.7,30.9,0.7
				c3.2-1.9,5.3-2.4,7.5,1c1.8,2.6,5.4,3.8,7.5,3c6.5-2.6,9.2-0.1,13.2,5.2c8.4,11.2,22.4,13.1,36,6.6c3-1.5,4.9-1.3,7.4,1.1
				c11.8,11.2,30.3,11.1,42.4,1.2c0.4-0.3,0.8-0.6,1.2-1c0.7-0.6,1.3-1.3,2-2c0.9-1,1.8-2.1,2.6-3.2c0.1-0.1,0.2-0.2,0.3-0.4
				l0.1-0.1c0.1-0.1,0.2-0.2,0.3-0.3c1.2-1.3,2.2-1.4,4.1-0.4c2.4,1.3,4.7,1.7,6.8,1.3c0.2,0,0.3,0,0.5-0.1c0.5-0.1,1.1-0.2,1.6-0.4
				c1.3-0.5,2.5-1.2,3.7-2.1c0.1-0.1,0.3-0.2,0.4-0.3c0.2-0.2,0.4-0.3,0.6-0.5c0.2-0.1,0.3-0.3,0.5-0.5c0.1-0.1,0.2-0.2,0.4-0.4
				c1.7-1.5,2.7-1.4,4.6-0.2c7.1,4.2,14.4,5.5,21.3,4.2c0.6-0.1,1.1-0.2,1.7-0.4c0.5-0.1,0.9-0.2,1.3-0.4c4.5-1.4,8.8-3.9,12.8-7.6
				c0.3-0.3,0.6-0.5,0.9-0.8c0.1-0.1,0.3-0.2,0.4-0.2c1.5-0.9,2.9-0.9,4.8,0c7.9,3.7,14,3.2,19.6-1.8c0.2-0.2,0.4-0.4,0.6-0.6
				c0.5-0.5,1-0.9,1.4-1.5c0.3-0.3,0.6-0.6,0.9-1c0-0.1,0.1-0.1,0.1-0.2c0.1-0.1,0.2-0.2,0.3-0.3c0.1-0.1,0.2-0.2,0.3-0.3
				c1.3-1.2,2.5-1.5,4.6-0.5c4.1,1.7,8.5,2.1,12.5-0.3c2.7-1.6,4-1.4,6,1.2c4.9,6.5,12.9,7.8,18.8,2.9c0.2-0.2,0.4-0.3,0.5-0.5
				c0.2-0.2,0.4-0.3,0.5-0.4c0.4-0.3,0.7-0.6,1.1-0.8c0.1-0.1,0.2-0.1,0.2-0.2c0,0,0,0,0.1,0c2-1.3,3.9-1.7,6.6,0.8
				c1.1,0.8,2.7,0.8,3.8,0c2.9-2.2,3.5-0.2,4.3,2c2.3,6.1,7.1,9.4,12.2,7.1C826.8,128.9,827.8,131.3,828.2,135.7z"/>
			<path class="st5" d="M654.6,148.3c-0.6,0.3-1.2,0.7-1.7,1.1c-0.2,0.2-0.5,0.3-0.8,0.5c0.2-0.1,0.4-0.2,0.6-0.3
				C653.3,149.1,653.9,148.7,654.6,148.3z"/>
			<path class="st0" d="M265.7,133.6c-3.4-1.5-5.8-0.2-8.6,2.8c-5.9,6.2-13.1,5.9-19.4,0c-1.7-1.6-3-3.3-5.2-0.7
				c-0.8,0.6-1.7,1-2.7,1c-5.8,0.9-5.8,0.8-8.3,4c-0.1,0-0.1,0-0.2,0l-1.9,1.9h-0.5c-2.9,3.5-6.9,2.3-10.6,1.4
				c-2.1-0.5-3.3-0.9-4,1.7c-5.5,19.6-30.6,25.5-48.9,14.3c-1-0.6-2-1.3-2.9-2c-2-1.6-3-1-4,1.2c-4.5,9.6-7.3,11.3-17.4,10
				c-2.2-0.3-2.8,0.6-3.9,2c-5.4,6.9-12.7,7.8-19.4,2c-2.2-1.9-3.5-1.4-5.5,0.1c-7.5,5.5-16.5,6.5-22.1,1.2c-3.8-3.8-8.7-6.3-14-7.1
				c-3.9-0.6-6.5-3.4-7.5-7.2c-0.7-2.7-2.5-3-4.8-3.9c-6.3-2.6-12.1-5.3-19.4-4.2c-3.3,0.6-6-2.7-6.8-6.5c-0.1,0-0.2,0-0.3,0
				c-2.3,0.4-4.8,1.9-6.9-0.4c-1.1-1.2-1.8-0.5-2.8,0.3c-3.6,3-7.6,2.9-11.5,0.8c-1.7-0.9-2.7-1.1-4.4,0c-5,3.6-11.2,5.2-17.3,4.3
				V124c4.4,3.2,9.3,4.3,14.4,1.7c2.4-1.2,3.1,0,4,1.9c5,10,15.8,15.8,27,14.4c4.8-0.6,9.5-1.2,13.8-3.7c1.7-1,3.1-0.7,4.4,0.7
				c13.4,13.7,32.5,11.9,46.9,0.5c0.2-0.3,0.3-0.7,0.5-1c0.1,0.5,0.3,1,0.5,1.4c-0.2-0.4-0.3-0.9-0.4-1.4c1.8-3.7,3.5-6.6,9.2-3.6
				c3.9,2.1,8.4-0.1,11.6-3.4c1.5-1.5,2.4-2.2,4.5-0.9c11.1,6.7,22.2,5.8,33.3-0.1c0.4-0.3,0.8-0.6,1.1-1c3.7-4.1,7.1-5.1,12.8-2.5
				c7.1,3.3,13.9,0.2,18.7-5.9c1.7-2.1,2.9-2.8,5.7-1.6c4.4,1.8,9,2.1,13.3-0.8c1.6-1.1,2.9-1.2,4.2,0.6c6.3,8.7,16.7,9,22.7,1.3
				c0.5-0.6,1.8-1.6,1.9-1.2c2.4,6.2,9.7-1,12,4.3c1.1,2.1,2.3,4,3.6,5.9c2.8,2.3,6.4,3.1,9.2,1.6
				C264,128.7,265.1,130.6,265.7,133.6z"/>
			<path class="st5" d="M1952.3,135.8c0,0-0.1,0-0.1-0.1c-3.5-1.9-5.8-1.3-8.8,2.2c-5.4,6.4-15,5.9-20.4-0.5c-1.7-2-2.4-2-3.8-0.1
				c-1.1,1.4-2.9,1.9-4.6,1.2c-3.7-1.4-5.4,0.1-6.4,3.5c-0.2,1.4-1.3,2.4-2.6,2.7c-2.1-0.1-4.2-0.1-6.3,0c-1,0.1-2.1-0.1-3.2-0.1
				c1,0,2.1,0.3,3,0.2c2.1-0.1,4.2-0.1,6.3,0c-3.4,4.6-7.7,3.3-12.1,1.9l-2-0.9l-1,1v-0.1c-1.7,14.2-17.7,23.7-33.2,21.6
				c-6.7-0.9-13-2.9-18.4-7.1c-2.3-1.8-3.4-1.6-4.7,1.3c-3.6,8.5-7.9,11-16.7,9.8c-2.2-0.3-3.2,0.1-4.5,1.8
				c-5.4,7-12.7,7.9-19.4,2.2c-2.5-2.1-3.8-1.2-5.9,0.4c-9.1,6.6-18.1,5.5-25.6-2.7c-1.3-1.5-3.2-2.4-5.2-2.3
				c-6.1-0.3-11-2.6-12.8-9.1c-0.3-0.9-0.9-2.3-1.6-2.4c-4.6-0.6-8.6-1.8-11.5-5.8c-0.8-1.1-2.4,0.4-3.6,0.8
				c-6.1,1.9-10.5,0.1-13.1-5.4c0.4,0,0.8-0.1,1.2-0.3c-0.3,0.2-0.6,0.2-1,0.2c0,0,0,0-0.1,0l-0.8-1.9h-0.1c-3.4,1.6-6.4,0.7-8.9-2
				c-2.6,4.1-7,5.6-11.5,3c-2.7-1.5-4.4-1.1-6.6,0.4c-8.7,5.8-23,4.7-29.3-1.6c-0.8-0.7-1.5-1.7-1.8-2.8c-3.5-2-3.6-6.1-5.5-9.5
				c-9.4,9.6-20.3,10.6-32.1,5.5c-1.8-0.8-3.9-1.3-4.3-3.7c0.8-1.6,2.5-1.5,3.8-2.1c5.5-2.9,9.7-6.9,11.2-13.1
				c0.7-0.6,1.4-1.3,2-1.8c0,0,0,0,0.1,0c2.1,3,5.2,4.5,8.4,5.9c2.1,0.9,4.2,1.5,6.2,1.8c0.4,0.1,0.8,0.1,1.2,0.2
				c0.4,0,0.8,0.1,1.2,0.1c0.7,0,1.5,0,2.2,0c5.6-0.2,10.9-2.4,16.2-5.4c0.7-0.4,1.4-1,2-1.1c0.1,0,0.1,0,0.2,0
				c0.5,0,1.1,0.3,1.7,1.2c1.9,2.8,4.3,4.3,6.9,4.7l0,0c0.4,0.1,0.8,0.1,1.2,0.1c0.4,0,0.8,0,1.2,0c0.2,0,0.4,0,0.6,0
				c1.3-0.1,2.8-0.5,4.2-1c0.4-0.2,0.8-0.3,1.2-0.4c0.1,0,0.2,0,0.4,0c0.1,0,0.3,0,0.4,0s0.1,0,0.2,0c1.4,0.1,2.4,1.1,3.3,2.8
				c3.6,6.8,9.3,10.9,16.7,13c1.5,0.4,3,0.7,4.5,0.9l0,0c0.5,0,1,0.1,1.5,0.1c0.6,0,1.2,0,1.8,0c0.3,0,0.6,0,0.9,0
				c0.1,0,0.1,0,0.2,0c4.7-0.4,9.3-1.9,13.8-3.8c0.7-0.3,1.3-0.5,1.9-0.7c0.1,0,0.2,0,0.4-0.1c0.1,0,0.2,0,0.4,0c0.1,0,0.2,0,0.3,0
				c0.1,0,0.2,0,0.3,0c0.9,0.1,1.7,0.5,2.5,1.4c8,8.4,19.4,10.8,29.8,8.6c0.8-0.2,1.6-0.4,2.4-0.6c0.3-0.1,0.6-0.2,1-0.3
				c1.2-0.4,2.4-0.9,3.6-1.4c0.3-0.2,0.6-0.3,0.9-0.5c0.3-0.1,0.6-0.3,0.9-0.5c0.5-0.3,1.1-0.6,1.6-0.9c3.6-2.2,6.8-5.1,9.2-8.6
				c0.6-0.9,1.2-1.4,1.8-1.6h0.1c0.7-0.2,1.5,0.1,2.5,0.7c1.6,0.9,3.2,1.4,4.7,1.5c0.4,0,0.7,0,1.1,0c0.2,0,0.3,0,0.5,0
				s0.3,0,0.5-0.1c2.3-0.3,4.4-1.6,6.4-3.6c1.2-1.2,2.2-1.8,3.3-1.9l0,0c0.1,0,0.2,0,0.3,0c0.8,0.1,1.7,0.4,2.7,1.2
				c1.8,1.3,3.8,2.3,5.9,3c0.3,0.1,0.6,0.2,0.9,0.3c11.2,3.2,24.8-1.4,30.8-8.8c0.8-0.9,1.3-1.4,2.1-1.5h0.1c0.5,0,1.1,0.2,1.8,0.6
				c2.9,1.6,5.6,2.6,8.1,3c0.2,0,0.4,0.1,0.6,0.1c0,0,0,0,0.1,0c0.4,0,0.8,0.1,1.2,0.1c0.5,0,0.9,0,1.4,0c4.5-0.2,8.5-2.6,12.4-7.3
				c1.3-1.4,2.3-2,3.6-1.8l0,0c0.1,0,0.2,0,0.4,0.1c0.4,0.1,0.9,0.2,1.4,0.5c2.8,1.2,5.8,1.7,8.7,1.2c0.2,0,0.4-0.1,0.6-0.1
				s0.4-0.1,0.6-0.2c0.1,0,0.2,0,0.2-0.1c0.1,0,0.2-0.1,0.3-0.1c0.1,0,0.2-0.1,0.3-0.1c0.6-0.2,1.2-0.5,1.7-0.9
				c0.4-0.3,0.8-0.5,1.1-0.6c0.1,0,0.2-0.1,0.3-0.1c1.8-0.7,2.9,0.1,4.5,2.1c3.8,4.9,9.2,6.8,14.3,5.3c0.2,0,0.3-0.1,0.5-0.2h0.1
				c0.2-0.1,0.3-0.1,0.5-0.2c1.2-0.5,2.4-1.2,3.5-2.1c2.1-1.7,3.8-3.5,6-3c0.1,0,0.2,0,0.3,0.1c0,0,0,0,0.1,0l0,0l0,0
				c0.1,0,0.2,0.1,0.3,0.2c0.6,0.3,1.2,0.7,1.9,1.4c0.6,0.3,1.2,0.5,1.8,0.5h0.1c0.1,0,0.2,0,0.3,0c0.4,0,0.7-0.1,1.1-0.2
				c0.8-0.3,1.4-0.5,1.9-0.5h0.1c0.1,0,0.2,0,0.3,0c1.5,0.1,2.2,1.6,3.1,3.4c1.5,3,3.8,5.3,6.3,6.2c0.4,0.2,0.9,0.3,1.3,0.3
				c0.2,0,0.4,0.1,0.7,0.1c0.5,0,0.9,0,1.4,0c0.2,0,0.4,0,0.6-0.1c0.6-0.1,1.2-0.3,1.9-0.5c1.9-0.8,3.3-1,4.2-0.8
				c0.1,0,0.2,0.1,0.3,0.1c0.1,0,0.2,0.1,0.3,0.1C1951.6,131.7,1952,133.5,1952.3,135.8z"/>
			<path class="st6" d="M508.6,118c-0.9,0.2-1.8,0.7-2.4,1.9C506.9,118.7,507.7,118.2,508.6,118z"/>
			<path class="st6" d="M654,141.5c-12.1,9.9-30.7,9.9-42.4-1.2c-2.5-2.4-4.4-2.6-7.4-1.1c-13.6,6.5-27.6,4.6-36-6.6
				c-4-5.3-6.7-7.8-13.2-5.2c-2.1,0.8-5.7-0.4-7.5-3c-2.2-3.4-4.3-2.9-7.5-1c-10.3,6-20.8,6.3-30.9-0.7c-1-0.8-1.9-1.8-2.8-2.8l0,0
				l0.1-0.1c0.8,1,1.8,1.9,2.8,2.8c10.1,7,20.6,6.7,30.9,0.7c3.2-1.9,5.3-2.3,7.5,1c1.7,2.6,5.3,3.9,7.5,3c6.5-2.6,9.2-0.1,13.2,5.2
				c8.4,11.2,22.4,13.2,36,6.6c3-1.5,4.9-1.3,7.4,1.1C623.4,151.3,641.9,151.4,654,141.5z"/>
			<path class="st6" d="M671.3,135.5c-2.1,0.3-4.4-0.1-6.8-1.3c-1.8-1-2.9-0.9-4.1,0.4c1.2-1.4,2.3-1.5,4.2-0.5
				C666.9,135.4,669.2,135.8,671.3,135.5z"/>
			<path class="st6" d="M704.8,135.2c-6.9,1.3-14.2,0-21.3-4.2c-2-1.1-3-1.3-4.6,0.2c1.6-1.5,2.6-1.5,4.7-0.2
				C690.7,135.1,697.9,136.5,704.8,135.2z"/>
			<path class="st6" d="M746.4,124c-5.7,5-11.8,5.5-19.6,1.8c-1.9-0.9-3.3-0.9-4.8,0c1.5-0.9,2.9-0.9,4.9-0.1
				C734.7,129.4,740.8,128.9,746.4,124z"/>
			<path class="st6" d="M792.5,123.1c-0.2,0.1-0.3,0.3-0.5,0.5c-5.9,4.9-13.9,3.6-18.8-2.9c-2-2.6-3.3-2.8-6-1.2
				c-4,2.4-8.4,2-12.5,0.3c-2.1-0.9-3.3-0.7-4.6,0.5c1.4-1.3,2.5-1.6,4.7-0.6c4.1,1.8,8.5,2.1,12.5-0.3c2.7-1.6,4-1.5,6,1.2
				c5,6.5,12.9,7.8,18.8,2.9C792.2,123.3,792.3,123.2,792.5,123.1z"/>
			<path class="st6" d="M828.4,135.7c0,0-0.1,0-0.1-0.1c-0.4-4.4-1.4-6.7-7-4.2c-5.1,2.3-9.9-1-12.2-7.1c-0.8-2.2-1.4-4.2-4.3-2
				c-1.1,0.8-2.7,0.8-3.8,0c-2.7-2.4-4.6-2.1-6.6-0.8c2.1-1.4,4-1.9,6.7,0.6c1.1,0.8,2.7,0.8,3.8,0c2.9-2.2,3.5-0.2,4.3,2
				c2.3,6.1,7.1,9.4,12.2,7.1C827,128.8,828,131.2,828.4,135.7z"/>
			<path class="st6" d="M881.4,143.1l-2.9,3.5c0,0-0.1-0.1-0.1-0.2L881.4,143.1C881.3,143,881.3,143.1,881.4,143.1z"/>
			<path class="st6" d="M1645,127.7c-2.1-0.3-4.2-0.9-6.3-1.8c-3.2-1.4-6.3-2.9-8.4-5.8c0,0,0,0,0.1,0c2.1,3,5.2,4.5,8.4,5.9
				C1640.9,126.8,1643,127.4,1645,127.7z"/>
			<path class="st6" d="M1676.8,127.5c-2.7-0.4-5.1-1.9-7-4.7c-0.6-0.9-1.1-1.2-1.6-1.2c0.5,0,1.1,0.3,1.7,1.2
				C1671.8,125.5,1674.1,127,1676.8,127.5z"/>
			<path class="st6" d="M1710.6,142.8c-1.5-0.1-3.1-0.4-4.6-0.9c-7.5-2.1-13.2-6.2-16.7-13c-0.9-1.7-1.8-2.7-3.2-2.8
				c1.4,0.1,2.4,1.1,3.3,2.8c3.6,6.8,9.3,10.9,16.7,13C1707.6,142.4,1709.1,142.6,1710.6,142.8z"/>
			<path class="st6" d="M1764.3,148.2c-10.3,2.3-21.8-0.1-29.9-8.6c-0.8-0.9-1.6-1.3-2.4-1.4c0.9,0.1,1.7,0.5,2.5,1.4
				C1742.6,148,1754,150.4,1764.3,148.2z"/>
			<path class="st6" d="M1766.7,147.6c-0.8,0.2-1.6,0.4-2.4,0.6C1765.1,148,1765.9,147.8,1766.7,147.6z"/>
			<path class="st6" d="M1793,135.9c-1.5-0.1-3.2-0.6-4.8-1.5c-0.9-0.5-1.7-0.8-2.4-0.7c0.7-0.2,1.5,0.1,2.5,0.7
				C1789.9,135.3,1791.5,135.8,1793,135.9z"/>
			<path class="st6" d="M1813.7,134.5c-2.1-0.7-4.2-1.7-6-3c-1-0.7-1.8-1.1-2.6-1.2c0.8,0.1,1.7,0.4,2.7,1.2
				C1809.6,132.8,1811.6,133.8,1813.7,134.5z"/>
			<path class="st6" d="M1857.6,128.2c-2.5-0.4-5.3-1.4-8.2-3c-0.7-0.4-1.2-0.6-1.7-0.6c0.5,0,1.1,0.2,1.8,0.6
				C1852.4,126.8,1855.1,127.8,1857.6,128.2z"/>
			<path class="st6" d="M1887.3,121c-2.9,0.6-6,0-8.8-1.2c-0.5-0.2-0.9-0.4-1.3-0.5c0.4,0.1,0.9,0.2,1.4,0.5
				C1881.5,121,1884.5,121.5,1887.3,121z"/>
			<path class="st6" d="M1911.4,126.1c-5.1,1.6-10.6-0.3-14.4-5.3c-1.6-2-2.7-2.7-4.4-2.1c1.8-0.7,2.9,0.1,4.5,2.1
				C1900.9,125.7,1906.3,127.6,1911.4,126.1z"/>
			<path class="st6" d="M1926.4,122.9c-0.7,0-1.4-0.2-1.9-0.5c-0.6-0.7-1.2-1.1-1.8-1.4c0.6,0.3,1.2,0.7,1.9,1.4
				C1925.1,122.7,1925.8,122.8,1926.4,122.9z"/>
			<path class="st6" d="M1939.6,131.7c-2.6-0.9-4.9-3.1-6.4-6.2c-0.8-1.8-1.5-3.2-3-3.4c1.5,0.1,2.2,1.6,3.1,3.4
				C1934.8,128.6,1937,130.8,1939.6,131.7z"/>
			<path class="st6" d="M1952.3,135.8c0,0-0.1,0-0.1-0.1c-0.2-2.3-0.6-4-1.8-4.8C1951.6,131.7,1952,133.5,1952.3,135.8z"/>
			<path class="st6" d="M884.4,149.7C884.3,149.7,884.3,149.7,884.4,149.7c-0.4-2.3-0.8-4.5-1.2-6.8l0,0
				C883.6,145.2,884,147.4,884.4,149.7z"/>
			<path class="st6" d="M971.2,151.6c-1.9,2.4-4.9,3.9-8.2,3.8c-6.1,0-8.8,3.6-11.7,7.5c0,0,0,0-0.1,0c3-4,5.6-7.7,11.7-7.6
				C966.3,155.4,969.3,154,971.2,151.6z"/>
			<path class="st6" d="M995.2,139.7c-2.5-0.1-5.1-1.2-7.3-1.2C990.2,138.4,992.7,139.6,995.2,139.7z"/>
			<path class="st6" d="M1010.3,131.7c-1.4,0.5-2.9,0.7-4.4,1.1C1007.3,132.4,1008.9,132.2,1010.3,131.7z"/>
			<path class="st6" d="M1017,133.3c-0.6-0.3-1.2-0.6-1.8-1c-0.8-0.6-1.6-1.3-2.5-1.3c1,0,1.8,0.7,2.6,1.3
				C1015.9,132.7,1016.5,133.1,1017,133.3z"/>
			<path class="st6" d="M1038.3,136.3c-2.9-0.7-5.7-1.9-8.2-4c-1.4-1.1-2.6-0.9-3.8-0.3c1.3-0.6,2.5-0.8,3.9,0.3
				C1032.7,134.4,1035.4,135.6,1038.3,136.3z"/>
			<path class="st6" d="M1066.3,121.8C1066.2,121.8,1066.2,121.9,1066.3,121.8c-2.2,8.4-8.3,12.6-15.9,15.1c0,0,0-0.1-0.1-0.1
				C1057.9,134.3,1064,130.2,1066.3,121.8C1066.2,121.9,1066.2,121.8,1066.3,121.8L1066.3,121.8z"/>
			<path class="st6" d="M1530.5,153.5c-0.9,0.6-2,1-3.2,1.2C1528.5,154.5,1529.6,154.1,1530.5,153.5z"/>
			<path class="st6" d="M1531.2,153c-0.2,0.2-0.5,0.3-0.7,0.5C1530.8,153.4,1531,153.2,1531.2,153z"/>
			<path class="st6" d="M1531.8,152.5c-0.2,0.2-0.4,0.4-0.6,0.5C1531.4,152.9,1531.6,152.7,1531.8,152.5z"/>
			<path class="st6" d="M1556.2,140c-1.4-0.1-2.9-0.4-4.5-0.9c0,0,0,0-0.1,0c0.1,0,0.1,0,0.2,0
				C1553.4,139.6,1554.9,139.9,1556.2,140z"/>
			<path class="st6" d="M1580.8,133.7c-1.6-0.3-3.1-1-4.6-2.1c-0.1-0.1-0.2-0.1-0.4-0.2c0.2,0,0.4,0.1,0.5,0.2
				C1577.8,132.7,1579.3,133.4,1580.8,133.7z"/>
			<path class="st6" d="M1594.7,134.1c-1-0.5-1.9-1.1-2.9-1.9c-0.6-0.5-1.3-0.8-2.1-0.8c0.8,0,1.6,0.3,2.2,0.8
				C1592.9,132.9,1593.8,133.6,1594.7,134.1z"/>
			<path class="st7" d="M486.5,136.9c-3.8,6.1-8.7,7.8-15.7,5.3c-1.7-0.6-2.7-1.7-3.7,0.9c-5.3,13.5-24.3,19.8-38.7,12.6
				c-3.7-1.9-6-1.8-9,1.3c-7,7.4-23.7,10.2-29.9,5.9c2.9-4.4,6.3-7.8,12.1-8c5.3-0.2,8.5-3.4,9.9-8.3c0-0.2,0.1-0.3,0.1-0.5
				c0.6-1.4,14.9-7.6,16.3-7.1c0.1,0,0.3,0.1,0.4,0.1c6,1.9,9.8,0.6,13.3-4.7c0.9-1.4,8.2-3.6,10.4-3.1c0.2,0,0.3,0.1,0.4,0.2
				c1,0.8,2,1.3,3,1.7c0.2,0.1,0.3,0.1,0.5,0.2c2.7,0.9,5.3,0.4,8.1-1.4c0.8-0.5,1.7-0.7,2.5-0.6l0,0c0.6,0.1,1.1,0.4,1.5,0.8
				c1.1,0.9,2.3,1.7,3.5,2.3h0.1C476.2,136.8,481.3,137.1,486.5,136.9z"/>
			<path class="st7" d="M1610.4,136.9c-3.8,6.1-8.7,7.8-15.7,5.3c-1.7-0.6-2.7-1.7-3.7,0.9c-5.3,13.5-24.3,19.8-38.7,12.6
				c-3.7-1.9-6-1.8-9,1.3c-7.1,7.4-23.7,10.2-29.9,5.9c2.9-4.4,6.3-7.8,12.1-8c0.2,0,0.3,0,0.4,0h0.1c0.2,0,0.4,0,0.6-0.1
				c0.2,0,0.5-0.1,0.7-0.1c1.2-0.2,2.2-0.7,3.2-1.2c0.2-0.1,0.5-0.3,0.7-0.5s0.4-0.3,0.6-0.5c0.1-0.1,0.3-0.2,0.4-0.4
				c0.1-0.1,0.3-0.3,0.4-0.4c0.2-0.3,0.5-0.6,0.7-0.9c0.9-1.2,1.5-2.6,2-4.2c0-0.2,0.1-0.3,0.1-0.5c0.5-1.2,11.3-6.1,15.1-7
				c0.1,0,0.2-0.1,0.3-0.1c0.1,0,0.2,0,0.3,0c0.1,0,0.2,0,0.3,0c0.1,0,0.1,0,0.1,0c0.1,0,0.1,0,0.2,0c1.6,0.5,3.1,0.9,4.4,0.9
				c0.4,0,0.8,0,1.1,0c3.2-0.2,5.8-2,8.1-5.5c0.9-1.3,7.3-3.3,9.9-3.1c0.1,0,0.2,0,0.3,0c0,0,0,0,0.1,0c0.2,0,0.4,0.1,0.5,0.2
				c1.5,1.1,3,1.9,4.5,2.1c0.2,0,0.4,0.1,0.7,0.1c0.2,0,0.5,0,0.8,0c0.2,0,0.4,0,0.7,0c1.6-0.1,3.3-0.7,5-1.8
				c0.6-0.4,1.2-0.6,1.9-0.6h0.1c0.8,0,1.6,0.3,2.2,0.8c0.9,0.7,1.8,1.4,2.8,1.9c0.3,0.1,0.5,0.3,0.8,0.4c0.2,0.1,0.4,0.2,0.6,0.3
				s0.5,0.2,0.7,0.3c0.3,0.1,0.6,0.2,0.9,0.3c0.8,0.3,1.7,0.5,2.5,0.7c0.6,0.2,1.3,0.3,1.9,0.4c2.6,0.4,5.4,0.5,8.1,0.4h0.1V136.9z"
				/>
			<path class="st7" d="M1048.6,137c-3.8,6.1-8.7,7.8-15.7,5.3c-1.7-0.6-2.7-1.7-3.7,0.9c-5.3,13.5-24.4,19.8-38.7,12.5
				c-3.7-1.8-6-1.8-9,1.4c-7.2,7.3-23.8,10.1-30.1,5.8c0,0,0,0-0.1,0c3-4,5.6-7.7,11.7-7.6c3.2,0.1,6.2-1.3,8.2-3.7
				c0.2-0.2,0.3-0.4,0.5-0.6c0.9-1.2,1.5-2.7,1.7-4.3c0.1-1.8,1.7-3.2,3.5-3h0.8c0.3,0,0.6,0,0.8,0s0.3,0,0.5-0.1
				c0.4-0.1,0.9-0.2,1.3-0.4c0.1,0,0.2-0.1,0.3-0.1c0.1-0.1,0.2-0.1,0.4-0.2c0.1,0,0.1-0.1,0.2-0.1c0.1,0,0.2-0.1,0.3-0.2
				c0.1,0,0.2-0.1,0.3-0.2c0.3-0.2,0.5-0.4,0.8-0.6c0.7-0.6,1.4-1.3,2.1-1.8c0.1-0.1,0.2-0.2,0.3-0.3s0.2-0.2,0.3-0.2
				c0.1-0.1,0.2-0.1,0.2-0.2c0.6-0.4,1.2-0.7,1.9-0.7h0.1c0.1,0,0.2,0,0.3,0s0.2,0,0.3,0c2.3-0.1,4.8,1.1,7.3,1.2c0.2,0,0.3,0,0.5,0
				s0.4,0,0.6,0c0.1,0,0.2,0,0.3,0c0.4,0,0.8-0.1,1.2-0.3c1.4-0.5,3.2-1.3,3.7-2.4c0.7-1.9,1.8-2.9,3.1-3.6c0.2-0.1,0.4-0.2,0.7-0.3
				c0.2-0.1,0.4-0.1,0.6-0.2c1.4-0.5,2.9-0.7,4.4-1.1h0.1c0.5-0.1,0.9-0.3,1.4-0.5c0.3-0.1,0.5-0.2,0.8-0.2c0.1,0,0.2,0,0.2,0
				c1,0,1.8,0.7,2.6,1.3c0.6,0.4,1.1,0.8,1.7,1c0,0,0,0,0.1,0c2.6,1.2,5.4,0.8,8.1-0.7c0.3-0.2,0.7-0.4,1-0.6h0.1
				c1.3-0.6,2.5-0.8,3.9,0.3c2.5,2,5.2,3.2,8.1,4l0,0c0.4,0.1,0.8,0.2,1.2,0.3c0.5,0.1,1,0.2,1.4,0.2c0.6,0.1,1.2,0.1,1.8,0.2
				c0.2,0,0.5,0,0.8,0c0.5,0,1,0.1,1.5,0.1c0.2,0,0.4,0,0.7,0C1046.6,137.1,1047.5,137,1048.6,137L1048.6,137z"/>
			<path class="st4" d="M322.5,149.7c-0.1,0-0.1,0-0.2,0c-2.2-0.5-4.5-1.1-5.9-3.3c0.9-1.3,1.7-3.5,3.4-2.9c0.1,0.1,0.3,0.1,0.4,0.2
				c0,0,0.1,0,0.1,0.1C322.2,144.9,322,147.6,322.5,149.7z"/>
			<path class="st4" d="M1446.3,149.7c-2.3-0.5-4.5-1.2-5.9-3.2l-0.1-0.1c1-1.5,2.4-2.7,4-3.6c0,0,0,0.1,0.1,0.1
				c0.1,0.2,0.2,0.5,0.3,0.7C1445.5,145.6,1446,147.6,1446.3,149.7z"/>
			<path class="st4" d="M884.4,149.7C884.3,149.7,884.3,149.7,884.4,149.7c-2.2-0.5-4.5-1.2-5.9-3.1c0,0-0.1-0.1-0.1-0.2l2.9-3.4
				l0.1-0.2h1.8v0.1C883.6,145.2,884,147.4,884.4,149.7z"/>
			<path class="st3" d="M1786.3,125.9L1786.3,125.9L1786.3,125.9L1786.3,125.9z"/>
			<path class="st3" d="M2052.3,150.7c-0.1,0-0.2,0-0.4,0v-0.1C2052,150.6,2052.1,150.6,2052.3,150.7
				C2052.2,150.6,2052.2,150.7,2052.3,150.7z"/>
			<path class="st3" d="M508.6,118c-0.9,0.2-1.8,0.7-2.4,1.9C506.9,118.7,507.7,118.2,508.6,118z"/>
			<path class="st8" d="M1958.6,133.1c-0.1,0-0.2,0-0.3,0v-0.3l0,0C1958.4,132.9,1958.5,133,1958.6,133.1z"/>
			<path class="st8" d="M2052.3,150.7c-0.1,0-0.2,0-0.4,0v-0.1C2052,150.6,2052.1,150.6,2052.3,150.7
				C2052.2,150.6,2052.2,150.7,2052.3,150.7z"/>
			<path class="st5" d="M1787.3,144.7c-0.3,1.1-0.5,2.4-2,1L1787.3,144.7z"/>
			<path class="st0" d="M1279.7,132.7c-0.6-0.3-1.2-0.8-1.5-1.9c0.1,0,0.1,0,0.1-0.1C1278.6,131.7,1279.1,132.3,1279.7,132.7z"/>
			<path class="st4" d="M1236.4,134.8c0,0.1,0,0.1,0,0.2c-0.1,1.7,0.1,3.6-2.5,3.7c-2.4,0-5,0.6-5.5-2.9c0-0.1,0-0.1,0-0.2
				C1231.1,136.1,1233.7,135.4,1236.4,134.8z"/>
			<path class="st4" d="M1259.4,135.8C1259.4,135.8,1259.4,135.9,1259.4,135.8c-0.2,1.7-0.8,3-2.7,2.7c-1.5-0.2-1.2-1.5-1.3-2.6
				v-0.1L1259.4,135.8L1259.4,135.8z"/>
			<path class="st1" d="M322.5,149.7c-0.1,0-0.1,0-0.2,0c0,0-0.1-0.1-0.1-0.2c-0.4-2-0.3-4.5-1.9-5.7
				C322.2,144.9,322,147.6,322.5,149.7z"/>
			<path class="st1" d="M455.4,133.2c-1.1-0.4-2.2-1-3.3-1.8c0,0-0.1,0-0.1-0.1c0.2,0,0.3,0.1,0.4,0.2
				C453.4,132.3,454.4,132.8,455.4,133.2z"/>
			<path class="st1" d="M471.5,134.5c-1.3-0.6-2.6-1.4-3.8-2.4c-0.4-0.3-0.8-0.5-1.2-0.7c0.6,0.1,1.1,0.4,1.5,0.8
				C469.2,133.1,470.3,133.9,471.5,134.5z"/>
			<path class="st1" d="M1409.6,139L1409.6,139L1409.6,139L1409.6,139z"/>
			<path class="st1" d="M2052.3,150.7c-0.1,0-0.2,0-0.4,0v-0.1C2052,150.6,2052.1,150.6,2052.3,150.7
				C2052.2,150.6,2052.2,150.7,2052.3,150.7z"/>
			<path class="st1" d="M2086,144.6c0,0.1,0,0.3,0,0.4h-1c-0.1,0-0.3,0.1-0.4,0.1c0.2-0.2,0.5-0.4,0.8-0.5H2086z"/>
			<path class="st1" d="M2089,142.6c0,0.1-0.1,0.3-0.1,0.4h-0.7c0-0.1,0-0.3,0-0.4H2089z"/>
			<path class="st1" d="M2093,140.6c0,0.1,0,0.3,0,0.4h-0.9c0.1-0.1,0.1-0.3,0.2-0.4H2093z"/>
			<path class="st1" d="M2097.3,138.6v0.1c-0.1,0.1-0.2,0.2-0.3,0.3h-1.7c0-0.1,0-0.3,0-0.4L2097.3,138.6L2097.3,138.6z"/>
			<path class="st1" d="M2231.3,97.8v2h-0.1C2231.2,99.2,2231.2,98.5,2231.3,97.8z"/>
			<path class="st5" d="M2267.9,124.6c0,0-0.1,0-0.1-0.1c-3.5-1.9-5.8-1.3-8.8,2.2c-5.4,6.4-15,5.9-20.4-0.5c-1.7-2-2.4-2-3.8-0.1
				c-1.1,1.4-2.9,1.9-4.6,1.2c-3.7-1.4-5.4,0.1-6.4,3.5c-0.2,1.4-1.3,2.4-2.6,2.7c-2.1-0.1-4.2-0.1-6.3,0c-1,0.1-2.1-0.1-3.2-0.1
				c1,0,2.1,0.3,3,0.2c2.1-0.1,4.2-0.1,6.3,0c-3.4,4.6-7.7,3.3-12.1,1.9l-2-0.9l-1,1v-0.1c-1.7,14.2-17.7,23.7-33.2,21.6
				c-6.7-0.9-13-2.9-18.4-7.1c-2.3-1.8-3.4-1.6-4.7,1.3c-3.6,8.5-7.9,11-16.7,9.8c-2.2-0.3-3.2,0.1-4.5,1.8
				c-5.4,7-12.7,7.9-19.4,2.2c-2.5-2.1-3.8-1.2-5.9,0.4c-9.1,6.6-18.1,5.5-25.6-2.7c-1.3-1.5-3.2-2.4-5.2-2.3
				c-6.1-0.3-11-2.6-12.8-9.1c-0.3-0.9-0.9-2.3-1.6-2.4c-4.6-0.6-8.6-1.8-11.5-5.8c-0.8-1.1-2.4,0.4-3.6,0.8
				c-6.1,1.9-10.5,0.1-13.1-5.4c0.4,0,0.8-0.1,1.2-0.3c-0.3,0.2-0.6,0.2-1,0.2c0,0,0,0-0.1,0l-0.8-1.9h-0.1c-3.4,1.6-6.4,0.7-8.9-2
				c-2.6,4.1-7,5.6-11.5,3c-2.7-1.5-4.4-1.1-6.6,0.4c-8.7,5.8-23,4.7-29.3-1.6c-0.8-0.7-1.5-1.7-1.8-2.8c-3.5-2-3.6-6.1-5.5-9.5
				c-9.4,9.6-20.3,10.6-32.1,5.5c-1.8-0.8-3.9-1.3-4.3-3.7c0.8-1.6,2.5-1.5,3.8-2.1c5.5-2.9,9.7-6.9,11.2-13.1
				c0.7-0.6,1.4-1.3,2-1.8c0,0,0,0,0.1,0c2.1,3,5.2,4.5,8.4,5.9c2.1,0.9,4.2,1.5,6.2,1.8c0.4,0.1,0.8,0.1,1.2,0.2
				c0.4,0,0.8,0.1,1.2,0.1c0.7,0,1.5,0,2.2,0c5.6-0.2,10.9-2.4,16.2-5.4c0.7-0.4,1.4-1,2-1.1c0.1,0,0.1,0,0.2,0
				c0.5,0,1.1,0.3,1.7,1.2c1.9,2.8,4.3,4.3,6.9,4.7l0,0c0.4,0.1,0.8,0.1,1.2,0.1c0.4,0,0.8,0,1.2,0c0.2,0,0.4,0,0.6,0
				c1.3-0.1,2.8-0.5,4.2-1c0.4-0.2,0.8-0.3,1.2-0.4c0.1,0,0.2,0,0.4,0c0.1,0,0.3,0,0.4,0s0.1,0,0.2,0c1.4,0.1,2.4,1.1,3.3,2.8
				c3.6,6.8,9.3,10.9,16.7,13c1.5,0.4,3,0.7,4.5,0.9l0,0c0.5,0,1,0.1,1.5,0.1c0.6,0,1.2,0,1.8,0c0.3,0,0.6,0,0.9,0
				c0.1,0,0.1,0,0.2,0c4.7-0.4,9.3-1.9,13.8-3.8c0.7-0.3,1.3-0.5,1.9-0.7c0.1,0,0.2,0,0.4-0.1c0.1,0,0.2,0,0.4,0c0.1,0,0.2,0,0.3,0
				c0.1,0,0.2,0,0.3,0c0.9,0.1,1.7,0.5,2.5,1.4c8,8.4,19.4,10.8,29.8,8.6c0.8-0.2,1.6-0.4,2.4-0.6c0.3-0.1,0.6-0.2,1-0.3
				c1.2-0.4,2.4-0.9,3.6-1.4c0.3-0.2,0.6-0.3,0.9-0.5c0.3-0.1,0.6-0.3,0.9-0.5c0.5-0.3,1.1-0.6,1.6-0.9c3.6-2.2,6.8-5.1,9.2-8.6
				c0.6-0.9,1.2-1.4,1.8-1.6h0.1c0.7-0.2,1.5,0.1,2.5,0.7c1.6,0.9,3.2,1.4,4.7,1.5c0.4,0,0.7,0,1.1,0c0.2,0,0.3,0,0.5,0
				c0.1,0,0.3,0,0.5-0.1c2.3-0.3,4.4-1.6,6.4-3.6c1.2-1.2,2.2-1.8,3.3-1.9h0.1c0.1,0,0.2,0,0.3,0c0.8,0.1,1.7,0.4,2.7,1.2
				c1.8,1.3,3.8,2.3,5.9,3c0.3,0.1,0.6,0.2,0.9,0.3c11.2,3.2,24.8-1.4,30.8-8.8c0.8-0.9,1.3-1.4,2.1-1.5h0.1c0.5,0,1.1,0.2,1.8,0.6
				c2.9,1.6,5.6,2.6,8.1,3c0.2,0,0.4,0.1,0.6,0.1h0.1c0.4,0,0.8,0.1,1.2,0.1c0.5,0,0.9,0,1.4,0c4.5-0.2,8.5-2.6,12.4-7.3
				c1.3-1.4,2.3-2,3.6-1.8l0,0c0.1,0,0.2,0,0.4,0.1c0.4,0.1,0.9,0.2,1.4,0.5c2.8,1.2,5.8,1.7,8.7,1.2c0.2,0,0.4-0.1,0.6-0.1
				c0.2,0,0.4-0.1,0.6-0.2c0.1,0,0.2,0,0.2-0.1c0.1,0,0.2-0.1,0.3-0.1s0.2-0.1,0.3-0.1c0.6-0.2,1.2-0.5,1.7-0.9
				c0.4-0.3,0.8-0.5,1.1-0.6c0.1,0,0.2-0.1,0.3-0.1c1.8-0.7,2.9,0.1,4.5,2.1c3.8,4.9,9.2,6.8,14.3,5.3c0.2,0,0.3-0.1,0.5-0.2h0.1
				c0.2-0.1,0.3-0.1,0.5-0.2c1.2-0.5,2.4-1.2,3.5-2.1c2.1-1.7,3.8-3.5,6-3c0.1,0,0.2,0,0.3,0.1c0,0,0,0,0.1,0l0,0l0,0
				c0.1,0,0.2,0.1,0.3,0.2c0.6,0.3,1.2,0.7,1.9,1.4c0.6,0.3,1.2,0.5,1.8,0.5h0.1c0.1,0,0.2,0,0.3,0c0.4,0,0.7-0.1,1.1-0.2
				c0.8-0.3,1.4-0.5,1.9-0.5h0.1c0.1,0,0.2,0,0.3,0c1.5,0.1,2.2,1.6,3.1,3.4c1.5,3,3.8,5.3,6.3,6.2c0.4,0.2,0.9,0.3,1.3,0.3
				c0.2,0,0.4,0.1,0.7,0.1c0.5,0,0.9,0,1.4,0c0.2,0,0.4,0,0.6-0.1c0.6-0.1,1.2-0.3,1.9-0.5c1.9-0.8,3.3-1,4.2-0.8
				c0.1,0,0.2,0.1,0.4,0.1c0.1,0,0.2,0.1,0.3,0.1C2267.2,120.5,2267.6,122.2,2267.9,124.6z"/>
		</g>
		<path class="st0" d="M-23.9,75.1l2283.4-7.4v59.9c-12.7-2.7-31.8-5.6-54.9-4.5c-57,2.9-63.8,27.1-112,26.7
			c-17.5-0.2-55.8-3.7-93.2-19.6c-7.4-3.2-14.9-6.9-26.6-8.7c-27.8-4.3-49.6,6.6-64.2,12.9c-5,2.1-81.3,34.2-156,23.3
			c-21.6-3.2-17.7-6.2-50.3-12c-25.1-4.5-59.5-8.4-100.4-5.9c-35.2,2.2-52.8,3.3-66.8,11.9c-10.5,6.5-24.2,18.3-30.1,14.1
			c-4.4-3.1-0.5-12.3-5.5-15.5c-5.9-3.8-13.9,7-24.3,4.1c-8.1-2.3-7.9-10-15.3-11.3c-9-1.6-11.9,9.1-21.9,9.6
			c-14,0.6-20-19.9-32.8-18.3c-7.1,0.9-6.5,7.4-16.1,10c-8.3,2.2-19.1,0-26.6-6c-6-4.8-6.7-9.6-11.9-10.3c-4.2-0.6-6.3,2.2-12.2,4.3
			c-8.3,3-15.3,1.5-19.4,1.1c-26.5-2.5-77,28.7-129.6,20.3c-13.2-2.1-17.4-5.3-33.8-6.4c-16.8-1.2-28.7,1-34.7-6.4
			c-3-3.8-3.3-8.6-3.1-12.1c-1.9,2.2-5,5.1-9.4,6c-6.4,1.3-10.4-2.7-18.6-4.1c-5-0.8-9.1-0.1-17.3,1.5c-15.6,2.9-18.4,7.3-30.5,7.6
			c-2.5,0.1-6.6,0-10.8-0.4c-6.4-0.5-10.8-1.4-12.5-1.7c-13.5-2.2-27.9,4-29.1,4.6c-14.9,6.7-11.6,15.5-24.7,21.9
			c-18.6,9.1-40.9-1.4-42.3-2.1c-11.9-5.8-11.1-11.5-20-13.1c-15.2-2.8-23.1,12.3-34.5,8.3c-10.9-3.8-12.4-20.8-18-20
			c-4.4,0.6-2.9,10.9-10.4,17.3c-9,7.6-27.1,6.5-34.1-2.2c-7.2-8.9,0.8-21.5-4.8-25.2c-5.8-3.9-17.4,7.9-33.6,16.3
			c-4.7,2.5-12.6,6.2-55.9,12.4c-42,6.1-63,9.1-79.4,7.6c-23.1-2.2-14.4-6.1-59.8-15.8c-52.1-11.1-81.9-9.9-92.1-8
			c-1.8,0.3-5.4,1.1-10.5,1c-10.5-0.2-14.5-4.1-22.1-4.4c-5.4-0.2-9.4,1.5-18.4,6.2c-33,17.3-38.6,25.8-48,23.4
			c-9.4-2.5-8.7-12.2-18.7-13.6c-11.2-1.6-16.2,9.9-25.9,7.3c-8.6-2.3-9.7-12.8-18.6-13.5c-3.7-0.3-5.6,1.4-10,3.3
			c-16.1,7.1-35.3,3.9-46.9-1.6c-7.1-3.4-5.4-4.7-12.4-8.4c-14.3-7.4-29.5-6-43.9-3.4c-25.4,4.6-32.1,10-56.3,16.9
			c-32.1,9.2-58.5,16.7-85.5,7.3c-8.6-3-18.3-13.3-33.8-13.5c-4.4-0.1-8.4,0.6-15.4-0.6c-8.5-1.5-14.7-4.7-20.4-7.6
			c-4.6-2.4-10.7-6-17.4-11.4C-23.9,109.8-23.9,92.5-23.9,75.1z"/>
	</g>
</g>
<path class="st9" d="M2246.8,76.2v-292.1H1.1v286c-1,0.1-1.2,0.7-1.1,2.1c0.1,4.7,0,9.3,0,14h0.1v3H0l-0.4,12.9
	c0.1,0.1,0.3,0.2,0.4,0.3c4.4,3.2,9.3,4.3,14.4,1.7c2.4-1.2,3.1,0,4,1.9c5,10,15.8,15.8,27,14.4c4.8-0.6,9.5-1.2,13.8-3.7
	c1.7-1,3.1-0.7,4.4,0.7c13.4,13.7,32.5,11.9,46.9,0.5c0.2-0.3,0.3-0.7,0.5-1c0,0,0,0,0-0.1c1.8-3.7,3.5-6.6,9.2-3.6
	c3.9,2.1,8.4-0.1,11.6-3.4c1.5-1.5,2.4-2.2,4.5-0.9c11.1,6.7,22.2,5.8,33.3-0.1c0.4-0.3,0.8-0.6,1.1-1c3.7-4.1,7.1-5.1,12.8-2.5
	c7.1,3.3,13.9,0.2,18.7-5.9c1.7-2.1,2.9-2.8,5.7-1.6c4.4,1.8,9,2.1,13.3-0.8c1.6-1.1,2.9-1.2,4.2,0.6c6.3,8.7,16.7,9,22.7,1.3
	c0.5-0.6,1.8-1.6,1.9-1.2c2.4,6.2,9.7-1,12,4.3c1.1,2.1,2.3,4,3.6,5.9c2.8,2.3,6.4,3.1,9.2,1.6c4.7-2.5,5.9-0.6,6.4,2.4
	c0.1,0.6,0.2,1.3,0.3,2.1c6.9,11.8,17.2,17.7,30.9,16.8c6.9-0.5,13.1-3.4,19.2-6.3c0.9-1.4,1.8-3.5,3.4-2.9c0.3,0.1,0.5,0.2,0.7,0.4
	c0,0,0.1,0,0.1,0.1c1.9,1.2,1.7,3.8,2.2,5.9c-0.1,0-0.1,0-0.2,0c4.1,5.3,9,8.5,16.1,6.2c1.7-0.5,2.6,0.1,3.7,1.5
	c6,7.8,12.6,8.6,20.4,2.3c1.4-1.1,2.3-1.5,3.8-0.3c7,5.8,14.7,6.6,22.9,3.4c2.9-4.4,6.3-7.8,12.1-8c5.3-0.1,8.5-3.3,9.9-8.3
	c0-0.2,0.1-0.3,0.1-0.5c0.6-1.4,14.8-7.6,16.3-7.1c0.1,0,0.2,0.1,0.3,0.1c0.1,0,0.3,0.1,0.4,0.1c5.8,1.8,9.5,0.4,13-4.8
	c1-1.5,9-3.9,10.7-3c0.2,0,0.3,0.1,0.4,0.2c1,0.8,2,1.3,3,1.7c0.2,0.1,0.3,0.1,0.5,0.2c2.6,0.7,5.1,0.2,7.8-1.5
	c0.8-0.6,1.9-0.8,2.8-0.5l0,0c0.6,0.1,1.1,0.4,1.5,0.8c1.1,0.9,2.3,1.7,3.5,2.3h0.1c4.5,2.1,9.5,2.5,14.5,2.3l1.9-0.1
	c7.6-2.6,13.7-6.6,15.9-14.8c0.1,0,0.2,0,0.3,0l0.1-0.1l1.9-1.8l0,0c0.6-1.2,1.4-1.7,2.4-1.9c-0.9,0.2-1.8,0.7-2.4,1.9l0.1-0.1
	c0.8,1,1.8,1.9,2.8,2.8c10.1,7,20.6,6.7,30.9,0.7c3.2-1.9,5.3-2.3,7.5,1c1.7,2.6,5.3,3.9,7.5,3c6.5-2.6,9.2-0.1,13.2,5.2
	c8.4,11.2,22.4,13.2,36,6.6c3-1.5,4.9-1.3,7.4,1.1c11.7,11.1,30.2,11.1,42.3,1.3c0.4-0.3,0.8-0.6,1.2-1c0.7-0.6,1.4-1.3,2-2
	c0.9-1,1.7-2,2.5-3.1c0.1-0.2,0.2-0.3,0.4-0.5l0.1-0.1c0.1-0.1,0.2-0.2,0.3-0.3c1.2-1.4,2.3-1.5,4.2-0.5c2.3,1.3,4.6,1.7,6.7,1.4
	c0.2,0,0.3,0,0.5-0.1c0.5-0.1,1-0.2,1.6-0.4c1.3-0.5,2.5-1.2,3.7-2.1c0.1-0.1,0.2-0.2,0.4-0.3c0.2-0.2,0.4-0.3,0.6-0.5
	c0.2-0.2,0.3-0.3,0.5-0.5c0.1-0.1,0.2-0.2,0.4-0.4c1.6-1.5,2.6-1.5,4.7-0.2c7.1,4.1,14.3,5.4,21.2,4.2c0.6-0.1,1.1-0.2,1.7-0.4
	c0.5-0.1,0.9-0.2,1.3-0.4c4.5-1.4,8.7-3.9,12.7-7.6c0.3-0.3,0.7-0.6,1-0.8c0.1-0.1,0.3-0.2,0.4-0.2c1.5-0.9,2.9-0.9,4.9-0.1
	c7.8,3.7,13.9,3.2,19.5-1.7c0.2-0.2,0.4-0.4,0.6-0.6c0.5-0.5,1-0.9,1.5-1.5c0.3-0.3,0.5-0.6,0.8-0.9l0.1-0.1c0-0.1,0.1-0.1,0.1-0.2
	c0.1-0.1,0.2-0.2,0.3-0.3c0.1-0.1,0.2-0.2,0.3-0.3c1.4-1.3,2.5-1.6,4.7-0.6c4.1,1.8,8.5,2.1,12.5-0.3c2.7-1.6,4-1.5,6,1.2
	c5,6.5,12.9,7.8,18.8,2.9c0.1-0.1,0.3-0.2,0.4-0.3c0.2-0.2,0.4-0.3,0.5-0.4c0.4-0.3,0.7-0.6,1.1-0.8c0.1-0.1,0.2-0.1,0.2-0.2
	c0,0,0,0,0.1,0c2.1-1.4,4-1.9,6.7,0.6c1.1,0.8,2.7,0.8,3.8,0c2.9-2.2,3.5-0.2,4.3,2c2.3,6.1,7.1,9.4,12.2,7.1c5.6-2.5,6.6-0.1,7,4.4
	c0,0-0.1,0-0.1-0.1c0,0.1,0,0.1,0,0.2c6.8,12.1,17.2,17.6,30.9,17.2c6.9-0.3,13-3.5,19.2-6.3l0.1-0.1c0,0-0.1-0.1-0.1-0.2l2.9-3.4
	l0.1-0.2h1.8v0.1c0.4,2.3,0.8,4.5,1.2,6.8l0,0v0.1c4.2,5.5,9.1,8.8,16.3,6.4c1.7-0.6,2.6,0.1,3.7,1.5c5.8,7.6,13,8.5,20,2.6
	c1.5-1.2,2.4-2.2,4.2-0.6c6.8,6,14.6,6.4,22.8,3.3v-0.1l0,0c3-4,5.6-7.7,11.7-7.6c3.2,0.1,6.2-1.3,8.2-3.7c0.2-0.2,0.3-0.4,0.5-0.6
	c0.8-1.2,1.4-2.7,1.6-4.2v-0.3c0.3-1.8,2-3.1,3.8-2.8h0.6c0.3,0,0.6,0,0.8,0s0.3,0,0.5-0.1c0.5-0.1,0.9-0.2,1.3-0.4
	c0.1,0,0.2-0.1,0.3-0.1c0.1-0.1,0.2-0.1,0.4-0.2c0.1,0,0.1-0.1,0.2-0.1c0.1,0,0.2-0.1,0.3-0.2s0.2-0.1,0.3-0.2
	c0.3-0.2,0.5-0.4,0.8-0.6c0.7-0.6,1.4-1.3,2.1-1.8c0.1-0.1,0.2-0.2,0.3-0.3c0.1-0.1,0.2-0.2,0.3-0.2c0.1-0.1,0.2-0.1,0.2-0.2
	c0.6-0.4,1.2-0.7,1.8-0.7c0.1,0,0.1,0,0.2,0c0.1,0,0.2,0,0.3,0s0.2,0,0.3,0c2.3-0.1,4.8,1.1,7.3,1.2c0.2,0,0.3,0,0.5,0s0.4,0,0.6,0
	c0.1,0,0.2,0,0.3,0c0.4-0.1,0.7-0.1,1.1-0.3c1.4-0.5,3.3-1.3,3.7-2.4c0.7-1.9,1.8-3,3.2-3.6c0.2-0.1,0.4-0.2,0.7-0.3
	c0.2-0.1,0.4-0.2,0.6-0.2c1.4-0.5,2.9-0.7,4.4-1.1h0.1c0.4-0.1,0.9-0.3,1.3-0.5c0.3-0.1,0.6-0.2,0.9-0.2c0.1,0,0.2,0,0.2,0
	c1,0,1.8,0.7,2.6,1.3c0.6,0.4,1.1,0.8,1.7,1c0,0,0,0,0.1,0c2.6,1.1,5.3,0.7,8-0.7c0.4-0.2,0.8-0.4,1.1-0.6h0.1
	c1.3-0.6,2.5-0.8,3.9,0.3c2.5,2,5.2,3.2,8.1,4l0,0c0.4,0.1,0.8,0.2,1.2,0.3c0.5,0.1,1,0.2,1.4,0.2c0.6,0.1,1.2,0.1,1.8,0.2
	c0.2,0,0.5,0,0.8,0c0.5,0,1,0.1,1.5,0.1c0.2,0,0.4,0,0.7,0c0.9,0,1.8,0,2.8,0l1.8-0.1c0,0,0,0,0.1,0c0,0,0-0.1-0.1-0.1
	c7.6-2.5,13.7-6.6,16-14.9v-0.1v-0.1c0.8-1.4,1.2-3.2,3.4-1.1c10.3,9.9,24,8.4,33.9,2c1.3-0.9,2.5-2.4,4-0.8c0,0,0.1,0,0.1,0.1
	c0.2,0.2,0.4,0.4,0.6,0.8c0.3,0.4,0.5,0.8,0.8,1.1c0.1,0.1,0.2,0.3,0.4,0.4c3.6,3.8,8.2,3.6,13.1,1.8c1.5-0.5,2.7-1,3.6,0
	c0.4,0.3,0.7,0.8,0.9,1.5c0.8,2.6,2.3,4.9,4.2,6.9c0.2,0.2,0.4,0.4,0.5,0.6c0.2,0.2,0.4,0.4,0.6,0.6c7.8,7,21.2,9.7,32.5,4.1
	c3.9-1.9,6.2-1.6,9.4,1.5c11.5,10.7,30.3,10.1,43.8-1l1.9-1.6c0.1,0.1,0.1,0.2,0.2,0.3l0,0c0,0,0-0.1,0.1-0.1c0,0,0-0.1-0.1-0.1
	c3-6.2,3-6.2,8.1-3c2.7,0.5,5.3-0.2,8-0.8c4.5-5.1,9.4-5.1,14.5-0.9c1.3,1.1,3.3,0.4,4.5,1.8v0.1h4v-0.1c6.8,0.3,13-1.8,18.9-4.9
	c0-0.1,0-0.1-0.1-0.2c0.4-0.3,0.7-0.6,1.1-1c3.6-4.2,7.1-5.1,12.8-2.5c7.1,3.3,14,0.3,18.9-5.9c1.7-2.2,3.1-2.9,5.7-1.5
	c4.4,2.3,9,2.2,13.1-0.9c1.8-1.3,3-1,4.5,0.8c7.2,8.7,14.1,8.9,22.4,1c1.5-1.5,2.2-1.4,3.5,0.1c1.1,1.3,3.1,2.3,4.5,1.6
	c3.2-1.7,4.9-1,5.9,0.7c0,0,0,0.1,0.1,0.1c0.6,0.9,1,2.1,1.4,3.5c0.3,1.2,1.5,2.2,2.3,3.2c2.8,2.3,6.4,3.1,9.2,1.6
	c2.9-1.5,4.4-1.4,5.3-0.4c1,0.9,1.2,2.9,1.5,5c0,0,0,0-0.1,0c6.8,12,17.2,17.5,30.9,16.8c6.9-0.3,13-3.5,19.2-6.3l-0.1-0.1
	c1-1.5,2.4-2.7,4-3.6c0,0,0,0.1,0.1,0.1c0.1,0.2,0.2,0.5,0.3,0.7c0.9,1.9,1.4,4,1.7,6c4.1,5.4,9,8.7,16.2,6.4
	c1.7-0.5,2.6,0.1,3.7,1.5c6,7.8,12.6,8.6,20.4,2.3c1.4-1.1,2.3-1.5,3.8-0.3c6.9,5.8,14.6,6.6,22.8,3.4c2.9-4.4,6.3-7.8,12.1-8h0.1
	c0.2,0,0.3,0,0.4,0h0.1c0.2,0,0.4,0,0.6-0.1c0.2,0,0.5-0.1,0.7-0.1c1.2-0.2,2.2-0.7,3.2-1.2c0.2-0.1,0.5-0.3,0.7-0.5
	s0.4-0.3,0.6-0.5c0.1-0.1,0.3-0.2,0.4-0.4c0.1-0.1,0.3-0.3,0.4-0.4c0.2-0.3,0.5-0.6,0.7-0.9c0.8-1.2,1.5-2.6,1.9-4.2
	c0-0.2,0.1-0.3,0.1-0.5c0.5-1.2,11.5-6.1,15.2-7c0.1,0,0.2-0.1,0.3-0.1c0.1,0,0.2,0,0.3,0c0.1,0,0.2,0,0.3,0c0.1,0,0.1,0,0.1,0
	c0.1,0,0.1,0,0.2,0c1.6,0.5,3.1,0.9,4.4,0.9c0.4,0,0.8,0,1.1,0c3.2-0.2,5.7-2,8-5.5c0.9-1.3,7.5-3.4,10-3.1c0.1,0,0.2,0,0.3,0
	c0,0,0,0,0.1,0c0.2,0,0.4,0.1,0.5,0.2c1.5,1.1,3,1.9,4.5,2.1c0.2,0,0.4,0.1,0.7,0.1c0.2,0,0.5,0,0.8,0c0.2,0,0.4,0,0.7,0
	c1.6-0.1,3.2-0.7,4.9-1.8c0.6-0.4,1.3-0.6,2-0.6h0.1c0.8,0,1.6,0.3,2.2,0.8c0.9,0.7,1.8,1.4,2.8,1.9c0.3,0.1,0.5,0.3,0.8,0.4
	c0.2,0.1,0.4,0.2,0.6,0.3c0.2,0.1,0.5,0.2,0.7,0.3c0.3,0.1,0.6,0.2,0.9,0.3c0.8,0.3,1.7,0.5,2.5,0.7c0.6,0.2,1.3,0.3,1.9,0.4
	c2.6,0.4,5.4,0.5,8.1,0.4h0.1l2.8,0.1c0.8-1.5,2.5-1.4,3.8-2.1c5.5-2.9,9.7-6.8,11.2-13.1c0.6-0.6,1.3-1.2,1.9-1.9
	c0.1,0,0.2,0.1,0.3,0.1c0,0,0,0,0.1,0c2.1,3,5.2,4.5,8.4,5.9c2.1,0.9,4.2,1.5,6.2,1.8c0.4,0.1,0.8,0.1,1.2,0.2
	c0.4,0,0.8,0.1,1.2,0.1c0.7,0,1.5,0,2.2,0c5.6-0.2,10.9-2.4,16.1-5.4c0.8-0.4,1.4-1,2.1-1.1c0.1,0,0.1,0,0.2,0
	c0.5,0,1.1,0.3,1.7,1.2c1.9,2.8,4.3,4.3,6.9,4.7l0,0c0.4,0.1,0.8,0.1,1.2,0.1c0.4,0,0.8,0,1.2,0c0.2,0,0.4,0,0.6,0
	c1.3-0.1,2.7-0.5,4.1-1c0.5-0.2,0.9-0.3,1.3-0.4c0.1,0,0.2,0,0.4,0c0.1,0,0.3,0,0.4,0s0.1,0,0.2,0c1.4,0.1,2.4,1.1,3.3,2.8
	c3.6,6.8,9.3,10.9,16.7,13c1.5,0.4,3,0.7,4.5,0.9l0,0c0.5,0,1,0.1,1.5,0.1c0.6,0,1.2,0,1.8,0c0.3,0,0.6,0,0.9,0c0.1,0,0.1,0,0.2,0
	c4.7-0.4,9.2-1.9,13.7-3.8c0.7-0.3,1.4-0.5,2-0.7c0.1,0,0.2-0.1,0.4-0.1c0.1,0,0.2,0,0.4,0c0.1,0,0.2,0,0.3,0c0.1,0,0.2,0,0.3,0
	c0.9,0.1,1.7,0.5,2.5,1.4c8,8.4,19.4,10.8,29.8,8.6c0.8-0.2,1.6-0.4,2.4-0.6c0.3-0.1,0.6-0.2,1-0.3c1.2-0.4,2.4-0.9,3.6-1.4
	c0.3-0.2,0.6-0.3,0.9-0.5c0.3-0.1,0.6-0.3,0.9-0.5c0.5-0.3,1.1-0.6,1.6-0.9c3.6-2.2,6.8-5.1,9.1-8.6c0.7-1,1.2-1.5,1.9-1.6h0.1
	c0.7-0.2,1.5,0.1,2.5,0.7c1.6,0.9,3.2,1.4,4.7,1.5c0.4,0,0.7,0,1.1,0c0.2,0,0.3,0,0.5,0s0.3,0,0.5-0.1c2.2-0.4,4.3-1.6,6.3-3.6
	c1.2-1.2,2.2-1.9,3.4-1.9l0,0c0.1,0,0.2,0,0.3,0c0.8,0.1,1.7,0.4,2.7,1.2c1.8,1.3,3.8,2.3,5.9,3c0.3,0.1,0.6,0.2,0.9,0.3
	c11.2,3.2,24.8-1.4,30.8-8.8c0.8-1,1.4-1.5,2.2-1.5h0.1c0.5,0,1.1,0.2,1.8,0.6c2.9,1.6,5.6,2.6,8.1,3c0.2,0,0.4,0.1,0.6,0.1
	c0,0,0,0,0.1,0c0.4,0,0.8,0.1,1.2,0.1c0.5,0,0.9,0,1.4,0c4.4-0.3,8.4-2.7,12.3-7.3c1.3-1.5,2.3-2,3.7-1.8l0,0c0.1,0,0.2,0,0.4,0.1
	c0.4,0.1,0.9,0.2,1.4,0.5c2.8,1.2,5.8,1.7,8.7,1.2c0.2,0,0.4-0.1,0.6-0.1s0.4-0.1,0.6-0.2c0.1,0,0.2,0,0.2-0.1
	c0.1,0,0.2-0.1,0.3-0.1c0.1,0,0.2-0.1,0.3-0.1c0.6-0.2,1.1-0.5,1.6-0.9c0.4-0.3,0.9-0.5,1.2-0.6c0.1-0.1,0.2-0.1,0.3-0.1
	c1.8-0.7,2.9,0.1,4.5,2.1c3.8,4.9,9.2,6.8,14.3,5.3c0.2,0,0.3-0.1,0.5-0.2h0.1c0.2-0.1,0.3-0.1,0.5-0.2c1.2-0.5,2.3-1.2,3.4-2.1
	c2.1-1.7,3.9-3.6,6.1-3c0.1,0,0.2,0,0.3,0.1c0,0,0,0,0.1,0l0,0l0,0c0.1,0,0.2,0.1,0.3,0.2c0.6,0.3,1.2,0.7,1.9,1.4
	c0.6,0.3,1.2,0.5,1.8,0.5h0.1c0.1,0,0.2,0,0.3,0c0.3,0,0.7-0.1,1-0.2c0.8-0.4,1.5-0.5,2-0.5h0.1c0.1,0,0.2,0,0.3,0
	c1.5,0.1,2.2,1.6,3.1,3.4c1.5,3,3.8,5.3,6.3,6.2c0.4,0.2,0.9,0.3,1.3,0.3c0.2,0,0.4,0.1,0.7,0.1c0.5,0,0.9,0,1.4,0
	c0.2,0,0.4,0,0.6-0.1c0.6-0.1,1.2-0.3,1.8-0.5c2-0.8,3.4-1.1,4.3-0.8c0.1,0,0.2,0.1,0.3,0.1c0.1,0,0.2,0.1,0.3,0.1
	c1.2,0.7,1.7,2.5,1.9,4.8c0,0-0.1,0-0.1-0.1c0,0,0,0,0,0.1c6.8,12,17.2,17.7,30.9,17c6.9-0.5,13.1-3.4,19.2-6.3v-0.1
	c1.4,2.1,3.7,2.8,6,3.3c-0.3-2.4-1-4.7-2.1-6.9c0.3-0.3,0.5-0.5,0.7-0.5c-0.2,0.1-0.4,0.2-0.6,0.5c-0.2,0.4-0.8,1.8-0.4,3.4
	c0.5,2.2,2.2,3.3,2.5,3.5c4.3,5.5,9.4,8.8,16.7,6.2c1.5-0.5,2.3,0.4,3.2,1.6c5.9,7.7,12.5,8.5,20.4,2.3c1.4-1.1,2.4-1.4,3.8-0.2
	c6.9,5.9,14.6,6.5,22.8,3.3c2.9-4.4,6.2-8,12.2-7.9c3.6,0,6-2.4,8.7-4.3c0.9-2.2,1.3-4.5,1.2-6.9l-0.1-0.1c-1.5,0.7-4,1.7-7.3,2.6
	c-12.4,3.5-16.3,0-25.2,3.8c-3.6,1.6-5.4,3.2-9.8,3.9c-3.4,0.5-6.1-0.3-8.5-0.2c-13.9,0.8-25.8-4.9-37.6-11
	c-0.2-0.1-0.4-0.2-0.6-0.3c0.2,0.1,0.3,0.1,0.5,0.2c4.7,3.6,12.6,8.7,23.4,11.7c7.7,2.1,13.3,2.1,23.5,2c14.3,0,24.9-0.2,34.8-6.9
	c3.2-2.2,5.5-4.4,6.8-5.9v-4.9c6.3-5.9,13.2-10.4,22.2-9.9l0,0c0.5-0.2,1-0.3,1.5-0.5c1.1-0.3,2.2-0.5,3.3-0.6
	c9.2-4.1,19.4-5.2,29.2-3.1c4.8,1.1,9.5,1.7,14.3,1.7c5.2,0,10.4-0.8,15.5-2.6c0-1.3,0.8-2.5,2-3c2.2-1.4,4.1-3.2,7-3l2-1
	c4.6-1.4,9.1-0.6,13.7-0.1c4.5,0.5,9,0.2,13.3-0.9l2-1h2c1-2.9,3.7-2.6,6-3c0-4-0.2-8-0.1-12C2246.7,77.5,2246.7,76.9,2246.8,76.2z
	 M1801.8,104.3L1801.8,104.3L1801.8,104.3L1801.8,104.3z M2067.8,129.1c-0.1,0-0.2,0-0.4,0V129C2067.5,129,2067.6,129,2067.8,129.1
	C2067.7,129,2067.7,129.1,2067.8,129.1z M1973.8,111.5v-0.3l0,0c0.1,0.1,0.2,0.2,0.3,0.3C1974,111.5,1973.9,111.5,1973.8,111.5z
	 M2019.7,121.2L2019.7,121.2C2019.7,121.1,2019.7,121.2,2019.7,121.2L2019.7,121.2z"/>
</svg>
