<svg id="Layer_1" data-name="Layer 1" xmlns="http://www.w3.org/2000/svg" viewBox="0 0 2246.3 182.4">
  <defs>
    <style>
      .cls-1 {
        fill: #66dbfe;
      }

      .cls-2 {
        fill: #a7e8fe;
      }

      .cls-3 {
        fill: #67dbfe;
      }

      .cls-4 {
        fill: #aceafe;
      }

      .cls-5 {
        fill: #68dbfe;
      }

      .cls-6 {
        fill: #6eddfe;
      }

      .cls-7 {
        fill: #adeafe;
      }

      .cls-8 {
        fill: #6bdcfe;
      }

      .cls-9 {
        fill: #a9e8fe;
      }
    </style>
  </defs>
  <g>
    <rect class="cls-1" x="1.1" width="2258.5" height="91.2"/>
    <g>
      <g>
        <path class="cls-2" d="M2119.4,128.9a40.64,40.64,0,0,1-6.2,1.9l-2,1c-2.5.7-5.1,1-7,3a2,2,0,0,0-2,2h-1a2,2,0,0,0-2,2,2.63,2.63,0,0,0-2,.8v-.9C2103.5,132.8,2110.4,128.3,2119.4,128.9Z"/>
        <path class="cls-2" d="M2231.4,96.3c0,.5-.1,1-.1,1.5v-4A18.52,18.52,0,0,1,2231.4,96.3Z"/>
        <path class="cls-2" d="M1958.6,133.1h-.3v-.3h0Z"/>
        <path class="cls-2" d="M2121,128.4v.6a7.57,7.57,0,0,0-1.5-.1A8.8,8.8,0,0,1,2121,128.4Z"/>
        <path class="cls-3" d="M654,141.5c-12.1,9.9-30.7,9.9-42.4-1.2-2.5-2.4-4.4-2.6-7.4-1.1-13.6,6.5-27.6,4.6-36-6.6-4-5.3-6.7-7.8-13.2-5.2-2.1.8-5.7-.4-7.5-3-2.2-3.4-4.3-2.9-7.5-1-10.3,6-20.8,6.3-30.9-.7a24.67,24.67,0,0,1-2.8-2.8h0l.1-.1a24.67,24.67,0,0,0,2.8,2.8c10.1,7,20.6,6.7,30.9.7,3.2-1.9,5.3-2.3,7.5,1,1.7,2.6,5.3,3.9,7.5,3,6.5-2.6,9.2-.1,13.2,5.2,8.4,11.2,22.4,13.2,36,6.6,3-1.5,4.9-1.3,7.4,1.1C623.4,151.3,641.9,151.4,654,141.5Z"/>
        <path class="cls-3" d="M654.6,148.3a9.91,9.91,0,0,0-1.7,1.1,5.58,5.58,0,0,1-.8.5l.6-.3A12.74,12.74,0,0,1,654.6,148.3Z"/>
        <path class="cls-3" d="M671.3,135.5a11.5,11.5,0,0,1-6.8-1.3c-1.8-1-2.9-.9-4.1.4,1.2-1.4,2.3-1.5,4.2-.5A10.49,10.49,0,0,0,671.3,135.5Z"/>
        <path class="cls-3" d="M704.8,135.2c-6.9,1.3-14.2,0-21.3-4.2-2-1.1-3-1.3-4.6.2,1.6-1.5,2.6-1.5,4.7-.2C690.7,135.1,697.9,136.5,704.8,135.2Z"/>
        <path class="cls-3" d="M746.4,124c-5.7,5-11.8,5.5-19.6,1.8-1.9-.9-3.3-.9-4.8,0,1.5-.9,2.9-.9,4.9-.1C734.7,129.4,740.8,128.9,746.4,124Z"/>
        <path class="cls-3" d="M792.5,123.1c-.2.1-.3.3-.5.5-5.9,4.9-13.9,3.6-18.8-2.9-2-2.6-3.3-2.8-6-1.2-4,2.4-8.4,2-12.5.3-2.1-.9-3.3-.7-4.6.5,1.4-1.3,2.5-1.6,4.7-.6,4.1,1.8,8.5,2.1,12.5-.3,2.7-1.6,4-1.5,6,1.2,5,6.5,12.9,7.8,18.8,2.9A.78.78,0,0,1,792.5,123.1Z"/>
        <path class="cls-3" d="M828.4,135.7a.1.1,0,0,1-.1-.1c-.4-4.4-1.4-6.7-7-4.2-5.1,2.3-9.9-1-12.2-7.1-.8-2.2-1.4-4.2-4.3-2a3.31,3.31,0,0,1-3.8,0c-2.7-2.4-4.6-2.1-6.6-.8,2.1-1.4,4-1.9,6.7.6a3.31,3.31,0,0,0,3.8,0c2.9-2.2,3.5-.2,4.3,2,2.3,6.1,7.1,9.4,12.2,7.1C827,128.8,828,131.2,828.4,135.7Z"/>
        <path class="cls-4" d="M1107.6,121.8c-1.4-1.2-2.6.2-3.8,1-9.9,6.5-23.7,7.9-33.9-2-2.2-2.1-2.6-.3-3.4,1.1h-.2v-.2c.8-1.4,1.2-3.2,3.4-1.1,10.3,9.9,24,8.4,33.9,2C1104.8,121.7,1106.1,120.3,1107.6,121.8Z"/>
        <path class="cls-4" d="M1126.2,125.9c-.8-.7-2-.3-3.4.2-5,1.9-9.7,2-13.3-2,3.6,3.8,8.2,3.6,13.1,1.8C1124.1,125.4,1125.3,124.9,1126.2,125.9Z"/>
        <path class="cls-4" d="M1220.2,138.8l-1.9,1.5c-13.5,11.1-32.3,11.7-43.8,1-3.2-3-5.5-3.4-9.4-1.5-11.4,5.6-25,2.8-32.7-4.3,7.8,7,21.2,9.7,32.5,4.1,3.9-1.9,6.2-1.6,9.4,1.5,11.5,10.7,30.3,10.1,43.8-1l1.9-1.6C1220.1,138.6,1220.2,138.7,1220.2,138.8Z"/>
        <path class="cls-4" d="M1370.6,123.1c-1.1-1.5-2.7-2-5.7-.4-1.4.7-3.4-.4-4.5-1.6-1.3-1.5-2-1.5-3.5-.1-8.3,7.9-15.2,7.6-22.4-1-1.5-1.8-2.7-2.2-4.5-.8a12,12,0,0,1-13.1.9c-2.7-1.4-4-.7-5.7,1.5-4.9,6.2-11.7,9.2-18.9,5.9-5.7-2.6-9.2-1.7-12.8,2.5a5.24,5.24,0,0,1-1.1,1h-.1c-5.9,3.3-12.1,5.3-18.9,5h-4c-1.2-1.4-3.2-.7-4.5-1.8-5.1-4.2-10-4.2-14.5.9h0a21.42,21.42,0,0,1-8,.8h0c-5.1-3.2-5.1-3.2-8.1,2.9a.1.1,0,0,0-.1-.1c3-6.2,3-6.2,8.1-3,2.7.5,5.3-.2,8-.8,4.5-5.1,9.4-5.1,14.5-.9,1.3,1.1,3.3.4,4.5,1.8v.1h4v-.1c6.8.3,13-1.8,18.9-4.9,0-.1,0-.1-.1-.2a10,10,0,0,0,1.1-1c3.6-4.2,7.1-5.1,12.8-2.5,7.1,3.3,14,.3,18.9-5.9,1.7-2.2,3.1-2.9,5.7-1.5,4.4,2.3,9,2.2,13.1-.9,1.8-1.3,3-1,4.5.8,7.2,8.7,14.1,8.9,22.4,1,1.5-1.5,2.2-1.4,3.5.1,1.1,1.3,3.1,2.3,4.5,1.6C1367.9,120.6,1369.5,121.3,1370.6,123.1Z"/>
        <path class="cls-4" d="M1390.4,136h0l-.1-.1c-.2-2-.5-3.9-1.4-4.9C1389.8,132,1390.1,133.9,1390.4,136Z"/>
        <path class="cls-4" d="M1444.3,142.9a10.65,10.65,0,0,0-4,3.6h0l-.1-.1a11.55,11.55,0,0,1,4-3.6Z"/>
        <path class="cls-5" d="M1370.6,123.1c-1.1-1.5-2.7-2-5.7-.4-1.4.7-3.4-.4-4.5-1.6-1.3-1.5-2-1.5-3.5-.1-8.3,7.9-15.2,7.6-22.4-1-1.5-1.8-2.7-2.2-4.5-.8a12,12,0,0,1-13.1.9c-2.7-1.4-4-.7-5.7,1.5-4.9,6.2-11.7,9.2-18.9,5.9-5.7-2.6-9.2-1.7-12.8,2.5a5.24,5.24,0,0,1-1.1,1v-.2a.1.1,0,0,0-.1.1c0-.1,0-.1-.1-.2a10,10,0,0,0,1.1-1c3.6-4.2,7.1-5.1,12.8-2.5,7.1,3.3,14,.3,18.9-5.9,1.7-2.2,3.1-2.9,5.7-1.5,4.4,2.3,9,2.2,13.1-.9,1.8-1.3,3-1,4.5.8,7.2,8.7,14.1,8.9,22.4,1,1.5-1.5,2.2-1.4,3.5.1,1.1,1.3,3.1,2.3,4.5,1.6C1367.9,120.6,1369.5,121.3,1370.6,123.1Z"/>
        <path class="cls-5" d="M1390.3,136c-3.8-2-6.4-.8-9.3,2.4-5.5,5.9-12.9,6-18.5.9-2.4-2.2-4.2-4-7.2-1-.7.7-2.5.4-3.8.5a5.11,5.11,0,0,0-.5-3.1,5.41,5.41,0,0,1,.4,2.9l-4.1-.9c-1.5-.1-3.3.3-4.1-1.2.9,1.9,2.7,1.3,4.2,1.4-.2,1.5.3,3.3-1.9,3.9h-.2a3,3,0,0,1-1.9,3c-2.9,4.6-7.2,3.3-11.2,2.3-2.1-.5-3.3-.9-4,1.7-5.4,19.6-30.6,25.5-48.9,14.2a29.77,29.77,0,0,1-2.9-2c-2-1.6-3-1-4,1.2-4.4,9.6-7.3,11.2-17.4,10-2.2-.3-2.9.7-3.9,2-5.4,6.9-12.6,7.7-19.5,2-2.2-1.9-3.5-1.3-5.5.2-7.5,5.5-16.5,6.5-22.1,1.2a25,25,0,0,0-14-7,9,9,0,0,1-7.3-6.8c-.8-3.1-3.2-3.2-5.5-4.5a31.9,31.9,0,0,0-18.9-4.1c-3.7.2-6.2-3.4-6.9-7.4h-.1c-2.4.4-4.8,1.9-7-.4-1.2-1.3-1.8-.3-2.8.4a9.2,9.2,0,0,1-10.7,1c-2.5-1.3-4-1.1-6.2.3-8.8,6.1-23.5,4.7-29.3-1.3-2.3-2.4-4.7-5.6-7.6-12.6-6.1,6.6-13.7,9.5-22.3,8.3-5.5-.8-11.1-1.8-15-6.6a.1.1,0,0,0-.1-.1c7.6-2.5,13.7-6.6,16-14.9h.2c.8-1.4,1.2-3.2,3.4-1.1,10.2,9.9,24,8.5,33.9,2,1.2-.9,2.4-2.2,3.8-1a.1.1,0,0,1,.1.1c.1.2.3.3.4.6a14.7,14.7,0,0,0,1,1.3c.1.1.2.3.4.4,3.6,4,8.3,3.9,13.3,2,1.4-.5,2.6-.9,3.4-.2a3.16,3.16,0,0,1,.7,1.3,18.08,18.08,0,0,0,4.4,7.1,2.65,2.65,0,0,1,.5.6l.6.6c7.7,7.2,21.3,9.9,32.7,4.3,3.9-1.9,6.2-1.5,9.4,1.5,11.5,10.7,30.3,10.1,43.8-1l1.9-1.5a4.11,4.11,0,0,0,1.9,1.6,3.65,3.65,0,0,1-1.8-1.7c2.9-6.1,3-6.1,8.1-2.9h0a21.42,21.42,0,0,0,8-.8h0c4.5-5.1,9.4-5.1,14.5-.9,1.3,1.1,3.3.4,4.5,1.8h4c6.9.3,13-1.7,18.9-5,0,.1,0,.1.1.2a.35.35,0,0,0,.1.2.31.31,0,0,0,.1.2.35.35,0,0,0,.1.2c0,.1.1.1.1.2s.1.2.2.2a.1.1,0,0,1,.1.1,2.09,2.09,0,0,0,.6.4,2.65,2.65,0,0,1-.6-.5,1.38,1.38,0,0,1-.3-.4c0-.1-.1-.1-.1-.2s-.1-.1-.1-.2-.1-.3-.2-.5a5.24,5.24,0,0,0,1.1-1c3.6-4.2,7.1-5.1,12.8-2.5,7.2,3.3,14,.3,18.9-5.9,1.7-2.2,3-2.9,5.7-1.5a12,12,0,0,0,13.1-.9c1.8-1.4,3-1,4.5.8,7.2,8.6,14.1,8.9,22.4,1,1.5-1.4,2.2-1.4,3.5.1,1.1,1.2,3.1,2.3,4.5,1.6,3-1.6,4.7-1.1,5.7.4a.1.1,0,0,0,.1.1,12.75,12.75,0,0,1,1.4,3.5c.3,1.2,1.5,2.2,2.3,3.2,2.8,2.3,6.4,3.1,9.2,1.6s4.4-1.4,5.3-.4,1.1,2.9,1.4,5Z"/>
        <path class="cls-5" d="M1107.6,121.8c-1.4-1.2-2.6.2-3.8,1-9.9,6.5-23.7,7.9-33.9-2-2.2-2.1-2.6-.3-3.4,1.1h-.2v-.2c.8-1.4,1.2-3.2,3.4-1.1,10.3,9.9,24,8.4,33.9,2C1104.8,121.7,1106.1,120.3,1107.6,121.8Z"/>
        <path class="cls-5" d="M1126.2,125.9c-.8-.7-2-.3-3.4.2-5,1.9-9.7,2-13.3-2,3.6,3.8,8.2,3.6,13.1,1.8C1124.1,125.4,1125.3,124.9,1126.2,125.9Z"/>
        <path class="cls-5" d="M1220.2,138.8l-1.9,1.5c-13.5,11.1-32.3,11.7-43.8,1-3.2-3-5.5-3.4-9.4-1.5-11.4,5.6-25,2.8-32.7-4.3,7.8,7,21.2,9.7,32.5,4.1,3.9-1.9,6.2-1.6,9.4,1.5,11.5,10.7,30.3,10.1,43.8-1l1.9-1.6C1220.1,138.6,1220.2,138.7,1220.2,138.8Z"/>
        <path class="cls-5" d="M1228.4,135.8h0c-5.1-3.2-5.1-3.2-8.1,2.9a.1.1,0,0,0-.1-.1c3-6.2,3-6.2,8.1-3A.31.31,0,0,1,1228.4,135.8Z"/>
        <path class="cls-5" d="M1255.4,135.8h0c-1.2-1.3-3.2-.6-4.5-1.7-5.1-4.2-10-4.2-14.5.9h0v-.2c4.5-5.1,9.4-5.1,14.5-.9,1.3,1.1,3.3.4,4.5,1.8v.1Z"/>
        <path class="cls-5" d="M1278.3,131c-5.9,3.3-12.1,5.3-18.9,5h0v-.2c6.8.3,13-1.8,18.9-4.9C1278.2,130.8,1278.2,130.9,1278.3,131Z"/>
        <path class="cls-5" d="M1390.4,136h0l-.1-.1c-.2-2-.5-3.9-1.4-4.9C1389.8,132,1390.1,133.9,1390.4,136Z"/>
        <path class="cls-5" d="M1279.7,132.7a2.76,2.76,0,0,1-1.5-1.9c.1,0,.1,0,.1-.1A3.45,3.45,0,0,0,1279.7,132.7Z"/>
        <path class="cls-6" d="M580.5,144.8c-2.6,4.1-7,5.6-11.5,3-2.7-1.5-4.4-1.1-6.6.4-8.7,5.8-23,4.7-29.3-1.6a5.92,5.92,0,0,1-1.8-2.8C547.7,144.2,564.2,142.6,580.5,144.8Z"/>
        <path class="cls-6" d="M828.2,135.7c-3.5-1.9-5.9-1.3-8.8,2.2-5.4,6.4-15,5.9-20.4-.5-1.8-2-2.4-2-3.9-.1a3.75,3.75,0,0,1-4.5,1.2c-3.7-1.4-5.4.1-6.4,3.5a3.3,3.3,0,0,1-2.6,2.7c-35.5,0-71,.1-106.4-.1-7-.1-13.7,0-19.8,3.3,6.1-3.1,12.8-3.2,19.6-3.2,35.5.2,71,.1,106.4.1-3,4.4-7.3,3.3-11.3,2.2-2.1-.5-3.3-1-4.1,1.7-5.4,19.6-30.5,25.5-48.9,14.3a29.77,29.77,0,0,1-2.9-2c-2-1.6-3-1-4,1.2-4.5,9.6-7.3,11.2-17.4,10-2.2-.3-2.9.7-3.9,2-5.4,6.9-12.7,7.7-19.5,2-2.2-1.9-3.5-1.3-5.5.2-7.5,5.5-16.5,6.5-22.1,1.2a24.36,24.36,0,0,0-14-7,9,9,0,0,1-7.3-6.8c-.8-3.1-3.2-3.2-5.5-4.5a31.9,31.9,0,0,0-18.9-4.1c-3.5.4-6.1-3.4-6.8-7.4,9.1.2,18,.6,27.1,2.3,10.8,2.1,22.2.6,33.4.5a5.19,5.19,0,0,0,2.2-.7,3.51,3.51,0,0,0,.8-.5c.6-.4,1.2-.8,1.7-1.1-.7.4-1.3.8-1.9,1.2l-.6.3a4.55,4.55,0,0,1-2,.5c-11.2,0-22.6,1.6-33.4-.5-9.2-1.7-18.1-2-27.2-2.3-3.5,1.6-6.4.7-8.9-2a1.27,1.27,0,0,1-.6-.1c-16.1-2.1-32.3-.5-48.4-.9h-.2c-3.5-2.1-3.6-6.1-5.5-9.6-5.9,6.6-13.3,9.5-21.8,8.5-5.9-.6-11.7-1.7-15.7-6.7,7.6-2.6,13.8-6.7,16-15.1l1.9-1.8a24.67,24.67,0,0,0,2.8,2.8c10.1,7,20.6,6.7,30.9.7,3.2-1.9,5.3-2.4,7.5,1,1.8,2.6,5.4,3.8,7.5,3,6.5-2.6,9.2-.1,13.2,5.2,8.4,11.2,22.4,13.1,36,6.6,3-1.5,4.9-1.3,7.4,1.1,11.8,11.2,30.3,11.1,42.4,1.2a10.59,10.59,0,0,0,1.2-1c.7-.6,1.3-1.3,2-2a40.31,40.31,0,0,0,2.6-3.2,1.38,1.38,0,0,0,.3-.4l.1-.1.3-.3c1.2-1.3,2.2-1.4,4.1-.4a10.16,10.16,0,0,0,6.8,1.3.9.9,0,0,0,.5-.1,9.36,9.36,0,0,0,1.6-.4,15.26,15.26,0,0,0,3.7-2.1c.1-.1.3-.2.4-.3s.4-.3.6-.5.3-.3.5-.5l.4-.4c1.7-1.5,2.7-1.4,4.6-.2,7.1,4.2,14.4,5.5,21.3,4.2a10.46,10.46,0,0,0,1.7-.4,5,5,0,0,0,1.3-.4,33.45,33.45,0,0,0,12.8-7.6c.3-.3.6-.5.9-.8a.76.76,0,0,1,.4-.2c1.5-.9,2.9-.9,4.8,0,7.9,3.7,14,3.2,19.6-1.8l.6-.6a10,10,0,0,0,1.4-1.5,9,9,0,0,0,.9-1c0-.1.1-.1.1-.2l.3-.3.3-.3c1.3-1.2,2.5-1.5,4.6-.5,4.1,1.7,8.5,2.1,12.5-.3,2.7-1.6,4-1.4,6,1.2,4.9,6.5,12.9,7.8,18.8,2.9.2-.2.4-.3.5-.5s.4-.3.5-.4a7.63,7.63,0,0,1,1.1-.8c.1-.1.2-.1.2-.2h.1c2-1.3,3.9-1.7,6.6.8a3.31,3.31,0,0,0,3.8,0c2.9-2.2,3.5-.2,4.3,2,2.3,6.1,7.1,9.4,12.2,7.1C826.8,128.9,827.8,131.3,828.2,135.7Z"/>
        <path class="cls-6" d="M654.6,148.3a9.91,9.91,0,0,0-1.7,1.1,5.58,5.58,0,0,1-.8.5l.6-.3A12.74,12.74,0,0,1,654.6,148.3Z"/>
        <path class="cls-1" d="M265.7,133.6c-3.4-1.5-5.8-.2-8.6,2.8-5.9,6.2-13.1,5.9-19.4,0-1.7-1.6-3-3.3-5.2-.7a4.49,4.49,0,0,1-2.7,1c-5.8.9-5.8.8-8.3,4h-.2l-1.9,1.9h-.5c-2.9,3.5-6.9,2.3-10.6,1.4-2.1-.5-3.3-.9-4,1.7-5.5,19.6-30.6,25.5-48.9,14.3a29.77,29.77,0,0,1-2.9-2c-2-1.6-3-1-4,1.2-4.5,9.6-7.3,11.3-17.4,10-2.2-.3-2.8.6-3.9,2-5.4,6.9-12.7,7.8-19.4,2-2.2-1.9-3.5-1.4-5.5.1-7.5,5.5-16.5,6.5-22.1,1.2a25.12,25.12,0,0,0-14-7.1c-3.9-.6-6.5-3.4-7.5-7.2-.7-2.7-2.5-3-4.8-3.9-6.3-2.6-12.1-5.3-19.4-4.2-3.3.6-6-2.7-6.8-6.5h-.3c-2.3.4-4.8,1.9-6.9-.4-1.1-1.2-1.8-.5-2.8.3-3.6,3-7.6,2.9-11.5.8-1.7-.9-2.7-1.1-4.4,0a23.73,23.73,0,0,1-17.3,4.3V124c4.4,3.2,9.3,4.3,14.4,1.7,2.4-1.2,3.1,0,4,1.9a26.49,26.49,0,0,0,27,14.4c4.8-.6,9.5-1.2,13.8-3.7a3.18,3.18,0,0,1,4.4.7c13.4,13.7,32.5,11.9,46.9.5.2-.3.3-.7.5-1a5.78,5.78,0,0,0,.5,1.4,5.73,5.73,0,0,1-.4-1.4c1.8-3.7,3.5-6.6,9.2-3.6,3.9,2.1,8.4-.1,11.6-3.4,1.5-1.5,2.4-2.2,4.5-.9,11.1,6.7,22.2,5.8,33.3-.1a5.24,5.24,0,0,0,1.1-1c3.7-4.1,7.1-5.1,12.8-2.5,7.1,3.3,13.9.2,18.7-5.9,1.7-2.1,2.9-2.8,5.7-1.6,4.4,1.8,9,2.1,13.3-.8,1.6-1.1,2.9-1.2,4.2.6,6.3,8.7,16.7,9,22.7,1.3.5-.6,1.8-1.6,1.9-1.2,2.4,6.2,9.7-1,12,4.3a58,58,0,0,0,3.6,5.9c2.8,2.3,6.4,3.1,9.2,1.6C264,128.7,265.1,130.6,265.7,133.6Z"/>
        <path class="cls-6" d="M1952.3,135.8a.1.1,0,0,1-.1-.1c-3.5-1.9-5.8-1.3-8.8,2.2-5.4,6.4-15,5.9-20.4-.5-1.7-2-2.4-2-3.8-.1a3.86,3.86,0,0,1-4.6,1.2c-3.7-1.4-5.4.1-6.4,3.5a3.3,3.3,0,0,1-2.6,2.7q-3.15-.15-6.3,0c-1,.1-2.1-.1-3.2-.1,1,0,2.1.3,3,.2q3.15-.15,6.3,0c-3.4,4.6-7.7,3.3-12.1,1.9l-2-.9-1,1v-.1c-1.7,14.2-17.7,23.7-33.2,21.6-6.7-.9-13-2.9-18.4-7.1-2.3-1.8-3.4-1.6-4.7,1.3-3.6,8.5-7.9,11-16.7,9.8-2.2-.3-3.2.1-4.5,1.8-5.4,7-12.7,7.9-19.4,2.2-2.5-2.1-3.8-1.2-5.9.4-9.1,6.6-18.1,5.5-25.6-2.7a6.5,6.5,0,0,0-5.2-2.3c-6.1-.3-11-2.6-12.8-9.1-.3-.9-.9-2.3-1.6-2.4-4.6-.6-8.6-1.8-11.5-5.8-.8-1.1-2.4.4-3.6.8-6.1,1.9-10.5.1-13.1-5.4a2.66,2.66,0,0,0,1.2-.3,1.64,1.64,0,0,1-1,.2h-.1l-.8-1.9h-.1c-3.4,1.6-6.4.7-8.9-2-2.6,4.1-7,5.6-11.5,3-2.7-1.5-4.4-1.1-6.6.4-8.7,5.8-23,4.7-29.3-1.6a5.92,5.92,0,0,1-1.8-2.8c-3.5-2-3.6-6.1-5.5-9.5-9.4,9.6-20.3,10.6-32.1,5.5-1.8-.8-3.9-1.3-4.3-3.7.8-1.6,2.5-1.5,3.8-2.1,5.5-2.9,9.7-6.9,11.2-13.1.7-.6,1.4-1.3,2-1.8h.1c2.1,3,5.2,4.5,8.4,5.9a25.42,25.42,0,0,0,6.2,1.8c.4.1.8.1,1.2.2s.8.1,1.2.1h2.2c5.6-.2,10.9-2.4,16.2-5.4a8.08,8.08,0,0,1,2-1.1h.2c.5,0,1.1.3,1.7,1.2a10.17,10.17,0,0,0,6.9,4.7h0a4.87,4.87,0,0,0,1.2.1h1.8a17,17,0,0,0,4.2-1,5.64,5.64,0,0,1,1.2-.4h1c1.4.1,2.4,1.1,3.3,2.8,3.6,6.8,9.3,10.9,16.7,13a35.83,35.83,0,0,0,4.5.9h0c.5,0,1,.1,1.5.1h2.9a45.83,45.83,0,0,0,13.8-3.8c.7-.3,1.3-.5,1.9-.7a.76.76,0,0,0,.4-.1h1a3.78,3.78,0,0,1,2.5,1.4c8,8.4,19.4,10.8,29.8,8.6l2.4-.6c.3-.1.6-.2,1-.3,1.2-.4,2.4-.9,3.6-1.4.3-.2.6-.3.9-.5a4.05,4.05,0,0,0,.9-.5c.5-.3,1.1-.6,1.6-.9a30.21,30.21,0,0,0,9.2-8.6,3.72,3.72,0,0,1,1.8-1.6h.1a3.32,3.32,0,0,1,2.5.7,11.2,11.2,0,0,0,4.7,1.5h1.6a.9.9,0,0,0,.5-.1,11.3,11.3,0,0,0,6.4-3.6,5.44,5.44,0,0,1,3.3-1.9h.3a5.25,5.25,0,0,1,2.7,1.2,21.9,21.9,0,0,0,5.9,3l.9.3c11.2,3.2,24.8-1.4,30.8-8.8.8-.9,1.3-1.4,2.1-1.5h.1a3.8,3.8,0,0,1,1.8.6,25.28,25.28,0,0,0,8.1,3c.2,0,.4.1.6.1h.1c.4,0,.8.1,1.2.1h1.4c4.5-.2,8.5-2.6,12.4-7.3,1.3-1.4,2.3-2,3.6-1.8h0a.76.76,0,0,1,.4.1,4.76,4.76,0,0,1,1.4.5,15.46,15.46,0,0,0,8.7,1.2c.2,0,.4-.1.6-.1a1.42,1.42,0,0,0,.6-.2c.1,0,.2,0,.2-.1s.2-.1.3-.1.2-.1.3-.1a5.56,5.56,0,0,0,1.7-.9,4.07,4.07,0,0,1,1.1-.6c.1,0,.2-.1.3-.1,1.8-.7,2.9.1,4.5,2.1,3.8,4.9,9.2,6.8,14.3,5.3.2,0,.3-.1.5-.2h.1c.2-.1.3-.1.5-.2a14.15,14.15,0,0,0,3.5-2.1c2.1-1.7,3.8-3.5,6-3a.37.37,0,0,1,.3.1h.1c.1,0,.2.1.3.2a7,7,0,0,1,1.9,1.4,4.07,4.07,0,0,0,1.8.5h.4a4.25,4.25,0,0,0,1.1-.2,5.94,5.94,0,0,1,1.9-.5h.4c1.5.1,2.2,1.6,3.1,3.4a12.21,12.21,0,0,0,6.3,6.2,3.08,3.08,0,0,0,1.3.3c.2,0,.4.1.7.1h1.4a1.27,1.27,0,0,0,.6-.1,18,18,0,0,0,1.9-.5,7.5,7.5,0,0,1,4.2-.8c.1,0,.2.1.3.1s.2.1.3.1C1951.6,131.7,1952,133.5,1952.3,135.8Z"/>
        <path class="cls-7" d="M508.6,118a3.38,3.38,0,0,0-2.4,1.9A3.57,3.57,0,0,1,508.6,118Z"/>
        <path class="cls-7" d="M654,141.5c-12.1,9.9-30.7,9.9-42.4-1.2-2.5-2.4-4.4-2.6-7.4-1.1-13.6,6.5-27.6,4.6-36-6.6-4-5.3-6.7-7.8-13.2-5.2-2.1.8-5.7-.4-7.5-3-2.2-3.4-4.3-2.9-7.5-1-10.3,6-20.8,6.3-30.9-.7a24.67,24.67,0,0,1-2.8-2.8h0l.1-.1a24.67,24.67,0,0,0,2.8,2.8c10.1,7,20.6,6.7,30.9.7,3.2-1.9,5.3-2.3,7.5,1,1.7,2.6,5.3,3.9,7.5,3,6.5-2.6,9.2-.1,13.2,5.2,8.4,11.2,22.4,13.2,36,6.6,3-1.5,4.9-1.3,7.4,1.1C623.4,151.3,641.9,151.4,654,141.5Z"/>
        <path class="cls-7" d="M671.3,135.5a11.5,11.5,0,0,1-6.8-1.3c-1.8-1-2.9-.9-4.1.4,1.2-1.4,2.3-1.5,4.2-.5A10.49,10.49,0,0,0,671.3,135.5Z"/>
        <path class="cls-7" d="M704.8,135.2c-6.9,1.3-14.2,0-21.3-4.2-2-1.1-3-1.3-4.6.2,1.6-1.5,2.6-1.5,4.7-.2C690.7,135.1,697.9,136.5,704.8,135.2Z"/>
        <path class="cls-7" d="M746.4,124c-5.7,5-11.8,5.5-19.6,1.8-1.9-.9-3.3-.9-4.8,0,1.5-.9,2.9-.9,4.9-.1C734.7,129.4,740.8,128.9,746.4,124Z"/>
        <path class="cls-7" d="M792.5,123.1c-.2.1-.3.3-.5.5-5.9,4.9-13.9,3.6-18.8-2.9-2-2.6-3.3-2.8-6-1.2-4,2.4-8.4,2-12.5.3-2.1-.9-3.3-.7-4.6.5,1.4-1.3,2.5-1.6,4.7-.6,4.1,1.8,8.5,2.1,12.5-.3,2.7-1.6,4-1.5,6,1.2,5,6.5,12.9,7.8,18.8,2.9A.78.78,0,0,1,792.5,123.1Z"/>
        <path class="cls-7" d="M828.4,135.7a.1.1,0,0,1-.1-.1c-.4-4.4-1.4-6.7-7-4.2-5.1,2.3-9.9-1-12.2-7.1-.8-2.2-1.4-4.2-4.3-2a3.31,3.31,0,0,1-3.8,0c-2.7-2.4-4.6-2.1-6.6-.8,2.1-1.4,4-1.9,6.7.6a3.31,3.31,0,0,0,3.8,0c2.9-2.2,3.5-.2,4.3,2,2.3,6.1,7.1,9.4,12.2,7.1C827,128.8,828,131.2,828.4,135.7Z"/>
        <path class="cls-7" d="M881.4,143.1l-2.9,3.5a.35.35,0,0,1-.1-.2l2.9-3.4A.1.1,0,0,0,881.4,143.1Z"/>
        <path class="cls-7" d="M1645,127.7a24.9,24.9,0,0,1-6.3-1.8c-3.2-1.4-6.3-2.9-8.4-5.8h.1c2.1,3,5.2,4.5,8.4,5.9A30.29,30.29,0,0,0,1645,127.7Z"/>
        <path class="cls-7" d="M1676.8,127.5a10.14,10.14,0,0,1-7-4.7c-.6-.9-1.1-1.2-1.6-1.2.5,0,1.1.3,1.7,1.2A10.64,10.64,0,0,0,1676.8,127.5Z"/>
        <path class="cls-7" d="M1710.6,142.8a18.73,18.73,0,0,1-4.6-.9c-7.5-2.1-13.2-6.2-16.7-13-.9-1.7-1.8-2.7-3.2-2.8,1.4.1,2.4,1.1,3.3,2.8,3.6,6.8,9.3,10.9,16.7,13A23.92,23.92,0,0,0,1710.6,142.8Z"/>
        <path class="cls-7" d="M1764.3,148.2c-10.3,2.3-21.8-.1-29.9-8.6a3.81,3.81,0,0,0-2.4-1.4,3.78,3.78,0,0,1,2.5,1.4C1742.6,148,1754,150.4,1764.3,148.2Z"/>
        <path class="cls-7" d="M1766.7,147.6l-2.4.6Z"/>
        <path class="cls-7" d="M1793,135.9a11.6,11.6,0,0,1-4.8-1.5,4.06,4.06,0,0,0-2.4-.7,3.32,3.32,0,0,1,2.5.7A11.2,11.2,0,0,0,1793,135.9Z"/>
        <path class="cls-7" d="M1813.7,134.5a22.49,22.49,0,0,1-6-3,5.94,5.94,0,0,0-2.6-1.2,5.25,5.25,0,0,1,2.7,1.2A21.9,21.9,0,0,0,1813.7,134.5Z"/>
        <path class="cls-7" d="M1857.6,128.2a25.75,25.75,0,0,1-8.2-3,3.49,3.49,0,0,0-1.7-.6,3.8,3.8,0,0,1,1.8.6A25.28,25.28,0,0,0,1857.6,128.2Z"/>
        <path class="cls-7" d="M1887.3,121a15,15,0,0,1-8.8-1.2,11.22,11.22,0,0,0-1.3-.5,4.76,4.76,0,0,1,1.4.5A15.69,15.69,0,0,0,1887.3,121Z"/>
        <path class="cls-7" d="M1911.4,126.1c-5.1,1.6-10.6-.3-14.4-5.3-1.6-2-2.7-2.7-4.4-2.1,1.8-.7,2.9.1,4.5,2.1C1900.9,125.7,1906.3,127.6,1911.4,126.1Z"/>
        <path class="cls-7" d="M1926.4,122.9a3.83,3.83,0,0,1-1.9-.5,5.51,5.51,0,0,0-1.8-1.4,7,7,0,0,1,1.9,1.4A5.34,5.34,0,0,0,1926.4,122.9Z"/>
        <path class="cls-7" d="M1939.6,131.7a11.68,11.68,0,0,1-6.4-6.2c-.8-1.8-1.5-3.2-3-3.4,1.5.1,2.2,1.6,3.1,3.4A11.53,11.53,0,0,0,1939.6,131.7Z"/>
        <path class="cls-7" d="M1952.3,135.8a.1.1,0,0,1-.1-.1c-.2-2.3-.6-4-1.8-4.8C1951.6,131.7,1952,133.5,1952.3,135.8Z"/>
        <path class="cls-7" d="M884.4,149.7h0c-.4-2.3-.8-4.5-1.2-6.8h0C883.6,145.2,884,147.4,884.4,149.7Z"/>
        <path class="cls-7" d="M971.2,151.6a10.06,10.06,0,0,1-8.2,3.8c-6.1,0-8.8,3.6-11.7,7.5h-.1c3-4,5.6-7.7,11.7-7.6A10,10,0,0,0,971.2,151.6Z"/>
        <path class="cls-7" d="M995.2,139.7c-2.5-.1-5.1-1.2-7.3-1.2C990.2,138.4,992.7,139.6,995.2,139.7Z"/>
        <path class="cls-7" d="M1010.3,131.7c-1.4.5-2.9.7-4.4,1.1C1007.3,132.4,1008.9,132.2,1010.3,131.7Z"/>
        <path class="cls-7" d="M1017,133.3a16.18,16.18,0,0,1-1.8-1,4.67,4.67,0,0,0-2.5-1.3,4.61,4.61,0,0,1,2.6,1.3A10.62,10.62,0,0,0,1017,133.3Z"/>
        <path class="cls-7" d="M1038.3,136.3a19.61,19.61,0,0,1-8.2-4,3.19,3.19,0,0,0-3.8-.3,3.33,3.33,0,0,1,3.9.3A19.25,19.25,0,0,0,1038.3,136.3Z"/>
        <path class="cls-7" d="M1066.3,121.8c-.1,0-.1.1,0,0-2.2,8.4-8.3,12.6-15.9,15.1a.1.1,0,0,0-.1-.1c7.6-2.5,13.7-6.6,16-15-.1.1-.1,0,0,0Z"/>
        <path class="cls-7" d="M1530.5,153.5a8.2,8.2,0,0,1-3.2,1.2A8.2,8.2,0,0,0,1530.5,153.5Z"/>
        <path class="cls-7" d="M1531.2,153c-.2.2-.5.3-.7.5A1.79,1.79,0,0,0,1531.2,153Z"/>
        <path class="cls-7" d="M1531.8,152.5a2.65,2.65,0,0,1-.6.5A2.65,2.65,0,0,0,1531.8,152.5Z"/>
        <path class="cls-7" d="M1556.2,140a19.91,19.91,0,0,1-4.5-.9h.1A20.25,20.25,0,0,0,1556.2,140Z"/>
        <path class="cls-7" d="M1580.8,133.7a11.21,11.21,0,0,1-4.6-2.1c-.1-.1-.2-.1-.4-.2a.76.76,0,0,1,.5.2A11.45,11.45,0,0,0,1580.8,133.7Z"/>
        <path class="cls-7" d="M1594.7,134.1a16,16,0,0,1-2.9-1.9,3.23,3.23,0,0,0-2.1-.8,3.49,3.49,0,0,1,2.2.8C1592.9,132.9,1593.8,133.6,1594.7,134.1Z"/>
        <path class="cls-8" d="M486.5,136.9c-3.8,6.1-8.7,7.8-15.7,5.3-1.7-.6-2.7-1.7-3.7.9-5.3,13.5-24.3,19.8-38.7,12.6-3.7-1.9-6-1.8-9,1.3-7,7.4-23.7,10.2-29.9,5.9,2.9-4.4,6.3-7.8,12.1-8,5.3-.2,8.5-3.4,9.9-8.3,0-.2.1-.3.1-.5.6-1.4,14.9-7.6,16.3-7.1.1,0,.3.1.4.1,6,1.9,9.8.6,13.3-4.7.9-1.4,8.2-3.6,10.4-3.1a.52.52,0,0,1,.4.2,11.43,11.43,0,0,0,3,1.7c.2.1.3.1.5.2,2.7.9,5.3.4,8.1-1.4a3.88,3.88,0,0,1,2.5-.6h0a2.75,2.75,0,0,1,1.5.8,19.18,19.18,0,0,0,3.5,2.3h.1C476.2,136.8,481.3,137.1,486.5,136.9Z"/>
        <path class="cls-8" d="M1610.4,136.9c-3.8,6.1-8.7,7.8-15.7,5.3-1.7-.6-2.7-1.7-3.7.9-5.3,13.5-24.3,19.8-38.7,12.6-3.7-1.9-6-1.8-9,1.3-7.1,7.4-23.7,10.2-29.9,5.9,2.9-4.4,6.3-7.8,12.1-8h.5a1.27,1.27,0,0,0,.6-.1c.2,0,.5-.1.7-.1a11.15,11.15,0,0,0,3.2-1.2,3,3,0,0,0,.7-.5c.2-.2.4-.3.6-.5s.3-.2.4-.4l.4-.4c.2-.3.5-.6.7-.9a13.62,13.62,0,0,0,2-4.2c0-.2.1-.3.1-.5.5-1.2,11.3-6.1,15.1-7,.1,0,.2-.1.3-.1h.9a15.66,15.66,0,0,0,4.4.9h1.1c3.2-.2,5.8-2,8.1-5.5.9-1.3,7.3-3.3,9.9-3.1h.4a.76.76,0,0,1,.5.2,10.2,10.2,0,0,0,4.5,2.1c.2,0,.4.1.7.1h1.5a10.51,10.51,0,0,0,5-1.8,3.29,3.29,0,0,1,1.9-.6h.1a3.49,3.49,0,0,1,2.2.8,17.26,17.26,0,0,0,2.8,1.9c.3.1.5.3.8.4l.6.3c.2.1.5.2.7.3l.9.3a23.35,23.35,0,0,0,2.5.7,12.86,12.86,0,0,0,1.9.4,43.56,43.56,0,0,0,8.1.4h.1Z"/>
        <path class="cls-8" d="M1048.6,137c-3.8,6.1-8.7,7.8-15.7,5.3-1.7-.6-2.7-1.7-3.7.9-5.3,13.5-24.4,19.8-38.7,12.5-3.7-1.8-6-1.8-9,1.4-7.2,7.3-23.8,10.1-30.1,5.8h-.1c3-4,5.6-7.7,11.7-7.6a10.25,10.25,0,0,0,8.2-3.7c.2-.2.3-.4.5-.6a9.08,9.08,0,0,0,1.7-4.3,3.19,3.19,0,0,1,3.5-3h1.6a.9.9,0,0,0,.5-.1,6.47,6.47,0,0,0,1.3-.4c.1,0,.2-.1.3-.1s.2-.1.4-.2.1-.1.2-.1.2-.1.3-.2.2-.1.3-.2c.3-.2.5-.4.8-.6.7-.6,1.4-1.3,2.1-1.8l.3-.3c.1-.1.2-.2.3-.2s.2-.1.2-.2a3.41,3.41,0,0,1,1.9-.7h.7c2.3-.1,4.8,1.1,7.3,1.2h1.4a2.66,2.66,0,0,0,1.2-.3c1.4-.5,3.2-1.3,3.7-2.4a6.27,6.27,0,0,1,3.1-3.6,4.88,4.88,0,0,1,.7-.3c.2-.1.4-.1.6-.2,1.4-.5,2.9-.7,4.4-1.1h.1a7.84,7.84,0,0,0,1.4-.5,2.35,2.35,0,0,1,.8-.2h.2a4.61,4.61,0,0,1,2.6,1.3,7.54,7.54,0,0,0,1.7,1h.1c2.6,1.2,5.4.8,8.1-.7.3-.2.7-.4,1-.6h.1a3.33,3.33,0,0,1,3.9.3,21.94,21.94,0,0,0,8.1,4h0l1.2.3a7.84,7.84,0,0,0,1.4.2c.6.1,1.2.1,1.8.2h.8c.5,0,1,.1,1.5.1h.7a8.8,8.8,0,0,1,2.6-.3Z"/>
        <path class="cls-5" d="M322.5,149.7h-.2c-2.2-.5-4.5-1.1-5.9-3.3.9-1.3,1.7-3.5,3.4-2.9.1.1.3.1.4.2a.1.1,0,0,1,.1.1C322.2,144.9,322,147.6,322.5,149.7Z"/>
        <path class="cls-5" d="M1446.3,149.7c-2.3-.5-4.5-1.2-5.9-3.2l-.1-.1a11.55,11.55,0,0,1,4-3.6.1.1,0,0,0,.1.1c.1.2.2.5.3.7A26.14,26.14,0,0,1,1446.3,149.7Z"/>
        <path class="cls-5" d="M884.4,149.7h0c-2.2-.5-4.5-1.2-5.9-3.1a.35.35,0,0,1-.1-.2l2.9-3.4.1-.2h1.8v.1C883.6,145.2,884,147.4,884.4,149.7Z"/>
        <path class="cls-4" d="M2052.3,150.7h-.4v-.1a.76.76,0,0,1,.4.1C2052.2,150.6,2052.2,150.7,2052.3,150.7Z"/>
        <path class="cls-4" d="M508.6,118a3.38,3.38,0,0,0-2.4,1.9A3.57,3.57,0,0,1,508.6,118Z"/>
        <path class="cls-9" d="M1958.6,133.1h-.3v-.3h0Z"/>
        <path class="cls-9" d="M2052.3,150.7h-.4v-.1a.76.76,0,0,1,.4.1C2052.2,150.6,2052.2,150.7,2052.3,150.7Z"/>
        <path class="cls-6" d="M1787.3,144.7c-.3,1.1-.5,2.4-2,1Z"/>
        <path class="cls-1" d="M1279.7,132.7a2.76,2.76,0,0,1-1.5-1.9c.1,0,.1,0,.1-.1A3.45,3.45,0,0,0,1279.7,132.7Z"/>
        <path class="cls-5" d="M1236.4,134.8v.2c-.1,1.7.1,3.6-2.5,3.7-2.4,0-5,.6-5.5-2.9v-.2C1231.1,136.1,1233.7,135.4,1236.4,134.8Z"/>
        <path class="cls-5" d="M1259.4,135.8h0c-.2,1.7-.8,3-2.7,2.7-1.5-.2-1.2-1.5-1.3-2.6v-.1Z"/>
        <path class="cls-2" d="M322.5,149.7h-.2a.35.35,0,0,1-.1-.2c-.4-2-.3-4.5-1.9-5.7C322.2,144.9,322,147.6,322.5,149.7Z"/>
        <path class="cls-2" d="M455.4,133.2a13.46,13.46,0,0,1-3.3-1.8.1.1,0,0,1-.1-.1.52.52,0,0,1,.4.2A11.43,11.43,0,0,0,455.4,133.2Z"/>
        <path class="cls-2" d="M471.5,134.5a17.26,17.26,0,0,1-3.8-2.4,7.46,7.46,0,0,0-1.2-.7,2.75,2.75,0,0,1,1.5.8A23.35,23.35,0,0,0,471.5,134.5Z"/>
        <path class="cls-2" d="M2052.3,150.7h-.4v-.1a.76.76,0,0,1,.4.1C2052.2,150.6,2052.2,150.7,2052.3,150.7Z"/>
        <path class="cls-2" d="M2086,144.6v.4h-1c-.1,0-.3.1-.4.1a2.18,2.18,0,0,1,.8-.5Z"/>
        <path class="cls-2" d="M2089,142.6c0,.1-.1.3-.1.4h-.7v-.4Z"/>
        <path class="cls-2" d="M2093,140.6v.4h-.9c.1-.1.1-.3.2-.4Z"/>
        <path class="cls-2" d="M2097.3,138.6v.1l-.3.3h-1.7v-.4Z"/>
        <path class="cls-2" d="M2231.3,97.8v2h-.1A14.08,14.08,0,0,1,2231.3,97.8Z"/>
        <path class="cls-6" d="M2267.9,124.6a.1.1,0,0,1-.1-.1c-3.5-1.9-5.8-1.3-8.8,2.2-5.4,6.4-15,5.9-20.4-.5-1.7-2-2.4-2-3.8-.1a3.86,3.86,0,0,1-4.6,1.2c-3.7-1.4-5.4.1-6.4,3.5a3.3,3.3,0,0,1-2.6,2.7q-3.15-.15-6.3,0c-1,.1-2.1-.1-3.2-.1,1,0,2.1.3,3,.2q3.15-.15,6.3,0c-3.4,4.6-7.7,3.3-12.1,1.9l-2-.9-1,1v-.1c-1.7,14.2-17.7,23.7-33.2,21.6-6.7-.9-13-2.9-18.4-7.1-2.3-1.8-3.4-1.6-4.7,1.3-3.6,8.5-7.9,11-16.7,9.8-2.2-.3-3.2.1-4.5,1.8-5.4,7-12.7,7.9-19.4,2.2-2.5-2.1-3.8-1.2-5.9.4-9.1,6.6-18.1,5.5-25.6-2.7a6.5,6.5,0,0,0-5.2-2.3c-6.1-.3-11-2.6-12.8-9.1-.3-.9-.9-2.3-1.6-2.4-4.6-.6-8.6-1.8-11.5-5.8-.8-1.1-2.4.4-3.6.8-6.1,1.9-10.5.1-13.1-5.4a2.66,2.66,0,0,0,1.2-.3,1.64,1.64,0,0,1-1,.2h-.1l-.8-1.9h-.1c-3.4,1.6-6.4.7-8.9-2-2.6,4.1-7,5.6-11.5,3-2.7-1.5-4.4-1.1-6.6.4-8.7,5.8-23,4.7-29.3-1.6a5.92,5.92,0,0,1-1.8-2.8c-3.5-2-3.6-6.1-5.5-9.5-9.4,9.6-20.3,10.6-32.1,5.5-1.8-.8-3.9-1.3-4.3-3.7.8-1.6,2.5-1.5,3.8-2.1,5.5-2.9,9.7-6.9,11.2-13.1.7-.6,1.4-1.3,2-1.8h.1c2.1,3,5.2,4.5,8.4,5.9a25.42,25.42,0,0,0,6.2,1.8c.4.1.8.1,1.2.2s.8.1,1.2.1h2.2c5.6-.2,10.9-2.4,16.2-5.4a8.08,8.08,0,0,1,2-1.1h.2c.5,0,1.1.3,1.7,1.2a10.17,10.17,0,0,0,6.9,4.7h0a4.87,4.87,0,0,0,1.2.1h1.8a17,17,0,0,0,4.2-1,5.64,5.64,0,0,1,1.2-.4h1c1.4.1,2.4,1.1,3.3,2.8,3.6,6.8,9.3,10.9,16.7,13a35.83,35.83,0,0,0,4.5.9h0c.5,0,1,.1,1.5.1h2.9a45.83,45.83,0,0,0,13.8-3.8c.7-.3,1.3-.5,1.9-.7a.76.76,0,0,0,.4-.1h1a3.78,3.78,0,0,1,2.5,1.4c8,8.4,19.4,10.8,29.8,8.6l2.4-.6c.3-.1.6-.2,1-.3,1.2-.4,2.4-.9,3.6-1.4.3-.2.6-.3.9-.5a4.05,4.05,0,0,0,.9-.5c.5-.3,1.1-.6,1.6-.9a30.21,30.21,0,0,0,9.2-8.6,3.72,3.72,0,0,1,1.8-1.6h.1a3.32,3.32,0,0,1,2.5.7,11.2,11.2,0,0,0,4.7,1.5h1.6a1.09,1.09,0,0,0,.5-.1,11.3,11.3,0,0,0,6.4-3.6,5.44,5.44,0,0,1,3.3-1.9h.4a5.25,5.25,0,0,1,2.7,1.2,21.9,21.9,0,0,0,5.9,3l.9.3c11.2,3.2,24.8-1.4,30.8-8.8.8-.9,1.3-1.4,2.1-1.5h.1a3.8,3.8,0,0,1,1.8.6,25.28,25.28,0,0,0,8.1,3c.2,0,.4.1.6.1h.1c.4,0,.8.1,1.2.1h1.4c4.5-.2,8.5-2.6,12.4-7.3,1.3-1.4,2.3-2,3.6-1.8h0a.76.76,0,0,1,.4.1,4.76,4.76,0,0,1,1.4.5,15.46,15.46,0,0,0,8.7,1.2c.2,0,.4-.1.6-.1a1.42,1.42,0,0,0,.6-.2c.1,0,.2,0,.2-.1s.2-.1.3-.1.2-.1.3-.1a5.56,5.56,0,0,0,1.7-.9,4.07,4.07,0,0,1,1.1-.6c.1,0,.2-.1.3-.1,1.8-.7,2.9.1,4.5,2.1,3.8,4.9,9.2,6.8,14.3,5.3.2,0,.3-.1.5-.2h.1c.2-.1.3-.1.5-.2a14.15,14.15,0,0,0,3.5-2.1c2.1-1.7,3.8-3.5,6-3a.37.37,0,0,1,.3.1h.1c.1,0,.2.1.3.2a7,7,0,0,1,1.9,1.4,4.07,4.07,0,0,0,1.8.5h.4a4.25,4.25,0,0,0,1.1-.2,5.94,5.94,0,0,1,1.9-.5h.4c1.5.1,2.2,1.6,3.1,3.4a12.21,12.21,0,0,0,6.3,6.2,3.08,3.08,0,0,0,1.3.3c.2,0,.4.1.7.1h1.4a1.27,1.27,0,0,0,.6-.1,18,18,0,0,0,1.9-.5,7.5,7.5,0,0,1,4.2-.8c.1,0,.2.1.4.1s.2.1.3.1C2267.2,120.5,2267.6,122.2,2267.9,124.6Z"/>
      </g>
      <path class="cls-1" d="M-23.9,75.1l2283.4-7.4v59.9a214.94,214.94,0,0,0-54.9-4.5c-57,2.9-63.8,27.1-112,26.7-17.5-.2-55.8-3.7-93.2-19.6-7.4-3.2-14.9-6.9-26.6-8.7-27.8-4.3-49.6,6.6-64.2,12.9-5,2.1-81.3,34.2-156,23.3-21.6-3.2-17.7-6.2-50.3-12a421.92,421.92,0,0,0-100.4-5.9c-35.2,2.2-52.8,3.3-66.8,11.9-10.5,6.5-24.2,18.3-30.1,14.1-4.4-3.1-.5-12.3-5.5-15.5-5.9-3.8-13.9,7-24.3,4.1-8.1-2.3-7.9-10-15.3-11.3-9-1.6-11.9,9.1-21.9,9.6-14,.6-20-19.9-32.8-18.3-7.1.9-6.5,7.4-16.1,10-8.3,2.2-19.1,0-26.6-6-6-4.8-6.7-9.6-11.9-10.3-4.2-.6-6.3,2.2-12.2,4.3-8.3,3-15.3,1.5-19.4,1.1-26.5-2.5-77,28.7-129.6,20.3-13.2-2.1-17.4-5.3-33.8-6.4-16.8-1.2-28.7,1-34.7-6.4-3-3.8-3.3-8.6-3.1-12.1a17.3,17.3,0,0,1-9.4,6c-6.4,1.3-10.4-2.7-18.6-4.1-5-.8-9.1-.1-17.3,1.5-15.6,2.9-18.4,7.3-30.5,7.6a88,88,0,0,1-10.8-.4,112.53,112.53,0,0,1-12.5-1.7c-13.5-2.2-27.9,4-29.1,4.6-14.9,6.7-11.6,15.5-24.7,21.9-18.6,9.1-40.9-1.4-42.3-2.1-11.9-5.8-11.1-11.5-20-13.1-15.2-2.8-23.1,12.3-34.5,8.3-10.9-3.8-12.4-20.8-18-20-4.4.6-2.9,10.9-10.4,17.3-9,7.6-27.1,6.5-34.1-2.2-7.2-8.9.8-21.5-4.8-25.2-5.8-3.9-17.4,7.9-33.6,16.3-4.7,2.5-12.6,6.2-55.9,12.4-42,6.1-63,9.1-79.4,7.6-23.1-2.2-14.4-6.1-59.8-15.8-52.1-11.1-81.9-9.9-92.1-8a49.52,49.52,0,0,1-10.5,1c-10.5-.2-14.5-4.1-22.1-4.4-5.4-.2-9.4,1.5-18.4,6.2-33,17.3-38.6,25.8-48,23.4s-8.7-12.2-18.7-13.6c-11.2-1.6-16.2,9.9-25.9,7.3-8.6-2.3-9.7-12.8-18.6-13.5-3.7-.3-5.6,1.4-10,3.3-16.1,7.1-35.3,3.9-46.9-1.6-7.1-3.4-5.4-4.7-12.4-8.4-14.3-7.4-29.5-6-43.9-3.4-25.4,4.6-32.1,10-56.3,16.9-32.1,9.2-58.5,16.7-85.5,7.3-8.6-3-18.3-13.3-33.8-13.5-4.4-.1-8.4.6-15.4-.6-8.5-1.5-14.7-4.7-20.4-7.6a104.84,104.84,0,0,1-17.4-11.4C-23.9,109.8-23.9,92.5-23.9,75.1Z"/>
    </g>
  </g>
  <path class="cls-7" d="M2246.8,76.2V-215.9H1.1v286c-1,.1-1.2.7-1.1,2.1.1,4.7,0,9.3,0,14H.1v3H0l-.4,12.9c.1.1.3.2.4.3,4.4,3.2,9.3,4.3,14.4,1.7,2.4-1.2,3.1,0,4,1.9a26.49,26.49,0,0,0,27,14.4c4.8-.6,9.5-1.2,13.8-3.7a3.18,3.18,0,0,1,4.4.7c13.4,13.7,32.5,11.9,46.9.5.2-.3.3-.7.5-1v-.1c1.8-3.7,3.5-6.6,9.2-3.6,3.9,2.1,8.4-.1,11.6-3.4,1.5-1.5,2.4-2.2,4.5-.9,11.1,6.7,22.2,5.8,33.3-.1a5.24,5.24,0,0,0,1.1-1c3.7-4.1,7.1-5.1,12.8-2.5,7.1,3.3,13.9.2,18.7-5.9,1.7-2.1,2.9-2.8,5.7-1.6,4.4,1.8,9,2.1,13.3-.8,1.6-1.1,2.9-1.2,4.2.6,6.3,8.7,16.7,9,22.7,1.3.5-.6,1.8-1.6,1.9-1.2,2.4,6.2,9.7-1,12,4.3a58,58,0,0,0,3.6,5.9c2.8,2.3,6.4,3.1,9.2,1.6,4.7-2.5,5.9-.6,6.4,2.4q.15.9.3,2.1c6.9,11.8,17.2,17.7,30.9,16.8,6.9-.5,13.1-3.4,19.2-6.3.9-1.4,1.8-3.5,3.4-2.9a1.61,1.61,0,0,1,.7.4.1.1,0,0,1,.1.1c1.9,1.2,1.7,3.8,2.2,5.9h-.2c4.1,5.3,9,8.5,16.1,6.2,1.7-.5,2.6.1,3.7,1.5,6,7.8,12.6,8.6,20.4,2.3,1.4-1.1,2.3-1.5,3.8-.3,7,5.8,14.7,6.6,22.9,3.4,2.9-4.4,6.3-7.8,12.1-8,5.3-.1,8.5-3.3,9.9-8.3,0-.2.1-.3.1-.5.6-1.4,14.8-7.6,16.3-7.1.1,0,.2.1.3.1s.3.1.4.1c5.8,1.8,9.5.4,13-4.8,1-1.5,9-3.9,10.7-3a.52.52,0,0,1,.4.2,11.43,11.43,0,0,0,3,1.7c.2.1.3.1.5.2a9.41,9.41,0,0,0,7.8-1.5,3.15,3.15,0,0,1,2.8-.5h0a2.75,2.75,0,0,1,1.5.8,19.18,19.18,0,0,0,3.5,2.3h.1c4.5,2.1,9.5,2.5,14.5,2.3l1.9-.1c7.6-2.6,13.7-6.6,15.9-14.8h.3l.1-.1,1.9-1.8h0a3.2,3.2,0,0,1,2.4-1.9,3.38,3.38,0,0,0-2.4,1.9l.1-.1a24.67,24.67,0,0,0,2.8,2.8c10.1,7,20.6,6.7,30.9.7,3.2-1.9,5.3-2.3,7.5,1,1.7,2.6,5.3,3.9,7.5,3,6.5-2.6,9.2-.1,13.2,5.2,8.4,11.2,22.4,13.2,36,6.6,3-1.5,4.9-1.3,7.4,1.1,11.7,11.1,30.2,11.1,42.3,1.3a10.59,10.59,0,0,0,1.2-1,18.88,18.88,0,0,0,2-2,37.62,37.62,0,0,0,2.5-3.1,1.76,1.76,0,0,1,.4-.5l.1-.1.3-.3c1.2-1.4,2.3-1.5,4.2-.5a10.49,10.49,0,0,0,6.7,1.4.9.9,0,0,0,.5-.1,12.44,12.44,0,0,0,1.6-.4,15.26,15.26,0,0,0,3.7-2.1,1.38,1.38,0,0,1,.4-.3c.2-.2.4-.3.6-.5l.5-.5.4-.4c1.6-1.5,2.6-1.5,4.7-.2,7.1,4.1,14.3,5.4,21.2,4.2a10.46,10.46,0,0,0,1.7-.4,5,5,0,0,0,1.3-.4,33.11,33.11,0,0,0,12.7-7.6,7,7,0,0,1,1-.8.76.76,0,0,1,.4-.2c1.5-.9,2.9-.9,4.9-.1,7.8,3.7,13.9,3.2,19.5-1.7l.6-.6c.5-.5,1-.9,1.5-1.5.3-.3.5-.6.8-.9l.1-.1c0-.1.1-.1.1-.2l.3-.3.3-.3c1.4-1.3,2.5-1.6,4.7-.6,4.1,1.8,8.5,2.1,12.5-.3,2.7-1.6,4-1.5,6,1.2,5,6.5,12.9,7.8,18.8,2.9.1-.1.3-.2.4-.3s.4-.3.5-.4a7.63,7.63,0,0,1,1.1-.8c.1-.1.2-.1.2-.2h.1c2.1-1.4,4-1.9,6.7.6a3.31,3.31,0,0,0,3.8,0c2.9-2.2,3.5-.2,4.3,2,2.3,6.1,7.1,9.4,12.2,7.1,5.6-2.5,6.6-.1,7,4.4a.1.1,0,0,1-.1-.1v.2c6.8,12.1,17.2,17.6,30.9,17.2,6.9-.3,13-3.5,19.2-6.3l.1-.1a.35.35,0,0,1-.1-.2l2.9-3.4.1-.2h1.8v.1c.4,2.3.8,4.5,1.2,6.8h0v.1c4.2,5.5,9.1,8.8,16.3,6.4,1.7-.6,2.6.1,3.7,1.5,5.8,7.6,13,8.5,20,2.6,1.5-1.2,2.4-2.2,4.2-.6,6.8,6,14.6,6.4,22.8,3.3v-.1h0c3-4,5.6-7.7,11.7-7.6a10.25,10.25,0,0,0,8.2-3.7c.2-.2.3-.4.5-.6a10.21,10.21,0,0,0,1.6-4.2v-.3a3.36,3.36,0,0,1,3.8-2.8h1.4a.9.9,0,0,0,.5-.1,5,5,0,0,0,1.3-.4c.1,0,.2-.1.3-.1s.2-.1.4-.2.1-.1.2-.1.2-.1.3-.2.2-.1.3-.2c.3-.2.5-.4.8-.6.7-.6,1.4-1.3,2.1-1.8l.3-.3c.1-.1.2-.2.3-.2s.2-.1.2-.2a3.39,3.39,0,0,1,1.8-.7h.8c2.3-.1,4.8,1.1,7.3,1.2h1.4a4.51,4.51,0,0,0,1.1-.3c1.4-.5,3.3-1.3,3.7-2.4a5.8,5.8,0,0,1,3.2-3.6,4.88,4.88,0,0,1,.7-.3,1.42,1.42,0,0,1,.6-.2c1.4-.5,2.9-.7,4.4-1.1h.1a6.94,6.94,0,0,0,1.3-.5,2.92,2.92,0,0,1,.9-.2h.2a4.61,4.61,0,0,1,2.6,1.3,7.54,7.54,0,0,0,1.7,1h.1c2.6,1.1,5.3.7,8-.7a10.91,10.91,0,0,0,1.1-.6h.1a3.33,3.33,0,0,1,3.9.3,21.94,21.94,0,0,0,8.1,4h0l1.2.3a7.84,7.84,0,0,0,1.4.2c.6.1,1.2.1,1.8.2h.8c.5,0,1,.1,1.5.1h3.5l1.8-.1h.1a.1.1,0,0,0-.1-.1c7.6-2.5,13.7-6.6,16-14.9v-.2c.8-1.4,1.2-3.2,3.4-1.1,10.3,9.9,24,8.4,33.9,2,1.3-.9,2.5-2.4,4-.8a.1.1,0,0,1,.1.1,2.76,2.76,0,0,1,.6.8,10.47,10.47,0,0,0,.8,1.1c.1.1.2.3.4.4,3.6,3.8,8.2,3.6,13.1,1.8,1.5-.5,2.7-1,3.6,0a2.75,2.75,0,0,1,.9,1.5,17.61,17.61,0,0,0,4.2,6.9,2.65,2.65,0,0,1,.5.6l.6.6c7.8,7,21.2,9.7,32.5,4.1,3.9-1.9,6.2-1.6,9.4,1.5,11.5,10.7,30.3,10.1,43.8-1l1.9-1.6c.1.1.1.2.2.3h0a.1.1,0,0,1,.1-.1.1.1,0,0,0-.1-.1c3-6.2,3-6.2,8.1-3,2.7.5,5.3-.2,8-.8,4.5-5.1,9.4-5.1,14.5-.9,1.3,1.1,3.3.4,4.5,1.8v.1h4v-.1c6.8.3,13-1.8,18.9-4.9,0-.1,0-.1-.1-.2a10,10,0,0,0,1.1-1c3.6-4.2,7.1-5.1,12.8-2.5,7.1,3.3,14,.3,18.9-5.9,1.7-2.2,3.1-2.9,5.7-1.5,4.4,2.3,9,2.2,13.1-.9,1.8-1.3,3-1,4.5.8,7.2,8.7,14.1,8.9,22.4,1,1.5-1.5,2.2-1.4,3.5.1,1.1,1.3,3.1,2.3,4.5,1.6,3.2-1.7,4.9-1,5.9.7a.1.1,0,0,0,.1.1,12.75,12.75,0,0,1,1.4,3.5c.3,1.2,1.5,2.2,2.3,3.2,2.8,2.3,6.4,3.1,9.2,1.6s4.4-1.4,5.3-.4,1.2,2.9,1.5,5h-.1c6.8,12,17.2,17.5,30.9,16.8,6.9-.3,13-3.5,19.2-6.3l-.1-.1a11.55,11.55,0,0,1,4-3.6.1.1,0,0,0,.1.1c.1.2.2.5.3.7a21.56,21.56,0,0,1,1.7,6c4.1,5.4,9,8.7,16.2,6.4,1.7-.5,2.6.1,3.7,1.5,6,7.8,12.6,8.6,20.4,2.3,1.4-1.1,2.3-1.5,3.8-.3,6.9,5.8,14.6,6.6,22.8,3.4,2.9-4.4,6.3-7.8,12.1-8h.6a1.27,1.27,0,0,0,.6-.1c.2,0,.5-.1.7-.1a11.15,11.15,0,0,0,3.2-1.2,3,3,0,0,0,.7-.5c.2-.2.4-.3.6-.5s.3-.2.4-.4l.4-.4c.2-.3.5-.6.7-.9a13.47,13.47,0,0,0,1.9-4.2c0-.2.1-.3.1-.5.5-1.2,11.5-6.1,15.2-7,.1,0,.2-.1.3-.1h.9a15.66,15.66,0,0,0,4.4.9h1.1c3.2-.2,5.7-2,8-5.5.9-1.3,7.5-3.4,10-3.1h.4a.76.76,0,0,1,.5.2,10.2,10.2,0,0,0,4.5,2.1c.2,0,.4.1.7.1h1.5a10.18,10.18,0,0,0,4.9-1.8,3.61,3.61,0,0,1,2-.6h.1a3.49,3.49,0,0,1,2.2.8,17.26,17.26,0,0,0,2.8,1.9c.3.1.5.3.8.4l.6.3c.2.1.5.2.7.3l.9.3a23.35,23.35,0,0,0,2.5.7,12.86,12.86,0,0,0,1.9.4,43.56,43.56,0,0,0,8.1.4h.1l2.8.1c.8-1.5,2.5-1.4,3.8-2.1,5.5-2.9,9.7-6.8,11.2-13.1.6-.6,1.3-1.2,1.9-1.9.1,0,.2.1.3.1h.1c2.1,3,5.2,4.5,8.4,5.9a25.42,25.42,0,0,0,6.2,1.8c.4.1.8.1,1.2.2s.8.1,1.2.1h2.2c5.6-.2,10.9-2.4,16.1-5.4a8.54,8.54,0,0,1,2.1-1.1h.2c.5,0,1.1.3,1.7,1.2a10.17,10.17,0,0,0,6.9,4.7h0a4.87,4.87,0,0,0,1.2.1h1.8a16.32,16.32,0,0,0,4.1-1,9.29,9.29,0,0,1,1.3-.4h1c1.4.1,2.4,1.1,3.3,2.8,3.6,6.8,9.3,10.9,16.7,13a35.83,35.83,0,0,0,4.5.9h0c.5,0,1,.1,1.5.1h2.9a45.23,45.23,0,0,0,13.7-3.8c.7-.3,1.4-.5,2-.7.1,0,.2-.1.4-.1h1a3.78,3.78,0,0,1,2.5,1.4c8,8.4,19.4,10.8,29.8,8.6l2.4-.6c.3-.1.6-.2,1-.3,1.2-.4,2.4-.9,3.6-1.4.3-.2.6-.3.9-.5a4.05,4.05,0,0,0,.9-.5c.5-.3,1.1-.6,1.6-.9a28.78,28.78,0,0,0,9.1-8.6c.7-1,1.2-1.5,1.9-1.6h.1a3.32,3.32,0,0,1,2.5.7,11.2,11.2,0,0,0,4.7,1.5h1.6a.9.9,0,0,0,.5-.1,12,12,0,0,0,6.3-3.6c1.2-1.2,2.2-1.9,3.4-1.9h.3a5.25,5.25,0,0,1,2.7,1.2,21.9,21.9,0,0,0,5.9,3l.9.3c11.2,3.2,24.8-1.4,30.8-8.8.8-1,1.4-1.5,2.2-1.5h.1a3.8,3.8,0,0,1,1.8.6,25.28,25.28,0,0,0,8.1,3c.2,0,.4.1.6.1h.1c.4,0,.8.1,1.2.1h1.4c4.4-.3,8.4-2.7,12.3-7.3,1.3-1.5,2.3-2,3.7-1.8h0a.76.76,0,0,1,.4.1,4.76,4.76,0,0,1,1.4.5,15.46,15.46,0,0,0,8.7,1.2c.2,0,.4-.1.6-.1a1.42,1.42,0,0,0,.6-.2c.1,0,.2,0,.2-.1s.2-.1.3-.1.2-.1.3-.1a5.07,5.07,0,0,0,1.6-.9,4.45,4.45,0,0,1,1.2-.6.37.37,0,0,1,.3-.1c1.8-.7,2.9.1,4.5,2.1,3.8,4.9,9.2,6.8,14.3,5.3.2,0,.3-.1.5-.2h.1c.2-.1.3-.1.5-.2a13.62,13.62,0,0,0,3.4-2.1c2.1-1.7,3.9-3.6,6.1-3a.37.37,0,0,1,.3.1h.1c.1,0,.2.1.3.2a7,7,0,0,1,1.9,1.4,4.07,4.07,0,0,0,1.8.5h.4a3.55,3.55,0,0,0,1-.2,4.47,4.47,0,0,1,2-.5h.4c1.5.1,2.2,1.6,3.1,3.4a12.21,12.21,0,0,0,6.3,6.2,3.08,3.08,0,0,0,1.3.3c.2,0,.4.1.7.1h1.4a1.27,1.27,0,0,0,.6-.1,12.09,12.09,0,0,0,1.8-.5c2-.8,3.4-1.1,4.3-.8.1,0,.2.1.3.1s.2.1.3.1c1.2.7,1.7,2.5,1.9,4.8a.1.1,0,0,1-.1-.1v.1c6.8,12,17.2,17.7,30.9,17,6.9-.5,13.1-3.4,19.2-6.3v-.1c1.4,2.1,3.7,2.8,6,3.3a21.21,21.21,0,0,0-2.1-6.9c.3-.3.5-.5.7-.5a1.33,1.33,0,0,0-.6.5,5.14,5.14,0,0,0-.4,3.4,5.82,5.82,0,0,0,2.5,3.5c4.3,5.5,9.4,8.8,16.7,6.2,1.5-.5,2.3.4,3.2,1.6,5.9,7.7,12.5,8.5,20.4,2.3,1.4-1.1,2.4-1.4,3.8-.2,6.9,5.9,14.6,6.5,22.8,3.3,2.9-4.4,6.2-8,12.2-7.9,3.6,0,6-2.4,8.7-4.3a16.23,16.23,0,0,0,1.2-6.9l-.1-.1a46.85,46.85,0,0,1-7.3,2.6c-12.4,3.5-16.3,0-25.2,3.8-3.6,1.6-5.4,3.2-9.8,3.9-3.4.5-6.1-.3-8.5-.2-13.9.8-25.8-4.9-37.6-11l-.6-.3c.2.1.3.1.5.2a69,69,0,0,0,23.4,11.7c7.7,2.1,13.3,2.1,23.5,2,14.3,0,24.9-.2,34.8-6.9a36.91,36.91,0,0,0,6.8-5.9v-4.9c6.3-5.9,13.2-10.4,22.2-9.9h0c.5-.2,1-.3,1.5-.5a19.09,19.09,0,0,1,3.3-.6,47.31,47.31,0,0,1,29.2-3.1,63.49,63.49,0,0,0,14.3,1.7,46.29,46.29,0,0,0,15.5-2.6,3.28,3.28,0,0,1,2-3c2.2-1.4,4.1-3.2,7-3l2-1c4.6-1.4,9.1-.6,13.7-.1a37.1,37.1,0,0,0,13.3-.9l2-1h2c1-2.9,3.7-2.6,6-3,0-4-.2-8-.1-12A6.15,6.15,0,0,1,2246.8,76.2Zm-445,28.1Zm266,24.8h-.4V129a.76.76,0,0,1,.4.1C2067.7,129,2067.7,129.1,2067.8,129.1Zm-94-17.6v-.3h0l.3.3Zm45.9,9.7Z"/>
</svg>
