<?xml version="1.0" encoding="utf-8"?>
<!-- Generator: Adobe Illustrator 24.1.0, SVG Export Plug-In . SVG Version: 6.00 Build 0)  -->
<svg version="1.1" id="master-artboard" xmlns="http://www.w3.org/2000/svg" xmlns:xlink="http://www.w3.org/1999/xlink" x="0px"
	 y="0px" viewBox="0 0 833.1 822" style="enable-background:new 0 0 833.1 822;" xml:space="preserve">
<style type="text/css">
	.st0{fill-rule:evenodd;clip-rule:evenodd;fill:#1A1A1A;}
	.st1{fill-rule:evenodd;clip-rule:evenodd;fill:#FFD429;}
	.st2{fill-rule:evenodd;clip-rule:evenodd;fill:#DEB22C;}
	.st3{fill-rule:evenodd;clip-rule:evenodd;}
	.st4{fill:#1A1A1A;}
	.st5{fill-rule:evenodd;clip-rule:evenodd;fill:#666633;}
</style>
<path class="st0" d="M117.1,37h2v19h3v17h-3v19h3v17h-3v19h3v17h-3v18h3v18h-3v18h3v18h-3v18h3v17h-3v19h3v17h-3v19h3v17h-3v19h3v17
	h-3v18h3v18h-3v18h3v18h-3v18h3v17h-3v19h3v17h-8v-17h3v-19h-3v-17h3v-18h-3v-18h3v-18h-3v-18h3v-18h-3v-17h3v-19h-3v-17h3v-19h-3
	v-17h3v-19h-3v-17h3v-18h-3v-18h3v-18h-3v-18h3v-18h-3v-17h3v-19h-3V92h3V73h-3V56h3V37z"/>
<path class="st0" d="M192.3,40.5l3-3.8l532,380.1l-3,3.8L192.3,40.5z"/>
<path class="st1" d="M141.2,0h37C185,0,191,5.9,191,12.6v4.6c8,0,15.4,6.9,15.4,15.4S199,48,191,48v4.5c0,6.7-6.1,12.4-12.8,12.4
	h-37c-6.7,0-12.1-5.7-12.1-12.4V48c-8.6,0-15.4-6.9-15.4-15.4s6.8-15.4,15.4-15.4v-4.6C129.1,5.9,134.5,0,141.2,0L141.2,0z"/>
<path class="st2" d="M202.9,42.2c-2.8,3.6-6.8,5.8-11.8,5.8v4.5c0,6.7-6.1,12.4-12.8,12.4h-34.2l-11.3-27.3L178.9,11L202.9,42.2z"/>
<path class="st1" d="M721.9,423.7l6.8-8.7l45.8,33.1l-6.9,8.7L721.9,423.7z"/>
<path class="st1" d="M136.2,39.5l45.9-26.6l198.8,259.8l125.3,302.2l-7.9,4.6l-3.3-7.8l-32.1,18.6l5.1,6.7l-7.9,4.6L261.5,341.7
	L136.2,39.5z M458.2,583.9l15.6-63.6l20,48.1l-32.9,19L458.2,583.9z M472.3,516.6l-15.9,64.9l-31.5-41.1l46.2-26.7L472.3,516.6z
	 M389.9,494.6l79.6,15l0.3,0.9l-47,27.1L389.9,494.6z M468.3,506.7l-80.8-15.2l-0.7-0.9l60.3-34.9L468.3,506.7z M385.4,487.5
	l39.4-85.7l21,50.7L385.4,487.5z M423.3,398.3l-40.2,87.4l-34.4-44.9l74.4-43L423.3,398.3z M312.9,394l107.4,1.5l-73.7,42.6
	L312.9,394z M420.9,392.6L310.7,391l88.4-51.1L420.9,392.6z M310.9,386.9l65.2-102.3l21.6,52.1L310.9,386.9z M374.7,281.2
	l-67.3,105.6l-37-48.3l103.3-59.7L374.7,281.2z M194.9,157.6L222.1,80l-0.4-0.5L174,107L194.9,157.6z M224,82.4l-27.6,78.7l0.3,0.6
	l61.1-35.3L224,82.4z M199,164.4l94.4,8.8l-33.6-43.9L199,164.4z M295.7,176.1l-96.8-9l21.8,52.6l75.1-43.4L295.7,176.1z
	 M243.4,274.5l52.7-94.4L222,222.9L243.4,274.5z M299.1,180.6l-54,96.8l88.8-51.3L299.1,180.6z M248.8,279.2l121.6-5.4l-34.4-45
	L248.8,279.2z M370.3,276.9l-123.6,5.5l22,53.2L370.3,276.9z"/>
<path class="st1" d="M454.9,572h101.5c9,0,15.7,8.1,15.7,17.1V715h-133V589.1C439.1,580.1,445.9,572,454.9,572L454.9,572z"/>
<path class="st1" d="M575.1,654h169v61h-169V654z"/>
<path class="st1" d="M447.1,732c-4.7,0-8-4.3-8-9.1V715h305v17H447.1z"/>
<path class="st0" d="M454.8,577h93.1c7.2,0,13.3,6.2,13.3,13.4v75.7l-35.8,15.6c-4.3,16.1-37.3,25.6-63.4,25.6
	c-1.1-11.2-6.8-25.1-20.8-27.3v-89.6C441.2,583.2,447.5,577,454.8,577L454.8,577z"/>
<path class="st0" d="M525.1,678h2v37h-2V678z"/>
<path class="st0" d="M540.1,681.2l21-9.1v31.2c0,1.8-1.7,2.8-3.4,2.8h-14.1c-1.8,0-3.5-1-3.5-2.8V681.2z"/>
<path class="st0" d="M559.1,663h2v52h-2V663z"/>
<path class="st3" d="M543.1,685.3v-1.6l14-6.6v1.6L543.1,685.3z"/>
<path class="st3" d="M543.1,689.9v-1.6l14-6.6v1.7L543.1,689.9z"/>
<path class="st3" d="M543.1,694.6v-1.7l14-6.6v1.7L543.1,694.6z"/>
<path class="st3" d="M543.1,699.2v-1.7l14-6.5v1.6L543.1,699.2z"/>
<path class="st0" d="M572.1,654h3v61h-3V654z"/>
<path class="st0" d="M622.1,654h1v61h-1V654z"/>
<path class="st0" d="M704.1,654h2v61h-2V654z"/>
<path class="st0" d="M703.1,656h-40.3l-0.7,3H703L703.1,656L703.1,656z M661.7,660l-1.1,4h42.6v-4H661.7z M660,665l-1.1,5h44.2v-5
	H660z M658.4,671l-1.2,4H703v-4H658.4z M656.8,676l-5.7,18.1V715h52v-39H656.8z"/>
<path class="st0" d="M655.4,656h-22.3v-1h22.8L655.4,656z M650.5,673h-17.4v-2H651L650.5,673z M652.1,668h-19v-2h19.5L652.1,668z
	 M653.8,663h-20.7v-3h21.1L653.8,663z"/>
<path class="st0" d="M648.1,694v2h-15v-2H648.1z M648.1,710v2h-15v-2H648.1z M648.1,705v1h-15v-1H648.1z M648.1,700v1h-15v-1H648.1z
	"/>
<path class="st4" d="M644.1,679c1.5,0,2,1.6,2,3v8h-13v-11H644.1z M638.5,683c1,0,1.9,0.8,1.9,1.9c0,1-0.8,1.8-1.9,1.8
	c-1,0-1.8-0.8-1.8-1.8C636.6,683.8,637.5,683,638.5,683L638.5,683z M638.5,683.6c-0.7,0-1.3,0.6-1.3,1.3s0.6,1.3,1.3,1.3
	c0.7,0,1.3-0.6,1.3-1.3C639.8,684.1,639.2,683.6,638.5,683.6L638.5,683.6z M642.5,681c1,0,1.6,0.9,1.6,2v6h-10v-8H642.5z M641.2,681
	h-7.1v8h9v-6c0-0.7-1-2-1.7-2H641.2z M644.1,680h-11v10h13v-8C646.1,680.8,645.3,680,644.1,680L644.1,680z"/>
<path class="st0" d="M449.4,692.3c2.7,0,4.9,2.9,4.9,6.4s-2.2,6.4-4.9,6.4s-4.9-2.9-4.9-6.4S446.7,692.3,449.4,692.3L449.4,692.3z"
	/>
<path class="st0" d="M502.1,732h110v9h-110V732z"/>
<path class="st3" d="M509.1,741h97v4h-97V741z"/>
<path class="st0" d="M421.6,759l77.8-14h127.1l102.8,14c47.1,6.2,39.4,63,0,63h-305C384.9,822,382.6,765.7,421.6,759L421.6,759z"/>
<path class="st3" d="M626.1,752H499.8l-77.3,13.1c-9.3,1.6-17.1,6.5-21.1,15.3c-3.3,7.3-3.4,15.8,0.2,23c4.4,9,13,12.6,22.7,12.6
	h305c7.1,0,13.9-1.8,19.1-6.7c4.4-4.1,7.2-9.7,7.9-15.7c0.7-6.4-1.2-12.9-5.3-17.9c-5.5-6.7-14-9.5-22.4-10.6L626.1,752z"/>
<path class="st0" d="M424.3,814c12.4,0,22.4-10.1,22.4-22.5S436.6,769,424.3,769c-12.4,0-22.5,10.1-22.5,22.5
	C401.9,803.9,411.9,814,424.3,814L424.3,814z"/>
<path class="st0" d="M505.9,765.7c3.6,0,6.5-2.9,6.5-6.5s-2.9-6.5-6.5-6.5s-6.5,2.9-6.5,6.5S502.3,765.7,505.9,765.7L505.9,765.7z"
	/>
<path class="st0" d="M623.2,765.7c3.6,0,6.5-2.9,6.5-6.5s-2.9-6.5-6.5-6.5s-6.5,2.9-6.5,6.5S619.6,765.7,623.2,765.7L623.2,765.7z"
	/>
<path class="st0" d="M451.1,774h19v6h75v-6h36v6h74v-6h11v27h-215V774z"/>
<path class="st0" d="M672.1,774h57v37h-57V774z"/>
<path class="st0" d="M485.1,770h58v8h-58V770z"/>
<path class="st0" d="M594.1,770h58v8h-58V770z"/>
<path class="st0" d="M471.1,802h-14v9h14V802z M660.1,802h-3v9h3V802z M655.1,802h-14v9h14V802z M629.1,802h-2v9h2V802z M624.1,802
	h-14v9h14V802z M598.1,802h-1v9h1V802z M594.1,802h-13v9h13V802z M567.1,802h-1v9h1V802z M564.1,802h-14v9h14V802z M538.1,802h-3v9
	h3V802z M533.1,802h-14v9h14V802z M507.1,802h-3v9h3V802z M502.1,802h-14v9h14V802z M476.1,802h-3v9h3V802z"/>
<path class="st0" d="M596.1,654h48v-5.9c0-3.2-2.4-5.1-4.6-5.1h-24c-2.2,0-19.4,6-19.4,9.1V654z"/>
<path class="st3" d="M525.1,577h2v104l-2,0.7V577z"/>
<path class="st3" d="M462.1,589h42.7c6.3,0,12.3,5,12.3,11.4V661h-67v-60.2C450.1,594.2,455.6,589,462.1,589L462.1,589z"/>
<path class="st3" d="M517.1,693.2V661h-67v22.5c7,5.3,11.2,15.5,12,24c3.6,0,7.4-0.5,11.1-0.5h-3.8c-4,0-7.4-3.5-7.4-7.5V666h47
	v31.4c3-1.3,5-2.9,8-4.4v0.2H517.1z"/>
<path class="st1" d="M754.1,617h35.7c5.5,0,9.3,4.8,9.3,10.3v16.5v87.8c0,5.5-3.9,10.5-9.3,10.5h-35.7c-5.5,0-10-5-10-10.5v-87.8
	v-16.5C744.1,621.8,748.8,617,754.1,617L754.1,617z"/>
<path class="st0" d="M463.1,591h40.7c6.1,0,10.3,4.4,10.3,10.5V660h-63v-58.1C451.1,595.6,456.7,591,463.1,591L463.1,591z"/>
<path class="st3" d="M538.1,587h12.5c1.9,0,3.5,2.3,3.5,4.2v59.3l-20,6.7v-65.9C534.1,589.3,536.2,587,538.1,587L538.1,587z"/>
<path class="st0" d="M709.1,676h90v39h-90V676z"/>
<path class="st0" d="M439.1,715h360v1h-360V715z"/>
<path class="st0" d="M709.1,671h90v2h-90V671z"/>
<path class="st1" d="M694.1,654h-33v-17.8c0-4,3.6-7.2,7.6-7.2h5.2c4,0,20.2,18.6,20.2,22.6L694.1,654L694.1,654z"/>
<path class="st5" d="M170.9,99.5l-1.6-3.7l23-55.3l5.2,7.5l-19.9,47.8L170.9,99.5z M164.7,84.9l-4.2-9.9l20.9-50.2l5.2,7.5
	L164.7,84.9z M155.8,64.2l-4.2-9.9l8.9-21.4l10.6-5.6L155.8,64.2z M147,43.4l-1.2-2.8l3-1.6L147,43.4z M203.3,56.2l5.2,7.5
	l-8.1,19.5l-10.8,6L203.3,56.2z M214.2,71.8l1.9,2.6l-3.8,2.1L214.2,71.8z"/>
<path class="st1" d="M767.1,441h10v176h-10V441z"/>
<path class="st1" d="M766.8,441h10.3l-98.4,201h-10.2L766.8,441z"/>
<path class="st1" d="M410,366h10.3l258.4,276h-10.2L410,366z"/>
<path class="st1" d="M752.1,462.7c0,2.1,3.2,4.3,5.3,4.3h17.8c2,0,4.9-2.2,4.9-4.3v-19.2c0-4-4-6.5-8-6.5h-5.2
	c-4,0-14.8,17.9-14.8,22L752.1,462.7L752.1,462.7z"/>
<path class="st1" d="M484.9,253.2l6.9-8.7l45.7,33.1l-6.8,8.7L484.9,253.2z"/>
<path class="st3" d="M118.3,717.2c61.9,0,112.3-50.5,112.3-112.4s-50.4-112.4-112.3-112.4C56.5,492.4,6,542.9,6,604.8
	S56.5,717.2,118.3,717.2L118.3,717.2z"/>
</svg>
