<?xml version="1.0" encoding="utf-8"?>
<!-- Generator: Adobe Illustrator 24.1.0, SVG Export Plug-In . SVG Version: 6.00 Build 0)  -->
<svg version="1.1" id="master-artboard" xmlns="http://www.w3.org/2000/svg" xmlns:xlink="http://www.w3.org/1999/xlink" x="0px"
	 y="0px" viewBox="0 0 1388.1 1600" style="enable-background:new 0 0 1388.1 1600;" xml:space="preserve">
<style type="text/css">
	.st0{fill:#F2B137;}
	.st1{fill:#F2C341;}
	.st2{fill:#E2B544;}
	.st3{fill:#262626;}
	.st4{fill:#F2F2F2;}
	.st5{fill:#D89828;}
	.st6{fill:#F2C436;}
	.st7{fill:#BE752A;}
	.st8{fill:#D8D8D8;}
	.st9{fill:#B5B1B1;}
	.st10{fill:#BC7D19;}
</style>
<path class="st0" d="M799.5,1601L799.5,1601c7.3,0,13.1-5.9,13.1-13.1v0V497.7c0-7.3-5.9-13.1-13.1-13.1l0,0l0,0
	c-7.3,0-13.1,5.9-13.1,13.1v1090.2C786.4,1595.1,792.3,1601,799.5,1601z"/>
<path class="st0" d="M939.2,1601L939.2,1601c7.3,0,13.1-5.9,13.1-13.1v0V497.7c0-7.3-5.9-13.1-13.1-13.1l0,0l0,0
	c-7.3,0-13.1,5.9-13.1,13.1v0v1090.2C926.1,1595.1,932,1601,939.2,1601z"/>
<path class="st1" d="M812.7,1504.7h113.4v26.2H812.7V1504.7z"/>
<path class="st2" d="M812.7,1504.7h10.7v26.2h-10.7V1504.7z"/>
<path class="st2" d="M915.4,1504.7h10.7v26.2h-10.7V1504.7z"/>
<path class="st1" d="M812.7,1370.5h113.4v26.2H812.7V1370.5z"/>
<path class="st2" d="M812.7,1370.5h10.7v26.2h-10.7V1370.5z"/>
<path class="st2" d="M915.4,1370.5h10.7v26.2h-10.7V1370.5z"/>
<path class="st1" d="M812.7,1236.3h113.4v26.2H812.7V1236.3z"/>
<path class="st2" d="M812.7,1236.3h10.7v26.2h-10.7V1236.3z"/>
<path class="st2" d="M915.4,1236.3h10.7v26.2h-10.7V1236.3z"/>
<path class="st1" d="M812.7,1102.1h113.4v26.2H812.7V1102.1z"/>
<path class="st2" d="M812.7,1102.1h10.7v26.2h-10.7V1102.1z"/>
<path class="st2" d="M915.4,1102.1h10.7v26.2h-10.7V1102.1z"/>
<path class="st1" d="M812.7,968h113.4v26.2H812.7V968z"/>
<path class="st2" d="M812.7,968h10.7v26.2h-10.7V968z"/>
<path class="st2" d="M915.4,968h10.7v26.2h-10.7V968z"/>
<path class="st1" d="M812.7,833.7h113.4V860H812.7V833.7z"/>
<path class="st2" d="M812.7,833.7h10.7V860h-10.7V833.7z"/>
<path class="st2" d="M915.4,833.7h10.7V860h-10.7V833.7z"/>
<path class="st1" d="M812.7,699.5h113.4v26.2H812.7V699.5z"/>
<path class="st2" d="M812.7,699.5h10.7v26.2h-10.7V699.5z"/>
<path class="st2" d="M915.4,699.5h10.7v26.2h-10.7V699.5z"/>
<path class="st1" d="M812.7,565.3h113.4v26.2H812.7V565.3z"/>
<path class="st2" d="M812.7,565.3h10.7v26.2h-10.7V565.3z"/>
<path class="st2" d="M915.4,565.3h10.7v26.2h-10.7V565.3z"/>
<path class="st3" d="M1318.7,255.3l-2-2H537.1v71.4h851L1318.7,255.3z M567.9,289l-23.9,24v-48L567.9,289z M548.8,260.2h48l-23.9,24
	L548.8,260.2z M572.8,293.9l23.9,24h-48L572.8,293.9z M577.6,289l24-24v48L577.6,289z M608.5,265l23.9,24l-23.9,24V265z
	 M613.3,260.2h48l-23.9,24L613.3,260.2z M637.4,293.9l23.9,24h-48L637.4,293.9z M642.2,289l24-24v48L642.2,289z M673.1,265l23.9,24
	l-23.9,24V265z M677.9,260.2h48l-23.9,24L677.9,260.2z M701.9,293.9l23.9,24h-48L701.9,293.9z M706.7,289l24-24v48L706.7,289z
	 M737.6,265l23.9,24l-23.9,24V265z M742.4,260.2h48l-23.9,24L742.4,260.2z M766.5,293.9l23.9,24h-48L766.5,293.9z M771.3,289l24-24
	v48L771.3,289z M802.2,265l23.9,24l-23.9,24V265z M807,260.2h48l-24,24L807,260.2z M831,293.9l23.9,24h-48L831,293.9z M835.9,289
	l24-24v48L835.9,289z M866.7,265l23.9,24l-23.9,24V265z M871.6,260.2h48l-24,24L871.6,260.2z M895.6,293.9l23.9,24h-48L895.6,293.9z
	 M900.5,289l24-24v48L900.5,289z M931.3,265l23.9,24l-23.9,24V265z M936.2,260.2h48l-24,24L936.2,260.2z M960.2,293.9l23.9,24h-48
	L960.2,293.9z M965,289l24-24v48L965,289z M995.9,265l23.9,24l-23.9,24V265z M1000.7,260.2h48l-24,24L1000.7,260.2z M1024.7,293.9
	l23.9,24h-48L1024.7,293.9z M1029.6,289l24-24v48L1029.6,289z M1060.4,265l23.9,24l-23.9,24V265z M1065.3,260.2h48l-24,24
	L1065.3,260.2z M1089.3,293.9l23.9,24h-48L1089.3,293.9z M1094.1,289l24-24v48L1094.1,289z M1125,265l23.9,24l-23.9,24V265z
	 M1129.8,260.2h48l-24,24L1129.8,260.2z M1153.8,293.9l23.9,24h-48L1153.8,293.9z M1158.7,289l24-24v48L1158.7,289z M1189.5,265
	l23.9,24l-23.9,24V265z M1194.4,260.2h48l-24,24L1194.4,260.2z M1218.4,293.9l23.9,24h-48L1218.4,293.9z M1223.3,289l24-24v48
	L1223.3,289z M1254.1,265l23.9,24l-23.9,24V265z M1259,260.2h48l-24,24L1259,260.2z M1282.9,293.9l23.9,24h-48L1282.9,293.9z
	 M1287.8,289l24-24v48L1287.8,289z M1318.7,265l52.8,52.8h-52.8V265z"/>
<path class="st3" d="M317.9,474.5v1039.8h71.4V409.9h-71.4V474.5z M329.7,474.5l24-24l24,24H329.7z M377.7,481.3l-24,24l-24-24
	H377.7z M348.8,510.2l-24,24v-48L348.8,510.2z M329.7,539l24-24l24,24H329.7z M377.6,545.9l-24,24l-24-24H377.6z M348.8,574.7
	l-24,24v-48L348.8,574.7z M329.7,603.6l24-24l24,24H329.7z M377.6,610.4l-24,24l-24-24H377.6z M348.8,639.3l-24,24v-48L348.8,639.3z
	 M329.7,668.1l24-24l24,24H329.7z M377.6,675l-24,24l-24-24H377.6z M348.8,703.8l-24,24v-48L348.8,703.8z M329.7,732.7l24-24l24,24
	H329.7z M377.6,739.6l-24,24l-24-24H377.6z M348.8,768.4l-24,24v-48L348.8,768.4z M329.7,797.3l24-24l24,24H329.7z M377.6,804.1
	l-24,24l-24-24H377.6z M348.8,833l-24,24v-48L348.8,833z M329.7,861.8l24-24l24,24H329.7z M377.6,868.7l-24,24l-24-24H377.6z
	 M348.8,897.5l-24,24v-48L348.8,897.5z M329.7,926.4l24-24l24,24H329.7z M377.6,933.2l-24,24l-24-24H377.6z M348.8,962.1l-24,24v-48
	L348.8,962.1z M329.7,990.9l24-24l24,24H329.7z M377.6,997.8l-24,24l-24-24H377.6z M348.8,1026.6l-24,24v-48L348.8,1026.6z
	 M329.7,1055.5l24-24l24,24H329.7z M377.6,1062.4l-24,24l-24-24H377.6z M348.8,1091.2l-24,24v-48L348.8,1091.2z M329.7,1120.1l24-24
	l24,24H329.7z M377.6,1126.9l-24,24l-24-24H377.6z M348.8,1155.8l-24,24v-48L348.8,1155.8z M329.7,1184.6l24-24l24,24H329.7z
	 M377.6,1191.5l-24,24l-24-24H377.6z M348.8,1220.3l-24,24v-48L348.8,1220.3z M329.7,1249.2l24-24l24,24H329.7z M377.6,1256l-24,24
	l-24-24H377.6z M348.8,1284.9l-24,24v-48L348.8,1284.9z M329.7,1313.7l24-24l24,24H329.7z M377.6,1320.6l-24,24l-24-24H377.6z
	 M348.8,1349.4l-24,24v-48L348.8,1349.4z M329.7,1378.3l24-24l24,24H329.7z M377.6,1385.2l-24,24l-24-24H377.6z M348.8,1414l-24,24
	v-48L348.8,1414z M329.7,1442.8l24-24l24,24H329.7z M377.6,1449.7l-24,24l-24-24H377.6z M348.8,1478.6l-24,24v-48L348.8,1478.6z
	 M353.7,1483.4l24,24h-48L353.7,1483.4z M358.5,1478.6l24-24v48L358.5,1478.6z M358.5,1414l24-24v48L358.5,1414z M358.5,1349.4
	l24-24v48L358.5,1349.4z M358.5,1284.9l24-24v48L358.5,1284.9z M358.5,1220.3l24-24v48L358.5,1220.3z M358.5,1155.8l24-24v48
	L358.5,1155.8z M358.5,1091.2l24-24v48L358.5,1091.2z M358.5,1026.6l24-24v48L358.5,1026.6z M358.5,962.1l24-24v48L358.5,962.1z
	 M358.5,897.5l24-24v48L358.5,897.5z M358.5,833l24-24v48L358.5,833z M358.5,768.4l24-24v48L358.5,768.4z M358.5,703.8l24-24v48
	L358.5,703.8z M358.5,639.3l24-24v48L358.5,639.3z M358.5,574.7l24-24v48L358.5,574.7z M358.5,510.2l24-24v48L358.5,510.2z
	 M358.5,445.6l24-24v48L358.5,445.6z M353.6,440.7l-24-24h48L353.6,440.7z M348.8,445.6l-24,24v-48L348.8,445.6z"/>
<path class="st3" d="M193.7,253.3H0v71.4h265.1v-71.4H193.7z M30.8,289L6.9,313v-48L30.8,289z M11.7,260.2h48l-23.9,24L11.7,260.2z
	 M35.7,293.9l23.9,24h-48L35.7,293.9z M40.5,289l24-24v48L40.5,289z M71.4,265l23.9,24l-23.9,24V265z M76.2,260.2h48l-23.9,24
	L76.2,260.2z M100.3,293.9l23.9,24h-48L100.3,293.9z M105.1,289l24-24v48L105.1,289z M136,265l23.9,24L136,313V265z M140.8,260.2h48
	l-23.9,24L140.8,260.2z M164.8,293.9l23.9,24h-48L164.8,293.9z M169.6,289l24-24v48L169.6,289z M200.5,265l23.9,24l-23.9,24V265z
	 M229.4,293.9l23.9,24h-48L229.4,293.9z M234.2,289l24-24v48L234.2,289z M229.4,284.2l-24-24h48L229.4,284.2z"/>
<path class="st4" d="M281.6,111.2L281.6,111.2c-11,0-19.9,8.9-19.9,19.9l0,0V276h39.8V131.1C301.5,120.1,292.6,111.2,281.6,111.2z"
	/>
<path class="st5" d="M353.7,321.3h186.8v92H353.7V321.3z"/>
<path class="st4" d="M543.8,390H383.9v-45.3h159.9c2.5,0,4.5,2,4.5,4.5v36.4C548.3,388,546.3,390,543.8,390z"/>
<path class="st6" d="M261.6,321.3h92v92h-92V321.3z"/>
<path class="st7" d="M246.5,276h309.1v45.3H246.5V276z"/>
<path class="st5" d="M540.5,276l15.1-94.8L470.4,96H353.7V276H540.5z"/>
<path class="st4" d="M383.9,245.8V126.3h74l67.5,67.5l-11,52H383.9z"/>
<path class="st6" d="M280.9,276V148.2l72.8-36.4V276H280.9z"/>
<path class="st8" d="M353.7,96.1h30.2c-0.4-16-13.5-28.8-29.5-28.8l0,0c-16.3,0-29.5,13.2-29.5,29.5l0,0v29.5l28.8-14.4L353.7,96.1z
	"/>
<path class="st9" d="M343.4,100.2h-18.5v-4.1h18.5c1.1,0,2.1,0.9,2.1,2.1l0,0C345.5,99.3,344.5,100.2,343.4,100.2z"/>
<path class="st9" d="M343.4,108.4h-18.5v-4.1h18.5c1.1,0,2.1,0.9,2.1,2.1l0,0C345.5,107.5,344.5,108.4,343.4,108.4z"/>
<path class="st9" d="M343.4,116.7h-18.5v-4.1h18.5c1.1,0,2.1,0.9,2.1,2.1l0,0C345.5,115.7,344.5,116.7,343.4,116.7z"/>
<path class="st9" d="M335.8,120.8h-11v4.1h2.7L335.8,120.8z"/>
<path class="st10" d="M35.7,321.3h96.8v17.9H35.7V321.3z"/>
<path class="st5" d="M47,339.2h74.2V357H47V339.2z"/>
<path class="st10" d="M1072.7,321.3h96.8v17.9h-96.8V321.3z"/>
<path class="st10" d="M1081.7,793.1h79c4.9,0,8.9,4,8.9,8.9l0,0l0,0c0,4.9-4,8.9-8.9,8.9l0,0h-79c-4.9,0-8.9-4-8.9-8.9l0,0l0,0
	C1072.7,797.1,1076.7,793.1,1081.7,793.1L1081.7,793.1z"/>
<path class="st5" d="M1084.1,339.2h74.2V357h-74.2V339.2z"/>
<path class="st10" d="M277.4,413.4h152.5v17.9H277.4V413.4z"/>
<path class="st5" d="M295.3,431.2h116.8v17.9H295.3V431.2z"/>
<path class="st6" d="M392.5-1L392.5-1c-4.7,0-8.6,3.8-8.6,8.6l0,0V96h17.2V7.6C401.1,2.8,397.2-1,392.5-1C392.5-1,392.5-1,392.5-1z"
	/>
<path class="st10" d="M173.7,1557.7h359.9v43.4H173.7V1557.7z"/>
<path class="st6" d="M196.2,1514.3h315v43.4h-315V1514.3z"/>
<path class="st3" d="M1096.2,357h8.2v436.1h-8.2V357z"/>
<path class="st3" d="M1137.9,357h8.2v436.1h-8.2V357z"/>
<path class="st5" d="M1083.3,811h75.8v14.7h-75.8V811z"/>
<path class="st7" d="M1121.2,825.7h-37.9l14.6,26.2h23.3h23.3l14.6-26.2H1121.2z"/>
<path class="st5" d="M1141.5,877.4l-1.8,2.2c-1.7,2.3-3,4.9-3.6,7.7c-1.8,7.2-8.4,12.1-15.8,11.7c-8.5-0.4-15.1-7.7-14.7-16.2
	c0.3-7,5.3-12.9,12.2-14.4c4.8-1.1,8.1-5.4,8-10.3v-6.3h-9.6v6.3c0,0.5-0.3,0.9-0.8,1c-13.5,3.1-21.9,16.6-18.8,30.1
	c2.6,11.3,12.7,19.4,24.3,19.5h0.2c6.5,0,12.7-2.5,17.3-7c1.8-1.7,3.3-3.7,4.6-5.9c3.2-5.8,2.9-12.9-0.9-18.4l0,0
	c-0.1-0.2-0.3-0.3-0.5-0.2C1141.6,877.3,1141.5,877.3,1141.5,877.4z"/>
<path class="st3" d="M132.5,262l-3-4.6L391.5,7l1.2,0.3l792,246.8l-1.4,5.3L392.4,12.9L132.5,262z"/>
</svg>
