<?xml version="1.0" encoding="utf-8"?>
<!-- Generator: Adobe Illustrator 24.1.0, SVG Export Plug-In . SVG Version: 6.00 Build 0)  -->
<svg version="1.1" id="Layer_1" xmlns="http://www.w3.org/2000/svg" xmlns:xlink="http://www.w3.org/1999/xlink" x="0px" y="0px"
	 viewBox="0 0 1403 999" style="enable-background:new 0 0 1403 999;" xml:space="preserve">
<style type="text/css">
	.st0{fill:#E6C77B;}
	.st1{fill:#FB6A3D;}
	.st2{fill:#009A9E;}
	.st3{fill:#00C086;}
	.st4{fill:#FD9400;}
	.st5{fill:#654C22;}
	.st6{fill:#FEC064;}
	.st7{fill:#E1C881;}
	.st8{fill:#FCBF64;}
	.st9{fill:#FD6A3E;}
	.st10{fill:#4F421F;}
	.st11{fill:#574723;}
	.st12{fill:#FDDE1F;}
	.st13{fill:#F8D91F;}
	.st14{fill:#487770;}
	.st15{stroke:#000000;stroke-miterlimit:10;}
	.st16{fill:#FFFFFF;stroke:#555555;stroke-width:3;stroke-miterlimit:10;}
	.st17{fill:none;stroke:#555555;stroke-width:3;stroke-miterlimit:10;}
	.st18{fill:#D6E5EA;stroke:#555555;stroke-width:3;stroke-miterlimit:10;}
</style>
<g id="Layer_1_2_">
	<g id="Layer_2_1_">
		<rect x="40" y="384.3" class="st0" width="124" height="40"/>
		<rect x="40" y="454.3" class="st0" width="124" height="553"/>
		<rect x="249" y="384.3" class="st0" width="166" height="40"/>
		<rect x="249" y="454.3" class="st0" width="166" height="553"/>
		<path class="st0" d="M911,424.3H710c6.3,1.1,12.4,3.3,18,6.5c9.6,5.4,17.4,13.6,22.4,23.5H911v553H492v-553h155.2
			c8.1-15.9,23.2-27,40.8-30H492v-40h419V424.3z"/>
		<rect x="988" y="384.3" class="st0" width="179" height="40"/>
		<rect x="988" y="454.3" class="st0" width="179" height="553"/>
		<rect x="1252" y="384.3" class="st0" width="117" height="40"/>
		<rect x="1252" y="454.3" class="st0" width="117" height="553"/>
		<path class="st1" d="M1403,424.3v30h-151v553h-85v-553H988v553h-77v-553H750.5c-5-9.9-12.8-18.1-22.4-23.5
			c-5.6-3.2-11.7-5.4-18-6.5H911v-40h77v40h179v-139h85v139H1403z"/>
		<path class="st1" d="M750.5,454.3H647.1c8.1-15.9,23.2-27,40.8-30H710c6.3,1.1,12.4,3.3,18,6.5
			C737.7,436.2,745.5,444.4,750.5,454.3z"/>
		<rect x="164" y="1007.3" class="st1" width="85" height="2"/>
		<rect x="1167" y="1007.3" class="st1" width="85" height="2"/>
		<rect x="415" y="285.3" class="st1" width="40" height="8"/>
		<path class="st1" d="M688,424.3c-17.6,3-32.7,14.1-40.8,30H492v553h-77v-553H249v553h-85v-553H2v-30h162v-139h85v139h166v-40h77
			v40H688z"/>
		<rect x="415" y="1007.3" class="st1" width="77" height="2"/>
		<rect x="961" y="284.3" class="st1" width="27" height="9"/>
		<rect x="911" y="1007.3" class="st1" width="77" height="1"/>
		<path class="st2" d="M922.6,243c0,0.4-0.1,0.9-0.2,1.3h-423c-0.3-1-0.5-2.1-0.5-3.1c-1.9-33.5,14.7-57.2,39.8-76.6
			c17.4-13.4,37.2-22.9,56.1-33.9c45.4-26.5,59.7-39.5,101.8-58.6c5.7-2.6,10.4-4.6,13.5-5.9l0,0l2.5,1l7.5,3l0.2,0.2l1.7,0.7
			c11.7,5.2,22.3,12.2,33.4,18.5c37.9,21.7,75.9,43.3,113.6,65.5c20.6,12.1,37.6,28.1,47.7,50.4C921.8,217.6,923,230.2,922.6,243z"
			/>
		<path class="st3" d="M806.8,244.3H615.4c0.3-30.2,5.3-59.2,23.2-84.3c15-21.1,31.1-41.3,46.7-61.9c7.5-9.9,15.2-19.8,22.6-29.8
			c0.5-0.9,1.2-1.6,2.1-2.1c0.8-0.4,1.5,0,2.5,1c0.3,0.3,0.6,0.7,0.9,1c23,30.4,46.5,60.4,69,91.1c0,0,17.1,30.6,22.3,62.8
			C805.8,229.5,806.5,239.3,806.8,244.3z"/>
		<polygon class="st4" points="1030,293.3 1030,384.3 911,384.3 911,383.3 492,383.3 492,384.3 380,384.3 380,293.3 455,293.3 
			455,244.3 961,244.3 961,293.3 		"/>
		<rect x="492" y="383.3" class="st4" width="419" height="1"/>
	</g>
	<g id="Layer_1_1_">
		<path class="st5" d="M890.8,1006.8c2.6,2.5,5.8,0.8,8.8,1.3s6.1-1.1,8.9,1.1H498.1c5.8-2.3,11.8-0.5,17.7-1.1
			c2-0.2,4.3,0.4,4.2-2.7l0.6-0.3c0.5,2.6,2.6,2,4.3,2c3.9,0,7.9,0,11.8,0l45.8-0.1l5-0.1h54.3l5.4,0.1l52.8-0.1l5.3,0.2h54.5h5.4
			h54.7h4.4l50.1,0.1L890.8,1006.8z"/>
		<path class="st5" d="M992.7,1009.1c1.6-1.8,3.8-1,5.7-1c52.4,0,104.8,0,157.2,0c1.9,0,4-0.7,5.7,1H992.7z"/>
		<path class="st5" d="M248.5,1009.1c1.6-1.8,3.8-1,5.7-1c50.9,0,101.9,0,152.8,0c1.9,0,4-0.7,5.7,1H248.5z"/>
		<path class="st4" d="M517,1007l-0.6,0.3c-5.9-0.1-11.9-0.4-17.8-0.2c-3.2,0.1-5-0.7-4.5-4.2c0.1-1.1,0.1-2.2,0-3.2
			c0-118.7,0-237.3,0-356c0-8.3-1-7.3,7.3-7.3c134.3,0,268.6,0,402.9,0c7.7,0,7.7,0,7.7,7.6v356c0,7,0,7-7.1,7.1
			c-3.5,0-7,0.1-10.6,0.1c0-2.3-0.1-4.7-0.1-7c0-56,0-112,0-168c0.1-12.6-1.2-25.1-3.7-37.4c-8.9-41.1-29.5-75.7-62.9-102.7
			c-47.2-38.2-101.7-50.3-161.3-38.9c-52.4,10.1-93,38.2-121.3,82.2c-17.2,26.7-27.1,55.9-27.3,87.6c-0.4,59-0.2,118.1-0.3,177.1
			C517.3,1002.3,517.1,1004.6,517,1007z"/>
		<path class="st6" d="M965,458h-6.4c-66.4,0-132.7,0-199.1,0.1c-4.5,0-7.2-1.2-9.8-5.2c-18.7-28.2-56.8-35.8-85-17.1
			c-6.9,4.6-12.8,10.6-17.4,17.5c-2,3-3.7,4.7-7.7,4.7c-65.2-0.1-130.4-0.2-195.6-0.1c-1,0-1.9-0.1-3.1-0.2c0.5-2.4,2.7-2.8,4.2-3.6
			c84.4-47.5,168.7-95.1,253-142.6c3.5-2,6-1.9,9.4,0c84.3,47.6,168.7,95.1,253.1,142.6C961.9,455,963.6,455.5,965,458z"/>
		<path class="st7" d="M520.5,1005c0.1-2.4,0.3-4.7,0.3-7.1c0.1-59.8-0.2-119.6,0.3-179.3c0.2-32,9.9-61.6,26.8-88.7
			c27.9-44.6,67.8-73,119.2-83.2c58.5-11.6,112,0.7,158.4,39.3c32.8,27.3,53,62.4,61.8,104c2.6,12.5,3.8,25.2,3.7,37.9
			c0,56.7,0,113.4,0,170.1c0,2.4,0.1,4.7,0.1,7.1c-0.1,0.5-0.1,1.1-0.2,1.6l-16.6,0.3c0-19.6,0-39.2-0.1-58.7
			c0-8.1-0.3-16.3-0.4-24.4c0.2-1.3-0.7-1-1.4-1c-8.8,0-17.5-0.3-26.2-0.1c-7,0.1-16.2-3-20.5,1.3c-4,4-1,13.2-1.1,20
			c-0.2,20.9-0.2,41.9-0.3,62.8h-4.4c-0.1-20.7-0.2-41.3-0.3-61.9c-0.1-7,0.5-14.1-0.4-21.1c0.2-1.2-0.7-1-1.4-1h-51.5
			c-0.7-0.1-1,0.2-1,0.9l-0.2,83.1h-5.4l-0.2-83.2c0.1-0.7-0.2-1-0.9-0.9c-15.8,0-31.6,0.1-47.4-0.3c-4.7-0.1-6.2,0.9-6.1,5.9
			c0.3,26.2,0.1,52.3,0.1,78.4l-5.3-0.2c-0.1-27.7-0.2-55.4-0.2-83.1c0-0.8-0.5-1-1.2-0.9c-15.5,0-30.9,0.1-46.4-0.3
			c-4.3-0.1-5.1,1.3-5,5.3c0.2,26.4,0.1,52.7,0.1,79.1l-5.4-0.1l-0.2-83.1c0-0.8-0.4-1-1.1-0.9H589c-0.7-0.1-1.1,0.1-1.1,0.9
			c-0.1,3.1-0.2,6.2-0.2,9.3c-0.1,24.6-0.1,49.2-0.2,73.8l-5,0.1c-0.1-2.4-0.2-4.7-0.2-7.1c0-24.2,0-48.3,0-72.5
			c0-2.9-0.1-4.8-3.9-4.7c-13.3,0.3-26.5,0.2-39.8,0.2c-0.7-0.1-1.2,0.1-1.2,0.9c-0.2,2.3-0.5,4.7-0.5,7
			c-0.1,25.4-0.1,50.8-0.1,76.2c-4,0-7.9,0-11.8,0C523.1,1007,521.1,1007.6,520.5,1005z M759.6,809.8c0-9.6-0.1-19.3,0.1-28.9
			c0.1-3.3-0.4-4.8-4.3-4.8c-15.3,0.2-30.6,0.2-45.9,0c-3.3,0-4.4,0.9-4.4,4.3c0.2,19.5,0.2,39,0,58.4c0,3.5,1.2,4.2,4.5,4.2
			c15.3-0.1,30.6-0.2,45.9,0c3.4,0,4.3-1,4.3-4.3C759.5,829.1,759.6,819.4,759.6,809.8L759.6,809.8z M765,883c0,9.8,0.1,19.7,0,29.5
			c0,2.8,0.8,3.8,3.7,3.8c15.7-0.1,31.3-0.1,47,0c2.9,0,3.8-1,3.7-3.8c-0.1-19.7-0.1-39.4,0-59.1c0-3.1-1-4.1-4.1-4
			c-15.5,0.1-31,0.1-46.5,0c-3.2,0-4,1-4,4.1C765.1,863.3,765,873.2,765,883L765,883z M765,809.5c0,9.5,0.2,19-0.1,28.4
			c-0.1,3.6,0.6,5.1,4.7,5.1c15.1-0.2,30.3-0.2,45.4,0c3.2,0,4.5-0.7,4.5-4.2c-0.1-19.5-0.1-39,0-58.5c0-3.5-1.3-4.2-4.5-4.2
			c-15.1,0.1-30.3,0.2-45.4,0c-4.1-0.1-4.8,1.5-4.7,5C765.2,790.6,765,800.1,765,809.5L765,809.5z M759.6,882.8
			c0-9.5-0.1-18.9,0.1-28.4c0.1-3.6-0.6-5.1-4.7-5c-15.1,0.2-30.2,0.2-45.3,0c-3.6,0-4.7,1-4.6,4.6c0.2,19.3,0.2,38.6,0,57.9
			c0,3.1,0.6,4.5,4.2,4.5c15.5-0.2,31-0.2,46.4,0c3.1,0,4-1,4-4C759.5,902.4,759.6,892.6,759.6,882.8z M705.2,736.2
			c0,9.7,0.1,19.3,0,28.9c0,3.1,0.5,4.6,4.1,4.5c15.5-0.2,31-0.2,46.4,0c3.1,0,4-0.8,4-4c-0.1-19.7-0.1-39.3,0-59c0-3.2-1-4-4-4
			c-15.5,0.1-31,0.2-46.4,0c-3.7,0-4.2,1.5-4.1,4.5C705.2,716.9,705.2,726.6,705.2,736.2z M765,736c0,9.8,0.1,19.7,0,29.5
			c0,2.9,0.5,4.2,3.8,4.2c15.7-0.2,31.4-0.1,47,0c2.5,0,3.6-0.6,3.6-3.4c-0.1-19,0-37.9-0.1-56.9c0-4.4-2.3-6.6-6.9-6.6
			c-14.4,0-28.8,0.2-43.2-0.1c-3.9-0.1-4.4,1.5-4.4,4.8C765.1,717,765,726.5,765,736z M587.6,809.5c0,9.7,0.1,19.3-0.1,29
			c0,3.1,0.5,4.6,4.1,4.5c15.3-0.2,30.6-0.1,45.9,0c3,0,4.2-0.8,4.1-4c-0.1-19.7-0.1-39.3,0-59c0-3.2-1.2-4-4.1-3.9
			c-15.3,0.1-30.6,0.2-45.9,0c-3.6,0-4.2,1.4-4.1,4.5C587.7,790.2,587.6,799.9,587.6,809.5z M641.7,883.3c0-9.7-0.1-19.3,0.1-29
			c0.1-3.6-0.7-5.1-4.7-5c-14.9,0.2-29.9,0.2-44.8,0c-3.5,0-4.7,0.9-4.6,4.5c0.2,19.3,0.2,38.6,0,57.9c0,3.8,1.3,4.5,4.7,4.5
			c14.9-0.1,29.9-0.1,44.8,0c3.5,0,4.7-0.9,4.7-4.6C641.5,902.3,641.7,892.8,641.7,883.3z M641.7,736.1c0-9.8-0.1-19.7,0-29.5
			c0-2.7-0.6-3.9-3.6-3.9c-13.3,0.1-26.6,0-39.9,0.1c-4.8,0-10.5,5.8-10.6,10.5c-0.1,17.5,0,35-0.1,52.4c0,3.3,1.4,3.8,4.2,3.8
			c15.3-0.1,30.6-0.1,45.9,0c3.1,0,4.1-0.9,4-4C641.6,755.8,641.7,746,641.7,736.1L641.7,736.1z M699.8,809.5c0-9.7-0.1-19.3,0.1-29
			c0-3.2-0.7-4.5-4.2-4.5c-14.8,0.2-29.5,0.2-44.3,0c-3.2,0-4.4,0.8-4.4,4.2c0.2,19.5,0.1,39,0,58.5c0,2.9,0.6,4.2,3.9,4.2
			c15-0.2,29.9-0.2,44.8,0c3.6,0,4.2-1.5,4.1-4.5C699.7,828.8,699.8,819.2,699.8,809.5L699.8,809.5z M647,882.3
			c0,9.8,0.1,19.7-0.1,29.5c0,3.2,0.7,4.5,4.2,4.5c14.8-0.2,29.5-0.2,44.3,0c3.3,0,4.4-0.9,4.4-4.3c-0.1-19.5-0.1-39,0-58.5
			c0-3-0.7-4.2-4-4.1c-15,0.2-29.9,0.2-44.8,0c-3.7,0-4.1,1.5-4.1,4.6C647.1,863.4,647,872.9,647,882.3z M699.8,736.6
			c0-9.8-0.1-19.7,0.1-29.5c0.1-3.3-0.9-4.4-4.3-4.4c-14.8,0.2-29.5,0.2-44.3,0c-3.3,0-4.3,0.9-4.3,4.3c0.1,19.5,0.1,39,0,58.5
			c0,3,0.8,4.1,4,4.1c15-0.1,29.9-0.1,44.8,0c3.1,0,4.1-0.9,4.1-4C699.7,756,699.8,746.3,699.8,736.6L699.8,736.6z M824.5,882.8
			c0,9.7,0.1,19.3,0,29c0,3,0.5,4.6,4.1,4.6c13.8-0.2,27.7-0.1,41.5,0c3,0,4.2-0.7,4.2-4c-0.1-19.7-0.1-39.3,0-59c0-3.2-1.1-4-4.1-4
			c-13.8,0.1-27.7,0.2-41.5,0c-3.6,0-4.2,1.4-4.2,4.5C824.6,863.5,824.5,873.2,824.5,882.8L824.5,882.8z M824.5,809.2
			c0,9.8,0.1,19.7,0,29.5c0,2.8,0.5,4.3,3.8,4.2c14-0.2,28-0.1,42,0c2.7,0,3.9-0.7,3.9-3.7c-0.2-20.3-2.5-40.2-8.8-59.6
			c-0.9-2.6-2.1-3.7-5-3.6c-10.6,0.2-21.1,0.2-31.7,0c-3.3-0.1-4.4,0.9-4.4,4.3C824.6,790,824.5,799.6,824.5,809.2L824.5,809.2z
			 M536.8,882.8c0,9.8,0.1,19.6-0.1,29.5c0,3.1,1,4.1,4.1,4c12.5-0.1,25.1-0.1,37.7,0c2.8,0,3.8-0.8,3.8-3.7
			c-0.1-19.8-0.1-39.7,0-59.5c0-2.9-0.9-3.7-3.8-3.7c-12.5,0.1-25.1,0.2-37.7,0c-3.7-0.1-4.2,1.5-4.1,4.5
			C536.9,863.5,536.8,873.2,536.8,882.8z M582.2,809.8c0-9.6-0.2-19.3,0.1-28.9c0.1-4-1.3-4.9-5-4.8c-8.5,0.2-17.1,0.4-25.7,0
			c-4.2-0.2-5.5,1.6-6.6,5.2c-5.6,18.6-8.4,38-8.1,57.4c0,3.4,1.1,4.3,4.4,4.3c12.2-0.2,24.4-0.2,36.6,0c3.3,0,4.4-0.9,4.3-4.3
			C582.1,829.1,582.2,819.4,582.2,809.8L582.2,809.8z M732.2,696.4c7.8,0,15.7-0.1,23.5,0.1c3.1,0.1,4.1-0.9,4-4
			c-0.2-6.4-0.2-12.7,0-19.1c0.1-2.6-0.8-3.8-3.4-4.6c-15.3-4.8-31.2-7.4-47.2-7.6c-3.2,0-4,1.1-4,4.1c0.2,8.9,0.2,17.8,0,26.7
			c-0.1,3.8,1.4,4.5,4.8,4.4C717.3,696.2,724.8,696.3,732.2,696.4L732.2,696.4z M673.1,696.4c7.5,0,14.9-0.2,22.4,0.1
			c3.3,0.1,4.4-0.9,4.3-4.3c-0.2-8.7-0.3-17.5,0-26.2c0.1-4.1-1.4-4.9-5.1-4.6c-13.8,1.1-27.4,3.6-40.7,7.5
			c-5.7,1.6-7.9,4.3-7.2,10.2c0.4,4.5,0.4,9.1,0.1,13.6c-0.1,2.9,0.9,3.8,3.8,3.8C658.2,696.2,665.7,696.3,673.1,696.4L673.1,696.4z
			 M824.5,712.1c0,18.7,0,36.7,0,54.6c0,3.1,1.9,2.9,4,2.9c9.7,0,19.3-0.2,29,0.1c4.2,0.1,4-1.3,2.7-4.3
			c-6.5-15.5-15.3-29.9-25.9-42.9C831.4,719,828.9,715.2,824.5,712.1L824.5,712.1z M582.2,718c-14.3,14.2-24.4,30.8-32,49
			c-1.1,2.6,0.2,2.7,2.1,2.7c8.9,0,17.8-0.1,26.8,0c2.4,0,3.1-0.9,3.1-3.2C582.2,750.2,582.2,734.1,582.2,718L582.2,718z
			 M806.7,696.3c-7.7-8.1-31.2-21.5-41.6-23.8c0,7,0.1,13.8,0,20.7c-0.1,3,1.5,3.1,3.8,3.1C781.1,696.3,793.5,696.3,806.7,696.3z
			 M603.4,696.3c12.8,0,24.1,0,35.5,0c2.2,0,2.8-1,2.8-3c-0.1-5.4,0-10.9,0-16.3c0-2.1-0.7-3.2-2.9-2.2
			C626.6,680.4,615,686.8,603.4,696.3z"/>
		<path class="st1" d="M440.3,457.9h204.9c-1.4,5.4-3.5,10.3-3.9,15.6c-0.2,3.3-2.9,2.7-5,2.7c-15.3,0-30.7,0-46,0
			c-27.7,0-55.5,0.5-83.2-0.1c-27.7-0.7-55.4-0.6-83.1-0.4c-15.8,0.1-31.6,0.6-47.8-0.4c6.4-3.6,12.7-7.3,19.1-10.9l263.9-148.5
			c13.2-7.4,26.4-14.8,39.5-22.4c2.9-1.7,5-1.7,7.9,0C793,342.3,879.5,391.1,966,439.9c18.6,10.5,37.2,20.9,55.8,31.3
			c2.4,1.2,4.6,2.9,6.3,5c-10.8,0-21.6,0.5-32.4-0.2c-9.7-0.6-19.3-0.4-29-0.5c-17.1-0.1-34.3-0.4-51.4,0
			c-50.7,1.3-101.4,0.2-152.1,0.7c-4.3,0-7.1-0.3-7.4-5.8c-0.2-4.1-2.1-8-3.3-12.5h212.7c0.1-0.3,0.2-0.6,0.3-0.9
			c-11.6-6.6-23.2-13.2-34.9-19.8c-73.6-41.5-147.2-83.1-220.8-124.6c-4.7-2.6-8.2-3.3-13.3-0.4c-84.3,47.8-168.7,95.5-253.2,143
			c-1.1,0.6-2.1,1.2-3.2,1.9L440.3,457.9z"/>
		<path class="st2" d="M206,284.9l-41.6-0.1c-6.7,0-6.9-0.1-5.9-6.8c1.8-12.3,6.1-23.5,14.1-33.2c10.6-13,20.9-26.2,31.2-39.4
			c1.9-2.4,3-3,5.2-0.1c11,14.3,22.3,28.3,33.4,42.5c7.5,9.6,10.5,21,12.1,32.9c0.5,3.5-1,4.3-4.3,4.3
			C235.5,284.8,220.7,284.9,206,284.9z"/>
		<path class="st2" d="M1210,287.9c-14.4,0-28.8-0.1-43.2,0.1c-4,0.1-5.1-1.3-4.7-5c1.3-12.4,5.3-23.7,13-33.6
			c10.7-13.6,21.5-27.1,32.1-40.7c2.2-2.8,3.3-2.8,5.6,0c11.3,14.5,23,28.7,34.1,43.3c7.1,9.4,9.9,20.5,11.4,32
			c0.5,3.9-1.8,3.9-4.6,3.9C1239.1,287.8,1224.5,287.9,1210,287.9z"/>
		<path class="st3" d="M451.8,293.8c-14.2,0-28.5-0.2-42.7,0.1c-4.7,0.1-5.6-1.6-5-5.7c1.7-11.4,5.1-22,12.2-31.2
			c10.8-14,21.9-27.7,32.8-41.6c2.2-2.8,3.4-2.9,5.6,0c11.3,14.5,23,28.7,34.1,43.4c6.7,8.9,9.7,19.4,10.9,30.5
			c0.4,3.8-0.5,4.7-4.1,4.6C481,293.7,466.4,293.8,451.8,293.8z"/>
		<path class="st3" d="M967.6,293.8c-14.2,0-28.4-0.3-42.6,0.1c-5.3,0.1-6.2-1.9-5.5-6.3c1.8-11.1,5.2-21.6,12.1-30.6
			c10.8-14,21.9-27.7,32.8-41.6c2.2-2.8,3.4-2.8,5.6,0c11.2,14.4,22.7,28.5,33.8,42.9c6.9,9,10,19.6,11.2,30.9
			c0.5,4.3-1.2,4.7-4.7,4.6C996,293.7,981.8,293.8,967.6,293.8z"/>
		<path class="st8" d="M605.1,300.8c0,11.3-0.1,22.6,0.1,33.9c0.1,3.5-1,4.8-4.6,4.8c-17.1-0.1-34.2-0.1-51.4,0
			c-3.4,0-4.9-0.8-4.8-4.5c0.1-22.8,0.1-45.5,0-68.3c0-2.8,0.5-4.3,3.9-4.2c17.1,0.2,34.2,0.3,51.4,0.2c4.3,0,5.7,1.1,5.6,5.5
			C604.9,279,605.1,289.9,605.1,300.8z"/>
		<path class="st8" d="M876.7,301.2c0,11.3-0.1,22.6,0.1,33.9c0,3.3-0.9,4.4-4.3,4.4c-17.3-0.1-34.6-0.1-51.9,0
			c-3.5,0-4.2-1.3-4.2-4.5c0.1-22.6,0.1-45.1,0-67.7c0-3.5,1-4.7,4.6-4.7c17.1,0.2,34.2,0.2,51.4,0c3.8,0,4.5,1.5,4.4,4.8
			C876.6,278.6,876.7,289.9,876.7,301.2z"/>
		<path class="st1" d="M580.2,526.8c0,16.5-0.1,33.1,0.1,49.7c0,3.7-0.8,5.2-4.5,5.1c-8.6-0.3-17.1-0.2-25.7,0c-3,0-4.2-0.9-4.2-4.3
			c0.1-33.9,0.1-67.8,0-101.7c0-3.6,1.5-4.2,4.3-4.2c8.4,0.1,16.8,0.2,25.1,0c3.8-0.1,5,1,5,5.2C580,493.3,580.2,510.1,580.2,526.8z
			"/>
		<path class="st9" d="M862.5,525.9c0,16.8-0.1,33.7,0.1,50.5c0,4-1.1,5.2-4.6,5.1c-8.4-0.3-16.8-0.2-25.1,0c-3.1,0-4.6-0.6-4.6-4.5
			c0.1-34.3,0.1-68.6,0-102.9c0-3.7,1.1-4.8,4.4-4.8c8.6,0.2,17.1,0.2,25.7,0c3.5-0.1,4.3,1.3,4.2,4.9
			C862.5,491.4,862.5,508.7,862.5,525.9z"/>
		<path class="st1" d="M768.4,526.7c0,16.5-0.1,33.1,0.1,49.6c0,4.1-1,5.5-4.9,5.3c-8.6-0.3-17.1-0.2-25.7,0
			c-3.3,0.1-4.4-1.1-4.3-4.7c0.1-16.3,0.1-32.7,0-49c-0.1-2.7,1.1-5.3,3.1-7.1c11.7-10.9,18.2-24.7,20-41.3c0.3-3.1-1.4-8.1,5-8.1
			c5.6-0.1,7,1.6,6.8,7.5C768.1,494.8,768.4,510.7,768.4,526.7z"/>
		<path class="st4" d="M504.6,341.3c0,12.6-0.2,25.1,0.1,37.7c0.1,4.5-1.4,5.5-5.6,5.4c-7.3-0.3-14.6-0.2-21.8,0
			c-3.1,0.1-4.6-0.5-4.6-4.1c0.1-26,0.1-52,0-78.1c0-3.5,1.3-4.3,4.5-4.2c7.6,0.2,15.3,0.2,22.9,0c3.7-0.1,4.6,1.2,4.5,4.7
			C504.5,315.5,504.6,328.4,504.6,341.3z"/>
		<path class="st4" d="M936.8,340.9c0,12.6-0.2,25.1,0.1,37.7c0.1,4.1-0.9,5.9-5.4,5.7c-7.5-0.4-15-0.2-22.4,0c-3,0.1-4.2-0.9-4.1-4
			c0.1-26.1,0.1-52.1,0-78.2c0-3,0.7-4.2,4-4.2c8,0.2,16,0.2,24.1,0c3.3-0.1,3.9,1.3,3.9,4.2C936.8,315.1,936.8,328,936.8,340.9z"/>
		<path class="st1" d="M639.4,469.3c2.4,25.7,12.2,45.3,32.4,57.8c1.6,0.8,2.5,2.5,2.4,4.2c-0.1,15.4-0.1,30.8,0,46.3
			c0,2.9-0.9,3.9-3.5,3.9c-9.3-0.1-18.6-0.2-27.9,0c-4.3,0.1-3.5-3.1-3.5-5.8c0-28.2,0-56.4,0-84.6L639.4,469.3z"/>
		<path class="st8" d="M741,308.3c-11.9-6.7-23-12.8-34-19.2c-3-1.8-5.3-2.1-8.4-0.1c-4.7,3.1-9.8,5.5-14.7,8.3
			c-2.6,1.5-3.6,0.8-3.6-2.1c0-9.6,0.1-19.3,0-28.9c0-2.7,1.2-3.4,3.7-3.4c17.8,0,35.7,0.1,53.5,0c3.1,0,3.6,1.3,3.5,3.9
			C741,280.2,741,293.7,741,308.3z"/>
		<path class="st9" d="M92,643.7c22.4,0,44.8,0.2,67.2-0.1c5-0.1,4.9,2.3,5,5.9c0.1,3.8-0.6,5.4-5,5.4c-44.8-0.2-89.6-0.2-134.4,0
			c-5,0-4.9-2.4-5-5.9c-0.1-3.8,0.6-5.4,5-5.4C47.2,643.8,69.6,643.7,92,643.7z"/>
		<path class="st9" d="M91.7,687.5c-22.2,0-44.5-0.2-66.7,0.1c-4.7,0-5.3-1.7-5.3-5.7s0.7-5.7,5.3-5.7c44.6,0.2,89.2,0.2,133.9,0
			c4.7,0,5.3,1.8,5.3,5.7s-0.7,5.7-5.3,5.6C136.5,687.4,114.1,687.5,91.7,687.5z"/>
		<path class="st9" d="M1317.2,687.5c-22.2,0-44.5-0.1-66.8,0.1c-4.3,0-5.3-1.4-5-5.3c0.2-3.5-0.2-6,5-6c44.5,0.2,89,0.2,133.5,0
			c4.5,0,5.5,1.5,5.4,5.6s-0.7,5.7-5.3,5.7C1361.7,687.4,1339.5,687.5,1317.2,687.5z"/>
		<path class="st9" d="M1317.7,654.8c-22.4,0-44.9-0.2-67.3,0.1c-5.2,0.1-4.8-2.5-5-6c-0.2-3.9,0.8-5.3,5.1-5.3
			c44.5,0.2,89,0.2,133.5,0c4.6,0,5.3,1.8,5.3,5.7c0.1,4.2-1,5.6-5.5,5.6C1361.8,654.7,1339.7,654.8,1317.7,654.8z"/>
		<path class="st1" d="M1078.2,872.5c-29.4,0-58.9,0-88.3,0c-3.6,0-7.1,0.7-6.9-4.4c0.2-4.5,3-4.3,6.6-4.3c59.7,0,119.5,0,179.2,0
			c3.9,0,6.2,0.2,6.2,4.5c0,4.7-3,4.2-6.5,4.2C1138.4,872.5,1108.3,872.5,1078.2,872.5z"/>
		<path class="st1" d="M1077.2,813.2c32.7,0,65.5,0,98.2,0c4.1,0,7.7-0.5,7.6,4.5c-0.1,4.7-3.3,4.2-7.2,4.2c-65.7,0-131.4,0-197.1,0
			c-3.6,0-7.6,0.8-7.7-4c-0.1-4,1.9-4.8,6.6-4.8c28.3,0.1,56.6,0.1,84.9,0.1H1077.2z"/>
		<path class="st1" d="M333.3,872.5c-27.8,0-55.7,0-83.5,0c-3.2,0-6.7,1.1-6.8-4.2c-0.1-5.5,3.6-4.5,7.1-4.5c55.7,0,111.4,0,167.1,0
			c3.2,0,6.7-1,6.8,4.2c0.1,5.5-3.7,4.5-7.1,4.5H333.3z"/>
		<path class="st1" d="M333.3,813.2c29.2,0,58.5,0.2,87.7-0.1c6.1,0,6.2,2.5,5.9,6.3c-0.2,1.9-1.3,2.5-3.2,2.5c-0.8,0-1.7,0-2.5,0
			H246.3c-3.1,0-6.2,0.6-6.3-3.8c-0.1-3.8,1.2-5,5.6-5C274.8,813.3,304,813.2,333.3,813.2z"/>
		<path class="st4" d="M804.6,343c30.6,0,61.2,0.1,91.9-0.1c5.7,0,4.2,3.4,4.4,6.4c0.2,3.3,0.3,5.8-4.6,5.7
			c-23.2-0.3-46.3-0.1-69.4-0.1c-1.4,0.1-2.9-0.1-4.2-0.7c-6.2-3.3-12.3-6.8-18.5-10.2C804.3,343.7,804.5,343.3,804.6,343z"/>
		<path class="st4" d="M601.8,343.4c-10.4,5.9-19.2,12.5-31.9,11.8c-18.7-1.1-37.5-0.5-56.3-0.2c-4.7,0.1-5-2.2-4.7-5.6
			c0.3-2.9-1.5-6.6,4.3-6.5c28.8,0.2,57.6,0.1,86.3,0.1C600.3,343.1,601,343.2,601.8,343.4z"/>
		<path class="st10" d="M705.1,1007c0-26.2,0.2-52.3-0.1-78.5c0-5,1.4-6,6.1-5.9c15.8,0.3,31.6,0.2,47.4,0.3l0.9,0.9l0.2,83.1
			L705.1,1007z"/>
		<path class="st10" d="M766.2,922.9h51.5l1.4,1c0.9,7,0.3,14.1,0.4,21.1c0.2,20.7,0.2,41.3,0.3,61.9H765l0.2-83.1L766.2,922.9z"/>
		<path class="st10" d="M641.5,923.8l0.2,83.1h-54.3c0.1-24.6,0.1-49.2,0.2-73.8c0-3.1,0.1-6.2,0.2-9.3l1.1-0.9h51.5L641.5,923.8z"
			/>
		<path class="st10" d="M647,1007c0-26.3,0.1-52.7-0.1-79.1c0-3.9,0.8-5.3,5-5.3c15.5,0.3,30.9,0.2,46.4,0.3l1.2,0.9
			c0.1,27.7,0.2,55.4,0.2,83.1L647,1007z"/>
		<path class="st10" d="M824.2,1007c0.1-21,0.1-41.9,0.3-62.8c0.1-6.9-2.9-16,1.1-20c4.3-4.2,13.5-1.1,20.5-1.3
			c8.7-0.2,17.5,0,26.2,0.1l1.4,1c0.1,8.1,0.4,16.3,0.4,24.4c0.1,19.6,0.1,39.1,0.1,58.7L824.2,1007z"/>
		<path class="st10" d="M536.7,1007c0-25.4,0-50.8,0.1-76.2c0-2.3,0.3-4.7,0.5-7l1.2-0.9c13.3,0,26.5,0,39.8-0.2
			c3.8-0.1,3.9,1.8,3.9,4.7c-0.1,24.2-0.1,48.3,0,72.5c0,2.4,0.1,4.7,0.2,7.1L536.7,1007z"/>
		<path class="st11" d="M205.3,879.7c-7.8,0-15.7-0.1-23.5,0.1c-3.4,0.1-4.3-1.1-4.4-4.4c-0.3-13.7-0.4-13.7,13-13.7
			c13.1,0,26.2,0.1,39.3-0.1c3.6,0,4.6,1.1,4.6,4.7c0.1,13.4,0.2,13.4-13.3,13.4H205.3z M205.8,875.7c7.1,0,14.2-0.2,21.2,0.1
			c4.2,0.2,3.6-2.4,3.6-4.9s0.7-5.1-3.5-5c-14,0.2-28,0.2-41.9,0c-4.2-0.1-3.6,2.5-3.5,4.9s-0.8,5.2,3.5,5
			C192,875.5,199,875.7,205.8,875.7z"/>
		<path class="st11" d="M206,695.9c-8,0-16-0.1-24,0c-3.2,0-4.4-1-4.5-4.4c-0.4-13.7-0.5-13.7,13-13.7c13.1,0,26.2,0.1,39.3-0.1
			c3.5,0,4.7,0.9,4.7,4.6c0.1,13.5,0.2,13.5-13.2,13.5L206,695.9z M206,691.9c6.9,0,13.9-0.2,20.8,0.1c3.9,0.1,4-2.1,3.9-4.8
			c-0.1-2.4,0.9-5.2-3.4-5.1c-14,0.2-28,0.2-42.1,0c-4.3-0.1-3.4,2.6-3.5,5s-0.6,5.1,3.6,4.9C192.2,691.6,199.1,691.8,206,691.9
			L206,691.9z"/>
		<path class="st11" d="M206,401.8c-8.2,0-16.4-0.1-24.5,0c-2.7,0-3.8-0.7-4-3.6c-0.8-14.4-0.9-14.4,13.6-14.4
			c12.9,0,25.8,0.1,38.7-0.1c3.5,0,4.7,0.9,4.7,4.6c0.1,13.5,0.2,13.5-13.2,13.5H206z M206,397.7c7.1,0,14.2-0.1,21.3,0
			c3.9,0.1,3.4-2.4,3.3-4.7s1.1-5.3-3.3-5.2c-14,0.1-28.1,0.2-42.1,0c-4.2-0.1-3.6,2.5-3.5,5s-0.7,5.2,3.5,5
			C192.1,397.5,199.1,397.7,206,397.7z"/>
		<path class="st11" d="M205.9,806.4c-8,0-16-0.1-24,0c-3.3,0.1-4.3-1.2-4.4-4.5c-0.4-13.6-0.5-13.6,13.1-13.6
			c12.9,0,25.8,0.1,38.7-0.1c3.5,0,5.2,0.5,5.2,4.7c0,13.4,0.2,13.4-13.3,13.4L205.9,806.4z M206.2,802.4c6.9,0,13.8-0.2,20.7,0.1
			c4.6,0.2,3.6-2.7,3.8-5.3c0.2-2.9-0.1-4.7-3.9-4.7c-13.8,0.2-27.6,0.2-41.4,0c-4.6-0.1-3.5,2.8-3.7,5.3c-0.2,2.8,0,4.8,3.9,4.7
			C192.4,802.1,199.3,802.4,206.2,802.4z"/>
		<path class="st11" d="M205.3,989.6c-7.8,0-15.7-0.1-23.5,0.1c-3.4,0.1-4.3-1.1-4.4-4.4c-0.3-13.2-0.4-13.2,13-13.2
			c12.9,0,25.9,0.1,38.8-0.1c3.5-0.1,5.2,0.5,5.1,4.7c0,12.9,0.2,12.9-12.7,12.9H205.3z M205.7,986c7.1,0,14.2-0.2,21.3,0.1
			c4.1,0.1,3.7-2.4,3.7-5s0.4-5-3.7-5c-13.8,0.2-27.7,0.2-41.5,0c-3.9-0.1-4,1.9-3.9,4.7s-0.6,5.5,3.9,5.3
			C192.2,985.8,199,986,205.7,986z"/>
		<path class="st11" d="M205.8,438.3c-8,0-16-0.1-24.1,0c-2.9,0-4.2-0.6-4.3-3.9c-0.5-13.6-0.7-13.6,13.1-13.6
			c13.1,0,26.2,0.1,39.4,0c3.2,0,4.5,0.7,4.5,4.2c0.3,13.4,0.4,13.4-12.8,13.4L205.8,438.3z M206.4,424.8c-6.9,0-13.9,0.2-20.8-0.1
			c-3.8-0.2-4.2,1.6-4,4.6c0.2,2.6-0.9,5.5,3.8,5.4c13.8-0.2,27.7-0.2,41.5,0c4.5,0.1,3.6-2.9,3.8-5.5c0.3-3.1-0.5-4.7-4.1-4.5
			C219.8,425,213.1,424.8,206.4,424.8z"/>
		<path class="st11" d="M205.8,511.6c-8,0-16-0.1-24,0c-2.9,0-4.1-0.7-4.3-3.9C177,494,176.8,494,190.6,494c13.1,0,26.2,0.1,39.4,0
			c3.2,0,4.4,0.7,4.5,4.2c0.3,13.4,0.4,13.4-12.8,13.4H205.8z M206.4,508c6.6,0,13.1-0.2,19.7,0.1c4.2,0.2,4.7-1.8,4.7-5.2
			s-0.6-4.9-4.5-4.8c-13.5,0.2-27,0.2-40.5,0c-4-0.1-4.3,1.7-4.3,4.9c-0.1,3.5,0.4,5.4,4.6,5.2C192.9,507.8,199.7,508,206.4,508
			L206.4,508z"/>
		<path class="st11" d="M206.4,714.9c8,0,16,0.1,24.1,0c2.7,0,3.8,0.6,3.9,3.6c0.7,13.9,0.8,13.9-13.3,13.9
			c-12.8,0-25.5-0.1-38.3,0.1c-3.9,0.1-5.5-0.7-5.4-5c0.1-12.6-0.1-12.6,12.6-12.6H206.4z M206.4,718.9c-6.9,0-13.8,0.2-20.7-0.1
			c-3.7-0.1-4.3,1.6-4,4.6c0.2,2.6-0.9,5.5,3.8,5.4c13.8-0.2,27.6-0.2,41.5,0c4.4,0,3.7-2.7,3.9-5.4c0.2-3.1-0.5-4.7-4.1-4.6
			C219.9,719.1,213.1,718.9,206.4,718.9L206.4,718.9z"/>
		<path class="st11" d="M205.7,916.2c-8,0-16-0.1-24.1,0.1c-3,0.1-4-0.9-4.1-4c-0.5-13.5-0.6-13.5,12.6-13.5s26.6,0.1,39.9-0.1
			c3.4,0,4.3,1,4.4,4.3c0.2,13.2,0.4,13.2-12.9,13.2H205.7z M205.7,912.7c7.1,0,14.2-0.2,21.3,0c4.1,0.1,3.7-2.5,3.7-5s0.3-5-3.7-5
			c-13.8,0.2-27.7,0.2-41.5,0c-3.9-0.1-4,1.9-3.9,4.7s-0.6,5.5,3.9,5.3C192.2,912.4,199,912.7,205.7,912.7L205.7,912.7z"/>
		<path class="st11" d="M206.4,825.3c7.7,0,15.3,0.2,23-0.1c3.6-0.1,5.1,0.7,5.1,4.8c0,12.8,0.1,12.8-12.8,12.8s-25.9-0.1-38.8,0.1
			c-3.9,0.1-5.4-0.7-5.4-5c0.1-12.6-0.1-12.6,12.5-12.6H206.4z M206.4,828.9c-6.9,0-13.9,0.2-20.8-0.1c-3.7-0.1-4.4,1.5-4.1,4.6
			c0.2,2.5-1,5.5,3.7,5.4c13.8-0.2,27.7-0.2,41.5,0c3.9,0.1,3.9-2,3.9-4.8s0.2-5.4-4.1-5.2C220,829,213.2,828.8,206.4,828.9
			L206.4,828.9z"/>
		<path class="st11" d="M205.8,935.8c8.2,0,16.4,0.1,24.6,0c2.7,0,3.8,0.6,3.9,3.6c0.7,13.9,0.8,13.9-13.3,13.9
			c-12.8,0-25.5-0.1-38.3,0.1c-3.9,0.1-5.4-0.7-5.4-5c0.1-12.6-0.1-12.6,12.6-12.6H205.8z M205.8,949.2c6.7,0,13.5-0.2,20.2,0.1
			c3.5,0.1,4.9-0.9,4.8-4.5c-0.2-3.2,0-5.6-4.5-5.5c-13.5,0.3-26.9,0.3-40.4,0c-4-0.1-4.3,1.7-4.4,4.9c-0.1,3.5,0.5,5.4,4.6,5.2
			C192.7,949,199.3,949.2,205.8,949.2L205.8,949.2z"/>
		<path class="st11" d="M206.4,752c7.7,0,15.3,0.2,23-0.1c3.6-0.1,5.1,0.7,5.1,4.7c0,12.9,0.2,12.9-12.8,12.9s-25.9-0.1-38.8,0.1
			c-3.8,0.1-5.5-0.6-5.4-5c0.1-12.6-0.1-12.6,12.5-12.6L206.4,752z M206.2,755.5c-7.1,0-14.2,0.1-21.3,0c-4.4-0.1-3.1,3-3.2,5.3
			s-0.5,4.7,3.3,4.7c14-0.2,28-0.2,42.1,0c4.1,0.1,3.6-2.4,3.6-5s0.3-5.1-3.7-5C220,755.7,213.1,755.5,206.2,755.5z"/>
		<path class="st11" d="M206.3,641.4c8,0,16,0.1,24-0.1c3.1-0.1,4,1,4.1,4c0.4,13.5,0.5,13.5-13.2,13.5c-12.9,0-25.9-0.1-38.8,0.1
			c-3.8,0.1-5-1-5-4.9c0-12.7-0.1-12.7,12.4-12.7h16.5V641.4z M205.9,645c-6.7,0-13.5,0.2-20.2-0.1c-3.7-0.2-4.3,1.6-4,4.6
			c0.2,2.5-1,5.5,3.7,5.4c13.8-0.2,27.7-0.2,41.5,0c3.9,0.1,3.9-2,3.9-4.8s0.2-5.4-4.1-5.2C219.7,645.2,212.8,645,205.9,645z"/>
		<path class="st11" d="M205.8,622.1c-8,0-16-0.1-24,0c-2.9,0-4.1-0.7-4.3-3.9c-0.6-13.6-0.7-13.6,13.1-13.6c13.1,0,26.2,0.1,39.3,0
			c3.2,0,4.4,0.7,4.5,4.2c0.3,13.3,0.4,13.3-12.8,13.3H205.8z M206.3,608.7c-6.9,0-13.9,0.2-20.8-0.1c-3.8-0.2-4.2,1.7-4,4.6
			c0.2,2.6-0.9,5.5,3.8,5.4c13.7-0.2,27.3-0.2,41,0c4,0.1,4.4-1.8,4.4-5c0-3,0.1-5.3-4.2-5.1C219.9,608.9,213.1,608.7,206.3,608.7
			L206.3,608.7z"/>
		<path class="st11" d="M205.5,475.3c-8,0-16-0.1-24,0.1c-3.1,0.1-4-1-4.1-4.1c-0.5-13.5-0.5-13.5,13.1-13.5
			c13.1,0,26.2,0.1,39.3-0.1c3.6-0.1,4.6,1.1,4.6,4.6c0.1,13,0.2,13-12.5,13H205.5z M206.4,471.3c6.5,0,13.1-0.2,19.6,0.1
			c3.5,0.1,4.9-0.9,4.7-4.6c-0.1-3.2-0.1-5.5-4.5-5.4c-13.5,0.3-26.9,0.3-40.4,0c-4-0.1-4.4,1.8-4.3,4.9c0.1,2.9-0.2,5.3,4.1,5.1
			C192.6,471.1,199.5,471.3,206.4,471.3z"/>
		<path class="st11" d="M205.9,585.6c-8,0-16-0.1-24,0.1c-3.4,0.1-4.3-1.1-4.4-4.4c-0.3-13.2-0.4-13.2,12.5-13.2
			c13.1,0,26.2,0.1,39.4-0.1c3.5,0,5.1,0.6,5.1,4.7c0,12.9,0.2,12.9-12.7,12.9H205.9z M206.4,581.5c6.6,0,13.1-0.2,19.7,0.1
			c3.6,0.1,4.9-0.9,4.7-4.6c-0.2-3.1,0.1-5.6-4.4-5.5c-13.5,0.3-27,0.3-40.5,0c-4.1-0.1-4.2,1.8-4.3,4.9c-0.1,3.5,0.4,5.4,4.6,5.1
			C192.9,581.3,199.6,581.5,206.4,581.5z"/>
		<path class="st10" d="M206.4,548.6c-8,0-16-0.1-24.1,0.1c-3.3,0.1-4.8-0.6-4.9-4.4c-0.1-13.2-0.3-13.2,13-13.2
			c13,0,25.9,0.1,38.8-0.1c3.6,0,5.1,0.6,5.1,4.7c0,12.9,0.1,12.9-12.7,12.9H206.4z M206.4,544.9c6.7,0,13.5-0.2,20.1,0.1
			c4.1,0.2,4.3-2,4.2-5c-0.1-2.7,0.6-5.4-3.9-5.3c-13.8,0.2-27.6,0.2-41.4,0c-4.5-0.1-3.8,2.6-3.9,5.3c-0.1,3-0.1,5.3,4.1,5.1
			C192.6,544.7,199.5,544.9,206.4,544.9L206.4,544.9z"/>
		<path class="st11" d="M1209.9,806.4c-7.8,0-15.7-0.1-23.5,0c-3.2,0.1-4.5-0.8-4.6-4.3c-0.6-13.8-0.7-13.8,13.1-13.8
			c13.1,0,26.2,0.1,39.3-0.1c3.4,0,5,0.8,4.9,4.6c-0.4,16.6,2.3,13.1-12.8,13.5C1220.8,806.5,1215.3,806.4,1209.9,806.4z
			 M1209.9,802.4c7.1,0,14.2-0.2,21.3,0.1c4.1,0.2,3.8-2.2,3.7-4.8s0.7-5.3-3.9-5.2c-13.8,0.3-27.7,0.3-41.5,0
			c-4.1-0.1-3.8,2.2-3.7,4.8s-0.8,5.5,3.9,5.2C1196.4,802.1,1203.2,802.4,1209.9,802.4L1209.9,802.4z"/>
		<path class="st11" d="M1209.9,401.8c-7.8,0-15.6-0.1-23.5,0c-3.1,0.1-4.5-0.8-4.7-4.2c-0.6-13.8-0.7-13.8,13.1-13.8
			c12.9,0,25.8,0.1,38.7-0.1c3.6,0,5.1,0.8,5.1,4.8c0,13.2,0.2,13.2-13,13.2L1209.9,401.8z M1209.9,397.7c7.1,0,14.2-0.2,21.3,0.1
			c4,0.2,4-1.9,3.8-4.7s0.8-5.4-3.8-5.3c-13.8,0.3-27.7,0.2-41.5,0c-4-0.1-4,2-3.8,4.7c0.1,2.6-0.9,5.5,3.8,5.3
			C1196.4,397.4,1203.1,397.7,1209.9,397.7z"/>
		<path class="st11" d="M1210.5,457.8c7.8,0,15.7,0.2,23.5-0.1c3.7-0.1,4.6,1.2,4.6,4.7c0.1,12.9,0.2,12.9-12.7,12.9
			s-25.9-0.1-38.8,0.1c-3.9,0.1-4.9-1.3-4.9-5c0-12.6-0.1-12.6,12.4-12.6H1210.5z M1209.9,471.3c7.1,0,14.2-0.2,21.3,0.1
			c4,0.1,3.9-2.1,3.8-4.8c-0.1-2.5,0.6-5.2-3.5-5.2c-14,0.1-28,0.1-42.1,0c-4.2,0-3.4,2.7-3.5,5.2c-0.1,2.8-0.1,5,3.8,4.8
			C1196.4,471.1,1203.1,471.3,1209.9,471.3L1209.9,471.3z"/>
		<path class="st11" d="M1210.4,494.1c8,0,16,0.1,24,0c3-0.1,4.1,0.9,4.2,4c0.5,13.5,0.6,13.5-12.6,13.5c-13.1,0-26.2-0.1-39.3,0.1
			c-3.2,0-4.4-0.9-4.5-4.3c-0.3-13.3-0.4-13.3,12.9-13.3L1210.4,494.1z M1210.6,498.2c-7.1,0-14.2,0.2-21.3-0.1
			c-4.3-0.2-3.5,2.6-3.5,5s-0.6,5,3.6,5c14-0.2,28-0.2,42,0c4.2,0.1,3.5-2.6,3.5-5s0.6-5.1-3.6-5
			C1224.5,498.3,1217.6,498.2,1210.6,498.2L1210.6,498.2z"/>
		<path class="st11" d="M1210.1,916.2c-8,0-16-0.1-24.1,0c-2.8,0-3.7-0.9-3.8-3.8c-0.7-13.8-0.8-13.8,12.9-13.8
			c12.9,0,25.9,0.1,38.8-0.1c3.5,0,4.7,1,4.7,4.6c0.1,13,0.3,13-12.7,13L1210.1,916.2z M1211,902.8c-7.1,0-14.2,0.2-21.3-0.1
			c-4.5-0.2-3.8,2.6-3.9,5.3s-0.1,4.8,3.8,4.8c13.8-0.2,27.6-0.2,41.5,0c3.9,0.1,4-1.9,3.9-4.7s0.6-5.5-3.9-5.3
			C1224.4,903,1217.7,902.8,1211,902.8L1211,902.8z"/>
		<path class="st11" d="M1209.9,732.4c-7.8,0-15.7-0.1-23.5,0c-3,0.1-4-0.9-4.1-4c-0.5-13.5-0.6-13.5,12.6-13.5s26.2,0.1,39.4-0.1
			c3.3,0,4.3,1,4.4,4.3c0.3,13.3,0.4,13.2-12.9,13.2L1209.9,732.4z M1210.4,728.8c6.9,0,13.8-0.2,20.7,0.1c3.9,0.2,4-2,3.9-4.8
			s0.5-5.3-3.9-5.3c-13.8,0.2-27.6,0.2-41.4,0c-4.5-0.1-3.7,2.6-3.9,5.3c-0.1,2.8,0,4.9,3.9,4.7
			C1196.6,728.6,1203.5,728.8,1210.4,728.8L1210.4,728.8z"/>
		<path class="st11" d="M1210.1,989.6c-8,0-16-0.1-24,0c-2.8,0-3.7-1-3.8-3.8c-0.7-13.8-0.8-13.8,12.9-13.8
			c12.9,0,25.9,0.1,38.8-0.1c3.6-0.1,4.6,1,4.7,4.7c0.1,12.9,0.3,12.9-12.7,12.9L1210.1,989.6z M1210.1,986c7.1,0,14.2-0.2,21.3,0.1
			c4.1,0.2,3.7-2.4,3.6-4.9c-0.1-2.4,0.8-5.1-3.5-5.1c-14,0.2-28,0.2-42,0c-4.7-0.1-3.4,3-3.7,5.5c-0.3,3,0.4,4.7,4,4.6
			C1196.6,985.8,1203.3,986,1210.1,986L1210.1,986z"/>
		<path class="st11" d="M1210.5,568.1c8,0,16,0.1,24,0c3.1-0.1,4,1,4.1,4.1c0.5,13.5,0.6,13.5-12.7,13.5c-12.9,0-25.8-0.1-38.8,0.1
			c-3.8,0.1-4.9-1.2-4.9-5c0-12.6-0.2-12.6,12.5-12.6L1210.5,568.1z M1211,571.7c-7.1,0-14.2,0.2-21.3-0.1c-4-0.2-4,1.9-3.9,4.7
			s-0.7,5.4,3.8,5.3c13.8-0.2,27.7-0.2,41.5,0c3.9,0.1,4-1.9,3.9-4.7c-0.1-2.7,0.7-5.5-3.8-5.3
			C1224.5,571.9,1217.7,571.7,1211,571.7L1211,571.7z"/>
		<path class="st11" d="M1211,420.7c7.8,0,15.7,0.1,23.5,0c3-0.1,4,1,4.2,4c0.5,13.5,0.6,13.5-12.7,13.5c-13.1,0-26.2-0.1-39.3,0.1
			c-3.3,0-4.4-0.9-4.4-4.3c-0.3-13.3-0.4-13.3,12.9-13.3L1211,420.7z M1210.4,434.7c6.9,0,13.8-0.2,20.7,0.1c3.9,0.2,4-1.9,3.9-4.7
			c-0.1-2.6,0.7-5.4-3.8-5.3c-13.8,0.2-27.7,0.2-41.5,0c-3.9-0.1-4,1.9-3.9,4.7c0.1,2.6-0.8,5.5,3.8,5.3
			C1196.5,434.5,1203.5,434.7,1210.4,434.7L1210.4,434.7z"/>
		<path class="st11" d="M1210.4,658.9c-8,0-16-0.1-24,0c-3,0-4.1-0.9-4.2-4c-0.5-13.5-0.7-13.5,12.6-13.5c13.1,0,26.2,0.1,39.3-0.1
			c3.2,0,4.4,0.8,4.5,4.3c0.3,13.3,0.4,13.3-12.9,13.3H1210.4z M1210.9,654.8c6.7,0,13.5-0.2,20.2,0.1c3.8,0.2,4.2-1.7,3.9-4.6
			c-0.2-2.6,0.9-5.5-3.8-5.4c-13.8,0.2-27.7,0.2-41.5,0c-3.8-0.1-4.2,1.8-3.9,4.7c0.2,2.6-0.9,5.6,3.8,5.4
			C1196.7,654.6,1203.8,654.8,1210.9,654.8z"/>
		<path class="st11" d="M1210.5,769.5c-8,0-16-0.1-24,0c-2.9,0-4.1-0.7-4.3-3.9c-0.6-13.6-0.7-13.6,13.1-13.6
			c12.8,0,25.5,0.1,38.2-0.1c3.6,0,5.1,0.7,5.1,4.8c0,12.8,0.2,12.8-12.8,12.8H1210.5z M1210.3,765.4c6.9,0,13.8-0.2,20.7,0.1
			c3.8,0.2,4.2-1.7,4-4.6c-0.2-2.6,0.9-5.5-3.8-5.4c-13.8,0.2-27.7,0.3-41.5,0c-4.5-0.1-3.8,2.5-4,5.2c-0.2,3.2,0.4,5,4.3,4.8
			C1196.8,765.2,1203.6,765.4,1210.3,765.4L1210.3,765.4z"/>
		<path class="st11" d="M1211,825.3c7.8,0,15.7,0.1,23.5,0c3-0.1,4,0.9,4.2,4c0.5,13.5,0.6,13.5-12.6,13.5
			c-12.9,0-25.9-0.1-38.8,0.1c-3.8,0.1-5-1.1-5-4.9c0-12.7-0.2-12.7,12.4-12.7L1211,825.3z M1210.4,828.9c-6.9,0-13.8,0.2-20.7-0.1
			c-3.9-0.2-4,2-3.9,4.8s-0.6,5.4,3.9,5.3c13.8-0.2,27.6-0.2,41.5,0c4.5,0.1,3.8-2.6,3.9-5.3s0-4.9-3.9-4.8
			C1224.2,829,1217.3,828.8,1210.4,828.9L1210.4,828.9z"/>
		<path class="st11" d="M1210.4,677.9c7.8,0,15.7,0.1,23.5-0.1c3.4-0.1,4.8,0.8,4.8,4.5c0.2,13,0.3,13-12.6,13
			c-13.1,0-26.2-0.1-39.3,0c-3.2,0-4.4-0.8-4.5-4.2c-0.4-13.3-0.5-13.3,12.9-13.3L1210.4,677.9z M1210.2,691.8
			c6.9,0,13.8-0.2,20.8,0.1c3.7,0.2,4.3-1.6,4-4.6c-0.2-2.5,1.1-5.5-3.7-5.4c-14,0.2-28,0.2-42,0c-4.3-0.1-3.3,2.7-3.4,5.1
			c-0.1,2.6-0.5,5.1,3.6,4.9C1196.4,691.6,1203.3,691.8,1210.2,691.8z"/>
		<path class="st11" d="M1210.4,604.6c7.8,0,15.7,0.1,23.5-0.1c3.5-0.1,4.7,0.9,4.8,4.6c0.2,13,0.3,13-12.6,13s-25.8-0.1-38.8,0.1
			c-3.7,0.1-5-0.9-5-4.8c0-12.8-0.2-12.8,12.4-12.8H1210.4z M1210.4,618.5c6.9,0,13.8-0.2,20.7,0.1c3.9,0.2,4-1.9,3.9-4.7
			c-0.2-2.6,0.9-5.4-3.8-5.3c-13.8,0.3-27.7,0.2-41.5,0c-3.9-0.1-4,1.8-3.9,4.7c0.2,2.6-0.8,5.5,3.8,5.3
			C1196.5,618.3,1203.5,618.5,1210.4,618.5L1210.4,618.5z"/>
		<path class="st11" d="M1210.5,935.8c7.8,0,15.7,0.2,23.5-0.1c3.6-0.1,4.6,1.1,4.6,4.7c0.1,12.9,0.2,12.9-12.7,12.9
			s-25.9-0.1-38.8,0.1c-3.9,0.1-4.9-1.2-4.9-5c0-12.6-0.2-12.6,12.4-12.6L1210.5,935.8z M1210.8,939.4c-6.7,0-13.5,0.2-20.2-0.1
			c-3.8-0.2-5,1-4.9,4.9c0.1,3.4,0.4,5.2,4.6,5.2c13.4-0.3,26.9-0.2,40.4,0c4,0.1,4.3-1.7,4.3-4.9c0-3.4-0.4-5.4-4.6-5.2
			C1224,939.6,1217.4,939.4,1210.8,939.4L1210.8,939.4z"/>
		<path class="st10" d="M1210,548.6c-7.8,0-15.7-0.1-23.5,0.1c-3,0-4.1-0.7-4.2-3.9c-0.5-13.6-0.6-13.6,13.1-13.6
			c12.9,0,25.9,0.1,38.8,0c3.2,0,4.4,0.7,4.5,4.2c0.3,13.3,0.4,13.3-12.8,13.3L1210,548.6z M1210.2,544.9c6.9,0,13.8-0.3,20.8,0.1
			c4.3,0.2,4.1-2.2,4.1-5.1s0.6-5.3-3.9-5.3c-13.8,0.2-27.7,0.2-41.5,0c-4.6-0.1-3.7,2.7-3.8,5.4c-0.2,3,0,5.2,4.2,5
			C1196.7,544.7,1203.4,544.9,1210.2,544.9L1210.2,544.9z"/>
		<path class="st10" d="M1209.9,879.2c-7.8,0-15.7-0.1-23.5,0c-3,0-4-1-4.2-4c-0.5-13-0.6-13,12.1-13c13.1,0,26.2,0.1,39.3-0.1
			c3.8,0,5,1,5,4.9c0,12.2,0.2,12.2-11.8,12.2L1209.9,879.2z M1210.8,875.7c6.7,0,13.5-0.2,20.2,0.1c3.8,0.2,4.3-1.5,4-4.6
			c-0.3-2.4,1.2-5.5-3.6-5.5c-14,0.2-28.1,0.2-42.1,0c-4.4-0.1-3.3,2.7-3.4,5.1c-0.1,2.5-0.6,5.1,3.6,4.9
			C1196.5,875.5,1203.7,875.7,1210.8,875.7L1210.8,875.7z"/>
		<path class="st10" d="M759.6,809.8c0,9.7-0.1,19.3,0.1,28.9c0.1,3.3-0.9,4.3-4.3,4.3c-15.3-0.2-30.6-0.2-45.9,0
			c-3.2,0-4.5-0.7-4.5-4.2c0.2-19.5,0.2-39,0-58.4c0-3.4,1.1-4.3,4.4-4.3c15.3,0.2,30.6,0.2,45.9,0c3.9-0.1,4.4,1.5,4.3,4.8
			C759.5,790.5,759.6,800.1,759.6,809.8z"/>
		<path class="st10" d="M765,883c0-9.8,0.1-19.7-0.1-29.5c0-3,0.8-4.1,4-4.1c15.5,0.1,31,0.1,46.5,0c3.1,0,4.1,0.9,4.1,4
			c-0.1,19.7-0.1,39.4,0,59.1c0,2.8-0.8,3.8-3.7,3.8c-15.7-0.1-31.3-0.1-47,0c-2.9,0-3.8-0.9-3.7-3.8C765.1,902.7,765,892.8,765,883
			z"/>
		<path class="st10" d="M765,809.5c0-9.5,0.2-19-0.1-28.4c-0.1-3.6,0.6-5.1,4.7-5c15.1,0.2,30.3,0.2,45.4,0c3.2,0,4.5,0.7,4.5,4.2
			c-0.1,19.5-0.1,39,0,58.5c0,3.5-1.3,4.2-4.5,4.2c-15.1-0.1-30.3-0.2-45.4,0c-4.1,0.1-4.8-1.5-4.7-5.1
			C765.2,828.5,765,819,765,809.5z"/>
		<path class="st10" d="M759.6,882.8c0,9.8-0.1,19.7,0.1,29.5c0.1,3.1-0.8,4.1-4,4c-15.5-0.1-31-0.2-46.4,0c-3.5,0-4.2-1.3-4.2-4.5
			c0.1-19.3,0.1-38.6,0-57.9c0-3.6,1-4.6,4.6-4.6c15.1,0.2,30.2,0.2,45.3,0c4.1-0.1,4.7,1.5,4.7,5
			C759.5,863.9,759.6,873.3,759.6,882.8z"/>
		<path class="st10" d="M705.2,736.2c0-9.7,0.1-19.3,0-28.9c0-3.1,0.5-4.6,4.1-4.5c15.5,0.2,31,0.2,46.4,0c3,0,4.1,0.8,4,4
			c-0.1,19.7-0.1,39.3,0,59c0,3.1-1,4-4,4c-15.5-0.1-31-0.2-46.4,0c-3.6,0-4.2-1.5-4.1-4.5C705.2,755.5,705.2,745.9,705.2,736.2z"/>
		<path class="st10" d="M765,736c0-9.5,0.1-19-0.1-28.4c-0.1-3.3,0.4-4.9,4.4-4.8c14.4,0.2,28.8,0.1,43.2,0.1c4.5,0,6.8,2.2,6.9,6.6
			c0.1,19,0,37.9,0.1,56.9c0,2.7-1.1,3.4-3.6,3.4c-15.7-0.1-31.4-0.1-47,0c-3.3,0-3.9-1.3-3.8-4.2C765.1,755.7,765,745.8,765,736z"
			/>
		<path class="st10" d="M587.6,809.5c0-9.7,0.1-19.3-0.1-29c0-3.1,0.5-4.5,4.1-4.5c15.3,0.2,30.6,0.2,45.9,0c3,0,4.2,0.7,4.1,3.9
			c-0.1,19.7-0.1,39.3,0,59c0,3.2-1.1,4-4.1,4c-15.3-0.1-30.6-0.2-45.9,0c-3.6,0-4.2-1.4-4.1-4.5
			C587.7,828.8,587.6,819.2,587.6,809.5z"/>
		<path class="st10" d="M641.7,883.3c0,9.5-0.2,19,0.1,28.4c0.1,3.6-1.1,4.6-4.7,4.6c-14.9-0.2-29.9-0.2-44.8,0
			c-3.4,0-4.8-0.7-4.7-4.5c0.2-19.3,0.2-38.6,0-57.9c0-3.7,1.1-4.6,4.6-4.5c14.9,0.2,29.9,0.2,44.8,0c4-0.1,4.8,1.4,4.7,5
			C641.5,864,641.7,873.7,641.7,883.3z"/>
		<path class="st10" d="M641.7,736.2c0,9.8-0.1,19.7,0.1,29.5c0,3.1-1,4-4,4c-15.3-0.1-30.6-0.1-45.9,0c-2.9,0-4.3-0.5-4.2-3.8
			c0.2-17.5,0-35,0.1-52.4c0-4.7,5.8-10.5,10.6-10.5c13.3-0.1,26.6,0,39.9-0.1c3,0,3.6,1.2,3.6,3.9
			C641.6,716.5,641.7,726.3,641.7,736.2z"/>
		<path class="st10" d="M699.8,809.5c0,9.7-0.1,19.3,0,29c0,3.1-0.5,4.6-4.1,4.5c-14.9-0.2-29.9-0.2-44.8,0c-3.3,0-3.9-1.3-3.9-4.2
			c0.1-19.5,0.1-39,0-58.5c0-3.5,1.2-4.3,4.4-4.2c14.8,0.1,29.5,0.1,44.3,0c3.5,0,4.3,1.3,4.2,4.5
			C699.7,790.2,699.8,799.8,699.8,809.5z"/>
		<path class="st10" d="M647,882.3c0-9.5,0.1-19,0-28.4c0-3,0.4-4.6,4.1-4.6c14.9,0.2,29.9,0.2,44.8,0c3.2,0,4,1.2,4,4.1
			c-0.1,19.5-0.1,39,0,58.5c0,3.4-1.1,4.3-4.4,4.3c-14.8-0.1-29.5-0.1-44.3,0c-3.5,0-4.3-1.2-4.2-4.5C647.2,902,647,892.2,647,882.3
			z"/>
		<path class="st10" d="M699.8,736.7c0,9.7-0.1,19.3,0,29c0.1,3.1-1,4.1-4.1,4c-14.9-0.1-29.9-0.1-44.8,0c-3.2,0-4-1.1-4-4.1
			c0.1-19.5,0.1-39,0-58.5c0-3.4,1-4.3,4.3-4.3c14.8,0.2,29.5,0.2,44.3,0c3.4,0,4.3,1.1,4.3,4.4C699.7,717,699.8,726.8,699.8,736.7z
			"/>
		<path class="st10" d="M824.5,882.8c0-9.7,0.1-19.3,0-28.9c0-3.1,0.6-4.5,4.2-4.5c13.8,0.2,27.7,0.2,41.5,0c3,0,4.1,0.8,4.1,4
			c-0.1,19.7-0.1,39.3,0,59c0,3.2-1.2,4-4.2,4c-13.8-0.1-27.7-0.2-41.5,0c-3.7,0-4.2-1.5-4.1-4.6
			C824.6,902.1,824.5,892.5,824.5,882.8z"/>
		<path class="st10" d="M824.5,809.3c0-9.6,0.1-19.3-0.1-28.9c-0.1-3.4,1.1-4.3,4.4-4.3c10.6,0.2,21.1,0.2,31.7,0c2.9,0,4.1,1,5,3.6
			c6.3,19.4,8.5,39.3,8.8,59.6c0,3-1.2,3.7-3.9,3.7c-14-0.1-28-0.1-42,0c-3.3,0-3.9-1.4-3.8-4.2
			C824.6,828.9,824.5,819.1,824.5,809.3z"/>
		<path class="st10" d="M536.8,882.8c0-9.6,0.1-19.3,0-28.9c0-3.1,0.5-4.6,4.1-4.5c12.5,0.2,25.1,0.2,37.7,0c2.8,0,3.8,0.8,3.8,3.7
			c-0.1,19.8-0.1,39.7,0,59.5c0,2.9-1,3.7-3.8,3.7c-12.5-0.1-25.1-0.1-37.7,0c-3.1,0-4.1-0.9-4.1-4
			C536.9,902.5,536.8,892.6,536.8,882.8z"/>
		<path class="st10" d="M582.2,809.8c0,9.7-0.1,19.3,0.1,28.9c0.1,3.4-1,4.4-4.3,4.3c-12.2-0.2-24.4-0.2-36.6,0
			c-3.3,0-4.3-0.9-4.4-4.3c-0.3-19.5,2.4-38.9,8-57.5c1.1-3.5,2.4-5.4,6.6-5.2c8.5,0.4,17.1,0.3,25.7,0c3.7-0.1,5.1,0.8,5,4.8
			C582,790.5,582.2,800.1,582.2,809.8z"/>
		<path class="st10" d="M732.2,696.3c-7.5,0-14.9-0.1-22.4,0.1c-3.3,0.1-4.9-0.6-4.8-4.4c0.3-8.9,0.2-17.8,0-26.7c0-3,0.8-4.2,4-4.1
			c16,0.2,31.9,2.7,47.2,7.6c2.6,0.8,3.5,2,3.4,4.6c-0.1,6.4-0.2,12.7,0,19.1c0.1,3.1-0.9,4.1-4,4
			C747.9,696.2,740,696.3,732.2,696.3z"/>
		<path class="st10" d="M673.1,696.3c-7.5,0-14.9-0.1-22.4,0c-2.8,0-3.9-0.9-3.8-3.8c0.3-4.5,0.3-9.1-0.1-13.6
			c-0.7-5.9,1.5-8.6,7.2-10.2c13.3-3.9,26.9-6.4,40.7-7.5c3.7-0.2,5.2,0.6,5.1,4.6c-0.3,8.7-0.2,17.5,0,26.2c0.1,3.4-1,4.4-4.3,4.3
			C688.1,696.2,680.6,696.3,673.1,696.3z"/>
		<path class="st10" d="M824.5,712.1c4.4,3.2,6.9,6.9,9.8,10.4c10.6,13,19.3,27.4,25.9,42.9c1.3,3,1.5,4.5-2.7,4.3
			c-9.7-0.3-19.3-0.1-29-0.1c-2.1,0-4,0.2-4-2.9C824.6,748.7,824.5,730.8,824.5,712.1z"/>
		<path class="st10" d="M582.2,717.9c0,16.2,0,32.3,0,48.5c0,2.3-0.7,3.3-3.1,3.2c-8.9-0.1-17.8,0-26.8,0c-1.9,0-3.2-0.1-2.1-2.7
			C557.8,748.7,568,732.1,582.2,717.9z"/>
		<path class="st10" d="M806.7,696.3c-13.2,0-25.5,0-37.9,0c-2.2,0-3.8-0.1-3.8-3.1c0.2-6.9,0-13.7,0-20.7
			C775.5,674.8,799,688.2,806.7,696.3z"/>
		<path class="st10" d="M603.4,696.3c11.5-9.5,23.2-15.9,35.3-21.5c2.2-1,2.9,0.1,2.9,2.2c0,5.5,0,10.9,0,16.3c0,2-0.5,3-2.8,3
			C627.6,696.3,616.2,696.3,603.4,696.3z"/>
		<path class="st5" d="M819,923.9l-1.4-1C818.4,922.9,819.2,922.6,819,923.9z"/>
		<path class="st5" d="M873.8,923.9l-1.4-1C873.1,922.9,874,922.6,873.8,923.9z"/>
		<path class="st5" d="M641.5,923.8l-1.1-0.9C641,922.8,641.5,923.1,641.5,923.8z"/>
		<path class="st5" d="M759.4,923.8l-0.9-0.9C759.3,922.8,759.6,923.1,759.4,923.8z"/>
		<path class="st5" d="M766.2,922.9l-1,0.9C765.2,923.1,765.5,922.8,766.2,922.9z"/>
		<path class="st5" d="M588.9,922.9l-1.1,0.9C587.8,923.1,588.2,922.8,588.9,922.9z"/>
		<path class="st5" d="M538.5,922.9l-1.2,0.9C537.3,923,537.8,922.8,538.5,922.9z"/>
		<path class="st5" d="M699.6,923.8l-1.2-0.9C699,922.8,699.5,923,699.6,923.8z"/>
		<path class="st10" d="M96.6,819.7c0,20-0.1,40.1,0.1,60.1c0,4.1-0.9,5.8-5.4,5.6c-6.9-0.4-13.9-0.4-20.8,0c-4.7,0.3-6.1-1-6.1-6
			c0.2-30.8,0.1-61.6,0.1-92.4c0-9.3-0.1-18.6,0-27.9c0.1-9.9,7-17,16.2-16.9c9,0.1,15.8,7.1,15.8,16.7
			C96.7,779.2,96.6,799.5,96.6,819.7z"/>
		<path class="st10" d="M117,819.4c0-20.4-0.1-40.8,0-61.2c0-8,6-14.8,13.9-15.7c7.3-1,14.5,3.5,17.2,10.7c0.7,2.1,1,4.3,0.9,6.5
			c0,40.3-0.1,80.5,0.1,120.8c0,4.3-1.4,5.2-5.3,5.1c-6.7-0.4-13.5-0.4-20.2,0c-5.1,0.3-6.8-1-6.7-6.5
			C117.2,859.1,117,839.2,117,819.4z"/>
		<path class="st10" d="M1260.1,819.9c0-20-0.1-40.1,0-60.1c0.1-12.5,10.8-20.4,21.7-16.5c6.4,2.2,10.7,8.2,10.7,15
			c0.1,41,0,82,0.1,123c0,3.1-1,4.1-4.1,4c-8-0.2-16-0.2-24,0c-3.8,0.1-4.5-1.4-4.5-4.8C1260.2,860.3,1260.1,840.1,1260.1,819.9z"/>
		<path class="st10" d="M1313.2,819.5c0-20.4-0.1-40.8,0-61.2c-0.1-8,5.8-14.8,13.8-15.9c7.5-1.2,14.9,3.6,17.5,11
			c0.6,2.1,0.8,4.3,0.7,6.5c0,40.1,0,80.2,0.1,120.3c0,4-0.9,5.5-5.1,5.2c-7.3-0.3-14.6-0.3-21.9,0c-4.1,0.2-5.3-1-5.2-5.2
			C1313.3,860,1313.2,839.8,1313.2,819.5z"/>
		<path class="st5" d="M950.6,767.5c8,0,16,0.2,24-0.1c3.7-0.1,4.8,1.3,4.7,4.8c-0.3,15.3,1.8,12.3-12.2,12.5
			c-12.9,0.2-25.9-0.1-38.8,0.1c-4.3,0.1-6.1-0.9-6-5.7c0.3-11.7,0-11.7,11.8-11.7h16.5V767.5z M951.1,771.7
			c-6.9,0-13.8,0.2-20.8-0.1c-3.4-0.1-4.4,1-4.3,4.3c0.1,2.9,0.2,4.7,4,4.7c13.8-0.2,27.7-0.2,41.5,0c3.5,0,3.7-1.7,3.7-4.3
			c0-2.9-0.1-4.8-3.9-4.7C964.5,772,957.8,771.7,951.1,771.7L951.1,771.7z"/>
		<path class="st5" d="M950.6,522.5c7.8,0,15.7,0.1,23.5-0.1c3.6-0.1,5.3,0.8,5.3,4.8c-0.4,15.3,1.8,12.3-12.2,12.5
			c-13.3,0.2-26.6,0-39.9,0.1c-3.4,0-4.8-0.8-4.8-4.5c-0.2-12.8-0.3-12.8,12.4-12.8H950.6z M950.7,535.5c6.9,0,13.8-0.2,20.8,0.1
			c3.4,0.1,3.8-1.5,3.8-4.2s0.1-4.8-3.9-4.7c-13.8,0.2-27.7,0.2-41.5,0c-3.4,0-3.8,1.4-3.8,4.2s-0.1,4.9,3.9,4.7
			C936.8,535.3,943.8,535.5,950.7,535.5L950.7,535.5z"/>
		<path class="st5" d="M950.8,504.7c-7.8,0-15.7-0.2-23.5,0.1c-3.9,0.1-4.9-1.3-4.9-5c0-12.3-0.2-12.3,12.3-12.3
			c13.1,0,26.2,0.1,39.3-0.1c4.1-0.1,5.4,1.2,5.3,5.3c-0.4,14.5,1.7,11.7-11.6,12C962.1,504.8,956.4,504.7,950.8,504.7z M951,491.7
			c-7.1,0-14.2,0.2-21.3-0.1c-3.6-0.1-3.7,1.8-3.6,4.4c0.1,2.5-0.3,4.6,3.5,4.6c14-0.2,28-0.2,42.1,0c3.6,0,3.6-1.8,3.6-4.4
			c0-2.4,0.4-4.7-3.4-4.5C964.8,491.9,958,491.7,951,491.7L951,491.7z"/>
		<path class="st5" d="M950.6,959.9c-8,0-16-0.1-24.1,0c-3,0.1-4-0.9-4.2-4c-0.5-13.2-0.6-13.2,12.5-13.2s26.2,0.1,39.3-0.1
			c3.7,0,5.2,1,5.2,4.9c-0.3,15.2,1.7,12.1-11.8,12.3C962,960,956.3,959.9,950.6,959.9z M950.6,955.7c6.9,0,13.8-0.2,20.8,0.1
			c4,0.2,3.8-2,3.8-4.8s-0.3-4.3-3.8-4.2c-13.8,0.2-27.7,0.2-41.5,0c-3.3,0-4,1.2-3.9,4.2c0.1,2.7-0.2,5,3.8,4.8
			C936.7,955.5,943.7,955.7,950.6,955.7L950.6,955.7z"/>
		<path class="st5" d="M950.6,994.8c-8,0-16-0.1-24,0c-3,0-4-1-4.2-4.1c-0.5-13.2-0.6-13.2,12.5-13.2s26.2,0.1,39.3-0.1
			c3.7,0,5.2,1,5.2,4.9c-0.3,15.1,1.7,12.1-11.8,12.4C962,994.9,956.3,994.8,950.6,994.8z M950.2,990.6c6.9,0,13.8-0.2,20.8,0.1
			c3.4,0.1,4.4-1,4.3-4.3c-0.1-2.8,0-4.7-3.9-4.7c-13.8,0.2-27.7,0.2-41.5,0c-3.5,0-3.7,1.6-3.7,4.3s0.1,4.8,4,4.7
			C936.7,990.4,943.5,990.6,950.2,990.6L950.2,990.6z"/>
		<path class="st5" d="M950.9,714.8c-8,0-16-0.1-24,0.1c-3.3,0.1-4.3-1-4.4-4.3c-0.3-12.9-0.4-12.9,12.2-12.9
			c12.9,0,25.9,0.2,38.8-0.1c4.4-0.1,6.1,1.1,6,5.8c-0.2,11.5,0,11.5-11.6,11.5L950.9,714.8L950.9,714.8z M950.6,710.6
			c6.9,0,13.8-0.2,20.8,0.1c4,0.2,3.8-2,3.9-4.8s-0.3-4.3-3.8-4.2c-13.8,0.2-27.7,0.2-41.5,0c-3.2,0-4,1.2-3.9,4.2
			c0.1,2.7-0.2,5,3.8,4.8C936.7,710.4,943.7,710.6,950.6,710.6z"/>
		<path class="st5" d="M950.6,819.7c-8,0-16-0.1-24,0c-3,0-4.1-0.9-4.2-4.1c-0.5-13.2-0.6-13.2,12.4-13.2s25.9,0.1,38.8-0.1
			c4.2-0.1,5.9,1,5.7,5.5c-0.4,14.3,1.7,11.6-11.8,11.8C962,819.8,956.3,819.7,950.6,819.7z M950.7,815.5c6.9,0,13.8-0.2,20.8,0.1
			c3.4,0.1,3.8-1.4,3.8-4.2s0.1-4.8-3.8-4.7c-13.8,0.2-27.7,0.2-41.5,0c-4.1-0.1-3.7,2.2-3.8,4.8c-0.2,2.9,0.6,4.3,3.9,4.2
			C936.8,815.4,943.8,815.5,950.7,815.5L950.7,815.5z"/>
		<path class="st5" d="M950.6,749.8c-8,0-16-0.1-24,0c-3.1,0.1-4-1-4.2-4.1c-0.5-13.2-0.6-13.2,12.5-13.2s26.2,0.1,39.3-0.1
			c3.7,0,5.2,1,5.1,4.9c-0.3,15.1,1.7,12-11.8,12.3C961.9,749.9,956.2,749.8,950.6,749.8z M950.6,736.8c-6.9,0-13.8,0.2-20.8-0.1
			c-3.4-0.1-3.8,1.5-3.8,4.3s0,4.8,3.9,4.7c13.8-0.2,27.7-0.2,41.5,0c4.1,0.1,3.6-2.3,3.7-4.8c0.2-2.9-0.6-4.2-3.9-4.1
			C964.4,736.9,957.5,736.8,950.6,736.8L950.6,736.8z"/>
		<path class="st5" d="M950.6,609.7c-8,0-16-0.1-24,0c-3,0-4-1-4.2-4.1c-0.5-13.2-0.6-13.2,12.5-13.2s26.2,0.1,39.3-0.1
			c3.7,0,5.2,1,5.1,4.9c-0.3,15,1.8,12.1-11.8,12.4C962,609.8,956.3,609.7,950.6,609.7z M950.6,605.5c6.9,0,13.8-0.2,20.8,0.1
			c3.3,0.1,4-1.2,3.8-4.2c-0.2-2.6,0.4-4.9-3.8-4.8c-13.8,0.2-27.7,0.2-41.5,0c-3.9-0.1-3.8,2-3.9,4.8s0.4,4.4,3.8,4.2
			C936.7,605.3,943.7,605.5,950.6,605.5L950.6,605.5z"/>
		<path class="st5" d="M950.6,557.5c8,0,16,0.1,24-0.1c3.7-0.1,4.8,1.3,4.7,4.8c-0.3,15.3,1.9,12.3-12.2,12.5
			c-12.9,0.2-25.9-0.1-38.8,0.1c-4.3,0.1-6.1-0.9-6-5.7c0.3-11.7,0-11.7,11.8-11.7L950.6,557.5z M950.6,570.5
			c6.9,0,13.8-0.2,20.8,0.1c3.3,0.1,4-1.3,3.8-4.2c-0.1-2.6,0.3-4.9-3.8-4.8c-13.8,0.2-27.7,0.2-41.5,0c-3.9-0.1-3.8,2-3.9,4.8
			s0.4,4.3,3.8,4.2C936.8,570.3,943.7,570.5,950.6,570.5L950.6,570.5z"/>
		<path class="st11" d="M950.5,924.8c-8,0-16-0.1-24.1,0c-2.7,0-3.8-0.7-4-3.7c-0.8-13.5-0.9-13.5,12.8-13.5c13,0,25.9,0.1,38.8,0
			c3.4,0,4.8,0.7,4.8,4.5c0.1,12.6,0.3,12.6-12.5,12.6L950.5,924.8z M950.6,920.7c6.9,0,13.8-0.2,20.7,0.1c3.8,0.2,3.9-1.8,4-4.7
			c0.1-3.1-0.5-4.5-4.1-4.4c-13.6,0.2-27.2,0.2-40.9,0c-3.4,0-4.3,1-4.3,4.3s0.6,5,4.4,4.8C937.1,920.5,943.9,920.7,950.6,920.7z"/>
		<path class="st11" d="M950.5,679.8c-7.8,0-15.7-0.1-23.5,0c-3.1,0.1-4.5-0.5-4.6-4.1c-0.3-13-0.5-13,12.7-13
			c12.8,0,25.5,0.2,38.3-0.1c4.4-0.1,5.5,1.4,5.5,5.6c-0.2,11.6,0,11.6-11.3,11.6H950.5z M951.1,675.7c6.9,0,13.8-0.2,20.7,0.1
			c3.8,0.1,3.3-2.2,3.4-4.6s0.2-4.5-3.5-4.5c-14,0.2-28,0.2-42,0c-3.5,0-3.8,1.5-3.7,4.3s-0.2,5,3.8,4.8
			C937,675.5,944,675.7,951.1,675.7z"/>
		<path class="st11" d="M951.1,627.5c7.8,0,15.7,0.1,23.5,0c3-0.1,4,1,4.2,4.1c0.5,13.1,0.6,13.1-12.6,13.1c-13,0-25.9-0.1-38.8,0.1
			c-3.8,0.1-5-1.1-5-5c0-12.2-0.2-12.2,12.3-12.2L951.1,627.5L951.1,627.5z M951.1,631.6c-6.9,0-13.8,0.2-20.7-0.1
			c-3.8-0.2-4.5,1.4-4.5,4.7s0.8,4.4,4.3,4.3c13.6-0.2,27.2-0.2,40.9,0c3.6,0.1,4.1-1.2,4.2-4.4c0-3.4-0.8-4.8-4.5-4.7
			C964.2,631.8,957.7,631.6,951.1,631.6L951.1,631.6z"/>
		<path class="st11" d="M950.6,873.2c7.8,0,15.7,0.1,23.5-0.1c3.4-0.1,4.8,0.8,4.8,4.5c0.2,12.2,0.3,12.2-11.8,12.2
			c-13.3,0-26.6-0.1-39.8,0.1c-3.4,0-4.8-0.8-4.8-4.5c-0.1-12.2-0.3-12.2,11.8-12.2H950.6z M950.6,876.8c-6.7,0-13.4,0.1-20.2,0
			c-3.1-0.1-4.7,0.5-4.5,4.1c0.2,3,0.1,5.1,4.2,5c13.6-0.2,27.3-0.2,40.9,0c3.6,0.1,4.1-1.3,4.2-4.5c0.1-3.5-0.8-4.8-4.5-4.7
			C964.1,877,957.3,876.8,950.6,876.8z"/>
		<path class="st11" d="M950.7,854.9c-7.8,0-15.6-0.1-23.5,0.1c-3.4,0.1-4.8-0.7-4.8-4.5c-0.1-12.2-0.3-12.2,11.8-12.2
			c13.3,0,26.6,0.1,39.8-0.1c3.4,0,4.8,0.8,4.8,4.5c0.2,12.1,0.3,12.1-11.8,12.1L950.7,854.9z M950.7,841.9
			c-6.9,0-13.8,0.2-20.7-0.1c-3.2-0.1-4.2,1.1-3.9,4.1c0.2,2.5-0.6,5.1,3.6,5c14-0.2,28-0.2,42,0c4.2,0.1,3.4-2.5,3.6-5
			c0.2-2.9-0.6-4.3-3.8-4.2C964.5,842,957.6,841.8,950.7,841.9L950.7,841.9z"/>
		<path class="st5" d="M455.2,819.7c-8,0-16-0.1-24,0.1c-3.3,0.1-4.3-1-4.4-4.3c-0.3-13-0.4-13,12.6-13c13.3,0,26.5,0.1,39.8-0.1
			c3.5,0,4.7,1,4.7,4.6c0.1,12.7,0.3,12.7-12.3,12.7H455.2z M455.4,806.7c-6.9,0-13.8,0.2-20.8-0.1c-3.7-0.1-3.6,1.9-3.6,4.5
			s0,4.5,3.6,4.5c13.8-0.2,27.7-0.2,41.5,0c3.6,0,3.6-1.9,3.6-4.5s0-4.6-3.6-4.5C469.2,806.9,462.3,806.7,455.4,806.7L455.4,806.7z"
			/>
		<path class="st5" d="M455.4,749.8c-8,0-16-0.2-24,0.1c-3.6,0.1-4.6-1.2-4.6-4.7c-0.1-12.6-0.2-12.6,12.4-12.6
			c13.1,0,26.2,0.1,39.2-0.1c3.8-0.1,5.5,0.6,5.4,5c-0.1,12.3,0.1,12.3-12.2,12.3H455.4z M454.8,745.6c7.1,0,14.2-0.2,21.3,0.1
			c3.6,0.1,3.6-1.9,3.6-4.5s0.1-4.5-3.6-4.5c-13.8,0.2-27.7,0.2-41.5,0c-3.6,0-3.6,1.9-3.6,4.5s-0.1,4.6,3.6,4.5
			C441.3,745.4,448.1,745.6,454.8,745.6L454.8,745.6z"/>
		<path class="st5" d="M455.4,609.7c-8,0-16.1-0.1-24.1,0.1c-3.3,0.1-4.4-0.9-4.5-4.3c-0.3-13-0.4-13,12.7-13
			c13.3,0,26.6,0.1,40-0.1c3.2,0,4.4,0.9,4.5,4.3c0.3,13,0.4,13-12.7,13H455.4z M455.1,605.5c6.9,0,13.8-0.2,20.8,0.1
			c3.4,0.1,3.9-1.4,3.8-4.2s0-4.8-3.9-4.8c-13.7,0.2-27.3,0.2-41,0c-4-0.1-3.7,2.1-3.8,4.8c-0.1,3,0.7,4.2,3.9,4.2
			C441.7,605.3,448.4,605.5,455.1,605.5L455.1,605.5z"/>
		<path class="st5" d="M455.3,784.8c-8,0-16.1-0.1-24.1,0.1c-3.3,0.1-4.4-1-4.4-4.3c-0.3-13-0.4-13,12.7-13s26.3,0.1,39.4-0.1
			c3.8-0.1,5,1,5,4.9c0,12.4,0.1,12.4-12.2,12.4L455.3,784.8z M455.3,780.6c6.9,0,13.8-0.2,20.8,0.1c3.6,0.1,3.6-1.9,3.6-4.5
			s0-4.5-3.6-4.5c-13.8,0.2-27.7,0.2-41.5,0c-3.6,0-3.6,1.9-3.6,4.5s-0.1,4.6,3.6,4.5C441.5,780.4,448.5,780.6,455.3,780.6
			L455.3,780.6z"/>
		<path class="st5" d="M455.4,644.6c-8,0-16-0.1-24.1,0.1c-3.3,0.1-4.4-0.9-4.5-4.3c-0.3-13-0.4-13,12.7-13
			c13.3,0,26.6,0.1,39.9-0.1c3.2,0,4.4,0.8,4.5,4.3c0.3,13,0.4,13-12.7,13H455.4z M455.4,640.4c6.9,0,13.8-0.2,20.8,0.1
			c3.7,0.1,3.5-2,3.5-4.5s-0.1-4.5-3.7-4.4c-13.8,0.2-27.7,0.2-41.5,0c-3.7,0-3.4,2.1-3.5,4.6c-0.1,2.6,0.1,4.5,3.6,4.4
			C441.6,640.3,448.5,640.4,455.4,640.4z"/>
		<path class="st5" d="M455.6,557.4c7.8,0,15.6,0.1,23.5-0.1c3.3-0.1,4.8,0.6,4.9,4.4c0.2,12.9,0.3,12.9-12.7,12.9
			s-26.2-0.1-39.2,0.1c-3.5,0-5.2-0.6-5.2-4.7c0-12.6-0.2-12.6,12.4-12.6L455.6,557.4L455.6,557.4z M455.4,561.7
			c-6.9,0-13.8,0.2-20.8-0.1c-3.7-0.1-3.6,2-3.6,4.5s0,4.5,3.6,4.5c13.8-0.2,27.7-0.2,41.5,0c3.6,0,3.6-1.9,3.6-4.5s0-4.6-3.6-4.5
			C469.2,561.8,462.3,561.7,455.4,561.7L455.4,561.7z"/>
		<path class="st5" d="M455.3,504.7c-8,0-16-0.1-24,0c-3.2,0.1-4.4-0.8-4.5-4.2c-0.3-13.1-0.4-13.1,12.5-13.1
			c13.3,0,26.5,0.1,39.8-0.1c3.4,0,4.7,0.8,4.8,4.5c0.1,12.8,0.3,12.8-12.3,12.8L455.3,504.7z M455.6,500.5c6.7,0,13.5-0.2,20.2,0.1
			c3.9,0.2,3.9-1.9,4-4.7s-0.4-4.3-3.8-4.3c-13.7,0.2-27.3,0.2-41,0c-3.2,0-4.1,1.1-3.9,4.1c0.1,2.7-0.2,5,3.8,4.8
			C441.7,500.3,448.7,500.5,455.6,500.5z"/>
		<path class="st11" d="M454.8,924.8c-8,0-16-0.1-24,0c-2.7,0-3.8-0.8-3.9-3.7c-0.7-13.5-0.8-13.5,12.7-13.5
			c13.1,0,26.2,0.1,39.3-0.1c3.7,0,5,0.9,5,4.8c0,12.3,0.1,12.3-12.2,12.3L454.8,924.8z M455.5,911.8c-7.1,0-14.2,0.1-21.3-0.1
			c-3.4-0.1-3.3,2-3.2,4.2s-0.7,4.8,3.2,4.8c14-0.1,28-0.1,42,0c3.7,0,3.5-2.1,3.5-4.6s0.2-4.6-3.5-4.5
			C469.3,912,462.4,911.8,455.5,911.8L455.5,911.8z"/>
		<path class="st5" d="M455.6,697.6c8,0,16,0.1,24.1,0c2.9,0,4.1,0.7,4.3,4c0.5,13.3,0.6,13.3-12.9,13.3c-13.1,0-26.3-0.1-39.4,0.1
			c-3.4,0-4.8-0.7-4.8-4.5c-0.1-12.8-0.3-12.8,12.3-12.8L455.6,697.6z M455.4,701.8c-6.9,0-13.8,0.2-20.8-0.1
			c-3.6-0.1-3.7,1.8-3.6,4.4s-0.2,4.6,3.5,4.6c13.8-0.2,27.7-0.2,41.5,0c3.6,0,3.7-1.8,3.6-4.5s0.2-4.6-3.5-4.5
			C469.3,701.9,462.4,701.8,455.4,701.8z"/>
		<path class="st11" d="M454.8,679.8c-8,0-16-0.1-24,0c-2.7,0-3.8-0.8-3.9-3.7c-0.7-13.5-0.8-13.5,12.7-13.5c13.3,0,26.6,0.1,39.9,0
			c3.2,0,4.4,0.8,4.5,4.3c0.2,12.9,0.4,12.9-12.7,12.9H454.8z M455.1,675.7c6.9,0,13.8-0.2,20.7,0.1c3.8,0.2,4-1.8,4-4.7
			c0-2.6-0.1-4.4-3.7-4.4c-13.8,0.2-27.6,0.2-41.5,0c-3.5,0-3.7,1.7-3.7,4.3c0,2.8,0.1,4.9,3.9,4.7
			C441.6,675.5,448.4,675.7,455.1,675.7z"/>
		<path class="st5" d="M454.9,539.7c-7.8,0-15.6-0.2-23.4,0.1c-3.6,0.1-4.6-1.1-4.6-4.7c-0.1-12.6-0.2-12.6,12.4-12.6
			c13.3,0,26.5,0.1,39.8-0.1c3.9-0.1,4.9,1.2,4.9,5c0,12.4,0.1,12.4-12.1,12.4L454.9,539.7z M454.8,535.5c7.1,0,14.2-0.2,21.3,0.1
			c3.6,0.1,3.6-1.9,3.6-4.5s0.1-4.5-3.6-4.5c-13.8,0.2-27.7,0.2-41.5,0c-3.6,0-3.6,1.9-3.6,4.5s-0.1,4.6,3.6,4.5
			C441.3,535.3,448.1,535.5,454.8,535.5z"/>
		<path class="st5" d="M455,994.8c-8,0-16-0.1-24,0c-3,0.1-4-0.9-4.1-4c-0.5-13.3-0.6-13.3,12.9-13.3c13.1,0,26.2,0.1,39.2-0.1
			c3.8-0.1,5,1,5,4.9c0,12.4,0.1,12.4-12.1,12.4L455,994.8z M455.4,990.6c6.9,0,13.8-0.2,20.8,0.1c3.6,0.1,3.6-1.9,3.6-4.5
			s0.1-4.5-3.6-4.5c-13.8,0.2-27.7,0.2-41.5,0c-3.6-0.1-3.6,1.9-3.6,4.4s-0.1,4.6,3.6,4.5C441.5,990.5,448.4,990.6,455.4,990.6
			L455.4,990.6z"/>
		<path class="st5" d="M455.5,942.6c8,0,16,0.1,24.1-0.1c3.4-0.1,4.3,1.1,4.4,4.4c0.3,12.9,0.4,12.9-12.7,12.9s-26.3-0.1-39.4,0.1
			c-3.8,0.1-4.9-1.1-4.9-4.9c0-12.4-0.1-12.4,12.2-12.4H455.5z M455.7,946.8c-6.9,0-13.8,0.1-20.8-0.1c-3.2-0.1-4.2,1-4,4.1
			c0.2,2.6-0.3,5,3.8,4.9c13.7-0.2,27.3-0.2,41,0c3.8,0.1,3.9-1.8,4-4.7c0.2-3.4-1-4.4-4.3-4.3C468.9,947,462.3,946.8,455.7,946.8z"
			/>
		<path class="st11" d="M455.8,872.8c7.7,0,15.3,0.1,23,0c3.6-0.1,5.2,0.8,5.2,4.8c0,12.3,0.2,12.3-12.2,12.3
			c-13.3,0-26.6-0.1-39.9,0.1c-3.9,0.1-4.9-1.2-4.9-5c0-12.2-0.1-12.2,11.9-12.2L455.8,872.8z M455.1,885.8c6.7,0,13.5-0.2,20.2,0.1
			c3.7,0.2,4.6-1.3,4.5-4.7c0-3.2-0.8-4.4-4.3-4.4c-13.5,0.2-26.9,0.2-40.4,0c-3.5,0-4.2,1.2-4.3,4.4c0,3.4,0.8,4.9,4.5,4.7
			C442,885.6,448.6,885.8,455.1,885.8L455.1,885.8z"/>
		<path class="st11" d="M455.3,854.9c-8.2,0-16.4-0.1-24.6,0c-2.8,0-3.7-0.9-3.8-3.8c-0.6-12.9-0.7-12.9,12.2-12.9
			c13.3,0,26.6,0.1,39.9-0.1c3.8-0.1,5,1.1,4.9,4.9c0,11.8,0.1,11.8-11.6,11.8L455.3,854.9z M455.7,841.9c-6.9,0-13.8,0.1-20.7-0.1
			c-3.1-0.1-4.2,1-4,4.1c0.2,2.5-0.5,5.1,3.6,5c13.8-0.2,27.6-0.2,41.5,0c4.1,0,3.6-2.4,3.7-5c0.2-2.9-0.6-4.3-3.9-4.2
			C469.2,842,462.4,841.8,455.7,841.9L455.7,841.9z"/>
		<path class="st7" d="M1142.7,669c0,35.9-0.1,71.8,0.1,107.7c0,4.8-1.2,6.2-6.1,6.1c-39.8-0.2-79.5-0.2-119.3,0c-4.7,0-6.2-1-6.2-6
			c0.2-70.5-0.3-141.1,0.3-211.6c0.2-32,20.3-57.3,51.9-64.2c20.8-4.6,40,0.2,56.4,14.4c15.4,13.2,22.8,30.1,22.8,50.3L1142.7,669z
			 M1083.7,509c-0.1,19.9-0.1,39.7-0.2,59.5c0,3.1,0.9,4.1,4,4.1c15.5-0.2,31-0.2,46.4-0.3c3.2,2.4,3.3,4.7,0,7.1
			c-15.7-0.1-31.3-0.1-47-0.2c-2.6,0-3.5,0.9-3.5,3.5c0.1,17.3,0.1,34.6,0,51.9c0,2.1,0.5,3.5,3,3.4c15.8-0.3,31.7,0.5,47.5-0.4
			c3,2.5,3.4,4.9,0,7.3c-15.5,0-30.9,0-46.4-0.2c-3.1,0-4.1,0.9-4.1,4c0.1,16.7,0.1,33.5,0,50.2c0,3.1,0.9,4.1,4,4.1
			c15.5-0.2,30.9-0.2,46.4-0.2c3.2,2.5,3.3,5.1,0,7.6c-15.5,0-31,0-46.4-0.2c-3.2,0-4,1.1-4,4.1c0.1,20.2,0.1,40.4,0.2,60.6
			c-0.8,3.3,1.2,3.5,3.7,3.4c15.5-0.1,31-0.1,46.4,0c3.4,0,4.3-1.1,4.3-4.4c-0.2-11.8-0.1-23.7-0.1-35.5c0-57.2,0-114.3,0-171.5
			c0-31.4-20.2-56.2-49.8-61.7C1085,504.8,1082.7,504.6,1083.7,509L1083.7,509z M1020,572.3c17.8,0.1,35.6,0.1,53.4,0.3
			c2.6,0,3.5-0.9,3.5-3.5c-0.2-20.3-0.2-40.7-0.3-61c1.1-4.2-2-3.4-4.2-3.3c-24.1,0.3-47.5,19.4-54.4,44.2
			c-2.8,10.2-2.2,20.6-2.2,30.9c0,64.3,0,128.5,0,192.8c0,2.6-1.3,5.9,3.8,5.8c17.8-0.2,35.7-0.1,53.6,0c3.3,0,4.3-1.1,3.3-4.2
			c0.9-20.3,0.2-40.6,0.4-60.9c0-3-1.9-3-4-3l-52.8,0.2c-3.4-2.5-3.4-5.1,0-7.6c17.7,0.1,35.4,0.1,53,0.2c3.3,0,3.9-1.5,3.9-4.3
			c-0.1-16.6-0.1-33.2,0-49.7c0-2.9-0.6-4.3-3.9-4.3c-17.7,0.2-35.3,0.2-53,0.2c-3.6-2.5-3.1-4.9,0-7.4c17.8,1.1,35.7,0.2,53.5,0.5
			c3.2,0.1,3.4-1.9,3.4-4.3c0-16.8-0.1-33.5,0-50.3c0-2.9-0.7-4.2-3.9-4.2c-17.7,0.2-35.3,0.2-53,0.3
			C1016.5,577.1,1016.5,574.7,1020,572.3z"/>
		<path class="st7" d="M267.1,668.3c0-34.1,0.4-68.2-0.1-102.2c-0.5-31.5,22.2-58.7,51.6-65.2c32-7,65.2,11,75.7,42
			c2.8,8.4,4.2,17.3,4.2,26.2c0,68.9,0,137.8,0.1,206.7c0,5.4-1.2,7.1-6.9,7c-39.4-0.3-78.8-0.3-118.1,0c-5.4,0-6.6-1.7-6.5-6.8
			C267.2,740.2,267.1,704.3,267.1,668.3z M275.7,572.3c15.7,0.1,31.3,0.1,47,0.3c2.6,0,3.5-1,3.5-3.5c-0.2-20-0.3-40-0.3-60
			c1-3.7-0.5-4.5-3.9-3.8c-24.8,5.4-41.2,19.9-48.3,44.5c-3.3,11.4-2,23.2-2,34.8c-0.1,62.7-0.1,125.4,0,188.1
			c0,2.6-1.3,5.9,3.8,5.8c15.7-0.2,31.4-0.2,47,0c3.3,0,4.3-1.2,3.3-4.2c0.1-20.1,0.2-40.3,0.4-60.4c0-3.1-1.5-3.5-4.1-3.5
			c-15.4,0.1-30.9,0.2-46.3,0.2c-3.4-2.5-3.4-5.1,0-7.6c15.5,0.1,30.9,0.1,46.3,0.2c3.1,0,4.1-1,4.1-4.1c-0.1-16.7-0.1-33.4,0-50.2
			c0-3.1-1-4.1-4.1-4.1c-15.5,0.2-30.9,0.2-46.3,0.2c-3.6-2.5-3.1-4.9,0-7.4c15.7,1.1,31.3,0.2,47,0.5c3.2,0.1,3.4-1.8,3.4-4.3
			c0-16.8-0.1-33.5,0-50.3c0-2.9-0.7-4.2-3.9-4.2c-15.5,0.2-31,0.2-46.5,0.3C272.3,577.1,272.3,574.7,275.7,572.3z M389.8,572.3
			c3.2,2.4,3.3,4.7,0,7.1c-17.7-0.1-35.3-0.1-53-0.2c-2.5,0-4,0.3-4,3.5c0.1,17.3,0.1,34.6,0,51.9c0,2.1,0.4,3.5,3,3.4
			c18-0.3,36,0.5,54-0.4c3.1,2.5,3.2,4.9,0,7.3c-17.7-0.1-35.3,0-53-0.2c-3.1,0-4.1,0.9-4,4c0.1,16.7,0.1,33.5,0,50.2
			c0,3.1,0.9,4.1,4,4.1c17.7-0.2,35.3-0.2,53-0.2c3.2,2.5,3.2,5,0,7.6c-17.7,0-35.3,0-53-0.2c-3.2,0-4,1.2-4,4.2
			c0.1,20.2,0.1,40.4,0.2,60.6c-0.9,4,1.9,3.4,4.2,3.4c17.1,0,34.3-0.2,51.4,0.1c4.7,0.1,5.3-1.6,5.3-5.7
			c-0.1-68.7-0.1-137.4-0.1-206.1c0-5.7-0.7-11.3-2-16.8c-6.3-25.2-30.1-44.9-54.7-45.3c-2.4,0-5.1-0.5-4.2,3.4
			c0,20.2-0.1,40.3-0.2,60.5c0,2.6,0.5,4,3.5,4C354.1,572.5,372,572.4,389.8,572.3L389.8,572.3z"/>
		<path class="st10" d="M149.1,562.8c0,20-0.1,40.1,0.1,60.1c0,4.1-1,5.4-5.2,5.2c-7.6-0.3-15.3-0.2-23,0c-3.1,0.1-4.1-1-4-4.1
			c0.1-41,0-82,0.1-123c0.6-8.8,8.3-15.5,17.1-14.8c7.9,0.6,14.3,6.9,14.8,14.8C149.2,521.7,149.1,542.3,149.1,562.8z"/>
		<path class="st10" d="M96.6,562.3c0,20.2-0.1,40.4,0.1,60.7c0,4.2-1.3,5.3-5.3,5.2c-7.5-0.3-14.9-0.2-22.4,0
			c-3.1,0.1-4.5-0.5-4.5-4.2c0.1-41,0-82,0.1-123c0.6-8.8,8.3-15.5,17.1-14.8c8,0.6,14.4,7,14.9,15
			C96.7,521.5,96.5,541.9,96.6,562.3L96.6,562.3z"/>
		<path class="st10" d="M1292.6,562.8c0,20-0.1,40.1,0.1,60.1c0,4-0.9,5.4-5.1,5.2c-7.6-0.3-15.3-0.2-22.9,0
			c-3.1,0.1-4.6-0.7-4.6-4.2c0.1-40.6,0-81.2,0.1-121.8c0-9.9,7.1-16.9,16.3-16.9c9.4,0,16.1,7.2,16.1,17.6
			C1292.6,522.8,1292.6,542.8,1292.6,562.8z"/>
		<path class="st10" d="M1345.3,562.8c0,20-0.1,40.1,0.1,60.1c0,4.1-1,5.4-5.2,5.2c-7.6-0.3-15.3-0.2-23,0c-3.1,0.1-4.1-1-4.1-4.1
			c0.1-41,0-82,0.1-123c0.5-8.8,8.1-15.5,16.9-15c8.1,0.5,14.5,6.9,15,15C1345.3,521.7,1345.2,542.3,1345.3,562.8z"/>
		<path class="st12" d="M205.8,875.7c-6.9,0-13.8-0.2-20.7,0.1c-4.3,0.2-3.4-2.6-3.5-5s-0.7-5,3.5-4.9c14,0.2,28,0.2,41.9,0
			c4.3-0.1,3.5,2.6,3.5,5s0.6,5.1-3.6,4.9C220,875.5,212.9,875.7,205.8,875.7z"/>
		<path class="st12" d="M206,691.8c-6.9,0-13.9-0.2-20.8,0.1c-4.2,0.2-3.7-2.4-3.6-4.9s-0.8-5.1,3.5-5c14,0.2,28,0.2,42.1,0
			c4.3-0.1,3.3,2.8,3.4,5.1c0.2,2.8,0.1,5-3.9,4.8C219.9,691.7,213,691.8,206,691.8z"/>
		<path class="st12" d="M206,397.7c-6.9,0-13.9-0.2-20.8,0.1c-4.2,0.2-3.5-2.5-3.5-5s-0.7-5,3.5-5c14,0.2,28.1,0.2,42.1,0
			c4.4,0,3.2,3,3.3,5.2s0.6,4.8-3.3,4.7C220.2,397.5,213.1,397.7,206,397.7z"/>
		<path class="st12" d="M206.2,802.4c-6.9,0-13.8-0.2-20.7,0.1c-3.9,0.2-4.1-1.8-3.9-4.7c0.2-2.5-0.9-5.4,3.7-5.3
			c13.8,0.2,27.6,0.2,41.4,0c3.8-0.1,4.1,1.8,3.9,4.7c-0.2,2.6,0.8,5.5-3.8,5.3C220,802.1,213.1,802.4,206.2,802.4z"/>
		<path class="st13" d="M205.7,986c-6.7,0-13.5-0.2-20.2,0.1c-4.5,0.2-3.8-2.6-3.9-5.3s0-4.8,3.9-4.7c13.8,0.2,27.7,0.2,41.5,0
			c4.1,0,3.7,2.3,3.7,5s0.4,5.2-3.7,5C220,985.8,212.8,986,205.7,986z"/>
		<path class="st13" d="M206.4,424.8c6.7,0,13.5,0.2,20.2-0.1c3.6-0.1,4.4,1.4,4.1,4.5c-0.2,2.6,0.7,5.5-3.8,5.5
			c-13.8-0.2-27.7-0.2-41.5,0c-4.6,0.1-3.6-2.8-3.8-5.4c-0.2-3,0.2-4.8,4-4.6C192.5,425,199.4,424.8,206.4,424.8z"/>
		<path class="st13" d="M206.4,508c-6.7,0-13.5-0.2-20.2,0.1c-4.2,0.2-4.7-1.7-4.6-5.2c0.1-3.2,0.3-5,4.3-4.9
			c13.5,0.3,27,0.3,40.5,0c3.9-0.1,4.5,1.5,4.5,4.8s-0.5,5.4-4.7,5.2C219.5,507.8,213,508,206.4,508z"/>
		<path class="st13" d="M206.4,718.9c6.7,0,13.5,0.2,20.2-0.1c3.6-0.1,4.3,1.5,4.1,4.6c-0.2,2.7,0.5,5.5-3.9,5.4
			c-13.8-0.2-27.6-0.2-41.5,0c-4.6,0.1-3.5-2.9-3.8-5.4c-0.2-3,0.4-4.7,4-4.6C192.6,719.1,199.5,718.9,206.4,718.9z"/>
		<path class="st13" d="M205.7,912.7c-6.7,0-13.5-0.2-20.2,0.1c-4.5,0.2-3.8-2.6-3.9-5.3s0-4.8,3.9-4.7c13.8,0.2,27.7,0.2,41.5,0
			c4,0,3.7,2.3,3.7,5s0.4,5.2-3.7,5C220,912.5,212.8,912.7,205.7,912.7z"/>
		<path class="st13" d="M206.4,828.8c6.7,0,13.5,0.2,20.2-0.1c4.3-0.2,4.1,2.3,4.1,5.2s0,4.8-3.9,4.8c-13.8-0.2-27.7-0.2-41.5,0
			c-4.7,0.1-3.5-2.9-3.7-5.4c-0.3-3,0.4-4.7,4.1-4.6C192.6,829,199.5,828.8,206.4,828.8z"/>
		<path class="st13" d="M205.8,949.2c-6.5,0-13.1-0.2-19.6,0.1c-4.2,0.2-4.7-1.7-4.6-5.2c0.1-3.2,0.4-5,4.4-4.9
			c13.5,0.2,26.9,0.2,40.4,0c4.5-0.1,4.3,2.3,4.5,5.5c0.2,3.7-1.2,4.7-4.8,4.5C219.3,949.1,212.6,949.2,205.8,949.2z"/>
		<path class="st13" d="M206.2,755.5c6.9,0,13.9,0.2,20.8-0.1c4.1-0.1,3.8,2.4,3.7,5s0.5,5-3.6,5c-14-0.2-28-0.2-42.1,0
			c-3.8,0-3.5-2.3-3.3-4.7s-1.2-5.4,3.2-5.3C192,755.6,199.1,755.5,206.2,755.5z"/>
		<path class="st13" d="M205.9,645c6.9,0,13.9,0.2,20.8-0.1c4.3-0.2,4,2.3,4.1,5.2s0,4.8-3.9,4.8c-13.8-0.2-27.7-0.2-41.5,0
			c-4.7,0.1-3.5-2.9-3.7-5.4c-0.3-3,0.3-4.7,4-4.6C192.4,645.2,199.1,645,205.9,645z"/>
		<path class="st13" d="M206.3,608.7c6.8,0,13.5,0.2,20.2-0.1c4.3-0.2,4.1,2.1,4.2,5.1c0,3.2-0.3,5-4.4,5c-13.7-0.2-27.3-0.2-41,0
			c-4.6,0.1-3.6-2.8-3.8-5.4c-0.2-2.9,0.1-4.8,4-4.6C192.5,608.9,199.4,608.7,206.3,608.7z"/>
		<path class="st13" d="M206.4,471.3c-6.9,0-13.8-0.2-20.7,0.1c-4.3,0.2-4-2.2-4.1-5.1c-0.1-3.2,0.3-5,4.3-4.9
			c13.5,0.2,26.9,0.2,40.4,0c4.4-0.1,4.4,2.2,4.5,5.4c0.2,3.7-1.2,4.7-4.7,4.6C219.5,471.1,213,471.3,206.4,471.3z"/>
		<path class="st13" d="M206.4,581.5c-6.8,0-13.5-0.2-20.2,0.1c-4.2,0.2-4.7-1.7-4.6-5.1c0.1-3.1,0.2-5,4.3-4.9
			c13.5,0.3,27,0.3,40.5,0c4.6-0.1,4.3,2.4,4.4,5.5c0.2,3.7-1.1,4.7-4.7,4.6C219.5,581.3,213,581.5,206.4,581.5z"/>
		<path class="st13" d="M206.4,544.9c-6.9,0-13.8-0.2-20.7,0.1c-4.3,0.2-4.2-2.1-4.1-5.1c0.1-2.7-0.6-5.4,3.9-5.3
			c13.8,0.2,27.6,0.2,41.4,0c4.5-0.1,3.8,2.6,3.9,5.3c0.1,3,0,5.2-4.2,5C219.9,544.7,213.1,544.9,206.4,544.9z"/>
		<path class="st12" d="M1210,802.4c-6.7,0-13.5-0.3-20.2,0.1c-4.6,0.3-3.8-2.5-3.9-5.2s-0.4-4.9,3.7-4.8c13.8,0.2,27.7,0.3,41.5,0
			c4.6-0.1,3.8,2.5,3.9,5.2s0.4,5-3.7,4.8C1224.1,802.1,1217,802.4,1210,802.4z"/>
		<path class="st12" d="M1209.9,397.7c-6.7,0-13.5-0.3-20.2,0.1c-4.7,0.3-3.7-2.7-3.8-5.3c-0.2-2.8-0.2-4.8,3.8-4.7
			c13.8,0.2,27.7,0.3,41.5,0c4.7-0.1,3.7,2.7,3.8,5.3s0.2,4.9-3.8,4.7C1224.1,397.4,1217,397.7,1209.9,397.7z"/>
		<path class="st13" d="M1209.9,471.3c-6.7,0-13.5-0.2-20.2,0.1c-4,0.2-3.9-2.1-3.8-4.8c0.1-2.5-0.7-5.2,3.5-5.2
			c14,0.1,28.1,0.1,42.1,0c4.2,0,3.4,2.7,3.5,5.2c0.1,2.7,0.2,5-3.8,4.8C1224.1,471.1,1217,471.3,1209.9,471.3z"/>
		<path class="st13" d="M1210.6,498.2c6.9,0,13.8,0.2,20.7-0.1c4.2-0.2,3.6,2.4,3.6,5s0.8,5.1-3.5,5c-14-0.2-28-0.2-42,0
			c-4.2,0.1-3.6-2.5-3.6-5s-0.8-5.2,3.5-5C1196.4,498.3,1203.5,498.2,1210.6,498.2z"/>
		<path class="st13" d="M1211,902.8c6.7,0,13.5,0.2,20.2-0.1c4.5-0.2,3.8,2.6,3.9,5.3s0,4.8-3.9,4.7c-13.8-0.2-27.6-0.2-41.5,0
			c-3.9,0.1-4-2-3.8-4.8s-0.6-5.5,3.9-5.3C1196.8,903,1203.9,902.8,1211,902.8z"/>
		<path class="st13" d="M1210.4,728.8c-6.9,0-13.8-0.2-20.7,0.1c-3.9,0.2-4-1.9-3.9-4.7c0.1-2.7-0.6-5.4,3.9-5.3
			c13.8,0.2,27.6,0.2,41.4,0c4.4-0.1,3.8,2.5,3.9,5.3s0,4.9-3.9,4.8C1224.2,728.6,1217.3,728.8,1210.4,728.8z"/>
		<path class="st13" d="M1210.1,986c-6.7,0-13.5-0.2-20.2,0.1c-3.7,0.2-4.3-1.5-4-4.6c0.2-2.5-1.1-5.5,3.7-5.5c14,0.2,28,0.2,42,0
			c4.3-0.1,3.4,2.6,3.5,5.1c0.1,2.6,0.5,5.1-3.6,4.9C1224.3,985.8,1217.2,986,1210.1,986z"/>
		<path class="st13" d="M1211,571.7c6.7,0,13.5,0.2,20.2-0.1c4.6-0.2,3.7,2.7,3.8,5.3c0.1,2.8,0.1,4.8-3.9,4.7
			c-13.8-0.2-27.7-0.2-41.5,0c-4.5,0.1-3.7-2.6-3.8-5.3s-0.1-4.9,3.9-4.7C1196.8,571.9,1203.9,571.7,1211,571.7z"/>
		<path class="st13" d="M1210.4,434.7c-6.9,0-13.8-0.2-20.7,0.1c-4.6,0.2-3.7-2.7-3.8-5.3c-0.2-2.8,0-4.8,3.9-4.7
			c13.8,0.2,27.7,0.2,41.5,0c4.6-0.1,3.7,2.7,3.8,5.3c0.1,2.8,0,4.9-3.9,4.7C1224.2,434.5,1217.3,434.7,1210.4,434.7z"/>
		<path class="st13" d="M1210.9,654.8c-7.1,0-14.2-0.2-21.3,0.1c-4.6,0.2-3.6-2.8-3.8-5.4c-0.2-2.9,0.1-4.7,3.9-4.7
			c13.8,0.2,27.7,0.2,41.5,0c4.6-0.1,3.6,2.8,3.8,5.4c0.2,2.9-0.1,4.8-3.9,4.6C1224.3,654.6,1217.6,654.8,1210.9,654.8z"/>
		<path class="st13" d="M1210.3,765.4c-6.7,0-13.5-0.2-20.2,0.1c-3.9,0.2-4.5-1.6-4.3-4.8c0.2-2.7-0.5-5.3,4-5.2
			c13.8,0.3,27.7,0.2,41.5,0c4.6-0.1,3.6,2.8,3.8,5.4c0.2,2.9-0.2,4.8-4,4.6C1224.1,765.2,1217.2,765.4,1210.3,765.4z"/>
		<path class="st13" d="M1210.4,828.8c6.9,0,13.8,0.2,20.7-0.1c3.9-0.2,4,1.9,3.9,4.8s0.6,5.4-3.9,5.3c-13.8-0.2-27.6-0.2-41.5,0
			c-4.5,0.1-3.8-2.6-3.9-5.3s-0.1-4.9,3.9-4.8C1196.6,829,1203.5,828.8,1210.4,828.8z"/>
		<path class="st12" d="M1210.2,691.8c-6.9,0-13.8-0.2-20.7,0.1c-4.2,0.2-3.7-2.3-3.6-4.9c0.1-2.4-0.9-5.1,3.4-5.1
			c14,0.2,28,0.2,42,0c4.7-0.1,3.4,2.9,3.7,5.4c0.3,3-0.3,4.7-4,4.6C1224.1,691.6,1217.2,691.8,1210.2,691.8z"/>
		<path class="st12" d="M1210.4,618.5c-6.9,0-13.8-0.2-20.7,0.1c-4.6,0.2-3.7-2.7-3.8-5.3c-0.2-2.8,0-4.7,3.9-4.7
			c13.8,0.2,27.7,0.3,41.5,0c4.7-0.1,3.6,2.7,3.8,5.3c0.2,2.8,0,4.9-3.9,4.7C1224.2,618.3,1217.3,618.5,1210.4,618.5z"/>
		<path class="st13" d="M1210.8,939.4c6.5,0,13.1,0.2,19.6-0.1c4.2-0.2,4.7,1.7,4.6,5.2c0,3.2-0.4,5-4.3,4.9
			c-13.4-0.2-26.9-0.2-40.4,0c-4.2,0.1-4.6-1.7-4.6-5.2c-0.1-3.8,1.1-5,4.9-4.9C1197.4,939.6,1204.1,939.4,1210.8,939.4z"/>
		<path class="st13" d="M1210.2,544.9c-6.7,0-13.5-0.2-20.2,0.1c-4.2,0.2-4.3-2-4.2-5c0.1-2.6-0.8-5.4,3.8-5.4
			c13.8,0.2,27.7,0.2,41.5,0c4.5-0.1,3.9,2.5,3.9,5.3s0.2,5.3-4.1,5.1C1224,544.7,1217.1,544.9,1210.2,544.9z"/>
		<path class="st12" d="M1210.8,875.7c-7.1,0-14.2-0.2-21.3,0.1c-4.2,0.2-3.7-2.4-3.6-4.9c0.1-2.4-1-5.2,3.4-5.1
			c14,0.2,28.1,0.2,42.1,0c4.8-0.1,3.3,3,3.6,5.5c0.3,3-0.2,4.7-4,4.6C1224.3,875.5,1217.5,875.7,1210.8,875.7z"/>
		<path class="st12" d="M951.1,771.7c6.7,0,13.5,0.2,20.2-0.1c3.9-0.2,4,1.8,3.9,4.7c0,2.7-0.2,4.4-3.7,4.3
			c-13.8-0.2-27.7-0.2-41.5,0c-3.8,0.1-3.9-1.8-4-4.7c-0.2-3.3,0.9-4.5,4.3-4.3C937.2,771.9,944.1,771.7,951.1,771.7z"/>
		<path class="st12" d="M950.7,535.5c-6.9,0-13.8-0.2-20.8,0.1c-4,0.2-3.8-1.9-3.9-4.7s0.4-4.3,3.8-4.2c13.8,0.2,27.7,0.2,41.5,0
			c4-0.1,3.8,2,3.9,4.7s-0.3,4.4-3.8,4.2C964.5,535.3,957.6,535.5,950.7,535.5z"/>
		<path class="st12" d="M951,491.7c6.9,0,13.8,0.2,20.8-0.1c3.8-0.1,3.4,2.1,3.4,4.5c0.1,2.6,0.1,4.5-3.6,4.4c-14-0.2-28-0.2-42.1,0
			c-3.8,0-3.4-2.1-3.5-4.6c-0.1-2.6,0-4.5,3.6-4.4C936.8,491.9,943.9,491.7,951,491.7z"/>
		<path class="st12" d="M950.6,955.7c-6.9,0-13.8-0.2-20.8,0.1c-4,0.2-3.7-2.2-3.8-4.8c-0.1-2.9,0.6-4.2,3.9-4.2
			c13.8,0.2,27.7,0.2,41.5,0c3.4,0,3.8,1.5,3.8,4.2s0.1,4.9-3.8,4.8C964.4,955.4,957.5,955.7,950.6,955.7z"/>
		<path class="st12" d="M950.2,990.6c-6.7,0-13.5-0.2-20.2,0.1c-3.8,0.2-4-1.8-4-4.7s0.2-4.3,3.7-4.3c13.8,0.2,27.7,0.2,41.5,0
			c3.9-0.1,3.8,1.8,3.9,4.7c0.2,3.3-0.9,4.5-4.3,4.3C964,990.5,957.1,990.6,950.2,990.6z"/>
		<path class="st12" d="M950.6,710.6c-6.9,0-13.8-0.2-20.8,0.1c-4,0.2-3.7-2.2-3.8-4.8c-0.1-2.9,0.6-4.2,3.9-4.2
			c13.8,0.2,27.7,0.2,41.5,0c3.4,0,3.8,1.5,3.8,4.2s0.1,4.9-3.9,4.8C964.4,710.4,957.5,710.6,950.6,710.6z"/>
		<path class="st12" d="M950.7,815.5c-6.9,0-13.8-0.2-20.8,0.1c-3.3,0.1-4-1.2-3.9-4.2c0.1-2.7-0.3-4.9,3.8-4.8
			c13.8,0.2,27.7,0.2,41.5,0c4-0.1,3.8,2,3.8,4.7s-0.3,4.4-3.8,4.2C964.5,815.4,957.6,815.5,950.7,815.5z"/>
		<path class="st12" d="M950.6,736.8c6.9,0,13.8,0.2,20.8-0.1c3.3-0.1,4,1.2,3.9,4.1c-0.2,2.6,0.4,4.9-3.7,4.8
			c-13.8-0.2-27.7-0.2-41.5,0c-3.9,0.1-3.9-1.9-3.9-4.7s0.3-4.4,3.8-4.3C936.7,736.9,943.7,736.8,950.6,736.8z"/>
		<path class="st12" d="M950.6,605.5c-6.9,0-13.8-0.2-20.8,0.1c-3.4,0.1-3.8-1.4-3.8-4.2s0-4.8,3.9-4.8c13.8,0.2,27.7,0.2,41.5,0
			c4.1-0.1,3.6,2.2,3.8,4.8c0.2,2.9-0.6,4.3-3.8,4.2C964.4,605.3,957.5,605.5,950.6,605.5z"/>
		<path class="st12" d="M950.6,570.5c-6.9,0-13.8-0.2-20.8,0.1c-3.4,0.1-3.9-1.4-3.8-4.2s-0.1-4.8,3.9-4.8c13.8,0.2,27.7,0.2,41.5,0
			c4.1-0.1,3.6,2.2,3.8,4.8c0.2,2.9-0.5,4.3-3.8,4.2C964.5,570.3,957.5,570.5,950.6,570.5z"/>
		<path class="st12" d="M950.6,920.7c-6.7,0-13.5-0.2-20.2,0.1c-3.8,0.2-4.4-1.5-4.4-4.8s0.9-4.4,4.3-4.3c13.6,0.2,27.3,0.2,40.9,0
			c3.6-0.1,4.2,1.3,4.1,4.4c-0.1,2.9-0.1,4.8-4,4.7C964.4,920.5,957.5,920.7,950.6,920.7z"/>
		<path class="st12" d="M951.1,675.7c-7.1,0-14.2-0.2-21.3,0.1c-4,0.2-3.8-2.1-3.8-4.8s0.3-4.3,3.7-4.3c14,0.2,28,0.2,42,0
			c3.7,0,3.5,2,3.5,4.5s0.4,4.7-3.4,4.6C965,675.5,958,675.7,951.1,675.7z"/>
		<path class="st12" d="M951.2,631.6c6.5,0,13.1,0.2,19.6-0.1c3.7-0.2,4.6,1.2,4.5,4.7c0,3.2-0.6,4.5-4.2,4.4
			c-13.6-0.2-27.2-0.2-40.9,0c-3.4,0-4.3-1.1-4.3-4.3s0.7-4.9,4.5-4.7C937.3,631.8,944.3,631.6,951.2,631.6z"/>
		<path class="st12" d="M950.6,876.8c6.7,0,13.4,0.2,20.2-0.1c3.7-0.2,4.6,1.2,4.5,4.7c-0.1,3.1-0.6,4.5-4.2,4.5
			c-13.6-0.2-27.2-0.2-40.9,0c-4.1,0.1-4-2-4.2-5c-0.2-3.6,1.4-4.2,4.5-4.1C937.2,876.9,943.9,876.8,950.6,876.8z"/>
		<path class="st12" d="M950.7,841.8c6.9,0,13.8,0.2,20.7-0.1c3.3-0.1,4.1,1.2,3.8,4.2c-0.2,2.5,0.6,5-3.6,5c-14-0.2-28-0.2-42,0
			c-4.2,0.1-3.4-2.5-3.6-5c-0.2-3,0.7-4.2,3.9-4.1C936.8,842,943.8,841.8,950.7,841.8z"/>
		<path class="st12" d="M455.4,806.7c6.9,0,13.8,0.2,20.8-0.1c3.6-0.1,3.6,1.9,3.6,4.5s0.1,4.5-3.6,4.5c-13.8-0.2-27.7-0.2-41.5,0
			c-3.6,0-3.6-1.9-3.6-4.5s-0.1-4.6,3.6-4.5C441.5,806.9,448.5,806.7,455.4,806.7z"/>
		<path class="st12" d="M454.8,745.6c-6.7,0-13.5-0.2-20.2,0.1c-3.6,0.1-3.6-1.9-3.6-4.5s-0.1-4.5,3.6-4.5c13.8,0.2,27.7,0.2,41.5,0
			c3.6,0,3.6,1.9,3.6,4.5s0.1,4.6-3.6,4.5C469,745.4,462,745.6,454.8,745.6z"/>
		<path class="st12" d="M455.1,605.5c-6.7,0-13.5-0.2-20.2,0.1c-3.3,0.1-4.1-1.2-3.9-4.2c0.1-2.7-0.2-4.9,3.8-4.8
			c13.7,0.2,27.3,0.2,41,0c3.9-0.1,3.9,2,3.9,4.8s-0.4,4.4-3.8,4.2C469,605.3,462.1,605.5,455.1,605.5z"/>
		<path class="st12" d="M455.4,780.6c-6.9,0-13.8-0.2-20.8,0.1c-3.6,0.1-3.6-1.9-3.6-4.5s-0.1-4.5,3.6-4.5c13.8,0.2,27.7,0.2,41.5,0
			c3.6,0,3.6,1.9,3.6,4.5s0.1,4.6-3.6,4.5C469.2,780.4,462.3,780.6,455.4,780.6z"/>
		<path class="st12" d="M455.4,640.4c-6.9,0-13.8-0.2-20.8,0.1c-3.6,0.1-3.7-1.8-3.6-4.4c0.1-2.5-0.2-4.6,3.5-4.6
			c13.8,0.2,27.7,0.2,41.5,0c3.6,0,3.7,1.8,3.7,4.4s0.2,4.7-3.5,4.5C469.3,640.3,462.4,640.4,455.4,640.4z"/>
		<path class="st12" d="M455.4,561.7c6.9,0,13.8,0.2,20.8-0.1c3.6-0.1,3.6,1.9,3.6,4.5s0.1,4.5-3.6,4.5c-13.8-0.2-27.7-0.2-41.5,0
			c-3.6,0-3.6-1.9-3.6-4.5s-0.1-4.6,3.6-4.5C441.5,561.8,448.4,561.7,455.4,561.7z"/>
		<path class="st12" d="M455.6,500.5c-6.9,0-13.8-0.2-20.8,0.1c-4,0.2-3.7-2.2-3.8-4.8c-0.2-3,0.7-4.2,3.9-4.1
			c13.6,0.1,27.3,0.1,41-0.1c3.4,0,3.8,1.5,3.8,4.3s0,4.9-3.9,4.7C469.1,500.3,462.3,500.5,455.6,500.5z"/>
		<path class="st12" d="M455.5,911.8c6.9,0,13.8,0.2,20.7-0.1c3.7-0.1,3.5,2,3.5,4.5s0.2,4.6-3.5,4.6c-14-0.1-28-0.1-42,0
			c-3.9,0-3.2-2.5-3.2-4.8s-0.2-4.3,3.2-4.2C441.3,911.9,448.4,911.8,455.5,911.8z"/>
		<path class="st12" d="M455.4,701.8c6.9,0,13.8,0.2,20.8-0.1c3.7-0.1,3.5,2,3.5,4.5s-0.1,4.5-3.6,4.5c-13.8-0.2-27.7-0.2-41.5,0
			c-3.7,0-3.5-2.1-3.5-4.6s0-4.5,3.6-4.4C441.6,701.9,448.5,701.8,455.4,701.8z"/>
		<path class="st12" d="M455.1,675.7c-6.7,0-13.5-0.2-20.2,0.1c-3.9,0.2-3.9-1.9-3.9-4.7c0-2.7,0.2-4.4,3.7-4.3
			c13.8,0.2,27.6,0.2,41.5,0c3.5,0,3.6,1.8,3.7,4.4c0,2.9-0.1,4.8-4,4.7C469,675.5,462,675.7,455.1,675.7z"/>
		<path class="st12" d="M454.8,535.5c-6.7,0-13.5-0.2-20.2,0.1c-3.7,0.1-3.6-2-3.6-4.5s0-4.5,3.6-4.5c13.8,0.2,27.7,0.2,41.5,0
			c3.6,0,3.6,2,3.6,4.5s0,4.6-3.6,4.5C469,535.3,462,535.5,454.8,535.5z"/>
		<path class="st12" d="M455.4,990.6c-6.9,0-13.8-0.2-20.8,0.1c-3.7,0.1-3.5-2-3.6-4.5s0-4.5,3.6-4.4c13.8,0.2,27.7,0.2,41.5,0
			c3.7-0.1,3.5,1.9,3.6,4.5s0,4.6-3.6,4.5C469.2,990.5,462.3,990.6,455.4,990.6z"/>
		<path class="st12" d="M455.7,946.8c6.6,0,13.1,0.2,19.7-0.1c3.3-0.1,4.5,0.9,4.3,4.3c-0.1,2.8-0.2,4.8-4,4.7
			c-13.7-0.2-27.3-0.2-41,0c-4,0-3.6-2.3-3.8-4.9c-0.2-3,0.8-4.2,4-4.1C442,947,448.8,946.8,455.7,946.8z"/>
		<path class="st12" d="M455.1,885.8c-6.5,0-13.1-0.2-19.6,0.1c-3.7,0.2-4.6-1.3-4.5-4.7c0-3.2,0.8-4.4,4.3-4.4
			c13.4,0.2,26.9,0.2,40.4,0c3.5,0,4.3,1.1,4.3,4.4c0,3.4-0.8,4.9-4.5,4.7C468.6,885.6,461.8,885.8,455.1,885.8z"/>
		<path class="st12" d="M455.7,841.8c6.7,0,13.5,0.2,20.2-0.1c3.3-0.1,4.1,1.2,3.9,4.2c-0.2,2.6,0.3,5-3.7,5
			c-13.8-0.2-27.6-0.2-41.5,0c-4.1,0-3.4-2.5-3.6-5c-0.2-3,0.8-4.2,4-4.1C441.9,842,448.8,841.8,455.7,841.8z"/>
		<path class="st14" d="M1020,710.5l52.8-0.2c2.1,0,4.1,0,4,3c-0.2,20.3,0.5,40.6-0.4,60.9c-16.9,0-33.8-0.2-50.8,0
			c-4.7,0.1-5.8-1.5-5.7-5.9C1020.1,749,1020,729.7,1020,710.5z"/>
		<path class="st14" d="M1020,579.5c17.7-0.1,35.3-0.1,53-0.3c3.3,0,3.9,1.3,3.9,4.2c-0.1,16.8-0.1,33.5,0,50.3
			c0,2.4-0.2,4.4-3.4,4.3c-17.8-0.3-35.7,0.6-53.5-0.5V579.5z"/>
		<path class="st14" d="M1020,645c17.7-0.1,35.4-0.1,53-0.2c3.3,0,3.9,1.4,3.9,4.3c-0.1,16.6-0.1,33.2,0,49.7c0,2.8-0.5,4.3-3.9,4.3
			c-17.7-0.2-35.3-0.2-53-0.2C1020,683.5,1020,664.3,1020,645z"/>
		<path class="st14" d="M1083.7,775c0-20.2,0-40.4-0.2-60.6c0-3,0.8-4.2,4-4.1c15.5,0.2,31,0.1,46.4,0.2c0,19.9-0.1,39.7,0.1,59.6
			c0,3.8-1,5.1-4.9,5C1114,774.8,1098.8,775,1083.7,775z"/>
		<path class="st14" d="M1076.5,508.1c0.1,20.3,0.2,40.7,0.3,61c0,2.6-0.9,3.5-3.5,3.5c-17.8-0.2-35.6-0.2-53.4-0.3
			c0.5-5.8-0.6-11.6,0.8-17.4C1027.2,526.7,1047.2,509.9,1076.5,508.1z"/>
		<path class="st14" d="M1134,637.6c-15.8,1-31.7,0.2-47.5,0.4c-2.5,0-3-1.3-3-3.4c0-17.3,0-34.6,0-51.9c0-2.6,0.9-3.5,3.5-3.5
			c15.7,0.1,31.3,0.2,47,0.2V637.6z"/>
		<path class="st14" d="M1134,702.8c-15.5,0.1-30.9,0-46.4,0.2c-3.1,0-4.1-1-4-4.1c0.1-16.7,0.1-33.5,0-50.2c0-3.1,1-4.1,4.1-4
			c15.5,0.2,30.9,0.2,46.4,0.2C1134,664.3,1134,683.6,1134,702.8z"/>
		<path class="st14" d="M1134,572.4c-15.5,0.1-31,0.1-46.4,0.3c-3.1,0-4.1-1-4-4.1c0.2-19.8,0.2-39.7,0.2-59.5
			c15.9,1.5,28.5,9,38.3,21.4S1134.7,557,1134,572.4z"/>
		<path class="st0" d="M1076.5,508.1c-29.4,1.8-49.3,18.6-55.8,46.9c-1.3,5.8-0.3,11.6-0.8,17.4c-3.4,2.4-3.4,4.8,0,7.2v58
			c-3.1,2.5-3.6,5,0,7.4c0,19.3,0,38.5,0,57.8c-3.4,2.5-3.4,5.1,0,7.6c0,19.3,0.2,38.5,0,57.8c0,4.4,1.1,6,5.7,5.9
			c16.9-0.2,33.8,0,50.8,0c1.1,3.1,0,4.2-3.3,4.2c-17.8-0.1-35.7-0.2-53.6,0c-5.1,0.1-3.8-3.2-3.8-5.8c0-64.3,0-128.5,0-192.8
			c0-10.3-0.7-20.7,2.2-30.9c6.8-24.8,30.3-43.9,54.4-44.2C1074.6,504.7,1077.6,503.9,1076.5,508.1z"/>
		<path class="st0" d="M1134,572.4c0.7-15.3-2.2-29.7-11.9-42s-22.4-19.9-38.3-21.4c-1.1-4.4,1.2-4.2,4.5-3.6
			c29.5,5.5,49.7,30.3,49.8,61.7c0.1,57.2,0.1,114.3,0,171.5c0,11.8-0.1,23.7,0.1,35.5c0.1,3.3-0.8,4.4-4.3,4.4
			c-15.5-0.2-31-0.1-46.4,0c-2.5,0-4.5-0.1-3.7-3.5c15.1,0,30.3-0.1,45.4,0.1c3.9,0,4.9-1.2,4.9-5c-0.2-19.9-0.1-39.7-0.1-59.6
			c3.3-2.5,3.2-5,0-7.6c0-19.3,0-38.6,0-57.9c3.5-2.4,3-4.9,0-7.3v-58.1C1137.3,577.1,1137.2,574.7,1134,572.4z"/>
		<path class="st14" d="M333,775c0-20.2,0-40.4-0.2-60.6c0-3,0.8-4.2,4-4.2c17.7,0.2,35.3,0.2,53,0.2c0,19.7-0.1,39.4,0.1,59
			c0,4.2-1,5.7-5.5,5.6C367.2,774.8,350.1,775,333,775z"/>
		<path class="st14" d="M389.8,637.6c-18,1-36,0.2-54,0.4c-2.5,0-3-1.3-3-3.4c0-17.3,0.1-34.6,0-51.9c0-3.2,1.5-3.5,4-3.5
			c17.7,0.1,35.3,0.2,53,0.2C389.8,598.9,389.8,618.2,389.8,637.6z"/>
		<path class="st14" d="M389.7,702.9c-17.7,0-35.3,0-53,0.2c-3.1,0-4-1-4-4.1c0.1-16.7,0.1-33.5,0-50.2c0-3.1,1-4.1,4-4
			c17.7,0.2,35.3,0.2,53,0.2C389.8,664.3,389.7,683.6,389.7,702.9z"/>
		<path class="st14" d="M275.7,710.5c15.4-0.1,30.9-0.1,46.3-0.2c2.5,0,4.1,0.4,4.1,3.5c-0.2,20.1-0.3,40.3-0.4,60.4
			c-14.9,0-29.9-0.2-44.8,0c-4.1,0-5.3-1.2-5.2-5.3C275.9,749.4,275.8,729.9,275.7,710.5z"/>
		<path class="st14" d="M389.8,572.4c-17.8,0.1-35.6,0.1-53.5,0.3c-3.1,0-3.6-1.4-3.5-4c0.1-20.2,0.1-40.3,0.2-60.5
			c20.1,1.1,36.4,9,47.7,26.2C388.3,546,390.3,558.9,389.8,572.4z"/>
		<path class="st14" d="M275.7,579.5c15.5-0.1,31-0.1,46.5-0.3c3.2,0,4,1.3,3.9,4.2c-0.1,16.8-0.1,33.5,0,50.3
			c0,2.5-0.3,4.4-3.4,4.3c-15.7-0.3-31.3,0.6-47-0.5C275.7,618.2,275.7,598.9,275.7,579.5z"/>
		<path class="st14" d="M275.7,645c15.5-0.1,30.9-0.1,46.3-0.2c3.1,0,4.1,1,4.1,4.1c-0.1,16.7-0.1,33.4,0,50.2c0,3.1-1,4.1-4.1,4.1
			c-15.5-0.2-30.9-0.2-46.3-0.2C275.7,683.5,275.7,664.3,275.7,645z"/>
		<path class="st14" d="M325.8,509c0.1,20,0.2,40,0.3,60c0,2.5-0.8,3.6-3.5,3.5c-15.7-0.2-31.3-0.2-47-0.3c0-3.6,0.1-7.3,0.1-10.9
			C276.2,535.5,299.8,510.7,325.8,509z"/>
		<path class="st0" d="M389.8,572.4c0.5-13.5-1.5-26.4-9.2-38c-11.3-17.2-27.6-25.1-47.7-26.2c-0.9-4,1.8-3.5,4.2-3.4
			c24.6,0.3,48.4,20,54.7,45.3c1.3,5.5,2,11.1,2,16.8c0,68.7,0,137.4,0.1,206.1c0,4-0.6,5.7-5.3,5.7c-17.1-0.3-34.3-0.1-51.4-0.1
			c-2.3,0-5.1,0.6-4.2-3.4c17.1,0,34.3-0.2,51.4,0.1c4.5,0.1,5.5-1.4,5.5-5.6c-0.2-19.7-0.1-39.4-0.1-59c3.3-2.5,3.2-5,0-7.6
			c0-19.3,0-38.6,0-57.9c3.3-2.4,3.1-4.9,0-7.3c0-19.4,0-38.8,0-58.2C393.1,577.1,393,574.7,389.8,572.4z"/>
		<path class="st0" d="M325.8,509c-26,1.7-49.6,26.4-49.9,52.4c0,3.6-0.1,7.3-0.1,10.9c-3.4,2.4-3.4,4.8,0,7.2c0,19.3,0,38.7,0,58
			c-3.1,2.5-3.6,5,0,7.4c0,19.3,0,38.5,0,57.8c-3.4,2.5-3.4,5.1,0,7.6c0,19.5,0.1,39,0,58.4c0,4,1.1,5.3,5.2,5.3
			c14.9-0.2,29.9,0,44.8,0c0.9,3,0,4.3-3.3,4.2c-15.7-0.1-31.4-0.2-47,0c-5.1,0.1-3.8-3.2-3.8-5.8c0-62.7,0-125.4,0-188.1
			c0-11.6-1.3-23.4,2-34.8c7.1-24.5,23.4-39.1,48.3-44.5C325.3,504.5,326.8,505.3,325.8,509z"/>
		<rect x="490" y="579.3" class="st9" width="422" height="41"/>
	</g>
	<path class="st15" d="M711.4,66.3h-1.9V2.8c0-0.5,0.4-1,1-1l0,0c0.5,0,1,0.4,1,1L711.4,66.3L711.4,66.3z"/>
</g>
<g id="Layer_2_2_">
	<g id="Layer_4">
		<path class="st16" d="M756.9,482c-0.2,32.4-25.5,57.2-58.2,57.3H698c-32.3-0.2-57.3-25.7-57.1-58.3v-0.2c0-9.2,2.2-18.3,6.3-26.5
			c8.1-15.9,23.3-27,40.8-30c3.8-0.7,7.6-1,11.4-1c3.6,0,7.1,0.4,10.7,1c6.3,1.1,12.4,3.3,18,6.5c9.6,5.4,17.5,13.6,22.4,23.5
			C754.8,462.9,757,472.4,756.9,482z"/>
		<line class="st17" x1="648.8" y1="510" x2="748.4" y2="452.5"/>
		<line class="st17" x1="728.2" y1="530.1" x2="670.7" y2="430.5"/>
		<line class="st17" x1="670.7" y1="530.1" x2="728.2" y2="430.5"/>
		<line class="st17" x1="749.4" y1="508" x2="649.8" y2="450.5"/>
		<line class="st17" x1="640.5" y1="480.8" x2="755.5" y2="479.8"/>
		<line class="st17" x1="698.6" y1="539.8" x2="698.6" y2="424.8"/>
		<path class="st18" d="M697.8,440.6c22.3,0.1,39.3,17.4,39.1,39.9c-0.1,22.2-17.6,39.2-40.1,39c-22-0.2-39-17.5-38.9-39.7
			S675.4,440.5,697.8,440.6z"/>
		<line class="st17" x1="698.5" y1="479.8" x2="665.5" y2="445.8"/>
		<line class="st17" x1="727.5" y1="472.8" x2="698.1" y2="479.3"/>
	</g>
</g>
</svg>
