<?xml version="1.0" encoding="utf-8"?>
<!-- Generator: Adobe Illustrator 24.1.0, SVG Export Plug-In . SVG Version: 6.00 Build 0)  -->
<svg version="1.1" id="master-artboard" xmlns="http://www.w3.org/2000/svg" xmlns:xlink="http://www.w3.org/1999/xlink" x="0px"
	 y="0px" viewBox="0 0 1386.1 772.7" style="enable-background:new 0 0 1386.1 772.7;" xml:space="preserve">
<style type="text/css">
	.st0{fill:#D3E5EA;}
	.st1{clip-path:url(#SVGID_2_);}
	.st2{fill:none;stroke:#54484C;stroke-width:2.8843;stroke-miterlimit:28.8428;stroke-opacity:9.000000e-02;}
	.st3{fill:#9A7B40;}
	.st4{clip-path:url(#SVGID_4_);}
	.st5{fill:none;stroke:#54484C;stroke-width:2.8843;stroke-miterlimit:28.8428;stroke-opacity:0.1;}
	.st6{fill:#F4D5AE;}
	.st7{fill:none;stroke:#54484C;stroke-width:2.8843;stroke-miterlimit:28.8428;}
	.st8{fill:#54484C;stroke:#54484C;stroke-width:2.8843;stroke-linecap:round;stroke-linejoin:round;stroke-miterlimit:28.8428;}
	.st9{clip-path:url(#SVGID_6_);}
	.st10{fill:#D3E5EA;stroke:#54484C;stroke-width:2.8843;stroke-miterlimit:11.5371;stroke-opacity:0.1;}
	.st11{clip-path:url(#SVGID_8_);}
	.st12{fill:none;}
	.st13{fill:#9F7B34;}
	.st14{fill:#8D5E00;stroke:#54484C;stroke-width:2.8843;stroke-linecap:round;stroke-linejoin:round;stroke-miterlimit:28.8428;}
	.st15{fill:#F1E3CB;stroke:#54484C;stroke-width:0.7211;stroke-linecap:round;stroke-linejoin:round;stroke-miterlimit:28.8428;}
	.st16{fill:#F1E3CB;}
	.st17{fill:#D6E5EA;}
	.st18{fill:#78C8DC;}
	.st19{fill:#54484C;stroke:#54484C;}
	.st20{fill:#747474;}
</style>
<path class="st0" d="M967.4,225.9l-20.9-7.3v-17.2H691.9h-21.2H437.5v17.2l-20.9,7.3l-28.8,79.9v82.8h303.2h1.9h303.2v-82.8
	L967.4,225.9z M691.9,305.8v-0.4V305.8l0,3.8L691.9,305.8z"/>
<g transform="matrix(2.884279251098633, 0, 0, 2.884279251098633, -2436.509765625, -849.0443115234375)">
	<g>
		<defs>
			<polygon id="SVGID_1_" points="1084.3,400.4 1084.3,364.2 996.1,364.2 996.1,370.1 988.8,372.7 978.9,400.4 978.9,429.1 
				1084.7,429.1 			"/>
		</defs>
		<clipPath id="SVGID_2_">
			<use xlink:href="#SVGID_1_"  style="overflow:visible;"/>
		</clipPath>
		<g class="st1">
			<g>
				<g>
					<path class="st2" d="M965,373h11.9v4.8H965V373z"/>
					<path class="st2" d="M976.8,373h11.9v4.8h-11.9V373z"/>
					<path class="st2" d="M988.7,373h11.9v4.8h-11.9V373z"/>
					<path class="st2" d="M1000.6,373h11.9v4.8h-11.9V373z"/>
					<path class="st2" d="M1012.4,373h11.9v4.8h-11.9V373z"/>
					<path class="st2" d="M1024.3,373h11.9v4.8h-11.9V373z"/>
					<path class="st2" d="M1036.2,373h11.9v4.8h-11.9V373z"/>
					<path class="st2" d="M1048.1,373h11.9v4.8h-11.9V373z"/>
					<path class="st2" d="M1059.9,373h11.9v4.8h-11.9V373z"/>
					<path class="st2" d="M1071.8,373h11.9v4.8h-11.9V373z"/>
					<path class="st2" d="M1083.7,373h11.9v4.8h-11.9V373z"/>
				</g>
				<g>
					<path class="st2" d="M970.9,377.9h11.9v4.8h-11.9V377.9z"/>
					<path class="st2" d="M982.8,377.9h11.9v4.8h-11.9V377.9z"/>
					<path class="st2" d="M994.6,377.9h11.9v4.8h-11.9V377.9z"/>
					<path class="st2" d="M1006.5,377.9h11.9v4.8h-11.9V377.9z"/>
					<path class="st2" d="M1018.4,377.9h11.9v4.8h-11.9V377.9z"/>
					<path class="st2" d="M1030.3,377.9h11.9v4.8h-11.9V377.9z"/>
					<path class="st2" d="M1042.1,377.9h11.9v4.8h-11.9V377.9z"/>
					<path class="st2" d="M1054,377.9h11.9v4.8H1054V377.9z"/>
					<path class="st2" d="M1065.9,377.9h11.9v4.8h-11.9V377.9z"/>
					<path class="st2" d="M1077.7,377.9h11.9v4.8h-11.9V377.9z"/>
					<path class="st2" d="M1089.6,377.9h11.9v4.8h-11.9V377.9z"/>
				</g>
				<g>
					<path class="st2" d="M965,382.7h11.9v4.8H965V382.7z"/>
					<path class="st2" d="M976.8,382.7h11.9v4.8h-11.9V382.7z"/>
					<path class="st2" d="M988.7,382.7h11.9v4.8h-11.9V382.7z"/>
					<path class="st2" d="M1000.6,382.7h11.9v4.8h-11.9V382.7z"/>
					<path class="st2" d="M1012.4,382.7h11.9v4.8h-11.9V382.7z"/>
					<path class="st2" d="M1024.3,382.7h11.9v4.8h-11.9V382.7z"/>
					<path class="st2" d="M1036.2,382.7h11.9v4.8h-11.9V382.7z"/>
					<path class="st2" d="M1048.1,382.7h11.9v4.8h-11.9V382.7z"/>
					<path class="st2" d="M1059.9,382.7h11.9v4.8h-11.9V382.7z"/>
					<path class="st2" d="M1071.8,382.7h11.9v4.8h-11.9V382.7z"/>
					<path class="st2" d="M1083.7,382.7h11.9v4.8h-11.9V382.7z"/>
				</g>
				<g>
					<path class="st2" d="M970.9,387.5h11.9v4.8h-11.9V387.5z"/>
					<path class="st2" d="M982.8,387.5h11.9v4.8h-11.9V387.5z"/>
					<path class="st2" d="M994.6,387.5h11.9v4.8h-11.9V387.5z"/>
					<path class="st2" d="M1006.5,387.5h11.9v4.8h-11.9V387.5z"/>
					<path class="st2" d="M1018.4,387.5h11.9v4.8h-11.9V387.5z"/>
					<path class="st2" d="M1030.3,387.5h11.9v4.8h-11.9V387.5z"/>
					<path class="st2" d="M1042.1,387.5h11.9v4.8h-11.9V387.5z"/>
					<path class="st2" d="M1054,387.5h11.9v4.8H1054V387.5z"/>
					<path class="st2" d="M1065.9,387.5h11.9v4.8h-11.9V387.5z"/>
					<path class="st2" d="M1077.7,387.5h11.9v4.8h-11.9V387.5z"/>
					<path class="st2" d="M1089.6,387.5h11.9v4.8h-11.9V387.5z"/>
				</g>
				<g>
					<path class="st2" d="M965,392.3h11.9v4.8H965V392.3z"/>
					<path class="st2" d="M976.8,392.3h11.9v4.8h-11.9V392.3z"/>
					<path class="st2" d="M988.7,392.3h11.9v4.8h-11.9V392.3z"/>
					<path class="st2" d="M1000.6,392.3h11.9v4.8h-11.9V392.3z"/>
					<path class="st2" d="M1012.4,392.3h11.9v4.8h-11.9V392.3z"/>
					<path class="st2" d="M1024.3,392.3h11.9v4.8h-11.9V392.3z"/>
					<path class="st2" d="M1036.2,392.3h11.9v4.8h-11.9V392.3z"/>
					<path class="st2" d="M1048.1,392.3h11.9v4.8h-11.9V392.3z"/>
					<path class="st2" d="M1059.9,392.3h11.9v4.8h-11.9V392.3z"/>
					<path class="st2" d="M1071.8,392.3h11.9v4.8h-11.9V392.3z"/>
					<path class="st2" d="M1083.7,392.3h11.9v4.8h-11.9V392.3z"/>
				</g>
				<g>
					<path class="st2" d="M970.9,397.1h11.9v4.8h-11.9V397.1z"/>
					<path class="st2" d="M982.8,397.1h11.9v4.8h-11.9V397.1z"/>
					<path class="st2" d="M994.6,397.1h11.9v4.8h-11.9V397.1z"/>
					<path class="st2" d="M1006.5,397.1h11.9v4.8h-11.9V397.1z"/>
					<path class="st2" d="M1018.4,397.1h11.9v4.8h-11.9V397.1z"/>
					<path class="st2" d="M1030.3,397.1h11.9v4.8h-11.9V397.1z"/>
					<path class="st2" d="M1042.1,397.1h11.9v4.8h-11.9V397.1z"/>
					<path class="st2" d="M1054,397.1h11.9v4.8H1054V397.1z"/>
					<path class="st2" d="M1065.9,397.1h11.9v4.8h-11.9V397.1z"/>
					<path class="st2" d="M1077.7,397.1h11.9v4.8h-11.9V397.1z"/>
					<path class="st2" d="M1089.6,397.1h11.9v4.8h-11.9V397.1z"/>
				</g>
				<path class="st2" d="M965,373h134.8"/>
			</g>
			<g>
				<g>
					<path class="st2" d="M965,401.9h11.9v4.8H965V401.9z"/>
					<path class="st2" d="M976.8,401.9h11.9v4.8h-11.9V401.9z"/>
					<path class="st2" d="M988.7,401.9h11.9v4.8h-11.9V401.9z"/>
					<path class="st2" d="M1000.6,401.9h11.9v4.8h-11.9V401.9z"/>
					<path class="st2" d="M1012.4,401.9h11.9v4.8h-11.9V401.9z"/>
					<path class="st2" d="M1024.3,401.9h11.9v4.8h-11.9V401.9z"/>
					<path class="st2" d="M1036.2,401.9h11.9v4.8h-11.9V401.9z"/>
					<path class="st2" d="M1048.1,401.9h11.9v4.8h-11.9V401.9z"/>
					<path class="st2" d="M1059.9,401.9h11.9v4.8h-11.9V401.9z"/>
					<path class="st2" d="M1071.8,401.9h11.9v4.8h-11.9V401.9z"/>
					<path class="st2" d="M1083.7,401.9h11.9v4.8h-11.9V401.9z"/>
				</g>
				<g>
					<path class="st2" d="M970.9,406.7h11.9v4.8h-11.9V406.7z"/>
					<path class="st2" d="M982.8,406.7h11.9v4.8h-11.9V406.7z"/>
					<path class="st2" d="M994.6,406.7h11.9v4.8h-11.9V406.7z"/>
					<path class="st2" d="M1006.5,406.7h11.9v4.8h-11.9V406.7z"/>
					<path class="st2" d="M1018.4,406.7h11.9v4.8h-11.9V406.7z"/>
					<path class="st2" d="M1030.3,406.7h11.9v4.8h-11.9V406.7z"/>
					<path class="st2" d="M1042.1,406.7h11.9v4.8h-11.9V406.7z"/>
					<path class="st2" d="M1054,406.7h11.9v4.8H1054V406.7z"/>
					<path class="st2" d="M1065.9,406.7h11.9v4.8h-11.9V406.7z"/>
					<path class="st2" d="M1077.7,406.7h11.9v4.8h-11.9V406.7z"/>
					<path class="st2" d="M1089.6,406.7h11.9v4.8h-11.9V406.7z"/>
				</g>
				<g>
					<path class="st2" d="M965,411.5h11.9v4.8H965V411.5z"/>
					<path class="st2" d="M976.8,411.5h11.9v4.8h-11.9V411.5z"/>
					<path class="st2" d="M988.7,411.5h11.9v4.8h-11.9V411.5z"/>
					<path class="st2" d="M1000.6,411.5h11.9v4.8h-11.9V411.5z"/>
					<path class="st2" d="M1012.4,411.5h11.9v4.8h-11.9V411.5z"/>
					<path class="st2" d="M1024.3,411.5h11.9v4.8h-11.9V411.5z"/>
					<path class="st2" d="M1036.2,411.5h11.9v4.8h-11.9V411.5z"/>
					<path class="st2" d="M1048.1,411.5h11.9v4.8h-11.9V411.5z"/>
					<path class="st2" d="M1059.9,411.5h11.9v4.8h-11.9V411.5z"/>
					<path class="st2" d="M1071.8,411.5h11.9v4.8h-11.9V411.5z"/>
					<path class="st2" d="M1083.7,411.5h11.9v4.8h-11.9V411.5z"/>
				</g>
				<g>
					<path class="st2" d="M970.9,416.3h11.9v4.8h-11.9V416.3z"/>
					<path class="st2" d="M982.8,416.3h11.9v4.8h-11.9V416.3z"/>
					<path class="st2" d="M994.6,416.3h11.9v4.8h-11.9V416.3z"/>
					<path class="st2" d="M1006.5,416.3h11.9v4.8h-11.9V416.3z"/>
					<path class="st2" d="M1018.4,416.3h11.9v4.8h-11.9V416.3z"/>
					<path class="st2" d="M1030.3,416.3h11.9v4.8h-11.9V416.3z"/>
					<path class="st2" d="M1042.1,416.3h11.9v4.8h-11.9V416.3z"/>
					<path class="st2" d="M1054,416.3h11.9v4.8H1054V416.3z"/>
					<path class="st2" d="M1065.9,416.3h11.9v4.8h-11.9V416.3z"/>
					<path class="st2" d="M1077.7,416.3h11.9v4.8h-11.9V416.3z"/>
					<path class="st2" d="M1089.6,416.3h11.9v4.8h-11.9V416.3z"/>
				</g>
				<g>
					<path class="st2" d="M965,421.2h11.9v4.8H965V421.2z"/>
					<path class="st2" d="M976.8,421.2h11.9v4.8h-11.9V421.2z"/>
					<path class="st2" d="M988.7,421.2h11.9v4.8h-11.9V421.2z"/>
					<path class="st2" d="M1000.6,421.2h11.9v4.8h-11.9V421.2z"/>
					<path class="st2" d="M1012.4,421.2h11.9v4.8h-11.9V421.2z"/>
					<path class="st2" d="M1024.3,421.2h11.9v4.8h-11.9V421.2z"/>
					<path class="st2" d="M1036.2,421.2h11.9v4.8h-11.9V421.2z"/>
					<path class="st2" d="M1048.1,421.2h11.9v4.8h-11.9V421.2z"/>
					<path class="st2" d="M1059.9,421.2h11.9v4.8h-11.9V421.2z"/>
					<path class="st2" d="M1071.8,421.2h11.9v4.8h-11.9V421.2z"/>
					<path class="st2" d="M1083.7,421.2h11.9v4.8h-11.9V421.2z"/>
				</g>
				<g>
					<path class="st2" d="M970.9,426h11.9v4.8h-11.9V426z"/>
					<path class="st2" d="M982.8,426h11.9v4.8h-11.9V426z"/>
					<path class="st2" d="M994.6,426h11.9v4.8h-11.9V426z"/>
					<path class="st2" d="M1006.5,426h11.9v4.8h-11.9V426z"/>
					<path class="st2" d="M1018.4,426h11.9v4.8h-11.9V426z"/>
					<path class="st2" d="M1030.3,426h11.9v4.8h-11.9V426z"/>
					<path class="st2" d="M1042.1,426h11.9v4.8h-11.9V426z"/>
					<path class="st2" d="M1054,426h11.9v4.8H1054V426z"/>
					<path class="st2" d="M1065.9,426h11.9v4.8h-11.9V426z"/>
					<path class="st2" d="M1077.7,426h11.9v4.8h-11.9V426z"/>
					<path class="st2" d="M1089.6,426h11.9v4.8h-11.9V426z"/>
				</g>
				<path class="st2" d="M965,401.9h134.8"/>
			</g>
		</g>
	</g>
</g>
<path class="st3" d="M298.2,409.3l15.3-103.5h117.9l13.1,63v40.6H298.2z"/>
<g transform="matrix(2.884279251098633, 0, 0, 2.884279251098633, -2435.509765625, -849.0443115234374)">
	<g>
		<defs>
			<polygon id="SVGID_3_" points="947.8,436.3 953.1,400.4 994,400.4 998.5,422.2 998.5,436.3 			"/>
		</defs>
		<clipPath id="SVGID_4_">
			<use xlink:href="#SVGID_3_"  style="overflow:visible;"/>
		</clipPath>
		<g class="st4">
			<g>
				<g>
					<path class="st5" d="M951.4,396h11.9v4.7h-11.9V396z"/>
					<g>
						<path class="st5" d="M946.1,391.3h11.9v4.7h-11.9V391.3z"/>
						<path class="st5" d="M963.2,396h11.9v4.7h-11.9V396z"/>
						<path class="st5" d="M957.9,391.3h11.9v4.7h-11.9V391.3z"/>
					</g>
				</g>
				<g>
					<path class="st5" d="M951.4,405.5h11.9v4.7h-11.9V405.5z"/>
					<g>
						<path class="st5" d="M946.1,400.7h11.9v4.7h-11.9V400.7z"/>
						<path class="st5" d="M963.2,405.5h11.9v4.7h-11.9V405.5z"/>
						<path class="st5" d="M957.9,400.7h11.9v4.7h-11.9V400.7z"/>
					</g>
				</g>
				<g>
					<path class="st5" d="M951.4,414.9h11.9v4.7h-11.9V414.9z"/>
					<g>
						<path class="st5" d="M946.1,410.2h11.9v4.7h-11.9V410.2z"/>
						<path class="st5" d="M963.2,414.9h11.9v4.7h-11.9V414.9z"/>
						<path class="st5" d="M957.9,410.2h11.9v4.7h-11.9V410.2z"/>
					</g>
				</g>
				<g>
					<path class="st5" d="M951.4,424.4h11.9v4.7h-11.9V424.4z"/>
					<g>
						<path class="st5" d="M946.1,419.6h11.9v4.7h-11.9V419.6z"/>
						<path class="st5" d="M963.2,424.4h11.9v4.7h-11.9V424.4z"/>
						<path class="st5" d="M957.9,419.6h11.9v4.7h-11.9V419.6z"/>
					</g>
				</g>
				<g>
					<path class="st5" d="M951.4,433.8h11.9v4.7h-11.9V433.8z"/>
					<g>
						<path class="st5" d="M946.1,429.1h11.9v4.7h-11.9V429.1z"/>
						<path class="st5" d="M963.2,433.8h11.9v4.7h-11.9V433.8z"/>
						<path class="st5" d="M957.9,429.1h11.9v4.7h-11.9V429.1z"/>
					</g>
				</g>
				<g>
					<path class="st5" d="M951.4,443.3h11.9v4.7h-11.9V443.3z"/>
					<g>
						<path class="st5" d="M946.1,438.5h11.9v4.7h-11.9V438.5z"/>
						<path class="st5" d="M963.2,443.3h11.9v4.7h-11.9V443.3z"/>
						<path class="st5" d="M957.9,438.5h11.9v4.7h-11.9V438.5z"/>
					</g>
				</g>
				<g>
					<path class="st5" d="M951.4,452.7h11.9v4.4h-11.9V452.7z"/>
					<g>
						<path class="st5" d="M946.1,448h11.9v4.7h-11.9V448z"/>
						<path class="st5" d="M963.2,452.7h11.9v4.4h-11.9V452.7z"/>
						<path class="st5" d="M957.9,448h11.9v4.7h-11.9V448z"/>
					</g>
				</g>
			</g>
			<g>
				<g>
					<path class="st5" d="M975.1,396H987v4.7h-11.9V396z"/>
					<g>
						<path class="st5" d="M969.8,391.3h11.9v4.7h-11.9V391.3z"/>
						<path class="st5" d="M986.9,396h11.9v4.7h-11.9V396z"/>
						<path class="st5" d="M981.7,391.3h11.9v4.7h-11.9V391.3z"/>
					</g>
				</g>
				<g>
					<path class="st5" d="M975.1,405.5H987v4.7h-11.9V405.5z"/>
					<g>
						<path class="st5" d="M969.8,400.7h11.9v4.7h-11.9V400.7z"/>
						<path class="st5" d="M986.9,405.5h11.9v4.7h-11.9V405.5z"/>
						<path class="st5" d="M981.7,400.7h11.9v4.7h-11.9V400.7z"/>
					</g>
				</g>
				<g>
					<path class="st5" d="M975.1,414.9H987v4.7h-11.9V414.9z"/>
					<g>
						<path class="st5" d="M969.8,410.2h11.9v4.7h-11.9V410.2z"/>
						<path class="st5" d="M986.9,414.9h11.9v4.7h-11.9V414.9z"/>
						<path class="st5" d="M981.7,410.2h11.9v4.7h-11.9V410.2z"/>
					</g>
				</g>
				<g>
					<path class="st5" d="M975.1,424.4H987v4.7h-11.9V424.4z"/>
					<g>
						<path class="st5" d="M969.8,419.6h11.9v4.7h-11.9V419.6z"/>
						<path class="st5" d="M986.9,424.4h11.9v4.7h-11.9V424.4z"/>
						<path class="st5" d="M981.7,419.6h11.9v4.7h-11.9V419.6z"/>
					</g>
				</g>
				<g>
					<path class="st5" d="M975.1,433.8H987v4.7h-11.9V433.8z"/>
					<g>
						<path class="st5" d="M969.8,429.1h11.9v4.7h-11.9V429.1z"/>
						<path class="st5" d="M986.9,433.8h11.9v4.7h-11.9V433.8z"/>
						<path class="st5" d="M981.7,429.1h11.9v4.7h-11.9V429.1z"/>
					</g>
				</g>
				<g>
					<path class="st5" d="M975.1,443.3H987v4.7h-11.9V443.3z"/>
					<g>
						<path class="st5" d="M969.8,438.5h11.9v4.7h-11.9V438.5z"/>
						<path class="st5" d="M986.9,443.3h11.9v4.7h-11.9V443.3z"/>
						<path class="st5" d="M981.7,438.5h11.9v4.7h-11.9V438.5z"/>
					</g>
				</g>
				<g>
					<path class="st5" d="M975.1,452.7H987v4.4h-11.9V452.7z"/>
					<g>
						<path class="st5" d="M969.8,448h11.9v4.7h-11.9V448z"/>
						<path class="st5" d="M986.9,452.7h11.9v4.4h-11.9V452.7z"/>
						<path class="st5" d="M981.7,448h11.9v4.7h-11.9V448z"/>
					</g>
				</g>
			</g>
		</g>
	</g>
</g>
<path class="st6" d="M0,772.7v-83.3l30.2-13.4V656h219.4v-30.1h48.5V435.4h-13.3l-16.7-26.1h119.6v363.4H0z"/>
<path class="st3" d="M249.7,625.9h139.2V656H249.7V625.9z"/>
<g transform="matrix(2.884279251098633, 0, 0, 2.884279251098633, -2435.509765625, -849.0443115234374)">
	<path class="st5" d="M953.1,450.1H965v4.7h-11.9V450.1z"/>
	<g>
		<path class="st5" d="M947.8,445.3h11.9v4.7h-11.9V445.3z"/>
		<path class="st5" d="M964.9,450.1h11.9v4.7h-11.9V450.1z"/>
		<path class="st5" d="M959.7,445.3h11.9v4.7h-11.9V445.3z"/>
	</g>
</g>
<g transform="matrix(2.884279251098633, 0, 0, 2.884279251098633, -2435.509765625, -849.0443115234374)">
	<path class="st5" d="M953.1,459.5H965v4.7h-11.9V459.5z"/>
	<g>
		<path class="st5" d="M947.8,454.8h11.9v4.7h-11.9V454.8z"/>
		<path class="st5" d="M964.9,459.5h11.9v4.7h-11.9V459.5z"/>
		<path class="st5" d="M959.7,454.8h11.9v4.7h-11.9V454.8z"/>
	</g>
</g>
<g transform="matrix(2.884279251098633, 0, 0, 2.884279251098633, -2435.509765625, -849.0443115234374)">
	<path class="st5" d="M953.1,469H965v4.7h-11.9V469z"/>
	<g>
		<path class="st5" d="M947.8,464.2h11.9v4.7h-11.9V464.2z"/>
		<path class="st5" d="M964.9,469h11.9v4.7h-11.9V469z"/>
		<path class="st5" d="M959.7,464.2h11.9v4.7h-11.9V464.2z"/>
	</g>
</g>
<g transform="matrix(2.884279251098633, 0, 0, 2.884279251098633, -2435.509765625, -849.0443115234374)">
	<path class="st5" d="M953.1,478.4H965v4.7h-11.9V478.4z"/>
	<g>
		<path class="st5" d="M947.8,473.7h11.9v4.7h-11.9V473.7z"/>
		<path class="st5" d="M964.9,478.4h11.9v4.7h-11.9V478.4z"/>
		<path class="st5" d="M959.7,473.7h11.9v4.7h-11.9V473.7z"/>
	</g>
</g>
<g transform="matrix(2.884279251098633, 0, 0, 2.884279251098633, -2435.509765625, -849.0443115234374)">
	<path class="st5" d="M953.1,487.9H965v4.7h-11.9V487.9z"/>
	<g>
		<path class="st5" d="M947.8,483.1h11.9v4.7h-11.9V483.1z"/>
		<path class="st5" d="M964.9,487.9h11.9v4.7h-11.9V487.9z"/>
		<path class="st5" d="M959.7,483.1h11.9v4.7h-11.9V483.1z"/>
	</g>
</g>
<g transform="matrix(2.884279251098633, 0, 0, 2.884279251098633, -2435.509765625, -849.0443115234374)">
	<path class="st5" d="M953.1,497.3H965v4.7h-11.9V497.3z"/>
	<g>
		<path class="st5" d="M947.8,492.6h11.9v4.7h-11.9V492.6z"/>
		<path class="st5" d="M964.9,497.3h11.9v4.7h-11.9V497.3z"/>
		<path class="st5" d="M959.7,492.6h11.9v4.7h-11.9V492.6z"/>
	</g>
</g>
<g transform="matrix(2.884279251098633, 0, 0, 2.884279251098633, -2435.509765625, -849.0443115234374)">
	<path class="st5" d="M953.1,506.8H965v4.4h-11.9V506.8z"/>
	<g>
		<path class="st5" d="M947.8,502h11.9v4.7h-11.9V502z"/>
		<path class="st5" d="M964.9,506.8h11.9v4.4h-11.9V506.8z"/>
		<path class="st5" d="M959.7,502h11.9v4.7h-11.9V502z"/>
	</g>
</g>
<g transform="matrix(2.884279251098633, 0, 0, 2.884279251098633, -2435.509765625, -849.0443115234374)">
	<path class="st5" d="M844.4,533.4h11.9v4.8h-11.9V533.4z"/>
	<path class="st5" d="M856.3,533.4h11.9v4.8h-11.9V533.4z"/>
	<path class="st5" d="M868.1,533.4H880v4.8h-11.9V533.4z"/>
	<path class="st5" d="M880,533.4h11.9v4.8H880V533.4z"/>
	<path class="st5" d="M891.9,533.4h11.9v4.8h-11.9V533.4z"/>
	<path class="st5" d="M903.8,533.4h11.9v4.8h-11.9V533.4z"/>
	<path class="st5" d="M915.6,533.4h11.9v4.8h-11.9V533.4z"/>
	<path class="st5" d="M927.5,533.4h11.9v4.8h-11.9V533.4z"/>
	<path class="st5" d="M939.4,533.4h11.9v4.8h-11.9V533.4z"/>
	<path class="st5" d="M951.2,533.4h11.9v4.8h-11.9V533.4z"/>
	<path class="st5" d="M963.1,533.4H975v4.8h-11.9V533.4z"/>
</g>
<g transform="matrix(2.884279251098633, 0, 0, 2.884279251098633, -2435.509765625, -849.0443115234374)">
	<path class="st5" d="M850.3,538.2h11.9v4.8h-11.9V538.2z"/>
	<path class="st5" d="M862.2,538.2h11.9v4.8h-11.9V538.2z"/>
	<path class="st5" d="M874.1,538.2H886v4.8h-11.9V538.2z"/>
	<path class="st5" d="M886,538.2h11.9v4.8H886V538.2z"/>
	<path class="st5" d="M897.8,538.2h11.9v4.8h-11.9V538.2z"/>
	<path class="st5" d="M909.7,538.2h11.9v4.8h-11.9V538.2z"/>
	<path class="st5" d="M921.6,538.2h11.9v4.8h-11.9V538.2z"/>
	<path class="st5" d="M933.4,538.2h11.9v4.8h-11.9V538.2z"/>
	<path class="st5" d="M945.3,538.2h11.9v4.8h-11.9V538.2z"/>
	<path class="st5" d="M957.2,538.2H969v4.8h-11.9V538.2z"/>
	<path class="st5" d="M969,538.2h11.9v4.8H969V538.2z"/>
</g>
<g transform="matrix(2.884279251098633, 0, 0, 2.884279251098633, -2435.509765625, -849.0443115234374)">
	<path class="st5" d="M844.4,543h11.9v4.8h-11.9V543z"/>
	<path class="st5" d="M856.3,543h11.9v4.8h-11.9V543z"/>
	<path class="st5" d="M868.1,543H880v4.8h-11.9V543z"/>
	<path class="st5" d="M880,543h11.9v4.8H880V543z"/>
	<path class="st5" d="M891.9,543h11.9v4.8h-11.9V543z"/>
	<path class="st5" d="M903.8,543h11.9v4.8h-11.9V543z"/>
	<path class="st5" d="M915.6,543h11.9v4.8h-11.9V543z"/>
	<path class="st5" d="M927.5,543h11.9v4.8h-11.9V543z"/>
	<path class="st5" d="M939.4,543h11.9v4.8h-11.9V543z"/>
	<path class="st5" d="M951.2,543h11.9v4.8h-11.9V543z"/>
	<path class="st5" d="M963.1,543H975v4.8h-11.9V543z"/>
</g>
<g transform="matrix(2.884279251098633, 0, 0, 2.884279251098633, -2435.509765625, -849.0443115234374)">
	<path class="st5" d="M844.4,552.7h11.9v4.8h-11.9V552.7z"/>
	<path class="st5" d="M856.3,552.7h11.9v4.8h-11.9V552.7z"/>
	<path class="st5" d="M868.1,552.7H880v4.8h-11.9V552.7z"/>
	<path class="st5" d="M880,552.7h11.9v4.8H880V552.7z"/>
	<path class="st5" d="M891.9,552.7h11.9v4.8h-11.9V552.7z"/>
	<path class="st5" d="M903.8,552.7h11.9v4.8h-11.9V552.7z"/>
	<path class="st5" d="M915.6,552.7h11.9v4.8h-11.9V552.7z"/>
	<path class="st5" d="M927.5,552.7h11.9v4.8h-11.9V552.7z"/>
	<path class="st5" d="M939.4,552.7h11.9v4.8h-11.9V552.7z"/>
	<path class="st5" d="M951.2,552.7h11.9v4.8h-11.9V552.7z"/>
	<path class="st5" d="M963.1,552.7H975v4.8h-11.9V552.7z"/>
</g>
<g transform="matrix(2.884279251098633, 0, 0, 2.884279251098633, -2435.509765625, -849.0443115234374)">
	<path class="st5" d="M850.3,557.5h11.9v4.8h-11.9V557.5z"/>
	<path class="st5" d="M862.2,557.5h11.9v4.8h-11.9V557.5z"/>
	<path class="st5" d="M874.1,557.5H886v4.8h-11.9V557.5z"/>
	<path class="st5" d="M886,557.5h11.9v4.8H886V557.5z"/>
	<path class="st5" d="M897.8,557.5h11.9v4.8h-11.9V557.5z"/>
	<path class="st5" d="M909.7,557.5h11.9v4.8h-11.9V557.5z"/>
	<path class="st5" d="M921.6,557.5h11.9v4.8h-11.9V557.5z"/>
	<path class="st5" d="M933.4,557.5h11.9v4.8h-11.9V557.5z"/>
	<path class="st5" d="M945.3,557.5h11.9v4.8h-11.9V557.5z"/>
	<path class="st5" d="M957.2,557.5H969v4.8h-11.9V557.5z"/>
	<path class="st5" d="M969,557.5h11.9v4.8H969V557.5z"/>
</g>
<path class="st7" d="M30.2,676.1h367.1"/>
<path class="st3" d="M284.8,435.4h13.3h89.7v-26.1H268.2L284.8,435.4z"/>
<path class="st8" d="M269.1,410v2.6l5.7,4.5h2.7l1.5,5.3h6.5h3.2v-5.3h5.8v5.3h6.8v-5.3h5.7v5.3h6.8v-5.3h5.8v5.3h6.8v-5.3h5.7v5.3
	h6.8v-5.3h5.8v5.3h6.8v-5.3h5.8v5.3h6.8v-5.3h5.8v5.3h6.8v-5.3h5.8v5.3h6.8v-5.3h5.8v5.3h6.8v-5.3h5.8v5.3h6.8v-5.3h5.8v5.3h6.8
	v-5.3h5.8v5.3h6.8v-5.3h5.8v5.3h6.8v-5.3h5.8v5.3h6.8v-5.3h5.8v5.3h6.8v-5.3h5.8v5.3h6.8V410H269.1z"/>
<g transform="matrix(2.884279251098633, 0, 0, 2.884279251098633, -2436.091552734375, -849.0443115234375)">
	<g>
		<defs>
			<polygon id="SVGID_5_" points="1081.4,400.4 1081.4,364.2 1172.6,364.2 1172.6,370.1 1179.8,372.7 1189.8,400.4 1189.8,429.1 
				1084,429.1 			"/>
		</defs>
		<clipPath id="SVGID_6_">
			<use xlink:href="#SVGID_5_"  style="overflow:visible;"/>
		</clipPath>
		<g class="st9">
			<g>
				<g>
					<path class="st5" d="M1190.5,373h11.9v4.8h-11.9V373z"/>
					<path class="st5" d="M1178.6,373h11.9v4.8h-11.9V373z"/>
					<path class="st5" d="M1166.7,373h11.9v4.8h-11.9V373z"/>
					<path class="st5" d="M1154.9,373h11.9v4.8h-11.9V373z"/>
					<path class="st5" d="M1143,373h11.9v4.8H1143V373z"/>
					<path class="st5" d="M1131.1,373h11.9v4.8h-11.9V373z"/>
					<path class="st5" d="M1119.3,373h11.9v4.8h-11.9V373z"/>
					<path class="st5" d="M1107.4,373h11.9v4.8h-11.9V373z"/>
					<path class="st5" d="M1095.5,373h11.9v4.8h-11.9V373z"/>
					<path class="st5" d="M1083.7,373h11.9v4.8h-11.9V373z"/>
					<path class="st5" d="M1071.8,373h11.9v4.8h-11.9V373z"/>
				</g>
				<g>
					<path class="st5" d="M1184.5,377.9h11.9v4.8h-11.9V377.9z"/>
					<path class="st5" d="M1172.7,377.9h11.9v4.8h-11.9V377.9z"/>
					<path class="st5" d="M1160.8,377.9h11.9v4.8h-11.9V377.9z"/>
					<path class="st5" d="M1148.9,377.9h11.9v4.8h-11.9V377.9z"/>
					<path class="st5" d="M1137.1,377.9h11.9v4.8h-11.9V377.9z"/>
					<path class="st5" d="M1125.2,377.9h11.9v4.8h-11.9V377.9z"/>
					<path class="st5" d="M1113.3,377.9h11.9v4.8h-11.9V377.9z"/>
					<path class="st5" d="M1101.5,377.9h11.9v4.8h-11.9V377.9z"/>
					<path class="st5" d="M1089.6,377.9h11.9v4.8h-11.9V377.9z"/>
					<path class="st5" d="M1077.7,377.9h11.9v4.8h-11.9V377.9z"/>
					<path class="st5" d="M1065.9,377.9h11.9v4.8h-11.9V377.9z"/>
				</g>
				<g>
					<path class="st5" d="M1190.5,382.7h11.9v4.8h-11.9V382.7z"/>
					<path class="st5" d="M1178.6,382.7h11.9v4.8h-11.9V382.7z"/>
					<path class="st5" d="M1166.7,382.7h11.9v4.8h-11.9V382.7z"/>
					<path class="st5" d="M1154.9,382.7h11.9v4.8h-11.9V382.7z"/>
					<path class="st5" d="M1143,382.7h11.9v4.8H1143V382.7z"/>
					<path class="st5" d="M1131.1,382.7h11.9v4.8h-11.9V382.7z"/>
					<path class="st5" d="M1119.3,382.7h11.9v4.8h-11.9V382.7z"/>
					<path class="st5" d="M1107.4,382.7h11.9v4.8h-11.9V382.7z"/>
					<path class="st5" d="M1095.5,382.7h11.9v4.8h-11.9V382.7z"/>
					<path class="st5" d="M1083.7,382.7h11.9v4.8h-11.9V382.7z"/>
					<path class="st5" d="M1071.8,382.7h11.9v4.8h-11.9V382.7z"/>
				</g>
				<g>
					<path class="st5" d="M1184.5,387.5h11.9v4.8h-11.9V387.5z"/>
					<path class="st5" d="M1172.7,387.5h11.9v4.8h-11.9V387.5z"/>
					<path class="st5" d="M1160.8,387.5h11.9v4.8h-11.9V387.5z"/>
					<path class="st5" d="M1148.9,387.5h11.9v4.8h-11.9V387.5z"/>
					<path class="st5" d="M1137.1,387.5h11.9v4.8h-11.9V387.5z"/>
					<path class="st5" d="M1125.2,387.5h11.9v4.8h-11.9V387.5z"/>
					<path class="st5" d="M1113.3,387.5h11.9v4.8h-11.9V387.5z"/>
					<path class="st5" d="M1101.5,387.5h11.9v4.8h-11.9V387.5z"/>
					<path class="st5" d="M1089.6,387.5h11.9v4.8h-11.9V387.5z"/>
					<path class="st5" d="M1077.7,387.5h11.9v4.8h-11.9V387.5z"/>
					<path class="st5" d="M1065.9,387.5h11.9v4.8h-11.9V387.5z"/>
				</g>
				<g>
					<path class="st5" d="M1190.5,392.3h11.9v4.8h-11.9V392.3z"/>
					<path class="st5" d="M1178.6,392.3h11.9v4.8h-11.9V392.3z"/>
					<path class="st5" d="M1166.7,392.3h11.9v4.8h-11.9V392.3z"/>
					<path class="st5" d="M1154.9,392.3h11.9v4.8h-11.9V392.3z"/>
					<path class="st5" d="M1143,392.3h11.9v4.8H1143V392.3z"/>
					<path class="st5" d="M1131.1,392.3h11.9v4.8h-11.9V392.3z"/>
					<path class="st5" d="M1119.3,392.3h11.9v4.8h-11.9V392.3z"/>
					<path class="st5" d="M1107.4,392.3h11.9v4.8h-11.9V392.3z"/>
					<path class="st5" d="M1095.5,392.3h11.9v4.8h-11.9V392.3z"/>
					<path class="st5" d="M1083.7,392.3h11.9v4.8h-11.9V392.3z"/>
					<path class="st5" d="M1071.8,392.3h11.9v4.8h-11.9V392.3z"/>
				</g>
				<g>
					<path class="st5" d="M1184.5,397.1h11.9v4.8h-11.9V397.1z"/>
					<path class="st5" d="M1172.7,397.1h11.9v4.8h-11.9V397.1z"/>
					<path class="st5" d="M1160.8,397.1h11.9v4.8h-11.9V397.1z"/>
					<path class="st5" d="M1148.9,397.1h11.9v4.8h-11.9V397.1z"/>
					<path class="st5" d="M1137.1,397.1h11.9v4.8h-11.9V397.1z"/>
					<path class="st5" d="M1125.2,397.1h11.9v4.8h-11.9V397.1z"/>
					<path class="st5" d="M1113.3,397.1h11.9v4.8h-11.9V397.1z"/>
					<path class="st5" d="M1101.5,397.1h11.9v4.8h-11.9V397.1z"/>
					<path class="st5" d="M1089.6,397.1h11.9v4.8h-11.9V397.1z"/>
					<path class="st5" d="M1077.7,397.1h11.9v4.8h-11.9V397.1z"/>
					<path class="st5" d="M1065.9,397.1h11.9v4.8h-11.9V397.1z"/>
				</g>
				<path class="st5" d="M1202.3,373h-134.8"/>
				<path class="st10" d="M1116.3,392.2L1116.3,392.2"/>
				<path class="st10" d="M1153.7,386.3L1153.7,386.3"/>
			</g>
			<g>
				<g>
					<path class="st5" d="M1190.5,401.9h11.9v4.8h-11.9V401.9z"/>
					<path class="st5" d="M1178.6,401.9h11.9v4.8h-11.9V401.9z"/>
					<path class="st5" d="M1166.7,401.9h11.9v4.8h-11.9V401.9z"/>
					<path class="st5" d="M1154.9,401.9h11.9v4.8h-11.9V401.9z"/>
					<path class="st5" d="M1143,401.9h11.9v4.8H1143V401.9z"/>
					<path class="st5" d="M1131.1,401.9h11.9v4.8h-11.9V401.9z"/>
					<path class="st5" d="M1119.3,401.9h11.9v4.8h-11.9V401.9z"/>
					<path class="st5" d="M1107.4,401.9h11.9v4.8h-11.9V401.9z"/>
					<path class="st5" d="M1095.5,401.9h11.9v4.8h-11.9V401.9z"/>
					<path class="st5" d="M1083.7,401.9h11.9v4.8h-11.9V401.9z"/>
					<path class="st5" d="M1071.8,401.9h11.9v4.8h-11.9V401.9z"/>
				</g>
				<g>
					<path class="st5" d="M1184.5,406.7h11.9v4.8h-11.9V406.7z"/>
					<path class="st5" d="M1172.7,406.7h11.9v4.8h-11.9V406.7z"/>
					<path class="st5" d="M1160.8,406.7h11.9v4.8h-11.9V406.7z"/>
					<path class="st5" d="M1148.9,406.7h11.9v4.8h-11.9V406.7z"/>
					<path class="st5" d="M1137.1,406.7h11.9v4.8h-11.9V406.7z"/>
					<path class="st5" d="M1125.2,406.7h11.9v4.8h-11.9V406.7z"/>
					<path class="st5" d="M1113.3,406.7h11.9v4.8h-11.9V406.7z"/>
					<path class="st5" d="M1101.5,406.7h11.9v4.8h-11.9V406.7z"/>
					<path class="st5" d="M1089.6,406.7h11.9v4.8h-11.9V406.7z"/>
					<path class="st5" d="M1077.7,406.7h11.9v4.8h-11.9V406.7z"/>
					<path class="st5" d="M1065.9,406.7h11.9v4.8h-11.9V406.7z"/>
				</g>
				<g>
					<path class="st5" d="M1190.5,411.5h11.9v4.8h-11.9V411.5z"/>
					<path class="st5" d="M1178.6,411.5h11.9v4.8h-11.9V411.5z"/>
					<path class="st5" d="M1166.7,411.5h11.9v4.8h-11.9V411.5z"/>
					<path class="st5" d="M1154.9,411.5h11.9v4.8h-11.9V411.5z"/>
					<path class="st5" d="M1143,411.5h11.9v4.8H1143V411.5z"/>
					<path class="st5" d="M1131.1,411.5h11.9v4.8h-11.9V411.5z"/>
					<path class="st5" d="M1119.3,411.5h11.9v4.8h-11.9V411.5z"/>
					<path class="st5" d="M1107.4,411.5h11.9v4.8h-11.9V411.5z"/>
					<path class="st5" d="M1095.5,411.5h11.9v4.8h-11.9V411.5z"/>
					<path class="st5" d="M1083.7,411.5h11.9v4.8h-11.9V411.5z"/>
					<path class="st5" d="M1071.8,411.5h11.9v4.8h-11.9V411.5z"/>
				</g>
				<g>
					<path class="st5" d="M1184.5,416.3h11.9v4.8h-11.9V416.3z"/>
					<path class="st5" d="M1172.7,416.3h11.9v4.8h-11.9V416.3z"/>
					<path class="st5" d="M1160.8,416.3h11.9v4.8h-11.9V416.3z"/>
					<path class="st5" d="M1148.9,416.3h11.9v4.8h-11.9V416.3z"/>
					<path class="st5" d="M1137.1,416.3h11.9v4.8h-11.9V416.3z"/>
					<path class="st5" d="M1125.2,416.3h11.9v4.8h-11.9V416.3z"/>
					<path class="st5" d="M1113.3,416.3h11.9v4.8h-11.9V416.3z"/>
					<path class="st5" d="M1101.5,416.3h11.9v4.8h-11.9V416.3z"/>
					<path class="st5" d="M1089.6,416.3h11.9v4.8h-11.9V416.3z"/>
					<path class="st5" d="M1077.7,416.3h11.9v4.8h-11.9V416.3z"/>
					<path class="st5" d="M1065.9,416.3h11.9v4.8h-11.9V416.3z"/>
				</g>
				<g>
					<path class="st5" d="M1190.5,421.2h11.9v4.8h-11.9V421.2z"/>
					<path class="st5" d="M1178.6,421.2h11.9v4.8h-11.9V421.2z"/>
					<path class="st5" d="M1166.7,421.2h11.9v4.8h-11.9V421.2z"/>
					<path class="st5" d="M1154.9,421.2h11.9v4.8h-11.9V421.2z"/>
					<path class="st5" d="M1143,421.2h11.9v4.8H1143V421.2z"/>
					<path class="st5" d="M1131.1,421.2h11.9v4.8h-11.9V421.2z"/>
					<path class="st5" d="M1119.3,421.2h11.9v4.8h-11.9V421.2z"/>
					<path class="st5" d="M1107.4,421.2h11.9v4.8h-11.9V421.2z"/>
					<path class="st5" d="M1095.5,421.2h11.9v4.8h-11.9V421.2z"/>
					<path class="st5" d="M1083.7,421.2h11.9v4.8h-11.9V421.2z"/>
					<path class="st5" d="M1071.8,421.2h11.9v4.8h-11.9V421.2z"/>
				</g>
				<g>
					<path class="st5" d="M1184.5,426h11.9v4.8h-11.9V426z"/>
					<path class="st5" d="M1172.7,426h11.9v4.8h-11.9V426z"/>
					<path class="st5" d="M1160.8,426h11.9v4.8h-11.9V426z"/>
					<path class="st5" d="M1148.9,426h11.9v4.8h-11.9V426z"/>
					<path class="st5" d="M1137.1,426h11.9v4.8h-11.9V426z"/>
					<path class="st5" d="M1125.2,426h11.9v4.8h-11.9V426z"/>
					<path class="st5" d="M1113.3,426h11.9v4.8h-11.9V426z"/>
					<path class="st5" d="M1101.5,426h11.9v4.8h-11.9V426z"/>
					<path class="st5" d="M1089.6,426h11.9v4.8h-11.9V426z"/>
					<path class="st5" d="M1077.7,426h11.9v4.8h-11.9V426z"/>
					<path class="st5" d="M1065.9,426h11.9v4.8h-11.9V426z"/>
				</g>
				<path class="st5" d="M1202.3,401.9h-134.8"/>
			</g>
		</g>
	</g>
</g>
<path class="st3" d="M1085.8,409.3l-15.3-103.5H952.6l-13.1,63v40.6H1085.8z"/>
<g transform="matrix(2.884279251098633, 0, 0, 2.884279251098633, -2435.509765625, -849.0443115234374)">
	<g>
		<defs>
			<polygon id="SVGID_7_" points="1220.9,436.3 1215.6,400.4 1174.7,400.4 1170.2,422.2 1170.2,436.3 			"/>
		</defs>
		<clipPath id="SVGID_8_">
			<use xlink:href="#SVGID_7_"  style="overflow:visible;"/>
		</clipPath>
		<g class="st11">
			<g>
				<g>
					<path class="st5" d="M1205.4,396h11.9v4.7h-11.9V396z"/>
					<g>
						<path class="st5" d="M1210.7,391.3h11.9v4.7h-11.9V391.3z"/>
						<path class="st5" d="M1193.6,396h11.9v4.7h-11.9V396z"/>
						<path class="st5" d="M1198.8,391.3h11.9v4.7h-11.9V391.3z"/>
					</g>
				</g>
				<g>
					<path class="st5" d="M1205.4,405.5h11.9v4.7h-11.9V405.5z"/>
					<g>
						<path class="st5" d="M1210.7,400.7h11.9v4.7h-11.9V400.7z"/>
						<path class="st5" d="M1193.6,405.5h11.9v4.7h-11.9V405.5z"/>
						<path class="st5" d="M1198.8,400.7h11.9v4.7h-11.9V400.7z"/>
					</g>
				</g>
				<g>
					<path class="st5" d="M1205.4,414.9h11.9v4.7h-11.9V414.9z"/>
					<g>
						<path class="st5" d="M1210.7,410.2h11.9v4.7h-11.9V410.2z"/>
						<path class="st5" d="M1193.6,414.9h11.9v4.7h-11.9V414.9z"/>
						<path class="st5" d="M1198.8,410.2h11.9v4.7h-11.9V410.2z"/>
					</g>
				</g>
				<g>
					<path class="st5" d="M1205.4,424.4h11.9v4.7h-11.9V424.4z"/>
					<g>
						<path class="st5" d="M1210.7,419.6h11.9v4.7h-11.9V419.6z"/>
						<path class="st5" d="M1193.6,424.4h11.9v4.7h-11.9V424.4z"/>
						<path class="st5" d="M1198.8,419.6h11.9v4.7h-11.9V419.6z"/>
					</g>
				</g>
				<g>
					<path class="st5" d="M1205.4,433.8h11.9v4.7h-11.9V433.8z"/>
					<g>
						<path class="st5" d="M1210.7,429.1h11.9v4.7h-11.9V429.1z"/>
						<path class="st5" d="M1193.6,433.8h11.9v4.7h-11.9V433.8z"/>
						<path class="st5" d="M1198.8,429.1h11.9v4.7h-11.9V429.1z"/>
					</g>
				</g>
				<g>
					<path class="st5" d="M1205.4,443.3h11.9v4.7h-11.9V443.3z"/>
					<g>
						<path class="st5" d="M1210.7,438.5h11.9v4.7h-11.9V438.5z"/>
						<path class="st5" d="M1193.6,443.3h11.9v4.7h-11.9V443.3z"/>
						<path class="st5" d="M1198.8,438.5h11.9v4.7h-11.9V438.5z"/>
					</g>
				</g>
				<g>
					<path class="st5" d="M1205.4,452.7h11.9v4.4h-11.9V452.7z"/>
					<g>
						<path class="st5" d="M1210.7,448h11.9v4.7h-11.9V448z"/>
						<path class="st5" d="M1193.6,452.7h11.9v4.4h-11.9V452.7z"/>
						<path class="st5" d="M1198.8,448h11.9v4.7h-11.9V448z"/>
					</g>
				</g>
			</g>
			<g>
				<g>
					<path class="st5" d="M1181.7,396h11.9v4.7h-11.9V396z"/>
					<g>
						<path class="st5" d="M1187,391.3h11.9v4.7H1187V391.3z"/>
						<path class="st5" d="M1169.8,396h11.9v4.7h-11.9V396z"/>
						<path class="st5" d="M1175.1,391.3h11.9v4.7h-11.9V391.3z"/>
					</g>
				</g>
				<g>
					<path class="st5" d="M1181.7,405.5h11.9v4.7h-11.9V405.5z"/>
					<g>
						<path class="st5" d="M1187,400.7h11.9v4.7H1187V400.7z"/>
						<path class="st5" d="M1169.8,405.5h11.9v4.7h-11.9V405.5z"/>
						<path class="st5" d="M1175.1,400.7h11.9v4.7h-11.9V400.7z"/>
					</g>
				</g>
				<g>
					<path class="st5" d="M1181.7,414.9h11.9v4.7h-11.9V414.9z"/>
					<g>
						<path class="st5" d="M1187,410.2h11.9v4.7H1187V410.2z"/>
						<path class="st5" d="M1169.8,414.9h11.9v4.7h-11.9V414.9z"/>
						<path class="st5" d="M1175.1,410.2h11.9v4.7h-11.9V410.2z"/>
					</g>
				</g>
				<g>
					<path class="st5" d="M1181.7,424.4h11.9v4.7h-11.9V424.4z"/>
					<g>
						<path class="st5" d="M1187,419.6h11.9v4.7H1187V419.6z"/>
						<path class="st5" d="M1169.8,424.4h11.9v4.7h-11.9V424.4z"/>
						<path class="st5" d="M1175.1,419.6h11.9v4.7h-11.9V419.6z"/>
					</g>
				</g>
				<g>
					<path class="st5" d="M1181.7,433.8h11.9v4.7h-11.9V433.8z"/>
					<g>
						<path class="st5" d="M1187,429.1h11.9v4.7H1187V429.1z"/>
						<path class="st5" d="M1169.8,433.8h11.9v4.7h-11.9V433.8z"/>
						<path class="st5" d="M1175.1,429.1h11.9v4.7h-11.9V429.1z"/>
					</g>
				</g>
				<g>
					<path class="st5" d="M1181.7,443.3h11.9v4.7h-11.9V443.3z"/>
					<g>
						<path class="st5" d="M1187,438.5h11.9v4.7H1187V438.5z"/>
						<path class="st5" d="M1169.8,443.3h11.9v4.7h-11.9V443.3z"/>
						<path class="st5" d="M1175.1,438.5h11.9v4.7h-11.9V438.5z"/>
					</g>
				</g>
				<g>
					<path class="st5" d="M1181.7,452.7h11.9v4.4h-11.9V452.7z"/>
					<g>
						<path class="st5" d="M1187,448h11.9v4.7H1187V448z"/>
						<path class="st5" d="M1169.8,452.7h11.9v4.4h-11.9V452.7z"/>
						<path class="st5" d="M1175.1,448h11.9v4.7h-11.9V448z"/>
					</g>
				</g>
			</g>
		</g>
	</g>
</g>
<path class="st6" d="M1384,772.7v-83.3l-30.2-13.4V656h-219.4v-30.1h-48.5V435.4h13.3l16.7-26.1H996.2v363.4H1384z"/>
<path class="st3" d="M995.1,625.9h139.2V656H995.1V625.9z"/>
<g transform="matrix(2.884279251098633, 0, 0, 2.884279251098633, -2435.509765625, -849.0443115234374)">
	<path class="st5" d="M1203.7,450.1h11.9v4.7h-11.9V450.1z"/>
	<g>
		<path class="st5" d="M1209,445.3h11.9v4.7H1209V445.3z"/>
		<path class="st5" d="M1191.9,450.1h11.9v4.7h-11.9V450.1z"/>
		<path class="st5" d="M1197.1,445.3h11.9v4.7h-11.9V445.3z"/>
	</g>
</g>
<g transform="matrix(2.884279251098633, 0, 0, 2.884279251098633, -2435.509765625, -849.0443115234374)">
	<path class="st5" d="M1203.7,459.5h11.9v4.7h-11.9V459.5z"/>
	<g>
		<path class="st5" d="M1209,454.8h11.9v4.7H1209V454.8z"/>
		<path class="st5" d="M1191.9,459.5h11.9v4.7h-11.9V459.5z"/>
		<path class="st5" d="M1197.1,454.8h11.9v4.7h-11.9V454.8z"/>
	</g>
</g>
<g transform="matrix(2.884279251098633, 0, 0, 2.884279251098633, -2435.509765625, -849.0443115234374)">
	<path class="st5" d="M1203.7,469h11.9v4.7h-11.9V469z"/>
	<g>
		<path class="st5" d="M1209,464.2h11.9v4.7H1209V464.2z"/>
		<path class="st5" d="M1191.9,469h11.9v4.7h-11.9V469z"/>
		<path class="st5" d="M1197.1,464.2h11.9v4.7h-11.9V464.2z"/>
	</g>
</g>
<g transform="matrix(2.884279251098633, 0, 0, 2.884279251098633, -2435.509765625, -849.0443115234374)">
	<path class="st5" d="M1203.7,478.4h11.9v4.7h-11.9V478.4z"/>
	<g>
		<path class="st5" d="M1209,473.7h11.9v4.7H1209V473.7z"/>
		<path class="st5" d="M1191.9,478.4h11.9v4.7h-11.9V478.4z"/>
		<path class="st5" d="M1197.1,473.7h11.9v4.7h-11.9V473.7z"/>
	</g>
</g>
<g transform="matrix(2.884279251098633, 0, 0, 2.884279251098633, -2435.509765625, -849.0443115234374)">
	<path class="st5" d="M1203.7,497.3h11.9v4.7h-11.9V497.3z"/>
	<g>
		<path class="st5" d="M1209,492.6h11.9v4.7H1209V492.6z"/>
		<path class="st5" d="M1191.9,497.3h11.9v4.7h-11.9V497.3z"/>
		<path class="st5" d="M1197.1,492.6h11.9v4.7h-11.9V492.6z"/>
	</g>
</g>
<g transform="matrix(2.884279251098633, 0, 0, 2.884279251098633, -2435.509765625, -849.0443115234374)">
	<path class="st5" d="M1203.7,506.8h11.9v4.4h-11.9V506.8z"/>
	<g>
		<path class="st5" d="M1209,502h11.9v4.7H1209V502z"/>
		<path class="st5" d="M1191.9,506.8h11.9v4.4h-11.9V506.8z"/>
		<path class="st5" d="M1197.1,502h11.9v4.7h-11.9V502z"/>
	</g>
</g>
<g transform="matrix(2.884279251098633, 0, 0, 2.884279251098633, -2435.509765625, -849.0443115234374)">
	<path class="st5" d="M1312.4,533.4h11.9v4.8h-11.9V533.4z"/>
	<path class="st5" d="M1300.5,533.4h11.9v4.8h-11.9V533.4z"/>
	<path class="st5" d="M1288.6,533.4h11.9v4.8h-11.9V533.4z"/>
	<path class="st5" d="M1276.8,533.4h11.9v4.8h-11.9V533.4z"/>
	<path class="st5" d="M1264.9,533.4h11.9v4.8h-11.9V533.4z"/>
	<path class="st5" d="M1253,533.4h11.9v4.8H1253V533.4z"/>
	<path class="st5" d="M1241.2,533.4h11.9v4.8h-11.9V533.4z"/>
	<path class="st5" d="M1229.3,533.4h11.9v4.8h-11.9V533.4z"/>
	<path class="st5" d="M1217.4,533.4h11.9v4.8h-11.9V533.4z"/>
	<path class="st5" d="M1205.6,533.4h11.9v4.8h-11.9V533.4z"/>
	<path class="st5" d="M1193.7,533.4h11.9v4.8h-11.9V533.4z"/>
</g>
<g transform="matrix(2.884279251098633, 0, 0, 2.884279251098633, -2435.509765625, -849.0443115234374)">
	<path class="st5" d="M1306.4,538.2h11.9v4.8h-11.9V538.2z"/>
	<path class="st5" d="M1294.6,538.2h11.9v4.8h-11.9V538.2z"/>
	<path class="st5" d="M1282.7,538.2h11.9v4.8h-11.9V538.2z"/>
	<path class="st5" d="M1270.8,538.2h11.9v4.8h-11.9V538.2z"/>
	<path class="st5" d="M1259,538.2h11.9v4.8H1259V538.2z"/>
	<path class="st5" d="M1247.1,538.2h11.9v4.8h-11.9V538.2z"/>
	<path class="st5" d="M1235.2,538.2h11.9v4.8h-11.9V538.2z"/>
	<path class="st5" d="M1223.4,538.2h11.9v4.8h-11.9V538.2z"/>
	<path class="st5" d="M1211.5,538.2h11.9v4.8h-11.9V538.2z"/>
	<path class="st5" d="M1199.6,538.2h11.9v4.8h-11.9V538.2z"/>
	<path class="st5" d="M1187.8,538.2h11.9v4.8h-11.9V538.2z"/>
</g>
<g transform="matrix(2.884279251098633, 0, 0, 2.884279251098633, -2435.509765625, -849.0443115234374)">
	<path class="st5" d="M1312.4,543h11.9v4.8h-11.9V543z"/>
	<path class="st5" d="M1300.5,543h11.9v4.8h-11.9V543z"/>
	<path class="st5" d="M1288.6,543h11.9v4.8h-11.9V543z"/>
	<path class="st5" d="M1276.8,543h11.9v4.8h-11.9V543z"/>
	<path class="st5" d="M1264.9,543h11.9v4.8h-11.9V543z"/>
	<path class="st5" d="M1253,543h11.9v4.8H1253V543z"/>
	<path class="st5" d="M1241.2,543h11.9v4.8h-11.9V543z"/>
	<path class="st5" d="M1229.3,543h11.9v4.8h-11.9V543z"/>
	<path class="st5" d="M1217.4,543h11.9v4.8h-11.9V543z"/>
	<path class="st5" d="M1205.6,543h11.9v4.8h-11.9V543z"/>
	<path class="st5" d="M1193.7,543h11.9v4.8h-11.9V543z"/>
</g>
<g transform="matrix(2.884279251098633, 0, 0, 2.884279251098633, -2435.509765625, -849.0443115234374)">
	<path class="st5" d="M1312.4,552.7h11.9v4.8h-11.9V552.7z"/>
	<path class="st5" d="M1300.5,552.7h11.9v4.8h-11.9V552.7z"/>
	<path class="st5" d="M1288.6,552.7h11.9v4.8h-11.9V552.7z"/>
	<path class="st5" d="M1276.8,552.7h11.9v4.8h-11.9V552.7z"/>
	<path class="st5" d="M1264.9,552.7h11.9v4.8h-11.9V552.7z"/>
	<path class="st5" d="M1253,552.7h11.9v4.8H1253V552.7z"/>
	<path class="st5" d="M1241.2,552.7h11.9v4.8h-11.9V552.7z"/>
	<path class="st5" d="M1229.3,552.7h11.9v4.8h-11.9V552.7z"/>
	<path class="st5" d="M1217.4,552.7h11.9v4.8h-11.9V552.7z"/>
	<path class="st5" d="M1205.6,552.7h11.9v4.8h-11.9V552.7z"/>
	<path class="st5" d="M1193.7,552.7h11.9v4.8h-11.9V552.7z"/>
</g>
<g transform="matrix(2.884279251098633, 0, 0, 2.884279251098633, -2435.509765625, -849.0443115234374)">
	<path class="st5" d="M1306.4,557.5h11.9v4.8h-11.9V557.5z"/>
	<path class="st5" d="M1294.6,557.5h11.9v4.8h-11.9V557.5z"/>
	<path class="st5" d="M1282.7,557.5h11.9v4.8h-11.9V557.5z"/>
	<path class="st5" d="M1270.8,557.5h11.9v4.8h-11.9V557.5z"/>
	<path class="st5" d="M1259,557.5h11.9v4.8H1259V557.5z"/>
	<path class="st5" d="M1247.1,557.5h11.9v4.8h-11.9V557.5z"/>
	<path class="st5" d="M1235.2,557.5h11.9v4.8h-11.9V557.5z"/>
	<path class="st5" d="M1223.4,557.5h11.9v4.8h-11.9V557.5z"/>
	<path class="st5" d="M1211.5,557.5h11.9v4.8h-11.9V557.5z"/>
	<path class="st5" d="M1199.6,557.5h11.9v4.8h-11.9V557.5z"/>
	<path class="st5" d="M1187.8,557.5h11.9v4.8h-11.9V557.5z"/>
</g>
<path class="st12" d="M1384,689.5H995.1"/>
<path class="st7" d="M1353.8,676.1H986.7"/>
<path class="st3" d="M1099.1,435.4h-13.3h-89.7v-26.1h119.6L1099.1,435.4z"/>
<path class="st8" d="M1114.8,410v2.6l-5.7,4.5h-2.7l-1.5,5.3h-6.5h-3.2v-5.3h-5.8v5.3h-6.8v-5.3h-5.8v5.3h-6.8v-5.3h-5.8v5.3h-6.8
	v-5.3h-5.8v5.3h-6.8v-5.3h-5.8v5.3h-6.8v-5.3h-5.8v5.3h-6.8v-5.3h-5.8v5.3h-6.8v-5.3h-5.8v5.3h-6.8v-5.3H989v5.3h-6.8v-5.3h-5.8v5.3
	h-6.8v-5.3h-5.7v5.3h-6.8v-5.3h-5.8v5.3h-6.8v-5.3h-5.8v5.3h-6.8v-5.3h-5.8v5.3h-6.8v-5.3h-5.8v5.3h-6.8v-5.3H901v5.3h-6.8V410
	H1114.8z"/>
<path class="st6" d="M691.9,201.3h-12.2H437.5v15.9h242.2h12.2h254.6v-15.9H691.9z"/>
<path class="st8" d="M691.9,175.4h-16.5H470.8v25.9h204.6h16.5h221.2v-25.9H691.9z"/>
<path class="st13" d="M691.9,165.7H680H485.4v9.7H680h11.9h206.6v-9.7H691.9z"/>
<path class="st13" d="M691.9,155.9h-9.8H493.9v9.7h188.3h9.8h198.2v-9.7H691.9z"/>
<path class="st13" d="M691.9,146.2h-7.6h-182v9.7h182h7.6h189.7v-9.7H691.9z"/>
<path class="st13" d="M691.9,136.4h-8.4H510.8v9.7h172.8h8.4h181.3v-9.7H691.9z"/>
<path class="st13" d="M691.9,126.7h-7.6H519.2v9.7h165.1h7.6h172.8v-9.7H691.9z"/>
<path class="st13" d="M691.9,116.9h-8.4h-156v9.7h156h8.4h164.4v-9.7H691.9z"/>
<path class="st13" d="M691.9,107.2h-8.4H536.1v9.7h147.5h8.4h156v-9.7H691.9z"/>
<path class="st13" d="M691.9,97.4h-8.4H544.5v9.7h139.1h8.4h147.5v-9.7H691.9z"/>
<path class="st13" d="M691.9,87.7h-7.6H552.9v9.7h131.4h7.6H831v-9.7H691.9z"/>
<path class="st13" d="M697.3,78H692H561.4v9.7H692h5.8h124.8V78H697.3z"/>
<path class="st13" d="M691.9,68.2h-16.2H569.8V78h105.9h16.2h122.2v-9.7H691.9z"/>
<path class="st13" d="M691.9,58.5h-16.2h-97.5v9.7h97.5h16.2h113.8v-9.7H691.9z"/>
<path class="st13" d="M691.9,48.7h-33.4h-71.9v9.7h71.9h33.4h105.4v-9.7H691.9z"/>
<path class="st13" d="M691.9,39h-22h-74.8v9.7h74.8h22h96.9V39H691.9z"/>
<path class="st13" d="M691.9,29.2h-11.1h-77.3V39h77.3h11.1h88.5v-9.7H691.9z"/>
<path class="st13" d="M691.9,19.5H680h-68v9.7h68h11.9h80v-9.7H691.9z"/>
<path class="st13" d="M691.9,9.7H680h-59.6v9.7H680h11.9h71.6V9.7H691.9z"/>
<path class="st13" d="M691.9,0h-10h-53v9.7h53h10h63.2V0H691.9z"/>
<g transform="matrix(2.884279251098633, 0, 0, 2.884279251098633, -2435.509765625, -849.0443115234374)">
	<path class="st5" d="M850.3,547.8h11.9v4.8h-11.9V547.8z"/>
	<path class="st5" d="M862.2,547.8h11.9v4.8h-11.9V547.8z"/>
	<path class="st5" d="M874.1,547.8H886v4.8h-11.9V547.8z"/>
	<path class="st5" d="M886,547.8h11.9v4.8H886V547.8z"/>
	<path class="st5" d="M897.8,547.8h11.9v4.8h-11.9V547.8z"/>
	<path class="st5" d="M909.7,547.8h11.9v4.8h-11.9V547.8z"/>
	<path class="st5" d="M921.6,547.8h11.9v4.8h-11.9V547.8z"/>
	<path class="st5" d="M933.4,547.8h11.9v4.8h-11.9V547.8z"/>
	<path class="st5" d="M945.3,547.8h11.9v4.8h-11.9V547.8z"/>
	<path class="st5" d="M957.2,547.8H969v4.8h-11.9V547.8z"/>
	<path class="st5" d="M969,547.8h11.9v4.8H969V547.8z"/>
</g>
<path class="st14" d="M381.8,397.5h624.6v310.3H381.8V397.5z"/>
<path class="st15" d="M497,474.7c4.5,3.4,14,2.1,13.9-7.4c0-9.8-9.3-10.4-9.3-10.4s-0.2-0.9,1.3-1c1.5-0.1,1.9-0.9,1.9-0.9V453
	h-23.3h-23.3v1.9c0,0,0.3,0.8,1.9,0.9c1.5,0.1,1.3,1,1.3,1s-9.3,0.6-9.3,10.4c0,9.5,9.4,10.8,13.9,7.4c0,0,0,0,0,0
	c-0.1-0.2-0.1-0.5,0.1-0.6c0.1-0.1,3.2-2.4,2.8-6.6c-0.2-2.6-1.9-4.7-4.4-5.5c-2.2-0.8-4.6-0.2-6.1,1.5c-2.2,2.5-1.5,5-1.1,6
	c0.7,1.7,2.1,2.9,3.5,2.9c1.5,0.1,2.9-0.5,3.7-1.5c0.7-0.9,1-2.1,0.7-3.4c-0.3-1.6-1.9-2.5-3.3-2.5c0,0,0,0,0,0
	c-1.3,0-2.2,0.7-2.4,1.8c-0.3,1.2,0,2.2,0.9,2.6c0.8,0.4,1.7,0.3,2.1-0.1c0.5-0.6,0.6-1.3,0.4-1.7c-0.1-0.2-0.3-0.5-0.7-0.5
	c-0.3,0-0.5,0.1-0.6,0.2c-0.1,0.1-0.1,0.3-0.1,0.3c0,0.2-0.2,0.4-0.4,0.4c0,0,0,0,0,0c-0.2,0-0.4-0.2-0.4-0.4c0-0.1,0-0.5,0.4-0.9
	c0.3-0.3,0.7-0.5,1.3-0.4c0.6,0,1.2,0.4,1.4,1.1c0.3,0.9,0.1,1.9-0.6,2.7c-0.7,0.7-2,0.8-3.1,0.2c-0.5-0.3-1.8-1.3-1.3-3.6
	c0.3-1.6,1.6-2.5,3.3-2.5c1.7,0,3.7,1.1,4.1,3.2c0.3,1.6,0,3-0.9,4.1c-1,1.2-2.6,1.8-4.3,1.8c-1.7-0.1-3.4-1.4-4.2-3.4
	c-1-2.4-0.5-4.9,1.2-6.9c1.7-2,4.4-2.6,7-1.8c2.8,0.9,4.7,3.3,5,6.3c0.4,4.8-3,7.3-3.1,7.4c-0.1,0.1-0.2,0.1-0.2,0.1l0,0v214h-3.8
	v1.2c0,0,1.5,1,0.4,2.1l-2.4,0.1v1.3c0,0-1.5,0.4-1.6,2c-0.1,1.6,1.4,2,1.4,2h-1.8v10.3h23.1h23.1v-10.3h-1.8c0,0,1.5-0.4,1.4-2
	c-0.1-1.6-1.6-2-1.6-2v-1.3l-2.4-0.1c-1.2-1.1,0.4-2.1,0.4-2.1v-1.2h-3.7v-214l0,0c-0.1,0-0.2,0-0.2-0.1c-0.1-0.1-3.6-2.6-3.1-7.4
	c0.3-2.9,2.2-5.3,4.9-6.3c2.6-0.9,5.2-0.2,7,1.8c1.7,2,2.2,4.6,1.2,6.9c-0.8,2-2.5,3.4-4.2,3.4c-1.8,0.1-3.4-0.6-4.3-1.8
	c-0.9-1.1-1.2-2.6-0.9-4.1c0.4-2.1,2.4-3.2,4.1-3.2c1.7,0,2.9,0.9,3.3,2.5c0.5,2.3-0.7,3.3-1.3,3.6c-1,0.6-2.4,0.5-3.1-0.2
	c-0.7-0.7-0.9-1.8-0.6-2.7c0.3-0.6,0.8-1,1.4-1.1c0.5,0,1,0.1,1.3,0.4c0.4,0.4,0.4,0.9,0.4,0.9c0,0.2-0.2,0.4-0.4,0.4l0,0
	c-0.2,0-0.4-0.2-0.4-0.4c0,0,0-0.2-0.1-0.3c-0.1-0.1-0.3-0.2-0.6-0.2c-0.4,0-0.6,0.3-0.7,0.5c-0.2,0.4-0.1,1.2,0.4,1.7
	c0.4,0.4,1.3,0.5,2.1,0.1c0.8-0.5,1.1-1.4,0.9-2.6c-0.2-1.1-1.1-1.8-2.4-1.8c0,0,0,0,0,0c-1.3,0-3,0.9-3.3,2.5
	c-0.3,1.3,0,2.5,0.7,3.4c0.8,1,2.1,1.5,3.7,1.5c1.4,0,2.8-1.2,3.5-2.9c0.4-1,1.1-3.5-1.1-6c-1.5-1.7-3.8-2.3-6.1-1.5
	c-2.5,0.8-4.1,3-4.4,5.5c-0.4,4.3,2.7,6.5,2.8,6.6C497.1,474.2,497.2,474.4,497,474.7C497,474.6,497,474.6,497,474.7z M500.5,455.1
	v0.8h0.2v-0.8h1.3c0,0-1.1,1-1.3,1.8h-0.2h-0.2c-0.2-0.8-1.3-1.8-1.3-1.8H500.5z M497.3,455.1v0.8h0.2v-0.8h1.3c0,0-1.1,1-1.3,1.8
	h-0.2h-0.2c-0.2-0.8-1.3-1.8-1.3-1.8H497.3z M494.1,455.1v0.8h0.2v-0.8h1.3c0,0-1.1,1-1.3,1.8h-0.2h-0.2c-0.2-0.8-1.3-1.8-1.3-1.8
	H494.1z M490.9,455.1v0.8h0.2v-0.8h1.3c0,0-1.1,1-1.3,1.8h-0.2h-0.2c-0.2-0.8-1.3-1.8-1.3-1.8H490.9z M487.7,455.1v0.8h0.2v-0.8h1.3
	c0,0-1.1,1-1.3,1.8h-0.2h-0.2c-0.2-0.8-1.3-1.8-1.3-1.8H487.7z M484.6,455.1v0.8h0.2v-0.8h1.3c0,0-1.1,1-1.3,1.8h-0.2h-0.2
	c-0.2-0.8-1.3-1.8-1.3-1.8H484.6z M481.4,455.1v0.8h0.2v-0.8h1.3c0,0-1.1,1-1.3,1.8h-0.2h-0.2c-0.2-0.8-1.3-1.8-1.3-1.8H481.4z
	 M478.2,455.1v0.8h0.2v-0.8h1.3c0,0-1.1,1-1.3,1.8h-0.2h-0.2c-0.2-0.8-1.3-1.8-1.3-1.8H478.2z M475,455.1v0.8h0.2v-0.8h1.3
	c0,0-1.1,1-1.3,1.8h-0.2h-0.2c-0.2-0.8-1.3-1.8-1.3-1.8H475z M471.8,455.1v0.8h0.2v-0.8h1.3c0,0-1.1,1-1.3,1.8h-0.2h-0.2
	c-0.2-0.8-1.3-1.8-1.3-1.8H471.8z M468.6,455.1v0.8h0.2v-0.8h1.3c0,0-1.1,1-1.3,1.8h-0.2h-0.2c-0.2-0.8-1.3-1.8-1.3-1.8H468.6z
	 M465.4,455.1v0.8h0.2v-0.8h1.3c0,0-1.1,1-1.3,1.8h-0.2h-0.2c-0.2-0.8-1.3-1.8-1.3-1.8H465.4z M460.6,455.1h1.3v0.8h0.2v-0.8h1.3
	c0,0-1.1,1-1.3,1.8h-0.2h-0.2C461.7,456,460.6,455.1,460.6,455.1z M469.2,462.2h2.2c0,0,0.9,2.4,1.5,3.2c0.6,0.9,0.7,2.4-0.4,2
	C471.4,466.9,470,465.5,469.2,462.2z M491.4,468.5c0.5,0,0.9,0.4,0.9,0.9c0,0.5-0.4,0.9-0.9,0.9h-20c-0.5,0-0.9-0.4-0.9-0.9
	c0-0.5,0.4-0.9,0.9-0.9H491.4z M474.3,462.2c0,0,0.5-0.4,1.2-0.4c0.7,0,1.6,2.3,2,3c0.5,0.7,0.5,2.4-0.3,2.5c-0.8,0.1-2.5-1.5-3-2.9
	C473.7,463,474,462.4,474.3,462.2z M479.5,461.9h3.7c0,0-0.1,4.5-1.9,5.4C481.4,467.3,479.7,466.4,479.5,461.9z M485,464.8
	c0.5-0.7,1.3-3,2-3c0.7,0,1.2,0.4,1.2,0.4c0.4,0.2,0.7,0.8,0.2,2.2c-0.5,1.4-2.2,3-3,2.9C484.5,467.2,484.5,465.5,485,464.8z
	 M489.6,474.5v211.9c0,0.6-0.5,1.1-1,1.1c-0.6,0-1-0.5-1-1.1V474.5c0-0.6,0.5-1.1,1-1.1C489.1,473.4,489.6,473.9,489.6,474.5z
	 M484.9,474.5v211.9c0,0.6-0.5,1.1-1.1,1.1c-0.6,0-1-0.5-1-1.1V474.5c0-0.6,0.5-1.1,1-1.1C484.4,473.4,484.9,473.9,484.9,474.5z
	 M480.1,474.5v211.9c0,0.6-0.5,1.1-1,1.1c-0.6,0-1-0.5-1-1.1V474.5c0-0.6,0.5-1.1,1-1.1C479.6,473.4,480.1,473.9,480.1,474.5z
	 M475.4,474.5v211.9c0,0.6-0.5,1.1-1,1.1c-0.6,0-1-0.5-1-1.1V474.5c0-0.6,0.5-1.1,1-1.1C474.9,473.4,475.4,473.9,475.4,474.5z
	 M468.5,474.5c0-0.6,0.5-1.1,1-1.1c0.6,0,1,0.5,1,1.1v211.9c0,0.6-0.5,1.1-1,1.1c-0.6,0-1-0.5-1-1.1V474.5z M499.9,694
	c0.5,0,0.9,0.4,0.9,1s-0.4,1-0.9,1h-36.8c-0.5,0-1-0.4-1-1s0.4-1,1-1H499.9z M498.2,689.3c0.3,0,0.5,0.2,0.5,0.5
	c0,0.3-0.2,0.5-0.5,0.5h-34c-0.3,0-0.4-0.2-0.4-0.5c0-0.3,0.2-0.5,0.4-0.5H498.2z M493.3,473.4c0.6,0,1,0.5,1,1.1v211.9
	c0,0.6-0.5,1.1-1,1.1c-0.6,0-1-0.5-1-1.1V474.5C492.2,473.9,492.7,473.4,493.3,473.4z M490,467.4c-1.1,0.4-1-1.1-0.4-2
	c0.6-0.9,1.5-3.2,1.5-3.2h2.2C492.5,465.5,491.1,466.9,490,467.4z M495,470.8c-0.9-2.6-0.4-5.7,1.2-7c2.7-2.4,5.9-1.2,6-1.2
	c0.2,0.1,0.3,0.3,0.2,0.6c-0.1,0.2-0.3,0.3-0.5,0.3c0,0-2.9-1-5.2,1c-1.1,1-1.8,3.6-0.9,6.1c0.5,1.4,1.9,3.9,5.8,4
	c3.8,0.2,5.5-2.2,6.2-3.7c1.4-2.9,1-6.8-1-9.1c-2.7-3.2-7.8-3.1-12.3-3c-1.3,0-2.5,0.1-3.6,0h-9.5H472c-1.1,0.1-2.3,0-3.6,0
	c-4.5-0.1-9.5-0.3-12.3,3c-1.9,2.3-2.3,6.2-1,9.1c0.7,1.4,2.4,3.9,6.2,3.7c3.9-0.2,5.3-2.6,5.8-4c0.8-2.5,0.2-5.1-0.9-6.1
	c-2.3-2.1-5.2-1-5.2-1c-0.2,0.1-0.5,0-0.5-0.3c-0.1-0.2,0-0.5,0.3-0.6c0.1,0,3.4-1.2,6,1.2c1.5,1.4,2.1,4.5,1.2,7
	c-0.6,1.6-2.2,4.4-6.6,4.6c-0.1,0-0.3,0-0.4,0c-2.9,0-5.3-1.5-6.6-4.2c-1.5-3.3-1.1-7.5,1.1-10c3-3.5,8.5-3.4,12.9-3.3
	c1.3,0,2.5,0.1,3.6,0c0,0,0,0,0,0h9.5h9.5c0,0,0,0,0,0c1.1,0.1,2.3,0,3.6,0c4.4-0.1,9.9-0.3,12.9,3.3c2.1,2.5,2.6,6.8,1.1,10
	c-1.3,2.7-3.6,4.2-6.6,4.2c-0.1,0-0.2,0-0.4,0C497.1,475.2,495.5,472.5,495,470.8z"/>
<path class="st15" d="M582.5,474.7c4.5,3.4,14,2.1,13.9-7.4c-0.1-9.8-9.3-10.4-9.3-10.4s-0.2-0.9,1.3-1c1.5-0.1,1.9-0.9,1.9-0.9V453
	h-23.3h-23.3v1.9c0,0,0.3,0.8,1.9,0.9c1.5,0.1,1.3,1,1.3,1s-9.3,0.6-9.3,10.4c0,9.5,9.4,10.8,13.9,7.4c0,0,0,0,0,0
	c-0.1-0.2-0.1-0.5,0.1-0.6c0.1-0.1,3.2-2.4,2.8-6.6c-0.2-2.6-1.9-4.7-4.4-5.5c-2.2-0.8-4.6-0.2-6.1,1.5c-2.2,2.5-1.5,5-1.1,6
	c0.7,1.7,2.1,2.9,3.5,2.9c1.5,0.1,2.9-0.5,3.7-1.5c0.7-0.9,1-2.1,0.7-3.4c-0.3-1.6-1.9-2.5-3.3-2.5c0,0,0,0,0,0
	c-1.3,0-2.2,0.7-2.4,1.8c-0.3,1.2,0,2.2,0.9,2.6c0.8,0.4,1.7,0.3,2.1-0.1c0.5-0.6,0.6-1.3,0.4-1.7c-0.1-0.2-0.3-0.5-0.7-0.5
	c-0.3,0-0.5,0.1-0.6,0.2c-0.1,0.1-0.1,0.3-0.1,0.3c0,0.2-0.2,0.4-0.4,0.4c0,0,0,0,0,0c-0.2,0-0.4-0.2-0.4-0.4c0-0.1,0-0.5,0.4-0.9
	c0.3-0.3,0.7-0.5,1.3-0.4c0.6,0,1.2,0.4,1.4,1.1c0.3,0.9,0.1,1.9-0.6,2.7c-0.7,0.7-2,0.8-3.1,0.2c-0.5-0.3-1.8-1.3-1.3-3.6
	c0.3-1.6,1.6-2.5,3.3-2.5c1.7,0,3.7,1.1,4.1,3.2c0.3,1.6,0,3-0.9,4.1c-1,1.2-2.6,1.8-4.3,1.8c-1.7-0.1-3.4-1.4-4.2-3.4
	c-1-2.4-0.5-4.9,1.2-6.9c1.7-2,4.4-2.6,7-1.8c2.8,0.9,4.7,3.3,5,6.3c0.4,4.8-3,7.3-3.2,7.4c-0.1,0.1-0.2,0.1-0.2,0.1l0,0v214h-3.8
	v1.2c0,0,1.5,1,0.4,2.1l-2.4,0.1v1.3c0,0-1.5,0.4-1.6,2c-0.1,1.6,1.4,2,1.4,2h-1.8v10.3h23.1H590v-10.3h-1.8c0,0,1.5-0.4,1.4-2
	c-0.1-1.6-1.6-2-1.6-2v-1.3l-2.4-0.1c-1.2-1.1,0.4-2.1,0.4-2.1v-1.2h-3.7v-214l0,0c-0.1,0-0.2,0-0.2-0.1c-0.1-0.1-3.6-2.6-3.1-7.4
	c0.3-2.9,2.2-5.3,4.9-6.3c2.6-0.9,5.2-0.2,7,1.8c1.7,2,2.2,4.6,1.2,6.9c-0.8,2-2.5,3.4-4.2,3.4c-1.8,0.1-3.4-0.6-4.3-1.8
	c-0.9-1.1-1.2-2.6-0.9-4.1c0.4-2.1,2.4-3.2,4.1-3.2c1.7,0,2.9,0.9,3.3,2.5c0.5,2.3-0.7,3.3-1.3,3.6c-1,0.6-2.4,0.5-3.1-0.2
	c-0.7-0.7-1-1.8-0.6-2.7c0.3-0.6,0.8-1,1.4-1.1c0.5,0,1,0.1,1.3,0.4c0.4,0.4,0.4,0.9,0.4,0.9c0,0.2-0.2,0.4-0.4,0.4l0,0
	c-0.2,0-0.4-0.2-0.4-0.4c0,0,0-0.2-0.1-0.3c-0.1-0.1-0.3-0.2-0.6-0.2c-0.4,0-0.6,0.3-0.7,0.5c-0.2,0.4-0.1,1.2,0.4,1.7
	c0.4,0.4,1.3,0.5,2.1,0.1c0.8-0.5,1.1-1.4,0.9-2.6c-0.3-1.1-1.1-1.8-2.4-1.8c0,0,0,0,0,0c-1.3,0-3,0.9-3.3,2.5
	c-0.3,1.3,0,2.5,0.7,3.4c0.8,1,2.1,1.5,3.7,1.5c1.4,0,2.7-1.2,3.5-2.9c0.4-1,1.1-3.5-1.1-6c-1.5-1.7-3.8-2.3-6.1-1.5
	c-2.5,0.8-4.1,3-4.4,5.5c-0.4,4.3,2.7,6.5,2.8,6.6C582.6,474.2,582.6,474.4,582.5,474.7C582.5,474.6,582.5,474.6,582.5,474.7z
	 M586,455.1v0.8h0.2v-0.8h1.3c0,0-1.1,1-1.3,1.8h-0.2h-0.2c-0.2-0.8-1.3-1.8-1.3-1.8H586z M582.8,455.1v0.8h0.2v-0.8h1.3
	c0,0-1.1,1-1.3,1.8h-0.2h-0.2c-0.2-0.8-1.3-1.8-1.3-1.8H582.8z M579.6,455.1v0.8h0.2v-0.8h1.3c0,0-1.1,1-1.3,1.8h-0.2h-0.2
	c-0.2-0.8-1.3-1.8-1.3-1.8H579.6z M576.4,455.1v0.8h0.2v-0.8h1.3c0,0-1.1,1-1.3,1.8h-0.2h-0.2c-0.2-0.8-1.3-1.8-1.3-1.8H576.4z
	 M573.2,455.1v0.8h0.2v-0.8h1.3c0,0-1.1,1-1.3,1.8h-0.2h-0.2c-0.2-0.8-1.3-1.8-1.3-1.8H573.2z M570,455.1v0.8h0.2v-0.8h1.3
	c0,0-1.1,1-1.3,1.8h-0.2H570c-0.2-0.8-1.3-1.8-1.3-1.8H570z M566.8,455.1v0.8h0.2v-0.8h1.3c0,0-1.1,1-1.3,1.8h-0.2h-0.2
	c-0.2-0.8-1.3-1.8-1.3-1.8H566.8z M563.6,455.1v0.8h0.2v-0.8h1.3c0,0-1.1,1-1.3,1.8h-0.2h-0.2c-0.2-0.8-1.3-1.8-1.3-1.8H563.6z
	 M560.4,455.1v0.8h0.2v-0.8h1.3c0,0-1.1,1-1.3,1.8h-0.2h-0.2c-0.2-0.8-1.3-1.8-1.3-1.8H560.4z M557.3,455.1v0.8h0.2v-0.8h1.3
	c0,0-1.1,1-1.3,1.8h-0.2h-0.2c-0.2-0.8-1.3-1.8-1.3-1.8H557.3z M554.1,455.1v0.8h0.2v-0.8h1.3c0,0-1.1,1-1.3,1.8h-0.2H554
	c-0.2-0.8-1.3-1.8-1.3-1.8H554.1z M550.9,455.1v0.8h0.2v-0.8h1.3c0,0-1.1,1-1.3,1.8H551h-0.2c-0.2-0.8-1.3-1.8-1.3-1.8H550.9z
	 M546.1,455.1h1.3v0.8h0.2v-0.8h1.3c0,0-1.1,1-1.3,1.8h-0.2h-0.2C547.2,456,546.1,455.1,546.1,455.1z M554.6,462.2h2.2
	c0,0,0.9,2.4,1.5,3.2c0.6,0.9,0.7,2.4-0.4,2C556.9,466.9,555.4,465.5,554.6,462.2z M576.8,468.5c0.5,0,0.9,0.4,0.9,0.9
	c0,0.5-0.4,0.9-0.9,0.9h-20c-0.5,0-0.9-0.4-0.9-0.9c0-0.5,0.4-0.9,0.9-0.9H576.8z M559.8,462.2c0,0,0.5-0.4,1.2-0.4
	c0.7,0,1.6,2.3,2,3c0.5,0.7,0.5,2.4-0.3,2.5c-0.8,0.1-2.5-1.5-3-2.9C559.1,463,559.4,462.4,559.8,462.2z M565,461.9h3.7
	c0,0-0.1,4.5-1.9,5.4C566.8,467.3,565.2,466.4,565,461.9z M570.4,464.8c0.5-0.7,1.3-3,2-3c0.7,0,1.2,0.4,1.2,0.4
	c0.4,0.2,0.7,0.8,0.2,2.2c-0.5,1.4-2.2,3-3,2.9C570,467.2,570,465.5,570.4,464.8z M575,474.5v211.9c0,0.6-0.5,1.1-1,1.1
	s-1-0.5-1-1.1V474.5c0-0.6,0.5-1.1,1-1.1S575,473.9,575,474.5z M570.3,474.5v211.9c0,0.6-0.5,1.1-1.1,1.1c-0.6,0-1-0.5-1-1.1V474.5
	c0-0.6,0.5-1.1,1-1.1C569.8,473.4,570.3,473.9,570.3,474.5z M565.6,474.5v211.9c0,0.6-0.5,1.1-1,1.1c-0.6,0-1-0.5-1-1.1V474.5
	c0-0.6,0.5-1.1,1-1.1C565.1,473.4,565.6,473.9,565.6,474.5z M560.8,474.5v211.9c0,0.6-0.5,1.1-1,1.1c-0.6,0-1-0.5-1-1.1V474.5
	c0-0.6,0.5-1.1,1-1.1C560.4,473.4,560.8,473.9,560.8,474.5z M554,474.5c0-0.6,0.5-1.1,1-1.1c0.6,0,1,0.5,1,1.1v211.9
	c0,0.6-0.5,1.1-1,1.1c-0.6,0-1-0.5-1-1.1V474.5z M585.3,694c0.5,0,0.9,0.4,0.9,1s-0.4,1-0.9,1h-36.8c-0.5,0-1-0.4-1-1s0.4-1,1-1
	H585.3z M583.7,689.3c0.3,0,0.5,0.2,0.5,0.5c0,0.3-0.2,0.5-0.5,0.5h-34c-0.3,0-0.4-0.2-0.4-0.5c0-0.3,0.2-0.5,0.4-0.5H583.7z
	 M578.7,473.4c0.6,0,1,0.5,1,1.1v211.9c0,0.6-0.5,1.1-1,1.1c-0.6,0-1-0.5-1-1.1V474.5C577.7,473.9,578.2,473.4,578.7,473.4z
	 M575.5,467.4c-1.1,0.4-1-1.1-0.4-2c0.6-0.9,1.5-3.2,1.5-3.2h2.2C578,465.5,576.5,466.9,575.5,467.4z M580.4,470.8
	c-0.9-2.6-0.4-5.7,1.2-7c2.7-2.4,5.9-1.2,6-1.2c0.2,0.1,0.3,0.3,0.2,0.6c-0.1,0.2-0.3,0.3-0.5,0.3c0,0-2.9-1-5.2,1
	c-1.1,1-1.8,3.6-0.9,6.1c0.5,1.4,1.9,3.9,5.8,4c3.8,0.2,5.5-2.2,6.2-3.7c1.4-2.9,1-6.8-1-9.1c-2.7-3.2-7.8-3.1-12.3-3
	c-1.3,0-2.5,0.1-3.6,0h-9.5h-9.5c-1.1,0.1-2.3,0-3.6,0c-4.5-0.1-9.5-0.3-12.3,3c-1.9,2.3-2.3,6.2-1,9.1c0.7,1.4,2.4,3.9,6.2,3.7
	c3.9-0.2,5.3-2.6,5.8-4c0.8-2.5,0.2-5.1-0.9-6.1c-2.3-2.1-5.2-1-5.2-1c-0.2,0.1-0.5,0-0.5-0.3c-0.1-0.2,0-0.5,0.3-0.6
	c0.1,0,3.4-1.2,6,1.2c1.5,1.4,2.1,4.5,1.2,7c-0.6,1.6-2.2,4.4-6.6,4.6c-0.1,0-0.3,0-0.4,0c-2.9,0-5.3-1.5-6.6-4.2
	c-1.5-3.3-1.1-7.5,1.1-10c3-3.5,8.5-3.4,12.9-3.3c1.3,0,2.5,0.1,3.6,0c0,0,0,0,0,0h9.5h9.5c0,0,0,0,0,0c1.1,0.1,2.3,0,3.6,0
	c4.4-0.1,9.9-0.3,12.9,3.3c2.1,2.5,2.6,6.8,1.1,10c-1.2,2.7-3.6,4.2-6.6,4.2c-0.1,0-0.2,0-0.4,0C582.6,475.2,581,472.5,580.4,470.8z
	"/>
<path class="st15" d="M667.9,474.7c4.5,3.4,14,2.1,13.9-7.4c-0.1-9.8-9.3-10.4-9.3-10.4s-0.3-0.9,1.3-1c1.5-0.1,1.9-0.9,1.9-0.9V453
	h-23.3H629v1.9c0,0,0.3,0.8,1.9,0.9c1.5,0.1,1.3,1,1.3,1s-9.3,0.6-9.3,10.4c0,9.5,9.4,10.8,13.9,7.4c0,0,0,0,0,0
	c-0.1-0.2-0.1-0.5,0.1-0.6c0.1-0.1,3.2-2.4,2.8-6.6c-0.2-2.6-1.9-4.7-4.4-5.5c-2.2-0.8-4.6-0.2-6.1,1.5c-2.2,2.5-1.5,5-1.1,6
	c0.7,1.7,2.1,2.9,3.5,2.9c1.5,0.1,2.9-0.5,3.7-1.5c0.7-0.9,1-2.1,0.7-3.4c-0.3-1.6-1.9-2.5-3.3-2.5c0,0,0,0,0,0
	c-1.3,0-2.2,0.7-2.4,1.8c-0.3,1.2,0,2.2,0.9,2.6c0.8,0.4,1.7,0.3,2.1-0.1c0.5-0.6,0.6-1.3,0.4-1.7c-0.1-0.2-0.3-0.5-0.7-0.5
	c-0.3,0-0.5,0.1-0.6,0.2c-0.1,0.1-0.1,0.3-0.1,0.3c0,0.2-0.2,0.4-0.4,0.4c0,0,0,0,0,0c-0.2,0-0.4-0.2-0.4-0.4c0-0.1,0-0.5,0.4-0.9
	c0.3-0.3,0.7-0.5,1.3-0.4c0.6,0,1.2,0.4,1.4,1.1c0.3,0.9,0.1,1.9-0.6,2.7c-0.7,0.7-2,0.8-3.1,0.2c-0.5-0.3-1.8-1.3-1.3-3.6
	c0.3-1.6,1.6-2.5,3.3-2.5c1.7,0,3.7,1.1,4.1,3.2c0.3,1.6,0,3-0.9,4.1c-1,1.2-2.6,1.8-4.3,1.8c-1.7-0.1-3.4-1.4-4.2-3.4
	c-1-2.4-0.5-4.9,1.2-6.9c1.7-2,4.4-2.6,7-1.8c2.8,0.9,4.7,3.3,5,6.3c0.4,4.8-3,7.3-3.2,7.4c-0.1,0.1-0.2,0.1-0.2,0.1l0,0v214h-3.7
	v1.2c0,0,1.5,1,0.4,2.1l-2.4,0.1v1.3c0,0-1.5,0.4-1.6,2c-0.1,1.6,1.4,2,1.4,2h-1.8v10.3h23.1h23.1v-10.3h-1.8c0,0,1.5-0.4,1.4-2
	c-0.1-1.6-1.6-2-1.6-2v-1.3l-2.4-0.1c-1.2-1.1,0.4-2.1,0.4-2.1v-1.2h-3.7v-214l0,0c-0.1,0-0.2,0-0.2-0.1c-0.1-0.1-3.6-2.6-3.1-7.4
	c0.3-2.9,2.2-5.3,4.9-6.3c2.6-0.9,5.2-0.2,7,1.8c1.7,2,2.2,4.6,1.2,6.9c-0.8,2-2.5,3.4-4.2,3.4c-1.8,0.1-3.4-0.6-4.3-1.8
	c-0.9-1.1-1.2-2.6-0.9-4.1c0.4-2.1,2.4-3.2,4.1-3.2c1.7,0,2.9,0.9,3.3,2.5c0.5,2.3-0.7,3.3-1.3,3.6c-1,0.6-2.4,0.5-3.1-0.2
	c-0.7-0.7-1-1.8-0.6-2.7c0.3-0.6,0.8-1,1.4-1.1c0.5,0,1,0.1,1.3,0.4c0.4,0.4,0.4,0.9,0.4,0.9c0,0.2-0.2,0.4-0.4,0.4l0,0
	c-0.2,0-0.4-0.2-0.4-0.4c0,0,0-0.2-0.1-0.3c-0.1-0.1-0.3-0.2-0.6-0.2c-0.4,0-0.6,0.3-0.7,0.5c-0.2,0.4-0.1,1.2,0.4,1.7
	c0.4,0.4,1.3,0.5,2.1,0.1c0.8-0.5,1.1-1.4,0.9-2.6c-0.3-1.1-1.1-1.8-2.4-1.8c0,0,0,0,0,0c-1.3,0-3,0.9-3.3,2.5
	c-0.3,1.3,0,2.5,0.7,3.4c0.8,1,2.1,1.5,3.7,1.5c1.4,0,2.7-1.2,3.4-2.9c0.4-1,1.1-3.5-1.1-6c-1.5-1.7-3.8-2.3-6.1-1.5
	c-2.5,0.8-4.1,3-4.4,5.5c-0.4,4.3,2.7,6.5,2.8,6.6C668,474.2,668.1,474.4,667.9,474.7C668,474.6,668,474.6,667.9,474.7z
	 M671.4,455.1v0.8h0.2v-0.8h1.3c0,0-1.1,1-1.3,1.8h-0.2h-0.2c-0.2-0.8-1.3-1.8-1.3-1.8H671.4z M668.2,455.1v0.8h0.2v-0.8h1.3
	c0,0-1.1,1-1.3,1.8h-0.2h-0.2c-0.2-0.8-1.3-1.8-1.3-1.8H668.2z M665,455.1v0.8h0.2v-0.8h1.3c0,0-1.1,1-1.3,1.8h-0.2H665
	c-0.2-0.8-1.3-1.8-1.3-1.8H665z M661.8,455.1v0.8h0.2v-0.8h1.3c0,0-1.1,1-1.3,1.8H662h-0.2c-0.2-0.8-1.3-1.8-1.3-1.8H661.8z
	 M658.7,455.1v0.8h0.2v-0.8h1.3c0,0-1.1,1-1.3,1.8h-0.2h-0.2c-0.2-0.8-1.3-1.8-1.3-1.8H658.7z M655.5,455.1v0.8h0.2v-0.8h1.3
	c0,0-1.1,1-1.3,1.8h-0.2h-0.2c-0.2-0.8-1.3-1.8-1.3-1.8H655.5z M652.3,455.1v0.8h0.2v-0.8h1.3c0,0-1.1,1-1.3,1.8h-0.2h-0.2
	c-0.2-0.8-1.3-1.8-1.3-1.8H652.3z M649.1,455.1v0.8h0.2v-0.8h1.3c0,0-1.1,1-1.3,1.8h-0.2H649c-0.2-0.8-1.3-1.8-1.3-1.8H649.1z
	 M645.9,455.1v0.8h0.2v-0.8h1.3c0,0-1.1,1-1.3,1.8H646h-0.2c-0.2-0.8-1.3-1.8-1.3-1.8H645.9z M642.7,455.1v0.8h0.2v-0.8h1.3
	c0,0-1.1,1-1.3,1.8h-0.2h-0.2c-0.2-0.8-1.3-1.8-1.3-1.8H642.7z M639.5,455.1v0.8h0.2v-0.8h1.3c0,0-1.1,1-1.3,1.8h-0.2h-0.2
	c-0.2-0.8-1.3-1.8-1.3-1.8H639.5z M636.3,455.1v0.8h0.2v-0.8h1.3c0,0-1.1,1-1.3,1.8h-0.2h-0.2c-0.2-0.8-1.3-1.8-1.3-1.8H636.3z
	 M631.5,455.1h1.3v0.8h0.2v-0.8h1.3c0,0-1.1,1-1.3,1.8H633h-0.2C632.6,456,631.5,455.1,631.5,455.1z M640.1,462.2h2.2
	c0,0,0.9,2.4,1.5,3.2c0.6,0.9,0.7,2.4-0.4,2C642.4,466.9,640.9,465.5,640.1,462.2z M662.3,468.5c0.5,0,0.9,0.4,0.9,0.9
	c0,0.5-0.4,0.9-0.9,0.9h-20c-0.5,0-0.9-0.4-0.9-0.9c0-0.5,0.4-0.9,0.9-0.9H662.3z M645.3,462.2c0,0,0.5-0.4,1.2-0.4
	c0.7,0,1.6,2.3,2,3c0.5,0.7,0.5,2.4-0.3,2.5c-0.8,0.1-2.5-1.5-3-2.9C644.6,463,644.9,462.4,645.3,462.2z M650.4,461.9h3.7
	c0,0-0.1,4.5-1.9,5.4C652.3,467.3,650.6,466.4,650.4,461.9z M655.9,464.8c0.5-0.7,1.3-3,2-3c0.7,0,1.2,0.4,1.2,0.4
	c0.4,0.2,0.7,0.8,0.2,2.2c-0.5,1.4-2.2,3-3,2.9C655.4,467.2,655.4,465.5,655.9,464.8z M660.5,474.5v211.9c0,0.6-0.5,1.1-1,1.1
	c-0.6,0-1-0.5-1-1.1V474.5c0-0.6,0.5-1.1,1-1.1C660,473.4,660.5,473.9,660.5,474.5z M655.8,474.5v211.9c0,0.6-0.5,1.1-1.1,1.1
	c-0.6,0-1-0.5-1-1.1V474.5c0-0.6,0.5-1.1,1-1.1C655.3,473.4,655.8,473.9,655.8,474.5z M651,474.5v211.9c0,0.6-0.5,1.1-1,1.1
	c-0.6,0-1-0.5-1-1.1V474.5c0-0.6,0.5-1.1,1-1.1C650.6,473.4,651,473.9,651,474.5z M646.3,474.5v211.9c0,0.6-0.5,1.1-1,1.1
	c-0.6,0-1-0.5-1-1.1V474.5c0-0.6,0.5-1.1,1-1.1C645.8,473.4,646.3,473.9,646.3,474.5z M639.5,474.5c0-0.6,0.5-1.1,1-1.1
	c0.6,0,1,0.5,1,1.1v211.9c0,0.6-0.5,1.1-1,1.1c-0.6,0-1-0.5-1-1.1V474.5z M670.8,694c0.5,0,0.9,0.4,0.9,1s-0.4,1-0.9,1H634
	c-0.5,0-1-0.4-1-1s0.4-1,1-1H670.8z M669.2,689.3c0.3,0,0.5,0.2,0.5,0.5c0,0.3-0.2,0.5-0.5,0.5h-34c-0.3,0-0.5-0.2-0.5-0.5
	c0-0.3,0.2-0.5,0.5-0.5H669.2z M664.2,473.4c0.6,0,1.1,0.5,1.1,1.1v211.9c0,0.6-0.5,1.1-1.1,1.1c-0.6,0-1-0.5-1-1.1V474.5
	C663.1,473.9,663.6,473.4,664.2,473.4z M660.9,467.4c-1.1,0.4-1-1.1-0.4-2c0.6-0.9,1.5-3.2,1.5-3.2h2.2
	C663.4,465.5,662,466.9,660.9,467.4z M665.9,470.8c-0.9-2.6-0.4-5.7,1.2-7c2.7-2.4,5.9-1.2,6-1.2c0.2,0.1,0.3,0.3,0.2,0.6
	c-0.1,0.2-0.3,0.3-0.5,0.3c0,0-2.9-1-5.2,1c-1.1,1-1.8,3.6-0.9,6.1c0.5,1.4,1.9,3.9,5.8,4c3.8,0.2,5.5-2.2,6.2-3.7
	c1.4-2.9,1-6.8-1-9.1c-2.7-3.2-7.8-3.1-12.3-3c-1.3,0-2.5,0.1-3.6,0h-9.5h-9.5c-1.1,0.1-2.3,0-3.6,0c-4.5-0.1-9.5-0.3-12.3,3
	c-1.9,2.3-2.3,6.2-1,9.1c0.7,1.4,2.4,3.9,6.2,3.7c3.9-0.2,5.3-2.6,5.8-4c0.8-2.5,0.2-5.1-0.9-6.1c-2.3-2.1-5.2-1-5.2-1
	c-0.2,0.1-0.5,0-0.5-0.3c-0.1-0.2,0-0.5,0.3-0.6c0.1,0,3.4-1.2,6,1.2c1.5,1.4,2.1,4.5,1.2,7c-0.6,1.6-2.2,4.4-6.6,4.6
	c-0.1,0-0.3,0-0.4,0c-2.9,0-5.3-1.5-6.6-4.2c-1.5-3.3-1.1-7.5,1.1-10c3-3.5,8.5-3.4,12.9-3.3c1.3,0,2.5,0.1,3.6,0c0,0,0,0,0,0h9.5
	h9.5c0,0,0,0,0,0c1.1,0.1,2.3,0,3.6,0c4.4-0.1,9.9-0.3,12.9,3.3c2.2,2.5,2.6,6.8,1.1,10c-1.2,2.7-3.6,4.2-6.6,4.2
	c-0.1,0-0.2,0-0.4,0C668,475.2,666.4,472.5,665.9,470.8z"/>
<path class="st15" d="M753.4,474.7c4.5,3.4,14,2.1,13.9-7.4c0-9.8-9.3-10.4-9.3-10.4s-0.2-0.9,1.3-1c1.5-0.1,1.9-0.9,1.9-0.9V453
	h-23.3h-23.3v1.9c0,0,0.3,0.8,1.9,0.9c1.5,0.1,1.3,1,1.3,1s-9.3,0.6-9.3,10.4c-0.1,9.5,9.4,10.8,13.9,7.4c0,0,0,0,0,0
	c-0.1-0.2-0.1-0.5,0.1-0.6c0.1-0.1,3.2-2.4,2.8-6.6c-0.2-2.6-1.9-4.7-4.4-5.5c-2.2-0.8-4.6-0.2-6.1,1.5c-2.2,2.5-1.5,5-1.1,6
	c0.7,1.7,2.1,2.9,3.5,2.9c1.5,0.1,2.9-0.5,3.7-1.5c0.7-0.9,1-2.1,0.7-3.4c-0.3-1.6-1.9-2.5-3.3-2.5c0,0,0,0,0,0
	c-1.3,0-2.2,0.7-2.4,1.8c-0.3,1.2,0,2.2,0.9,2.6c0.8,0.4,1.7,0.3,2.1-0.1c0.5-0.6,0.6-1.3,0.4-1.7c-0.1-0.2-0.3-0.5-0.7-0.5
	c-0.3,0-0.5,0.1-0.6,0.2c-0.1,0.1-0.1,0.3-0.1,0.3c0,0.2-0.2,0.4-0.4,0.4c0,0,0,0,0,0c-0.2,0-0.4-0.2-0.4-0.4c0-0.1,0-0.5,0.4-0.9
	c0.3-0.3,0.7-0.5,1.3-0.4c0.6,0,1.2,0.4,1.4,1.1c0.3,0.9,0.1,1.9-0.6,2.7c-0.7,0.7-2,0.8-3.1,0.2c-0.5-0.3-1.8-1.3-1.3-3.6
	c0.3-1.6,1.6-2.5,3.3-2.5c1.7,0,3.7,1.1,4.1,3.2c0.3,1.6,0,3-0.9,4.1c-1,1.2-2.6,1.8-4.3,1.8c-1.7-0.1-3.4-1.4-4.2-3.4
	c-1-2.4-0.5-4.9,1.2-6.9c1.7-2,4.4-2.6,7-1.8c2.8,0.9,4.7,3.3,5,6.3c0.4,4.8-3,7.3-3.1,7.4c-0.1,0.1-0.2,0.1-0.2,0.1l0,0v214h-3.7
	v1.2c0,0,1.5,1,0.4,2.1l-2.4,0.1v1.3c0,0-1.5,0.4-1.6,2c-0.1,1.6,1.4,2,1.4,2h-1.8v10.3h23.1h23.1v-10.3h-1.8c0,0,1.5-0.4,1.4-2
	c-0.1-1.6-1.6-2-1.6-2v-1.3l-2.4-0.1c-1.2-1.1,0.4-2.1,0.4-2.1v-1.2h-3.8v-214l0,0c-0.1,0-0.2,0-0.2-0.1c-0.1-0.1-3.6-2.6-3.1-7.4
	c0.3-2.9,2.2-5.3,4.9-6.3c2.6-0.9,5.2-0.2,7,1.8c1.7,2,2.2,4.6,1.2,6.9c-0.8,2-2.5,3.4-4.2,3.4c-1.8,0.1-3.4-0.6-4.3-1.8
	c-0.9-1.1-1.2-2.6-0.9-4.1c0.4-2.1,2.4-3.2,4.1-3.2c1.7,0,2.9,0.9,3.3,2.5c0.5,2.3-0.7,3.3-1.3,3.6c-1,0.6-2.4,0.5-3.1-0.2
	c-0.7-0.7-1-1.8-0.6-2.7c0.3-0.6,0.8-1,1.4-1.1c0.5,0,1,0.1,1.3,0.4c0.4,0.4,0.4,0.9,0.4,0.9c0,0.2-0.2,0.4-0.4,0.4l0,0
	c-0.2,0-0.4-0.2-0.4-0.4c0,0,0-0.2-0.1-0.3c-0.1-0.1-0.3-0.2-0.6-0.2c-0.4,0-0.6,0.3-0.7,0.5c-0.2,0.4-0.1,1.2,0.4,1.7
	c0.4,0.4,1.3,0.5,2.1,0.1c0.8-0.5,1.1-1.4,0.9-2.6c-0.3-1.1-1.1-1.8-2.4-1.8c0,0,0,0,0,0c-1.3,0-3,0.9-3.3,2.5
	c-0.3,1.3,0,2.5,0.7,3.4c0.8,1,2.1,1.5,3.7,1.5c1.4,0,2.7-1.2,3.5-2.9c0.4-1,1.1-3.5-1.1-6c-1.5-1.7-3.8-2.3-6.1-1.5
	c-2.5,0.8-4.1,3-4.4,5.5c-0.4,4.3,2.7,6.5,2.8,6.6C753.5,474.2,753.5,474.4,753.4,474.7C753.4,474.6,753.4,474.6,753.4,474.7z
	 M756.9,455.1v0.8h0.2v-0.8h1.3c0,0-1.1,1-1.3,1.8H757h-0.2c-0.2-0.8-1.3-1.8-1.3-1.8H756.9z M753.7,455.1v0.8h0.2v-0.8h1.3
	c0,0-1.1,1-1.3,1.8h-0.2h-0.2c-0.2-0.8-1.3-1.8-1.3-1.8H753.7z M750.5,455.1v0.8h0.2v-0.8h1.3c0,0-1.1,1-1.3,1.8h-0.2h-0.2
	c-0.2-0.8-1.3-1.8-1.3-1.8H750.5z M747.3,455.1v0.8h0.2v-0.8h1.3c0,0-1.1,1-1.3,1.8h-0.2h-0.2c-0.2-0.8-1.3-1.8-1.3-1.8H747.3z
	 M744.1,455.1v0.8h0.2v-0.8h1.3c0,0-1.1,1-1.3,1.8h-0.2h-0.2c-0.2-0.8-1.3-1.8-1.3-1.8H744.1z M740.9,455.1v0.8h0.2v-0.8h1.3
	c0,0-1.1,1-1.3,1.8H741h-0.2c-0.2-0.8-1.3-1.8-1.3-1.8H740.9z M737.7,455.1v0.8h0.2v-0.8h1.3c0,0-1.1,1-1.3,1.8h-0.2h-0.2
	c-0.2-0.8-1.3-1.8-1.3-1.8H737.7z M734.5,455.1v0.8h0.2v-0.8h1.3c0,0-1.1,1-1.3,1.8h-0.2h-0.2c-0.2-0.8-1.3-1.8-1.3-1.8H734.5z
	 M731.4,455.1v0.8h0.2v-0.8h1.3c0,0-1.1,1-1.3,1.8h-0.2h-0.2c-0.2-0.8-1.3-1.8-1.3-1.8H731.4z M728.2,455.1v0.8h0.2v-0.8h1.3
	c0,0-1.1,1-1.3,1.8h-0.2h-0.2c-0.2-0.8-1.3-1.8-1.3-1.8H728.2z M725,455.1v0.8h0.2v-0.8h1.3c0,0-1.1,1-1.3,1.8h-0.2h-0.2
	c-0.2-0.8-1.3-1.8-1.3-1.8H725z M721.8,455.1v0.8h0.2v-0.8h1.3c0,0-1.1,1-1.3,1.8h-0.2h-0.2c-0.2-0.8-1.3-1.8-1.3-1.8H721.8z
	 M717,455.1h1.3v0.8h0.2v-0.8h1.3c0,0-1.1,1-1.3,1.8h-0.2h-0.2C718.1,456,717,455.1,717,455.1z M725.5,462.2h2.2
	c0,0,0.9,2.4,1.5,3.2c0.6,0.9,0.7,2.4-0.4,2C727.8,466.9,726.4,465.5,725.5,462.2z M747.8,468.5c0.5,0,0.9,0.4,0.9,0.9
	c0,0.5-0.4,0.9-0.9,0.9h-20c-0.5,0-0.9-0.4-0.9-0.9c0-0.5,0.4-0.9,0.9-0.9H747.8z M730.7,462.2c0,0,0.5-0.4,1.2-0.4
	c0.7,0,1.6,2.3,2,3c0.5,0.7,0.5,2.4-0.3,2.5c-0.8,0.1-2.5-1.5-3-2.9C730,463,730.3,462.4,730.7,462.2z M735.9,461.9h3.7
	c0,0-0.1,4.5-1.9,5.4C737.8,467.3,736.1,466.4,735.9,461.9z M741.4,464.8c0.5-0.7,1.3-3,2-3c0.7,0,1.2,0.4,1.2,0.4
	c0.4,0.2,0.7,0.8,0.2,2.2c-0.5,1.4-2.2,3-3,2.9C740.9,467.2,740.9,465.5,741.4,464.8z M746,474.5v211.9c0,0.6-0.5,1.1-1,1.1
	c-0.6,0-1-0.5-1-1.1V474.5c0-0.6,0.5-1.1,1-1.1C745.5,473.4,746,473.9,746,474.5z M741.2,474.5v211.9c0,0.6-0.5,1.1-1.1,1.1
	c-0.6,0-1-0.5-1-1.1V474.5c0-0.6,0.5-1.1,1-1.1C740.8,473.4,741.2,473.9,741.2,474.5z M736.5,474.5v211.9c0,0.6-0.5,1.1-1,1.1
	c-0.6,0-1-0.5-1-1.1V474.5c0-0.6,0.5-1.1,1-1.1C736,473.4,736.5,473.9,736.5,474.5z M731.7,474.5v211.9c0,0.6-0.5,1.1-1,1.1
	c-0.6,0-1-0.5-1-1.1V474.5c0-0.6,0.5-1.1,1-1.1S731.7,473.9,731.7,474.5z M724.9,474.5c0-0.6,0.5-1.1,1-1.1c0.6,0,1,0.5,1,1.1v211.9
	c0,0.6-0.5,1.1-1,1.1c-0.6,0-1-0.5-1-1.1V474.5z M756.2,694c0.5,0,0.9,0.4,0.9,1s-0.4,1-0.9,1h-36.8c-0.5,0-1-0.4-1-1s0.4-1,1-1
	H756.2z M754.6,689.3c0.3,0,0.5,0.2,0.5,0.5c0,0.3-0.2,0.5-0.5,0.5h-34c-0.3,0-0.4-0.2-0.4-0.5c0-0.3,0.2-0.5,0.4-0.5H754.6z
	 M749.7,473.4c0.6,0,1,0.5,1,1.1v211.9c0,0.6-0.5,1.1-1,1.1c-0.6,0-1-0.5-1-1.1V474.5C748.6,473.9,749.1,473.4,749.7,473.4z
	 M746.4,467.4c-1.1,0.4-1-1.1-0.4-2c0.6-0.9,1.5-3.2,1.5-3.2h2.2C748.9,465.5,747.4,466.9,746.4,467.4z M751.3,470.8
	c-0.9-2.6-0.4-5.7,1.2-7c2.7-2.4,5.9-1.2,6-1.2c0.2,0.1,0.3,0.3,0.2,0.6c-0.1,0.2-0.3,0.3-0.5,0.3c0,0-2.9-1-5.2,1
	c-1.1,1-1.8,3.6-0.9,6.1c0.5,1.4,1.9,3.9,5.8,4c3.8,0.2,5.5-2.2,6.2-3.7c1.4-2.9,0.9-6.8-1-9.1c-2.7-3.2-7.8-3.1-12.3-3
	c-1.3,0-2.5,0.1-3.6,0h-9.5h-9.5c-1.1,0.1-2.3,0-3.6,0c-4.5-0.1-9.5-0.3-12.3,3c-1.9,2.3-2.3,6.2-1,9.1c0.7,1.4,2.4,3.9,6.2,3.7
	c3.9-0.2,5.3-2.6,5.8-4c0.8-2.5,0.2-5.1-0.9-6.1c-2.3-2.1-5.2-1-5.2-1c-0.2,0.1-0.5,0-0.5-0.3c-0.1-0.2,0-0.5,0.3-0.6
	c0.1,0,3.4-1.2,6,1.2c1.5,1.4,2.1,4.5,1.2,7c-0.6,1.6-2.2,4.4-6.6,4.6c-0.1,0-0.3,0-0.4,0c-2.9,0-5.3-1.5-6.6-4.2
	c-1.5-3.3-1.1-7.5,1.1-10c3-3.5,8.5-3.4,12.9-3.3c1.3,0,2.5,0.1,3.6,0c0,0,0,0,0,0h9.5h9.5c0,0,0,0,0,0c1.1,0.1,2.3,0,3.6,0
	c4.4-0.1,9.9-0.3,12.9,3.3c2.1,2.5,2.6,6.8,1.1,10c-1.3,2.7-3.6,4.2-6.6,4.2c-0.1,0-0.2,0-0.4,0
	C753.5,475.2,751.9,472.5,751.3,470.8z"/>
<path class="st15" d="M838.9,474.7c4.5,3.4,14,2.1,13.9-7.4c0-9.8-9.3-10.4-9.3-10.4s-0.3-0.9,1.3-1c1.5-0.1,1.9-0.9,1.9-0.9V453
	h-23.3h-23.3v1.9c0,0,0.3,0.8,1.9,0.9c1.5,0.1,1.3,1,1.3,1s-9.3,0.6-9.3,10.4c-0.1,9.5,9.4,10.8,13.9,7.4c0,0,0,0,0,0
	c-0.1-0.2-0.1-0.5,0.1-0.6c0.1-0.1,3.2-2.4,2.8-6.6c-0.2-2.6-1.9-4.7-4.4-5.5c-2.2-0.8-4.6-0.2-6.1,1.5c-2.2,2.5-1.5,5-1.1,6
	c0.7,1.7,2.1,2.9,3.4,2.9c1.5,0.1,2.9-0.5,3.7-1.5c0.7-0.9,1-2.1,0.7-3.4c-0.3-1.6-1.9-2.5-3.3-2.5c0,0,0,0,0,0
	c-1.3,0-2.2,0.7-2.4,1.8c-0.3,1.2,0,2.2,0.9,2.6c0.8,0.4,1.7,0.3,2.1-0.1c0.5-0.6,0.6-1.3,0.4-1.7c-0.1-0.2-0.3-0.5-0.7-0.5
	c-0.3,0-0.5,0.1-0.6,0.2c-0.1,0.1-0.1,0.3-0.1,0.3c0,0.2-0.2,0.4-0.4,0.4c0,0,0,0,0,0c-0.2,0-0.4-0.2-0.4-0.4c0-0.1,0-0.5,0.4-0.9
	c0.3-0.3,0.7-0.5,1.3-0.4c0.6,0,1.2,0.4,1.4,1.1c0.3,0.9,0.1,1.9-0.6,2.7c-0.7,0.7-2,0.8-3.1,0.2c-0.5-0.3-1.8-1.3-1.3-3.6
	c0.3-1.6,1.6-2.5,3.3-2.5c1.7,0,3.7,1.1,4.1,3.2c0.3,1.6,0,3-0.9,4.1c-1,1.2-2.6,1.8-4.3,1.8c-1.7-0.1-3.4-1.4-4.2-3.4
	c-1-2.4-0.5-4.9,1.2-6.9c1.7-2,4.4-2.6,7-1.8c2.8,0.9,4.7,3.3,5,6.3c0.4,4.8-3,7.3-3.2,7.4c-0.1,0.1-0.2,0.1-0.2,0.1l0,0v214h-3.7
	v1.2c0,0,1.5,1,0.4,2.1l-2.4,0.1v1.3c0,0-1.5,0.4-1.6,2c-0.1,1.6,1.4,2,1.4,2h-1.8v10.3h23.1h23.1v-10.3h-1.8c0,0,1.5-0.4,1.4-2
	c-0.1-1.6-1.6-2-1.6-2v-1.3l-2.4-0.1c-1.2-1.1,0.4-2.1,0.4-2.1v-1.2h-3.7v-214l0,0c-0.1,0-0.2,0-0.2-0.1c-0.1-0.1-3.6-2.6-3.1-7.4
	c0.3-2.9,2.2-5.3,4.9-6.3c2.6-0.9,5.2-0.2,7,1.8c1.7,2,2.2,4.6,1.2,6.9c-0.8,2-2.5,3.4-4.2,3.4c-1.8,0.1-3.4-0.6-4.3-1.8
	c-0.9-1.1-1.2-2.6-0.9-4.1c0.4-2.1,2.4-3.2,4.1-3.2c1.7,0,2.9,0.9,3.3,2.5c0.5,2.3-0.7,3.3-1.3,3.6c-1,0.6-2.4,0.5-3.1-0.2
	c-0.7-0.7-1-1.8-0.6-2.7c0.3-0.6,0.8-1,1.4-1.1c0.5,0,1,0.1,1.3,0.4c0.4,0.4,0.4,0.9,0.4,0.9c0,0.2-0.2,0.4-0.4,0.4l0,0
	c-0.2,0-0.4-0.2-0.4-0.4c0,0,0-0.2-0.1-0.3c-0.1-0.1-0.3-0.2-0.6-0.2c-0.4,0-0.6,0.3-0.7,0.5c-0.2,0.4-0.1,1.2,0.4,1.7
	c0.4,0.4,1.3,0.5,2.1,0.1c0.8-0.5,1.1-1.4,0.9-2.6c-0.3-1.1-1.1-1.8-2.4-1.8c0,0,0,0,0,0c-1.3,0-3,0.9-3.3,2.5
	c-0.3,1.3,0,2.5,0.7,3.4c0.8,1,2.1,1.5,3.7,1.5c1.4,0,2.7-1.2,3.4-2.9c0.4-1,1.1-3.5-1.1-6c-1.5-1.7-3.8-2.3-6.1-1.5
	c-2.5,0.8-4.1,3-4.4,5.5c-0.4,4.3,2.7,6.5,2.8,6.6C838.9,474.2,839,474.4,838.9,474.7C838.9,474.6,838.9,474.6,838.9,474.7z
	 M842.3,455.1v0.8h0.2v-0.8h1.3c0,0-1.1,1-1.3,1.8h-0.2h-0.2c-0.2-0.8-1.3-1.8-1.3-1.8H842.3z M839.1,455.1v0.8h0.2v-0.8h1.3
	c0,0-1.1,1-1.3,1.8h-0.2h-0.2c-0.2-0.8-1.3-1.8-1.3-1.8H839.1z M836,455.1v0.8h0.2v-0.8h1.3c0,0-1.1,1-1.3,1.8h-0.2h-0.2
	c-0.2-0.8-1.3-1.8-1.3-1.8H836z M832.8,455.1v0.8h0.2v-0.8h1.3c0,0-1.1,1-1.3,1.8h-0.2h-0.2c-0.2-0.8-1.3-1.8-1.3-1.8H832.8z
	 M829.6,455.1v0.8h0.2v-0.8h1.3c0,0-1.1,1-1.3,1.8h-0.2h-0.2c-0.2-0.8-1.3-1.8-1.3-1.8H829.6z M826.4,455.1v0.8h0.2v-0.8h1.3
	c0,0-1.1,1-1.3,1.8h-0.2h-0.2c-0.2-0.8-1.3-1.8-1.3-1.8H826.4z M823.2,455.1v0.8h0.2v-0.8h1.3c0,0-1.1,1-1.3,1.8h-0.2h-0.2
	c-0.2-0.8-1.3-1.8-1.3-1.8H823.2z M820,455.1v0.8h0.2v-0.8h1.3c0,0-1.1,1-1.3,1.8h-0.2h-0.2c-0.2-0.8-1.3-1.8-1.3-1.8H820z
	 M816.8,455.1v0.8h0.2v-0.8h1.3c0,0-1.1,1-1.3,1.8h-0.2h-0.2c-0.2-0.8-1.3-1.8-1.3-1.8H816.8z M813.6,455.1v0.8h0.2v-0.8h1.3
	c0,0-1.1,1-1.3,1.8h-0.2h-0.2c-0.2-0.8-1.3-1.8-1.3-1.8H813.6z M810.4,455.1v0.8h0.2v-0.8h1.3c0,0-1.1,1-1.3,1.8h-0.2h-0.2
	c-0.2-0.8-1.3-1.8-1.3-1.8H810.4z M807.2,455.1v0.8h0.2v-0.8h1.3c0,0-1.1,1-1.3,1.8h-0.2h-0.2c-0.2-0.8-1.3-1.8-1.3-1.8H807.2z
	 M802.4,455.1h1.3v0.8h0.2v-0.8h1.3c0,0-1.1,1-1.3,1.8h-0.2h-0.2C803.6,456,802.4,455.1,802.4,455.1z M811,462.2h2.2
	c0,0,0.9,2.4,1.5,3.2c0.6,0.9,0.7,2.4-0.4,2C813.3,466.9,811.8,465.5,811,462.2z M833.2,468.5c0.5,0,0.9,0.4,0.9,0.9
	c0,0.5-0.4,0.9-0.9,0.9h-20c-0.5,0-0.9-0.4-0.9-0.9c0-0.5,0.4-0.9,0.9-0.9H833.2z M816.2,462.2c0,0,0.5-0.4,1.2-0.4
	c0.7,0,1.6,2.3,2,3c0.5,0.7,0.5,2.4-0.3,2.5c-0.8,0.1-2.5-1.5-3-2.9C815.5,463,815.8,462.4,816.2,462.2z M821.3,461.9h3.7
	c0,0-0.1,4.5-1.9,5.4C823.2,467.3,821.5,466.4,821.3,461.9z M826.8,464.8c0.5-0.7,1.3-3,2-3c0.7,0,1.2,0.4,1.2,0.4
	c0.4,0.2,0.7,0.8,0.2,2.2c-0.5,1.4-2.2,3-3,2.9C826.3,467.2,826.3,465.5,826.8,464.8z M831.4,474.5v211.9c0,0.6-0.5,1.1-1,1.1
	c-0.6,0-1-0.5-1-1.1V474.5c0-0.6,0.5-1.1,1-1.1C830.9,473.4,831.4,473.9,831.4,474.5z M826.7,474.5v211.9c0,0.6-0.5,1.1-1.1,1.1
	c-0.6,0-1-0.5-1-1.1V474.5c0-0.6,0.5-1.1,1-1.1C826.2,473.4,826.7,473.9,826.7,474.5z M821.9,474.5v211.9c0,0.6-0.5,1.1-1,1.1
	c-0.6,0-1-0.5-1-1.1V474.5c0-0.6,0.5-1.1,1-1.1C821.5,473.4,821.9,473.9,821.9,474.5z M817.2,474.5v211.9c0,0.6-0.5,1.1-1,1.1
	c-0.6,0-1-0.5-1-1.1V474.5c0-0.6,0.5-1.1,1-1.1C816.7,473.4,817.2,473.9,817.2,474.5z M810.4,474.5c0-0.6,0.5-1.1,1-1.1
	c0.6,0,1,0.5,1,1.1v211.9c0,0.6-0.5,1.1-1,1.1c-0.6,0-1-0.5-1-1.1V474.5z M841.7,694c0.5,0,0.9,0.4,0.9,1s-0.4,1-0.9,1h-36.8
	c-0.5,0-1-0.4-1-1s0.4-1,1-1H841.7z M840.1,689.3c0.3,0,0.5,0.2,0.5,0.5c0,0.3-0.2,0.5-0.5,0.5h-34c-0.3,0-0.4-0.2-0.4-0.5
	c0-0.3,0.2-0.5,0.4-0.5H840.1z M835.1,473.4c0.6,0,1.1,0.5,1.1,1.1v211.9c0,0.6-0.5,1.1-1.1,1.1c-0.6,0-1-0.5-1-1.1V474.5
	C834.1,473.9,834.5,473.4,835.1,473.4z M831.8,467.4c-1.1,0.4-1-1.1-0.4-2c0.6-0.9,1.5-3.2,1.5-3.2h2.2
	C834.4,465.5,832.9,466.9,831.8,467.4z M836.8,470.8c-0.9-2.6-0.4-5.7,1.2-7c2.7-2.4,5.9-1.2,6-1.2c0.2,0.1,0.3,0.3,0.2,0.6
	c-0.1,0.2-0.3,0.3-0.5,0.3c0,0-2.9-1-5.2,1c-1.1,1-1.8,3.6-0.9,6.1c0.5,1.4,1.9,3.9,5.8,4c3.8,0.2,5.5-2.2,6.2-3.7
	c1.4-2.9,0.9-6.8-1-9.1c-2.7-3.2-7.8-3.1-12.3-3c-1.3,0-2.5,0.1-3.6,0h-9.5h-9.5c-1.1,0.1-2.3,0-3.6,0c-4.5-0.1-9.5-0.3-12.3,3
	c-1.9,2.3-2.3,6.2-1,9.1c0.7,1.4,2.4,3.9,6.2,3.7c3.9-0.2,5.3-2.6,5.8-4c0.8-2.5,0.2-5.1-0.9-6.1c-2.3-2.1-5.2-1-5.2-1
	c-0.2,0.1-0.5,0-0.5-0.3c-0.1-0.2,0-0.5,0.2-0.6c0.1,0,3.4-1.2,6,1.2c1.5,1.4,2.1,4.5,1.2,7c-0.6,1.6-2.2,4.4-6.6,4.6
	c-0.1,0-0.3,0-0.4,0c-2.9,0-5.3-1.5-6.6-4.2c-1.5-3.3-1.1-7.5,1.1-10c3-3.5,8.5-3.4,12.9-3.3c1.3,0,2.5,0.1,3.6,0c0,0,0,0,0,0h9.5
	h9.5c0,0,0,0,0,0c1.1,0.1,2.3,0,3.6,0c4.4-0.1,9.9-0.3,12.9,3.3c2.2,2.5,2.6,6.8,1.1,10c-1.2,2.7-3.6,4.2-6.6,4.2
	c-0.1,0-0.2,0-0.4,0C839,475.2,837.3,472.5,836.8,470.8z"/>
<path class="st15" d="M924.3,474.7c4.5,3.4,14,2.1,13.9-7.4c0-9.8-9.3-10.4-9.3-10.4s-0.2-0.9,1.3-1c1.5-0.1,1.9-0.9,1.9-0.9V453
	h-23.3h-23.3v1.9c0,0,0.3,0.8,1.9,0.9c1.5,0.1,1.3,1,1.3,1s-9.3,0.6-9.3,10.4c0,9.5,9.4,10.8,13.9,7.4c0,0,0,0,0,0
	c-0.1-0.2-0.1-0.5,0.1-0.6c0.1-0.1,3.2-2.4,2.8-6.6c-0.2-2.6-1.9-4.7-4.4-5.5c-2.2-0.8-4.6-0.2-6.1,1.5c-2.2,2.5-1.5,5-1.1,6
	c0.7,1.7,2.1,2.9,3.5,2.9c1.5,0.1,2.9-0.5,3.7-1.5c0.7-0.9,1-2.1,0.7-3.4c-0.3-1.6-1.9-2.5-3.3-2.5c0,0,0,0,0,0
	c-1.3,0-2.2,0.7-2.4,1.8c-0.3,1.2,0,2.2,0.9,2.6c0.8,0.4,1.7,0.3,2.1-0.1c0.5-0.6,0.6-1.3,0.4-1.7c-0.1-0.2-0.3-0.5-0.7-0.5
	c-0.3,0-0.5,0.1-0.6,0.2c-0.1,0.1-0.1,0.3-0.1,0.3c0,0.2-0.2,0.4-0.4,0.4c0,0,0,0,0,0c-0.2,0-0.4-0.2-0.4-0.4c0-0.1,0-0.5,0.4-0.9
	c0.3-0.3,0.7-0.5,1.3-0.4c0.6,0,1.2,0.4,1.4,1.1c0.3,0.9,0.1,1.9-0.6,2.7c-0.7,0.7-2,0.8-3.1,0.2c-0.5-0.3-1.8-1.3-1.3-3.6
	c0.3-1.6,1.6-2.5,3.3-2.5c1.7,0,3.7,1.1,4.1,3.2c0.3,1.6,0,3-0.9,4.1c-1,1.2-2.6,1.8-4.3,1.8c-1.7-0.1-3.4-1.4-4.2-3.4
	c-1-2.4-0.5-4.9,1.2-6.9c1.7-2,4.4-2.6,7-1.8c2.8,0.9,4.7,3.3,5,6.3c0.4,4.8-3,7.3-3.2,7.4c-0.1,0.1-0.2,0.1-0.2,0.1l0,0v214h-3.8
	v1.2c0,0,1.5,1,0.4,2.1l-2.4,0.1v1.3c0,0-1.5,0.4-1.6,2c-0.1,1.6,1.4,2,1.4,2h-1.8v10.3h23.1h23.1v-10.3H930c0,0,1.5-0.4,1.4-2
	c-0.1-1.6-1.6-2-1.6-2v-1.3l-2.4-0.1c-1.2-1.1,0.4-2.1,0.4-2.1v-1.2H924v-214l0,0c-0.1,0-0.2,0-0.2-0.1c-0.1-0.1-3.6-2.6-3.1-7.4
	c0.3-2.9,2.2-5.3,4.9-6.3c2.6-0.9,5.2-0.2,7,1.8c1.7,2,2.2,4.6,1.2,6.9c-0.8,2-2.5,3.4-4.2,3.4c-1.8,0.1-3.4-0.6-4.3-1.8
	c-0.9-1.1-1.2-2.6-0.9-4.1c0.4-2.1,2.4-3.2,4.1-3.2c1.7,0,2.9,0.9,3.3,2.5c0.5,2.3-0.7,3.3-1.3,3.6c-1,0.6-2.4,0.5-3.1-0.2
	c-0.7-0.7-1-1.8-0.6-2.7c0.3-0.6,0.8-1,1.4-1.1c0.5,0,1,0.1,1.3,0.4c0.4,0.4,0.4,0.9,0.4,0.9c0,0.2-0.2,0.4-0.4,0.4l0,0
	c-0.2,0-0.4-0.2-0.4-0.4c0,0,0-0.2-0.1-0.3c-0.1-0.1-0.3-0.2-0.6-0.2c-0.4,0-0.6,0.3-0.7,0.5c-0.2,0.4-0.1,1.2,0.4,1.7
	c0.4,0.4,1.3,0.5,2.1,0.1c0.8-0.5,1.1-1.4,0.9-2.6c-0.3-1.1-1.1-1.8-2.4-1.8c0,0,0,0,0,0c-1.3,0-3,0.9-3.3,2.5
	c-0.3,1.3,0,2.5,0.7,3.4c0.8,1,2.1,1.5,3.7,1.5c1.4,0,2.7-1.2,3.5-2.9c0.4-1,1.1-3.5-1.1-6c-1.5-1.7-3.8-2.3-6.1-1.5
	c-2.5,0.8-4.1,3-4.4,5.5c-0.4,4.3,2.7,6.5,2.8,6.6C924.4,474.2,924.5,474.4,924.3,474.7C924.3,474.6,924.3,474.6,924.3,474.7z
	 M927.8,455.1v0.8h0.2v-0.8h1.3c0,0-1.1,1-1.3,1.8h-0.2h-0.2c-0.2-0.8-1.3-1.8-1.3-1.8H927.8z M924.6,455.1v0.8h0.2v-0.8h1.3
	c0,0-1.1,1-1.3,1.8h-0.2h-0.2c-0.2-0.8-1.3-1.8-1.3-1.8H924.6z M921.4,455.1v0.8h0.2v-0.8h1.3c0,0-1.1,1-1.3,1.8h-0.2h-0.2
	c-0.2-0.8-1.3-1.8-1.3-1.8H921.4z M918.2,455.1v0.8h0.2v-0.8h1.3c0,0-1.1,1-1.3,1.8h-0.2h-0.2c-0.2-0.8-1.3-1.8-1.3-1.8H918.2z
	 M915,455.1v0.8h0.2v-0.8h1.3c0,0-1.1,1-1.3,1.8h-0.2H915c-0.2-0.8-1.3-1.8-1.3-1.8H915z M911.8,455.1v0.8h0.2v-0.8h1.3
	c0,0-1.1,1-1.3,1.8H912h-0.2c-0.2-0.8-1.3-1.8-1.3-1.8H911.8z M908.6,455.1v0.8h0.2v-0.8h1.3c0,0-1.1,1-1.3,1.8h-0.2h-0.2
	c-0.2-0.8-1.3-1.8-1.3-1.8H908.6z M905.5,455.1v0.8h0.2v-0.8h1.3c0,0-1.1,1-1.3,1.8h-0.2h-0.2c-0.2-0.8-1.3-1.8-1.3-1.8H905.5z
	 M902.3,455.1v0.8h0.2v-0.8h1.3c0,0-1.1,1-1.3,1.8h-0.2h-0.2c-0.2-0.8-1.3-1.8-1.3-1.8H902.3z M899.1,455.1v0.8h0.2v-0.8h1.3
	c0,0-1.1,1-1.3,1.8h-0.2H899c-0.2-0.8-1.3-1.8-1.3-1.8H899.1z M895.9,455.1v0.8h0.2v-0.8h1.3c0,0-1.1,1-1.3,1.8H896h-0.2
	c-0.2-0.8-1.3-1.8-1.3-1.8H895.9z M892.7,455.1v0.8h0.2v-0.8h1.3c0,0-1.1,1-1.3,1.8h-0.2h-0.2c-0.2-0.8-1.3-1.8-1.3-1.8H892.7z
	 M887.9,455.1h1.3v0.8h0.2v-0.8h1.3c0,0-1.1,1-1.3,1.8h-0.2h-0.2C889,456,887.9,455.1,887.9,455.1z M896.4,462.2h2.2
	c0,0,0.9,2.4,1.5,3.2c0.6,0.9,0.7,2.4-0.4,2C898.7,466.9,897.3,465.5,896.4,462.2z M918.7,468.5c0.5,0,0.9,0.4,0.9,0.9
	c0,0.5-0.4,0.9-0.9,0.9h-20c-0.5,0-0.9-0.4-0.9-0.9c0-0.5,0.4-0.9,0.9-0.9H918.7z M901.6,462.2c0,0,0.5-0.4,1.2-0.4
	c0.7,0,1.6,2.3,2,3c0.5,0.7,0.5,2.4-0.3,2.5c-0.8,0.1-2.5-1.5-3-2.9C900.9,463,901.3,462.4,901.6,462.2z M906.8,461.9h3.7
	c0,0-0.1,4.5-1.9,5.4C908.7,467.3,907,466.4,906.8,461.9z M912.3,464.8c0.5-0.7,1.3-3,2-3c0.7,0,1.2,0.4,1.2,0.4
	c0.4,0.2,0.7,0.8,0.2,2.2c-0.5,1.4-2.2,3-3,2.9C911.8,467.2,911.8,465.5,912.3,464.8z M916.9,474.5v211.9c0,0.6-0.5,1.1-1,1.1
	c-0.6,0-1-0.5-1-1.1V474.5c0-0.6,0.5-1.1,1-1.1C916.4,473.4,916.9,473.9,916.9,474.5z M912.1,474.5v211.9c0,0.6-0.5,1.1-1.1,1.1
	c-0.6,0-1-0.5-1-1.1V474.5c0-0.6,0.5-1.1,1-1.1C911.7,473.4,912.1,473.9,912.1,474.5z M907.4,474.5v211.9c0,0.6-0.5,1.1-1,1.1
	c-0.6,0-1-0.5-1-1.1V474.5c0-0.6,0.5-1.1,1-1.1C906.9,473.4,907.4,473.9,907.4,474.5z M902.6,474.5v211.9c0,0.6-0.5,1.1-1,1.1
	c-0.6,0-1-0.5-1-1.1V474.5c0-0.6,0.5-1.1,1-1.1C902.2,473.4,902.6,473.9,902.6,474.5z M895.8,474.5c0-0.6,0.5-1.1,1-1.1
	c0.6,0,1,0.5,1,1.1v211.9c0,0.6-0.5,1.1-1,1.1c-0.6,0-1-0.5-1-1.1V474.5z M927.1,694c0.5,0,0.9,0.4,0.9,1s-0.4,1-0.9,1h-36.8
	c-0.5,0-1-0.4-1-1s0.4-1,1-1H927.1z M925.5,689.3c0.3,0,0.5,0.2,0.5,0.5c0,0.3-0.2,0.5-0.5,0.5h-34c-0.3,0-0.4-0.2-0.4-0.5
	c0-0.3,0.2-0.5,0.4-0.5H925.5z M920.6,473.4c0.6,0,1.1,0.5,1.1,1.1v211.9c0,0.6-0.5,1.1-1.1,1.1c-0.6,0-1-0.5-1-1.1V474.5
	C919.5,473.9,920,473.4,920.6,473.4z M917.3,467.4c-1.1,0.4-1-1.1-0.4-2c0.6-0.9,1.5-3.2,1.5-3.2h2.2
	C919.8,465.5,918.4,466.9,917.3,467.4z M922.2,470.8c-0.9-2.6-0.4-5.7,1.2-7c2.7-2.4,5.9-1.2,6-1.2c0.2,0.1,0.3,0.3,0.2,0.6
	c-0.1,0.2-0.3,0.3-0.5,0.3c0,0-2.9-1-5.2,1c-1.1,1-1.8,3.6-0.9,6.1c0.5,1.4,1.9,3.9,5.8,4c3.8,0.2,5.5-2.2,6.2-3.7
	c1.4-2.9,1-6.8-1-9.1c-2.7-3.2-7.8-3.1-12.3-3c-1.3,0-2.5,0.1-3.6,0h-9.5h-9.5c-1.1,0.1-2.3,0-3.6,0c-4.5-0.1-9.5-0.3-12.3,3
	c-1.9,2.3-2.3,6.2-0.9,9.1c0.7,1.4,2.4,3.9,6.2,3.7c3.9-0.2,5.3-2.6,5.8-4c0.8-2.5,0.2-5.1-0.9-6.1c-2.3-2.1-5.2-1-5.2-1
	c-0.2,0.1-0.5,0-0.5-0.3c-0.1-0.2,0-0.5,0.3-0.6c0.1,0,3.4-1.2,6,1.2c1.5,1.4,2.1,4.5,1.2,7c-0.6,1.6-2.2,4.4-6.6,4.6
	c-0.1,0-0.3,0-0.4,0c-2.9,0-5.3-1.5-6.6-4.2c-1.5-3.3-1.1-7.5,1.1-10c3-3.5,8.5-3.4,12.9-3.3c1.3,0,2.5,0.1,3.6,0c0,0,0,0,0,0h9.5
	h9.5c0,0,0,0,0,0c1.1,0.1,2.3,0,3.6,0c4.4-0.1,9.9-0.3,12.9,3.3c2.2,2.5,2.6,6.8,1.1,10c-1.2,2.7-3.6,4.2-6.6,4.2
	c-0.1,0-0.2,0-0.4,0C924.4,475.2,922.8,472.5,922.2,470.8z"/>
<path class="st15" d="M1009.8,474.7c4.5,3.4,14,2.1,13.9-7.4c-0.1-9.8-9.3-10.4-9.3-10.4s-0.2-0.9,1.3-1c1.5-0.1,1.9-0.9,1.9-0.9
	V453h-23.3h-23.3v1.9c0,0,0.3,0.8,1.9,0.9c1.5,0.1,1.3,1,1.3,1s-9.3,0.6-9.3,10.4c0,9.5,9.4,10.8,13.9,7.4c0,0,0,0,0,0
	c-0.1-0.2-0.1-0.5,0.1-0.6c0.1-0.1,3.2-2.4,2.8-6.6c-0.2-2.6-1.9-4.7-4.4-5.5c-2.2-0.8-4.6-0.2-6.1,1.5c-2.2,2.5-1.5,5-1.1,6
	c0.7,1.7,2.1,2.9,3.5,2.9c1.5,0.1,2.9-0.5,3.7-1.5c0.7-0.9,1-2.1,0.7-3.4c-0.3-1.6-1.9-2.5-3.3-2.5c0,0,0,0,0,0
	c-1.3,0-2.2,0.7-2.4,1.8c-0.3,1.2,0,2.2,0.9,2.6c0.8,0.4,1.7,0.3,2.1-0.1c0.5-0.6,0.6-1.3,0.4-1.7c-0.1-0.2-0.3-0.5-0.7-0.5
	c-0.3,0-0.5,0.1-0.6,0.2c-0.1,0.1-0.1,0.3-0.1,0.3c0,0.2-0.2,0.4-0.4,0.4c0,0,0,0,0,0c-0.2,0-0.4-0.2-0.4-0.4c0-0.1,0-0.5,0.4-0.9
	c0.3-0.3,0.7-0.5,1.3-0.4c0.6,0,1.2,0.4,1.4,1.1c0.3,0.9,0.1,1.9-0.6,2.7c-0.7,0.7-2,0.8-3.1,0.2c-0.5-0.3-1.8-1.3-1.3-3.6
	c0.3-1.6,1.6-2.5,3.3-2.5c1.7,0,3.7,1.1,4.1,3.2c0.3,1.6,0,3-0.9,4.1c-1,1.2-2.6,1.8-4.3,1.8c-1.7-0.1-3.4-1.4-4.2-3.4
	c-1-2.4-0.5-4.9,1.2-6.9c1.7-2,4.4-2.6,7-1.8c2.8,0.9,4.7,3.3,5,6.3c0.4,4.8-3,7.3-3.2,7.4c-0.1,0.1-0.2,0.1-0.2,0.1l0,0v214h-3.8
	v1.2c0,0,1.5,1,0.4,2.1l-2.4,0.1v1.3c0,0-1.5,0.4-1.6,2c-0.1,1.6,1.4,2,1.4,2h-1.8v10.3h23.1h23.1v-10.3h-1.8c0,0,1.5-0.4,1.4-2
	c-0.1-1.6-1.6-2-1.6-2v-1.3l-2.4-0.1c-1.2-1.1,0.4-2.1,0.4-2.1v-1.2h-3.7v-214l0,0c-0.1,0-0.2,0-0.2-0.1c-0.1-0.1-3.6-2.6-3.1-7.4
	c0.3-2.9,2.2-5.3,4.9-6.3c2.6-0.9,5.2-0.2,7,1.8c1.7,2,2.2,4.6,1.2,6.9c-0.8,2-2.5,3.4-4.2,3.4c-1.8,0.1-3.4-0.6-4.3-1.8
	c-0.9-1.1-1.2-2.6-0.9-4.1c0.4-2.1,2.4-3.2,4.1-3.2c1.7,0,2.9,0.9,3.3,2.5c0.5,2.3-0.7,3.3-1.3,3.6c-1,0.6-2.4,0.5-3.1-0.2
	c-0.7-0.7-1-1.8-0.6-2.7c0.3-0.6,0.8-1,1.4-1.1c0.5,0,1,0.1,1.3,0.4c0.4,0.4,0.4,0.9,0.4,0.9c0,0.2-0.2,0.4-0.4,0.4l0,0
	c-0.2,0-0.4-0.2-0.4-0.4c0,0,0-0.2-0.1-0.3c-0.1-0.1-0.3-0.2-0.6-0.2c-0.4,0-0.6,0.3-0.7,0.5c-0.2,0.4-0.1,1.2,0.4,1.7
	c0.4,0.4,1.3,0.5,2.1,0.1c0.8-0.5,1.1-1.4,0.9-2.6c-0.3-1.1-1.1-1.8-2.4-1.8c0,0,0,0,0,0c-1.3,0-3,0.9-3.3,2.5
	c-0.3,1.3,0,2.5,0.7,3.4c0.8,1,2.1,1.5,3.7,1.5c1.4,0,2.7-1.2,3.5-2.9c0.4-1,1.1-3.5-1.1-6c-1.5-1.7-3.8-2.3-6.1-1.5
	c-2.5,0.8-4.1,3-4.4,5.5c-0.4,4.3,2.7,6.5,2.8,6.6C1009.9,474.2,1009.9,474.4,1009.8,474.7C1009.8,474.6,1009.8,474.6,1009.8,474.7z
	 M1013.2,455.1v0.8h0.2v-0.8h1.3c0,0-1.1,1-1.3,1.8h-0.2h-0.2c-0.2-0.8-1.3-1.8-1.3-1.8H1013.2z M1010,455.1v0.8h0.2v-0.8h1.3
	c0,0-1.1,1-1.3,1.8h-0.2h-0.2c-0.2-0.8-1.3-1.8-1.3-1.8H1010z M1006.9,455.1v0.8h0.2v-0.8h1.3c0,0-1.1,1-1.3,1.8h-0.2h-0.2
	c-0.2-0.8-1.3-1.8-1.3-1.8H1006.9z M1003.7,455.1v0.8h0.2v-0.8h1.3c0,0-1.1,1-1.3,1.8h-0.2h-0.2c-0.2-0.8-1.3-1.8-1.3-1.8H1003.7z
	 M1000.5,455.1v0.8h0.2v-0.8h1.3c0,0-1.1,1-1.3,1.8h-0.2h-0.2c-0.2-0.8-1.3-1.8-1.3-1.8H1000.5z M997.3,455.1v0.8h0.2v-0.8h1.3
	c0,0-1.1,1-1.3,1.8h-0.2h-0.2c-0.2-0.8-1.3-1.8-1.3-1.8H997.3z M994.1,455.1v0.8h0.2v-0.8h1.3c0,0-1.1,1-1.3,1.8h-0.2H994
	c-0.2-0.8-1.3-1.8-1.3-1.8H994.1z M990.9,455.1v0.8h0.2v-0.8h1.3c0,0-1.1,1-1.3,1.8H991h-0.2c-0.2-0.8-1.3-1.8-1.3-1.8H990.9z
	 M987.7,455.1v0.8h0.2v-0.8h1.3c0,0-1.1,1-1.3,1.8h-0.2h-0.2c-0.2-0.8-1.3-1.8-1.3-1.8H987.7z M984.5,455.1v0.8h0.2v-0.8h1.3
	c0,0-1.1,1-1.3,1.8h-0.2h-0.2c-0.2-0.8-1.3-1.8-1.3-1.8H984.5z M981.3,455.1v0.8h0.2v-0.8h1.3c0,0-1.1,1-1.3,1.8h-0.2h-0.2
	c-0.2-0.8-1.3-1.8-1.3-1.8H981.3z M978.1,455.1v0.8h0.2v-0.8h1.3c0,0-1.1,1-1.3,1.8h-0.2h-0.2c-0.2-0.8-1.3-1.8-1.3-1.8H978.1z
	 M973.4,455.1h1.3v0.8h0.2v-0.8h1.3c0,0-1.1,1-1.3,1.8h-0.2h-0.2C974.5,456,973.4,455.1,973.4,455.1z M981.9,462.2h2.2
	c0,0,0.9,2.4,1.5,3.2c0.6,0.9,0.7,2.4-0.4,2C984.2,466.9,982.7,465.5,981.9,462.2z M1004.1,468.5c0.5,0,0.9,0.4,0.9,0.9
	c0,0.5-0.4,0.9-0.9,0.9h-20c-0.5,0-0.9-0.4-0.9-0.9c0-0.5,0.4-0.9,0.9-0.9H1004.1z M987.1,462.2c0,0,0.5-0.4,1.2-0.4
	c0.7,0,1.6,2.3,2,3c0.5,0.7,0.5,2.4-0.3,2.5c-0.8,0.1-2.5-1.5-3-2.9C986.4,463,986.7,462.4,987.1,462.2z M992.3,461.9h3.7
	c0,0-0.1,4.5-1.9,5.4C994.1,467.3,992.4,466.4,992.3,461.9z M997.7,464.8c0.5-0.7,1.3-3,2-3c0.7,0,1.2,0.4,1.2,0.4
	c0.4,0.2,0.7,0.8,0.2,2.2c-0.5,1.4-2.2,3-3,2.9C997.2,467.2,997.2,465.5,997.7,464.8z M1002.3,474.5v211.9c0,0.6-0.5,1.1-1,1.1
	c-0.6,0-1-0.5-1-1.1V474.5c0-0.6,0.5-1.1,1-1.1C1001.9,473.4,1002.3,473.9,1002.3,474.5z M997.6,474.5v211.9c0,0.6-0.5,1.1-1.1,1.1
	c-0.6,0-1-0.5-1-1.1V474.5c0-0.6,0.5-1.1,1-1.1C997.1,473.4,997.6,473.9,997.6,474.5z M992.8,474.5v211.9c0,0.6-0.5,1.1-1,1.1
	c-0.6,0-1-0.5-1-1.1V474.5c0-0.6,0.5-1.1,1-1.1C992.4,473.4,992.8,473.9,992.8,474.5z M988.1,474.5v211.9c0,0.6-0.5,1.1-1,1.1
	c-0.6,0-1-0.5-1-1.1V474.5c0-0.6,0.5-1.1,1-1.1C987.6,473.4,988.1,473.9,988.1,474.5z M981.3,474.5c0-0.6,0.5-1.1,1-1.1
	c0.6,0,1,0.5,1,1.1v211.9c0,0.6-0.5,1.1-1,1.1c-0.6,0-1-0.5-1-1.1V474.5z M1012.6,694c0.5,0,0.9,0.4,0.9,1s-0.4,1-0.9,1h-36.8
	c-0.5,0-1-0.4-1-1s0.4-1,1-1H1012.6z M1011,689.3c0.3,0,0.5,0.2,0.5,0.5c0,0.3-0.2,0.5-0.5,0.5h-34c-0.3,0-0.4-0.2-0.4-0.5
	c0-0.3,0.2-0.5,0.4-0.5H1011z M1006,473.4c0.6,0,1.1,0.5,1.1,1.1v211.9c0,0.6-0.5,1.1-1.1,1.1c-0.6,0-1-0.5-1-1.1V474.5
	C1005,473.9,1005.4,473.4,1006,473.4z M1002.8,467.4c-1.1,0.4-1-1.1-0.4-2c0.6-0.9,1.5-3.2,1.5-3.2h2.2
	C1005.3,465.5,1003.8,466.9,1002.8,467.4z M1007.7,470.8c-0.9-2.6-0.4-5.7,1.2-7c2.7-2.4,5.9-1.2,6-1.2c0.2,0.1,0.3,0.3,0.2,0.6
	c-0.1,0.2-0.3,0.3-0.5,0.3c0,0-2.9-1-5.2,1c-1.1,1-1.8,3.6-0.9,6.1c0.5,1.4,1.9,3.9,5.8,4c3.8,0.2,5.5-2.2,6.2-3.7
	c1.4-2.9,1-6.8-1-9.1c-2.7-3.2-7.8-3.1-12.3-3c-1.3,0-2.5,0.1-3.6,0h-9.5h-9.5c-1.1,0.1-2.3,0-3.6,0c-4.5-0.1-9.5-0.3-12.3,3
	c-1.9,2.3-2.3,6.2-1,9.1c0.7,1.4,2.4,3.9,6.2,3.7c3.9-0.2,5.3-2.6,5.8-4c0.9-2.5,0.2-5.1-0.9-6.1c-2.3-2.1-5.2-1-5.2-1
	c-0.2,0.1-0.5,0-0.5-0.3c-0.1-0.2,0-0.5,0.3-0.6c0.1,0,3.4-1.2,6,1.2c1.5,1.4,2.1,4.5,1.2,7c-0.6,1.6-2.2,4.4-6.6,4.6
	c-0.1,0-0.3,0-0.4,0c-2.9,0-5.3-1.5-6.6-4.2c-1.5-3.3-1.1-7.5,1.1-10c3-3.5,8.5-3.4,12.9-3.3c1.3,0,2.5,0.1,3.6,0c0,0,0,0,0,0h9.5
	h9.5c0,0,0,0,0,0c1.1,0.1,2.3,0,3.6,0c4.4-0.1,9.9-0.3,12.9,3.3c2.2,2.5,2.6,6.8,1.1,10c-1.2,2.7-3.6,4.2-6.6,4.2
	c-0.1,0-0.2,0-0.4,0C1009.9,475.2,1008.3,472.5,1007.7,470.8z"/>
<path class="st15" d="M412.2,474.6c4.5,3.4,14,2.1,13.9-7.4c0-9.8-9.3-10.4-9.3-10.4s-0.2-0.9,1.3-1c1.5-0.1,1.9-0.9,1.9-0.9V453
	h-23.3h-23.3v1.9c0,0,0.3,0.8,1.9,0.9c1.5,0.1,1.3,1,1.3,1s-9.3,0.6-9.3,10.4c0,9.5,9.4,10.8,13.9,7.4c0,0,0,0,0,0
	c-0.1-0.2-0.1-0.5,0.1-0.6c0.1-0.1,3.2-2.4,2.8-6.6c-0.2-2.6-1.9-4.7-4.4-5.5c-2.2-0.8-4.6-0.2-6.1,1.5c-2.2,2.5-1.5,5-1.1,6
	c0.7,1.7,2.1,2.9,3.5,2.9c1.5,0.1,2.9-0.5,3.7-1.5c0.7-0.9,1-2.1,0.7-3.4c-0.3-1.6-1.9-2.5-3.3-2.5c0,0,0,0,0,0
	c-1.3,0-2.2,0.7-2.4,1.8c-0.3,1.2,0,2.2,0.9,2.6c0.8,0.4,1.7,0.3,2.1-0.1c0.5-0.6,0.6-1.3,0.4-1.7c-0.1-0.2-0.3-0.5-0.7-0.5
	c-0.3,0-0.5,0.1-0.6,0.2c-0.1,0.1-0.1,0.3-0.1,0.3c0,0.2-0.2,0.4-0.4,0.4c0,0,0,0,0,0c-0.2,0-0.4-0.2-0.4-0.4c0-0.1,0-0.5,0.4-0.9
	c0.3-0.3,0.7-0.5,1.3-0.4c0.6,0,1.2,0.4,1.4,1.1c0.3,0.9,0.1,1.9-0.6,2.7c-0.7,0.7-2,0.8-3.1,0.2c-0.5-0.3-1.8-1.3-1.3-3.6
	c0.3-1.6,1.6-2.5,3.3-2.5c1.7,0,3.7,1.1,4.1,3.2c0.3,1.6,0,3-0.9,4.1c-1,1.2-2.6,1.8-4.3,1.8c-1.7-0.1-3.4-1.4-4.2-3.4
	c-1-2.4-0.5-4.9,1.2-6.9c1.7-2,4.4-2.6,7-1.8c2.8,0.9,4.7,3.3,5,6.3c0.4,4.8-3,7.3-3.1,7.4c-0.1,0.1-0.2,0.1-0.2,0.1l0,0v214h-3.8
	v1.2c0,0,1.5,1,0.4,2.1l-2.4,0.1v1.3c0,0-1.5,0.4-1.6,2c-0.1,1.6,1.4,2,1.4,2h-1.8v10.3h23.1h23.1v-10.3h-1.8c0,0,1.5-0.4,1.4-2
	c-0.1-1.6-1.6-2-1.6-2v-1.3l-2.4-0.1c-1.2-1.1,0.4-2.1,0.4-2.1v-1.2h-3.7v-214l0,0c-0.1,0-0.2,0-0.2-0.1c-0.1-0.1-3.6-2.6-3.1-7.4
	c0.3-2.9,2.2-5.3,4.9-6.3c2.6-0.9,5.2-0.2,7,1.8c1.7,2,2.2,4.6,1.2,6.9c-0.8,2-2.5,3.4-4.2,3.4c-1.8,0.1-3.4-0.6-4.3-1.8
	c-0.9-1.1-1.2-2.6-0.9-4.1c0.4-2.1,2.4-3.2,4.1-3.2c1.7,0,2.9,0.9,3.3,2.5c0.5,2.3-0.7,3.3-1.3,3.6c-1,0.6-2.4,0.5-3.1-0.2
	c-0.7-0.7-0.9-1.8-0.6-2.7c0.3-0.6,0.8-1,1.4-1.1c0.5,0,1,0.1,1.3,0.4c0.4,0.4,0.4,0.9,0.4,0.9c0,0.2-0.2,0.4-0.4,0.4l0,0
	c-0.2,0-0.4-0.2-0.4-0.4c0,0,0-0.2-0.1-0.3c-0.1-0.1-0.3-0.2-0.6-0.2c-0.4,0-0.6,0.3-0.7,0.5c-0.2,0.4-0.1,1.2,0.4,1.7
	c0.4,0.4,1.3,0.5,2.1,0.1c0.8-0.5,1.1-1.4,0.9-2.6c-0.2-1.1-1.1-1.8-2.4-1.8c0,0,0,0,0,0c-1.3,0-3,0.9-3.3,2.5
	c-0.3,1.3,0,2.5,0.7,3.4c0.8,1,2.1,1.5,3.7,1.5c1.4,0,2.8-1.2,3.5-2.9c0.4-1,1.1-3.5-1.1-6c-1.5-1.7-3.8-2.3-6.1-1.5
	c-2.5,0.8-4.1,3-4.4,5.5c-0.4,4.3,2.7,6.5,2.8,6.6C412.3,474.2,412.4,474.4,412.2,474.6C412.2,474.6,412.2,474.6,412.2,474.6z
	 M415.7,455v0.8h0.2V455h1.3c0,0-1.1,1-1.3,1.8h-0.2h-0.2c-0.2-0.8-1.3-1.8-1.3-1.8H415.7z M412.5,455v0.8h0.2V455h1.3
	c0,0-1.1,1-1.3,1.8h-0.2h-0.2c-0.2-0.8-1.3-1.8-1.3-1.8H412.5z M409.3,455v0.8h0.2V455h1.3c0,0-1.1,1-1.3,1.8h-0.2h-0.2
	c-0.2-0.8-1.3-1.8-1.3-1.8H409.3z M406.1,455v0.8h0.2V455h1.3c0,0-1.1,1-1.3,1.8h-0.2h-0.2c-0.2-0.8-1.3-1.8-1.3-1.8H406.1z
	 M402.9,455v0.8h0.2V455h1.3c0,0-1.1,1-1.3,1.8h-0.2h-0.2c-0.2-0.8-1.3-1.8-1.3-1.8H402.9z M399.8,455v0.8h0.2V455h1.3
	c0,0-1.1,1-1.3,1.8h-0.2h-0.2c-0.2-0.8-1.3-1.8-1.3-1.8H399.8z M396.6,455v0.8h0.2V455h1.3c0,0-1.1,1-1.3,1.8h-0.2h-0.2
	c-0.2-0.8-1.3-1.8-1.3-1.8H396.6z M393.4,455v0.8h0.2V455h1.3c0,0-1.1,1-1.3,1.8h-0.2h-0.2c-0.2-0.8-1.3-1.8-1.3-1.8H393.4z
	 M390.2,455v0.8h0.2V455h1.3c0,0-1.1,1-1.3,1.8h-0.2h-0.2c-0.2-0.8-1.3-1.8-1.3-1.8H390.2z M387,455v0.8h0.2V455h1.3
	c0,0-1.1,1-1.3,1.8h-0.2h-0.2c-0.2-0.8-1.3-1.8-1.3-1.8H387z M383.8,455v0.8h0.2V455h1.3c0,0-1.1,1-1.3,1.8h-0.2h-0.2
	c-0.2-0.8-1.3-1.8-1.3-1.8H383.8z M380.6,455v0.8h0.2V455h1.3c0,0-1.1,1-1.3,1.8h-0.2h-0.2c-0.2-0.8-1.3-1.8-1.3-1.8H380.6z
	 M375.8,455h1.3v0.8h0.2V455h1.3c0,0-1.1,1-1.3,1.8h-0.2h-0.2C376.9,456,375.8,455,375.8,455z M384.4,462.1h2.2c0,0,0.9,2.4,1.5,3.2
	c0.6,0.9,0.7,2.4-0.4,2C386.6,466.9,385.2,465.5,384.4,462.1z M406.6,468.4c0.5,0,0.9,0.4,0.9,0.9c0,0.5-0.4,0.9-0.9,0.9h-20
	c-0.5,0-0.9-0.4-0.9-0.9c0-0.5,0.4-0.9,0.9-0.9H406.6z M389.5,462.1c0,0,0.5-0.4,1.2-0.4c0.7,0,1.6,2.3,2,3c0.5,0.7,0.5,2.4-0.3,2.5
	c-0.8,0.1-2.5-1.5-3-2.9C388.9,463,389.2,462.4,389.5,462.1z M394.7,461.9h3.7c0,0-0.1,4.5-1.9,5.4
	C396.6,467.3,394.9,466.4,394.7,461.9z M400.2,464.8c0.5-0.7,1.3-3,2-3c0.7,0,1.2,0.4,1.2,0.4c0.4,0.2,0.7,0.8,0.2,2.2
	c-0.5,1.4-2.2,3-3,2.9C399.7,467.2,399.7,465.5,400.2,464.8z M404.8,474.5v211.9c0,0.6-0.5,1.1-1,1.1c-0.6,0-1-0.5-1-1.1V474.5
	c0-0.6,0.5-1.1,1-1.1C404.3,473.4,404.8,473.9,404.8,474.5z M400.1,474.5v211.9c0,0.6-0.5,1.1-1.1,1.1c-0.6,0-1-0.5-1-1.1V474.5
	c0-0.6,0.5-1.1,1-1.1C399.6,473.4,400.1,473.9,400.1,474.5z M395.3,474.5v211.9c0,0.6-0.5,1.1-1,1.1c-0.6,0-1-0.5-1-1.1V474.5
	c0-0.6,0.5-1.1,1-1.1C394.8,473.4,395.3,473.9,395.3,474.5z M390.6,474.5v211.9c0,0.6-0.5,1.1-1,1.1c-0.6,0-1-0.5-1-1.1V474.5
	c0-0.6,0.5-1.1,1-1.1C390.1,473.4,390.6,473.9,390.6,474.5z M383.7,474.5c0-0.6,0.5-1.1,1-1.1c0.6,0,1,0.5,1,1.1v211.9
	c0,0.6-0.5,1.1-1,1.1c-0.6,0-1-0.5-1-1.1V474.5z M415.1,694c0.5,0,0.9,0.4,0.9,1s-0.4,1-0.9,1h-36.8c-0.5,0-1-0.4-1-1s0.4-1,1-1
	H415.1z M413.4,689.3c0.3,0,0.5,0.2,0.5,0.5c0,0.3-0.2,0.5-0.5,0.5h-34c-0.3,0-0.4-0.2-0.4-0.5c0-0.3,0.2-0.5,0.4-0.5H413.4z
	 M408.5,473.4c0.6,0,1,0.5,1,1.1v211.9c0,0.6-0.5,1.1-1,1.1c-0.6,0-1-0.5-1-1.1V474.5C407.4,473.9,407.9,473.4,408.5,473.4z
	 M405.2,467.4c-1.1,0.4-1-1.1-0.4-2c0.6-0.9,1.5-3.2,1.5-3.2h2.2C407.7,465.5,406.3,466.9,405.2,467.4z M410.2,470.8
	c-0.9-2.6-0.4-5.7,1.2-7c2.7-2.4,5.9-1.2,6-1.2c0.2,0.1,0.3,0.3,0.2,0.6c-0.1,0.2-0.3,0.3-0.5,0.3c0,0-2.9-1-5.2,1
	c-1.1,1-1.8,3.6-0.9,6.1c0.5,1.4,1.9,3.9,5.8,4c3.8,0.2,5.5-2.2,6.2-3.7c1.4-2.9,1-6.8-1-9.1c-2.7-3.2-7.8-3.1-12.3-3
	c-1.3,0-2.5,0.1-3.6,0h-9.5h-9.5c-1.1,0.1-2.3,0-3.6,0c-4.5-0.1-9.5-0.3-12.3,3c-1.9,2.3-2.3,6.2-1,9.1c0.7,1.4,2.4,3.9,6.2,3.7
	c3.9-0.2,5.3-2.6,5.8-4c0.8-2.5,0.2-5.1-0.9-6.1c-2.3-2.1-5.2-1-5.2-1c-0.2,0.1-0.5,0-0.5-0.3c-0.1-0.2,0-0.5,0.3-0.6
	c0.1,0,3.4-1.2,6,1.2c1.5,1.4,2.1,4.5,1.2,7c-0.6,1.6-2.2,4.4-6.6,4.6c-0.1,0-0.3,0-0.4,0c-2.9,0-5.3-1.5-6.6-4.2
	c-1.5-3.3-1.1-7.5,1.1-10c3-3.5,8.5-3.4,12.9-3.3c1.3,0,2.5,0.1,3.6,0c0,0,0,0,0,0h9.5h9.5c0,0,0,0,0,0c1.1,0.1,2.3,0,3.6,0
	c4.4-0.1,9.9-0.3,12.9,3.3c2.1,2.5,2.6,6.8,1.1,10c-1.3,2.7-3.6,4.2-6.6,4.2c-0.1,0-0.2,0-0.4,0
	C412.3,475.2,410.7,472.4,410.2,470.8z"/>
<path class="st6" d="M370.4,421.5h647.3v27.8H370.4V421.5z"/>
<path class="st6" d="M370.4,402.3h647.3v13.9H370.4V402.3z"/>
<path d="M350,392.8h683.9v9.6H350V392.8z"/>
<path class="st16" d="M691.9,305.8l-341.9,87h683.9L691.9,305.8z"/>
<path class="st17" d="M371.1,707.9h648V719h-648V707.9z"/>
<path class="st18" d="M333.3,715.5h730.2v13.9H333.3V715.5z"/>
<path class="st0" d="M326.4,729.4h760.9V745H326.4V729.4z"/>
<path class="st18" d="M304.9,745h798.7v15.6H304.9V745z"/>
<path class="st0" d="M290.9,760.6h825.3v15.6H290.9V760.6z"/>
<path class="st8" d="M371.2,422.3v2.6l5.7,4.5h2.7l1.5,5.3h6.5h3.2v-5.3h5.8v5.3h6.8v-5.3h5.7v5.3h6.8v-5.3h5.8v5.3h6.8v-5.3h5.7
	v5.3h6.8v-5.3h5.8v5.3h6.8v-5.3h5.8v5.3h6.8v-5.3h5.8v5.3h6.8v-5.3h5.8v5.3h6.8v-5.3h5.8v5.3h6.8v-5.3h5.8v5.3h6.8v-5.3h5.8v5.3h6.8
	v-5.3h5.8v5.3h6.8v-5.3h5.8v5.3h6.8v-5.3h5.8v5.3h6.8v-5.3h5.7v5.3h6.8v-5.3h5.8v5.3h6.8v-12.5H371.2z"/>
<path class="st8" d="M576.6,422.3v2.6l5.7,4.5h2.7l1.5,5.3h6.5h3.2v-5.3h5.8v5.3h6.8v-5.3h5.7v5.3h6.8v-5.3h5.8v5.3h6.8v-5.3h5.7
	v5.3h6.8v-5.3h5.8v5.3h6.8v-5.3h5.8v5.3h6.8v-5.3h5.8v5.3h6.8v-5.3h5.7v5.3h6.8v-5.3h5.8v5.3h6.8v-5.3h5.8v5.3h6.8v-5.3h5.8v5.3h6.8
	v-5.3h5.8v5.3h6.8v-5.3h5.8v5.3h6.8v-5.3h5.8v5.3h6.8v-5.3h5.7v5.3h6.8v-5.3h5.8v5.3h6.8v-12.5H576.6z"/>
<path class="st8" d="M1017.7,422.3v2.6l-5.6,4.5h-2.7l-1.5,5.3h-6.5h-3.2v-5.3h-5.8v5.3h-6.8v-5.3h-5.8v5.3H973v-5.3h-5.8v5.3h-6.8
	v-5.3h-5.8v5.3h-6.8v-5.3h-5.8v5.3h-6.8v-5.3h-5.8v5.3h-6.8v-5.3H917v5.3h-6.8v-5.3h-5.8v5.3h-6.8v-5.3h-5.7v5.3h-6.8v-5.3h-5.8v5.3
	h-6.8v-5.3h-5.7v5.3h-6.8v-5.3h-5.8v5.3h-6.8v-5.3h-5.8v5.3h-6.8v-5.3h-5.8v5.3h-6.8v-5.3h-5.8v5.3h-6.8v-5.3h-5.7v5.3h-6.8v-12.5
	H1017.7z"/>
<path class="st19" d="M435.2,134.3"/>
<path class="st20" d="M1010,673.4l345,0.4l31.1,14.2l-376.5,0.4C1009.6,688.5,1009.2,673.8,1010,673.4z"/>
<path class="st20" d="M377.5,672.9l-346.8,0.4l-31.3,14.3l378.5,0.4C377.9,688.1,378.3,673.3,377.5,672.9z"/>
</svg>
