<?xml version="1.0" encoding="utf-8"?>
<!-- Generator: Adobe Illustrator 24.1.0, SVG Export Plug-In . SVG Version: 6.00 Build 0)  -->
<svg version="1.1" id="Layer_17" xmlns="http://www.w3.org/2000/svg" xmlns:xlink="http://www.w3.org/1999/xlink" x="0px" y="0px"
	 viewBox="0 0 97 116.7" style="enable-background:new 0 0 97 116.7;" xml:space="preserve">
<style type="text/css">
	.st0{fill:#707070;}
	.st1{fill:#FFFFFF;stroke:#707070;stroke-width:2;stroke-miterlimit:10;}
	.st2{fill:#27BDFF;}
	.st3{font-family:'Roboto-Light';}
	.st4{font-size:8.969px;}
	.st5{font-family:'Roboto-Black';}
	.st6{font-size:8px;}
	.st7{enable-background:new    ;}
	.st8{font-family:'Roboto-Regular';}
	.st9{font-size:6px;}
	.st10{font-size:5.4749px;}
</style>
<rect x="47.5" y="52" class="st0" width="2" height="51"/>
<path class="st0" d="M47.5,103h2c1.1,0,2,0.9,2,2v12l0,0h-6l0,0v-12C45.5,103.9,46.4,103,47.5,103z"/>
<rect id="frame" x="1.7" y="1" class="st1" width="93.5" height="56"/>
<text transform="matrix(1 0 0 1 42.4867 12.6499)" class="st2 st3 st4">03</text>
<text transform="matrix(1 0 0 1 30.2867 22.2499)" class="st5 st6">Wireframe</text>
<text transform="matrix(0.8209 0 0 1 13.002 33.6896)" class="st7"><tspan x="0" y="0" class="st8 st9">Create wireframes based on the </tspan><tspan x="-9.3" y="7.2" class="st8 st9">information gathered from the research</tspan></text>
<text transform="matrix(0.8209 0 0 1 87.835 31.7974)" class="st3 st10"> </text>
</svg>
