<?xml version="1.0" encoding="utf-8"?>
<!-- Generator: Adobe Illustrator 24.1.0, SVG Export Plug-In . SVG Version: 6.00 Build 0)  -->
<svg version="1.1" id="master-artboard" xmlns="http://www.w3.org/2000/svg" xmlns:xlink="http://www.w3.org/1999/xlink" x="0px"
	 y="0px" viewBox="0 0 2881.6 1438.4" style="enable-background:new 0 0 2881.6 1438.4;" xml:space="preserve">
<style type="text/css">
	.st0{fill:#FAF5FF;}
	.st1{fill:#A2CCCA;}
	.st2{fill:#C1DFE0;}
	.st3{fill:#FAF0FF;}
	.st4{fill:#F3EDFF;}
	.st5{fill:#F5FCFF;}
	.st6{fill:#FFFCFA;}
	.st7{fill:#FEF2FF;}
	.st8{fill:#E6E6E8;}
	.st9{fill:#A0D1E0;}
	.st10{fill:#BDE5F4;}
	.st11{fill:#DCF0F7;}
	.st12{fill:#C4E9F6;}
	.st13{fill:#DAF1F8;}
	.st14{fill:#AFDAE8;}
	.st15{fill:#A6C5D1;}
	.st16{fill:#BDCDD3;}
	.st17{fill:#ABC8D2;}
	.st18{fill:#BCCED4;}
	.st19{fill:#CDCCED;}
	.st20{fill:#9DCCD1;}
	.st21{fill:#A3D1D8;}
	.st22{fill:#ADD7DB;}
	.st23{fill:#B6DBDD;}
	.st24{fill:#9BCBCC;}
	.st25{fill:#B5DFEA;}
	.st26{fill:#A5D3D6;}
	.st27{fill:#86B8BA;}
	.st28{fill:#C4C4C6;}
	.st29{fill:#CFD1D1;}
	.st30{fill:#999999;}
	.st31{fill:#D0CFF1;}
	.st32{fill:#D3D3F5;}
	.st33{fill:#D3EBEF;}
	.st34{fill:#FBD7F9;}
	.st35{font-family:'HelveticaNeue-Bold';}
	.st36{font-size:220px;}
	.st37{font-family:'TimesNewRomanPS-BoldMT';}
</style>
<g transform="matrix(1.2909793853759766, 0, 0, 1.2909793853759766, -411.6314627013044, -98.30439093402993)">
	<path class="st0" d="M332.4,498.6h289v692.3h-289V498.6z"/>
	<path class="st1" d="M360.9,733.7h35.4v72.7h-35.4V733.7z"/>
	<path class="st1" d="M360.9,831.4h35.4v72.7h-35.4V831.4z"/>
	<path class="st1" d="M360.9,929h35.4v72.7h-35.4V929z"/>
	<path class="st1" d="M360.9,1026.7h35.4v72.7h-35.4V1026.7z"/>
	<path class="st1" d="M427.7,733.7h35.4v72.7h-35.4V733.7z"/>
	<path class="st1" d="M427.7,831.4h35.4v72.7h-35.4V831.4z"/>
	<path class="st1" d="M427.7,929h35.4v72.7h-35.4V929z"/>
	<path class="st1" d="M427.7,1026.7h35.4v72.7h-35.4V1026.7z"/>
	<path class="st1" d="M494.5,733.7h35.4v72.7h-35.4V733.7z"/>
	<path class="st1" d="M494.5,831.4h35.4v72.7h-35.4V831.4z"/>
	<path class="st1" d="M494.5,929h35.4v72.7h-35.4V929z"/>
	<path class="st1" d="M494.5,1026.7h35.4v72.7h-35.4V1026.7z"/>
	<path class="st1" d="M561.3,733.7h35.4v72.7h-35.4V733.7z"/>
	<path class="st1" d="M561.3,831.4h35.4v72.7h-35.4V831.4z"/>
	<path class="st1" d="M561.3,929h35.4v72.7h-35.4V929z"/>
	<path class="st1" d="M561.3,1026.7h35.4v72.7h-35.4V1026.7z"/>
	<path class="st1" d="M360.9,670.5h70.8v43.4h-70.8V670.5z"/>
	<path class="st1" d="M443.4,670.5h70.8v43.4h-70.8V670.5z"/>
	<path class="st1" d="M525.9,670.5h70.8v43.4h-70.8V670.5z"/>
	<path class="st1" d="M360.9,607.3h70.8v43.4h-70.8V607.3z"/>
	<path class="st1" d="M443.4,607.3h70.8v43.4h-70.8V607.3z"/>
	<path class="st1" d="M525.9,607.3h70.8v43.4h-70.8V607.3z"/>
	<path class="st1" d="M360.9,544.1h70.8v43.4h-70.8V544.1z"/>
	<path class="st1" d="M443.4,544.1h70.8v43.4h-70.8V544.1z"/>
	<path class="st1" d="M525.9,544.1h70.8v43.4h-70.8V544.1z"/>
	<path class="st0" d="M318.9,468.9h315.9v29.7H318.9V468.9z"/>
	<path class="st2" d="M-72.4,308.3"/>
</g>
<path class="st2" d="M423.6,832h516.8v606.5H423.6V832z"/>
<path class="st2" d="M481.5,225.4h400.8v606.5H481.5V225.4z"/>
<path class="st3" d="M481.5,225.4h200.4h200.5L681.9,0L481.5,225.4z"/>
<path class="st1" d="M535.2,259.9h293.3v104.6H535.2V259.9z"/>
<path class="st1" d="M535.2,402.1h293.3v104.6H535.2V402.1z"/>
<path class="st1" d="M535.2,544.4h293.3V649H535.2V544.4z"/>
<path class="st1" d="M535.2,686.8h293.3v104.6H535.2V686.8z"/>
<path class="st1" d="M481.5,869.6h400.8v104.6H481.5V869.6z"/>
<path class="st1" d="M481.5,1011.9h400.8v104.6H481.5V1011.9z"/>
<path class="st1" d="M481.5,1154.1h400.8v104.6H481.5V1154.1z"/>
<path class="st1" d="M481.5,1296.5h400.8v104.6H481.5V1296.5z"/>
<path class="st4" d="M1940.3,204h116.2v116.2h-116.2V204z"/>
<path class="st5" d="M2110.9,204h116.2v116.2h-116.2V204z"/>
<path class="st6" d="M2281.3,204h116.2v116.2h-116.2V204z"/>
<path class="st1" d="M1940.3,375.7h116.2v116.2h-116.2V375.7z"/>
<path class="st1" d="M2110.9,375.7h116.2v116.2h-116.2V375.7z"/>
<path class="st1" d="M2281.3,375.7h116.2v116.2h-116.2V375.7z"/>
<path class="st1" d="M1940.3,547.4h116.2v116.2h-116.2V547.4z"/>
<path class="st1" d="M2110.9,547.4h116.2v116.2h-116.2V547.4z"/>
<path class="st1" d="M2281.3,547.4h116.2v116.2h-116.2V547.4z"/>
<path class="st1" d="M1940.3,719.1h116.2v116.2h-116.2V719.1z"/>
<path class="st1" d="M2110.9,719.1h116.2v116.2h-116.2V719.1z"/>
<path class="st1" d="M2281.3,719.1h116.2v116.2h-116.2V719.1z"/>
<path class="st1" d="M1940.3,890.8h116.2V1007h-116.2V890.8z"/>
<path class="st1" d="M2110.9,890.8h116.2V1007h-116.2V890.8z"/>
<path class="st1" d="M2281.3,890.8h116.2V1007h-116.2V890.8z"/>
<path class="st1" d="M1940.3,1062.5h116.2v116.2h-116.2V1062.5z"/>
<path class="st1" d="M2110.9,1062.5h116.2v116.2h-116.2V1062.5z"/>
<path class="st1" d="M2281.3,1062.5h116.2v116.2h-116.2V1062.5z"/>
<path class="st7" d="M2467.6,488.8h414v949.9h-414V488.8z"/>
<path class="st1" d="M2508.4,825.6h50.7v104.2h-50.7V825.6z"/>
<path class="st1" d="M2508.4,965.5h50.7v104.2h-50.7V965.5z"/>
<path class="st1" d="M2508.4,1105.5h50.7v104.2h-50.7V1105.5z"/>
<path class="st1" d="M2508.4,1245.4h50.7v104.2h-50.7V1245.4z"/>
<path class="st1" d="M2604.2,825.6h50.7v104.2h-50.7V825.6z"/>
<path class="st1" d="M2604.2,965.5h50.7v104.2h-50.7V965.5z"/>
<path class="st1" d="M2604.2,1105.5h50.7v104.2h-50.7V1105.5z"/>
<path class="st1" d="M2604.2,1245.4h50.7v104.2h-50.7V1245.4z"/>
<path class="st1" d="M2699.8,825.6h50.7v104.2h-50.7V825.6z"/>
<path class="st1" d="M2699.8,965.5h50.7v104.2h-50.7V965.5z"/>
<path class="st1" d="M2699.8,1105.5h50.7v104.2h-50.7V1105.5z"/>
<path class="st1" d="M2699.8,1245.4h50.7v104.2h-50.7V1245.4z"/>
<path class="st1" d="M2795.6,825.6h50.7v104.2h-50.7V825.6z"/>
<path class="st1" d="M2795.6,965.5h50.7v104.2h-50.7V965.5z"/>
<path class="st1" d="M2508.4,685.6h50.7v104.2h-50.7V685.6z"/>
<path class="st1" d="M2604.2,685.6h50.7v104.2h-50.7V685.6z"/>
<path class="st1" d="M2699.8,685.6h50.7v104.2h-50.7V685.6z"/>
<path class="st1" d="M2795.6,685.6h50.7v104.2h-50.7V685.6z"/>
<path class="st1" d="M2508.4,545.7h50.7v104.2h-50.7V545.7z"/>
<path class="st1" d="M2604.2,545.7h50.7v104.2h-50.7V545.7z"/>
<path class="st1" d="M2699.8,545.7h50.7v104.2h-50.7V545.7z"/>
<path class="st1" d="M2795.6,545.7h50.7v104.2h-50.7V545.7z"/>
<path class="st1" d="M2795.6,1105.5h50.7v104.2h-50.7V1105.5z"/>
<path class="st1" d="M2795.6,1245.4h50.7v104.2h-50.7V1245.4z"/>
<path class="st7" d="M2467.6,446.2h384.2v42.6h-384.2V446.2z"/>
<path class="st2" d="M2493.1,424.9h69.1v21.3h-69.1V424.9z"/>
<path class="st2" d="M2600.9,424.9h69.1v21.3h-69.1V424.9z"/>
<path class="st7" d="M2708.9,424.9h69.1v21.3h-69.1V424.9z"/>
<path d="M2059.9,313.6v1058.6H2544V313.6v-130l-484.1,81.3V313.6z"/>
<path d="M1983.7,1092.8h82.5v281.6h-82.5V1092.8z"/>
<path d="M398.9,1093.2h76.2v281.3h-76.2V1093.2z"/>
<path d="M447.1,1093.2h28v281.3h-28V1093.2z"/>
<path d="M398.9,1007.2h1671.9v99H398.9V1007.2z"/>
<path class="st8" d="M363.3,901.2h1732.2v106H363.3V901.2z"/>
<path class="st9" d="M475.1,1106.2h1509v268.1h-1509V1106.2z"/>
<path class="st10" d="M475.1,1199.1h184.6v44.7H475.1V1199.1z"/>
<path class="st10" d="M928.6,1199.1h184.6v44.7H928.6V1199.1z"/>
<path class="st10" d="M1379.5,1199.1h150.9v44.7h-150.9V1199.1z"/>
<path class="st10" d="M475.1,1106.2h1509v92.8h-1509V1106.2z"/>
<path class="st11" d="M622.9,1106.2h6.3v268.1h-6.3V1106.2z"/>
<path class="st11" d="M773.8,1106.2h6.3v268.1h-6.3V1106.2z"/>
<path class="st11" d="M924.9,1106.2h6.3v268.1h-6.3V1106.2z"/>
<path class="st11" d="M1075.8,1106.2h6.3v268.1h-6.3V1106.2z"/>
<path class="st11" d="M1226.7,1106.2h6.3v268.1h-6.3V1106.2z"/>
<path class="st11" d="M1376.3,1106.2h6.3v268.1h-6.3V1106.2z"/>
<path class="st11" d="M1530.1,1106.2h6.3v268.1h-6.3V1106.2z"/>
<path class="st11" d="M475.1,1196h1509v6.2h-1509V1196z"/>
<path class="st12" d="M556.4,1196h66.5v-89.7H521.3L556.4,1196z"/>
<path class="st12" d="M780.1,1106.2v89.7h78.1l-35-89.7H780.1z"/>
<path class="st12" d="M629.2,1106.2h144.7v89.7H629.2V1106.2z"/>
<path class="st13" d="M622.9,1106.2h6.3v89.7h-6.3V1106.2z"/>
<path class="st13" d="M773.8,1106.2h6.3v89.7h-6.3V1106.2z"/>
<path class="st14" d="M659.7,1243.7h-30.5v130.6h144.6v-172.2H659.7V1243.7z"/>
<path class="st14" d="M622.9,1366.4v-122.6H575L622.9,1366.4z"/>
<path class="st14" d="M780.1,1202.2v172.2h144.7v-8l-64.2-164.2H780.1z"/>
<path class="st12" d="M575,1243.7h47.9v-41.6h-64L575,1243.7z"/>
<path class="st12" d="M629.2,1202.2h30.5v41.6h-30.5V1202.2z"/>
<path class="st13" d="M622.9,1243.7v122.6l3.1,8h3.2v-130.6v-41.6h-6.3V1243.7z"/>
<path class="st13" d="M773.8,1202.2h6.3v172.2h-6.3V1202.2z"/>
<path class="st13" d="M924.9,1374.4h3.1l-3.1-8V1374.4z"/>
<path class="st13" d="M780.1,1196h-6.3H629.2h-6.3h-66.5l2.5,6.2h64h6.3h30.5h114.1h6.3h80.6l-2.5-6.2H780.1z"/>
<path class="st12" d="M1012.8,1196h63v-89.7h-98.1L1012.8,1196z"/>
<path class="st12" d="M1233,1106.2v89.7h81.6l-35-89.7H1233z"/>
<path class="st12" d="M1082.1,1106.2h144.7v89.7h-144.7V1106.2z"/>
<path class="st13" d="M1075.8,1106.2h6.3v89.7h-6.3V1106.2z"/>
<path class="st14" d="M1233,1202.2v172.2h143.3v-20.3l-59.3-151.9H1233z"/>
<path class="st14" d="M1075.8,1357.5v-113.7h-44.4L1075.8,1357.5z"/>
<path class="st14" d="M1113.3,1243.7h-31.2v129.9l0.3,0.8h144.3v-172.2h-113.3V1243.7z"/>
<path class="st12" d="M1031.4,1243.7h44.4v-41.6h-60.7L1031.4,1243.7z"/>
<path class="st12" d="M1082.1,1202.2h31.2v41.6h-31.2V1202.2z"/>
<path class="st10" d="M1536.4,1199.1H1721v44.7h-184.6V1199.1z"/>
<path class="st12" d="M1620.4,1196h63v-89.7h-98.1L1620.4,1196z"/>
<path class="st12" d="M1840.7,1106.2v89.7h81.6l-35-89.7H1840.7z"/>
<path class="st12" d="M1689.8,1106.2h144.7v89.7h-144.7V1106.2z"/>
<path class="st14" d="M1840.7,1202.2v172.2h143.4v-20.3l-59.4-151.9H1840.7z"/>
<path class="st14" d="M1683.4,1357.5v-113.7H1639L1683.4,1357.5z"/>
<path class="st14" d="M1721,1243.7h-31.2v129.9l0.3,0.8h144.5v-172.2H1721V1243.7z"/>
<path class="st12" d="M1639,1243.7h44.4v-41.6h-60.5L1639,1243.7z"/>
<path class="st12" d="M1689.8,1202.2h31.2v41.6h-31.2V1202.2z"/>
<path class="st13" d="M1075.8,1243.7v113.7l6.3,16.1v-129.9v-41.6h-6.3V1243.7z"/>
<path class="st14" d="M1382.6,1374.4h1.7l-1.7-4.1V1374.4z"/>
<path class="st13" d="M1226.7,1202.2h6.3v172.2h-6.3V1202.2z"/>
<path class="st13" d="M1226.7,1106.2h6.3v89.7h-6.3V1106.2z"/>
<path class="st13" d="M1376.3,1374.4h6.3v-4.1l-6.3-16.1V1374.4z"/>
<path class="st13" d="M1233,1196h-6.3h-144.6h-6.3h-63l2.3,6.2h60.7h6.3h31.2h113.3h6.3h84l-2.5-6.2H1233z"/>
<path class="st15" d="M1763.3,1106.2h-138.3h-431.6h-66.6h-8.9H972.8H541.2h-66.1v26.9h81.1h431.6H1118h8.9h81.6h431.6h123.3h9
	h211.3v-26.9h-211.3H1763.3z"/>
<path class="st16" d="M924.9,1106.2h6.3v26.9h-6.3V1106.2z"/>
<path class="st11" d="M1834.5,1106.2h6.3v268.1h-6.3V1106.2z"/>
<path class="st16" d="M1376.3,1106.2h6.3v26.9h-6.3V1106.2z"/>
<path class="st17" d="M531.9,1133.1h91v-26.9H521.3L531.9,1133.1z"/>
<path class="st17" d="M780.1,1106.2v26.9h53.6l-10.5-26.9H780.1z"/>
<path class="st17" d="M629.2,1106.2h144.7v26.9H629.2V1106.2z"/>
<path class="st18" d="M622.9,1106.2h6.3v26.9h-6.3V1106.2z"/>
<path class="st18" d="M773.8,1106.2h6.3v26.9h-6.3V1106.2z"/>
<path class="st17" d="M988.1,1133.1h87.7v-26.9h-98.1L988.1,1133.1z"/>
<path class="st17" d="M1233,1106.2v26.9h57.1l-10.5-26.9H1233z"/>
<path class="st17" d="M1082.1,1106.2h144.7v26.9h-144.7V1106.2z"/>
<path class="st17" d="M1595.9,1133.1h87.5v-26.9h-98.1L1595.9,1133.1z"/>
<path class="st17" d="M1840.7,1106.2v26.9h57.1l-10.5-26.9H1840.7z"/>
<path class="st17" d="M1689.8,1106.2h144.7v26.9h-144.7V1106.2z"/>
<path class="st18" d="M1075.8,1106.2h6.3v26.9h-6.3V1106.2z"/>
<path class="st18" d="M1530.1,1106.2h6.3v26.9h-6.3V1106.2z"/>
<path class="st18" d="M1683.4,1106.2h6.3v26.9h-6.3V1106.2z"/>
<path class="st18" d="M1226.7,1106.2h6.3v26.9h-6.3V1106.2z"/>
<path class="st11" d="M1683.4,1106.2h6.3v268.1h-6.3V1106.2z"/>
<path class="st18" d="M1683.4,1106.2h6.3v26.9h-6.3V1106.2z"/>
<path class="st18" d="M1834.5,1106.2h6.3v26.9h-6.3V1106.2z"/>
<path class="st19" d="M398.9,1007.2h1660.8v28.1H398.9V1007.2z"/>
<path class="st8" d="M307.4,282.3h1844.2v62.6H307.4V282.3z"/>
<path class="st20" d="M363.3,344.9h1732.2v556.3H363.3V344.9z"/>
<path class="st21" d="M1243.7,346.4l225.4,554.9h332.3L1576,346.4H1243.7z"/>
<path class="st21" d="M487.7,346.4l225.4,554.9h332.3L820,346.4H487.7z"/>
<path class="st22" d="M853.7,346.4l225.4,554.9h139L992.8,346.4H853.7z"/>
<path class="st22" d="M766.6,346.4L992,901.2h139.2L905.8,346.4H766.6z"/>
<path class="st23" d="M1030.2,346.4l225.4,554.9h69.6l-225.4-554.9H1030.2z"/>
<path class="st23" d="M701.5,346.4l225.4,554.9h69.6L771.1,346.4H701.5z"/>
<path class="st22" d="M1609.7,346.4l225.4,554.9h139l-225.4-554.9H1609.7z"/>
<path class="st22" d="M1522.6,346.4L1748,901.2h139l-225.4-554.9H1522.6z"/>
<path class="st23" d="M1786.2,346.4l225.4,554.9h69.6l-225.4-554.9H1786.2z"/>
<path class="st24" d="M2064.9,370.3h30.6v531.5h-30.6V370.3z"/>
<path class="st23" d="M1457.5,346.4l225.4,554.9h69.5L1527,346.4H1457.5z"/>
<path class="st25" d="M363.3,344.9h1732.2v128.6H363.3V344.9z"/>
<path class="st26" d="M363.3,344.9h1732.2v25.3H363.3V344.9z"/>
<path class="st25" d="M363.3,473.5h227.6V520H363.3V473.5z"/>
<path class="st25" d="M878,473.5h156.9V520H878V473.5z"/>
<path class="st25" d="M1034.7,473.5h225.1V520h-225.1V473.5z"/>
<path class="st25" d="M1535.9,473.5h170.8V520h-170.8V473.5z"/>
<path class="st25" d="M1706.7,473.5H1919V520h-212.4V473.5z"/>
<path class="st27" d="M1290.1,675.2l12,30h190.7l-12-30H1290.1z"/>
<path class="st27" d="M747.9,590l10.3,25.3h161.4L909.4,590H747.9z"/>
<path class="st27" d="M1694.9,834.6l12.7,31.5h200.4l-12.8-31.5H1694.9z"/>
<path class="st27" d="M552.9,778.2l10.6,26.2H731l-10.6-26.2H552.9z"/>
<path class="st28" d="M2064.9,901.2h30.6v106h-30.6V901.2z"/>
<path class="st29" d="M2592.5,1372.2H342.2c-11.6,0-21,7.5-21,16.5l0,0c0,9.2,9.4,16.5,21,16.5h2250.3c11.6,0,21-7.5,21-16.5l0,0
	C2613.6,1379.7,2604.2,1372.2,2592.5,1372.2z"/>
<path d="M2075.6,1080.2h-48.8c-6.7,0-12.3,5.4-12.3,12.3v10.1c0,6.7,5.4,12.3,12.3,12.3h48.9c6.7,0,12.3-5.4,12.3-12.3v-10.1
	C2087.9,1085.7,2082.5,1080.2,2075.6,1080.2z"/>
<path class="st30" d="M2660.5,1405.4H274.3c-11.6,0-21,7.5-21,16.5s9.4,16.5,21,16.5h2386.1c11.6,0,21-7.5,21-16.5
	S2672.1,1405.4,2660.5,1405.4z"/>
<path class="st31" d="M2059.9,1007.2h35.6v28.1h-35.6V1007.2z"/>
<path class="st32" d="M2095.5,344.9h28.1v690.4h-28.1V344.9z"/>
<path d="M2151.4,282.3h28.1v90.9h-28.1V282.3z"/>
<path class="st33" d="M626.8,346.4h10.3v555.3h-10.3V346.4z"/>
<path class="st33" d="M1025,346.4h10.3v555.3H1025V346.4z"/>
<path class="st33" d="M1423.3,346.4h10.3v555.3h-10.3V346.4z"/>
<path class="st33" d="M1821.6,346.4h10.3v555.3h-10.3V346.4z"/>
<path class="st33" d="M363.3,433.3h1732.2v10.3H363.3V433.3z"/>
<path class="st33" d="M363.3,810.3h1732.2v10.3H363.3V810.3z"/>
<text transform="matrix(1 0 0 1 2174.3604 547.3748)"><tspan x="0" y="0" class="st34 st35 st36">Q</tspan><tspan x="171.2" y="0" class="st34 st37 st36">V</tspan></text>
</svg>
