<?xml version="1.0" encoding="utf-8"?>
<!-- Generator: Adobe Illustrator 24.1.0, SVG Export Plug-In . SVG Version: 6.00 Build 0)  -->
<svg version="1.1" id="master-artboard" xmlns="http://www.w3.org/2000/svg" xmlns:xlink="http://www.w3.org/1999/xlink" x="0px"
	 y="0px" viewBox="0 0 2526.6 1830.7" style="enable-background:new 0 0 2526.6 1830.7;" xml:space="preserve">
<style type="text/css">
	.st0{fill-rule:evenodd;clip-rule:evenodd;fill:#48444A;}
	.st1{fill-rule:evenodd;clip-rule:evenodd;fill:#E6E6E6;}
	.st2{fill-rule:evenodd;clip-rule:evenodd;fill:#DEB07E;}
	.st3{fill-rule:evenodd;clip-rule:evenodd;fill:#F2F0E1;}
	.st4{fill-rule:evenodd;clip-rule:evenodd;fill:#D6D3D3;}
	.st5{fill-rule:evenodd;clip-rule:evenodd;fill:#CFCDBC;}
	.st6{fill-rule:evenodd;clip-rule:evenodd;fill:#36735F;}
	.st7{fill-rule:evenodd;clip-rule:evenodd;fill:#CCC8C8;}
	.st8{fill-rule:evenodd;clip-rule:evenodd;fill:#3C8069;}
	.st9{fill-rule:evenodd;clip-rule:evenodd;fill:#2C5E4D;}
	.st10{fill-rule:evenodd;clip-rule:evenodd;fill:#C79766;}
	.st11{fill-rule:evenodd;clip-rule:evenodd;fill:#E6BA8A;}
	.st12{fill-rule:evenodd;clip-rule:evenodd;fill:#527475;}
	.st13{fill-rule:evenodd;clip-rule:evenodd;fill:#668B8C;}
	.st14{fill-rule:evenodd;clip-rule:evenodd;fill:#8DB4B5;}
	.st15{fill-rule:evenodd;clip-rule:evenodd;fill:#4A9179;}
	.st16{fill-rule:evenodd;clip-rule:evenodd;fill:#999999;}
	.st17{fill-rule:evenodd;clip-rule:evenodd;fill:#B3B3B3;}
	.st18{fill-rule:evenodd;clip-rule:evenodd;fill:#808080;}
	.st19{fill-rule:evenodd;clip-rule:evenodd;fill:#FFFFFF;}
</style>
<path class="st0" d="M1640.5,1055.2c22.6,0,41.2-18.5,41.2-41.2V749.4c0-22.6-18.5-41.2-41.2-41.2h-90.2
	c-22.6,0-41.2,18.5-41.2,41.2v264.8c0,22.6,18.5,41.2,41.2,41.2h90.2V1055.2z"/>
<path class="st1" d="M1677.5,1018.8c22.6,0,41.2-18.5,41.2-41.2V749.4c0-22.6-18.5-41.2-41.2-41.2h-90c-22.6,0-41.2,18.5-41.2,41.2
	v228.2c0,22.6,18.5,41.2,41.2,41.2H1677.5z"/>
<path class="st0" d="M1713.3,1055.2c22.6,0,41.2-18.5,41.2-41.2V794.4c0-47.3-38.7-86.2-86.2-86.2h-45c-22.6,0-41.2,18.5-41.2,41.2
	v264.8c0,22.6,18.5,41.2,41.2,41.2h90V1055.2z"/>
<path class="st2" d="M451.9,323.2h65.5v634.7h-65.5V323.2z"/>
<path class="st2" d="M2237.1,323.2h65.5v634.7h-65.5V323.2z"/>
<path class="st3" d="M337.4,1076.9h2079.7v753.8H337.4V1076.9z"/>
<path class="st4" d="M337.4,1076.9h2079.7v160.5H337.4V1076.9z"/>
<path class="st2" d="M2383.3,1116.6c24.9,0,45.2-20.4,45.2-45.2v-68.3c0-24.9-20.4-45.2-45.2-45.2H371.2
	c-24.9,0-45.2,20.4-45.2,45.2v68.3c0,24.9,20.4,45.2,45.2,45.2H2383.3z"/>
<path class="st5" d="M1751.9,436.6h-259.1c0,71.6,58,129.6,129.6,129.6C1693.9,566.2,1751.9,508.2,1751.9,436.6z"/>
<path class="st6" d="M1492.8,436.6h-259.1c0,71.6,58,129.6,129.6,129.6C1434.7,566.2,1492.8,508.2,1492.8,436.6z"/>
<path class="st5" d="M1233.5,436.6h-230.8c0,63.8,51.7,115.5,115.5,115.5C1181.8,551.9,1233.5,500.4,1233.5,436.6z"/>
<path class="st6" d="M1002.6,436.6H771.8c0,63.8,51.7,115.5,115.5,115.5C950.9,551.9,1002.6,500.4,1002.6,436.6z"/>
<path class="st5" d="M771.8,436.6h-231c0,63.8,51.7,115.5,115.5,115.5C720.1,551.9,771.8,500.4,771.8,436.6z"/>
<path class="st6" d="M540.9,436.6H310c0,63.8,51.7,115.5,115.5,115.5C489.3,551.9,540.9,500.4,540.9,436.6z"/>
<path class="st6" d="M1982.7,436.6h-230.8c0,63.8,51.7,115.5,115.5,115.5C1931.1,551.9,1982.7,500.4,1982.7,436.6z"/>
<path class="st5" d="M2213.7,436.6h-231c0,63.8,51.7,115.5,115.5,115.5C2162,551.9,2213.7,500.4,2213.7,436.6z"/>
<path class="st6" d="M2444.5,436.6h-230.8c0,63.8,51.7,115.5,115.5,115.5S2444.5,500.4,2444.5,436.6z"/>
<path class="st4" d="M698.6,957.9c27.1,0,54.3,0,81.4,0c6.7,0,11.5-4.2,12.2-9.3l20.5-151.2c0.7-5.1-5.5-9.3-12.2-9.3
	c-40.9,0-81.7,0-122.6,0c-6.7,0-12.9,4.2-12.2,9.3l20.5,151.2C687.1,953.7,691.9,957.9,698.6,957.9z"/>
<path class="st7" d="M698.6,957.9h37.6l-23.7-169.8H678c-6.7,0-12.9,4.2-12.2,9.3l20.5,151.2C687.1,953.7,691.9,957.9,698.6,957.9z"
	/>
<path class="st1" d="M823,798.5c3.4,0,6.2-2.7,6.2-6.2v-0.8c0-3.4-2.7-6.2-6.2-6.2H655.8c-3.4,0-6.2,2.7-6.2,6.2v0.8
	c0,3.4,2.7,6.2,6.2,6.2H823z"/>
<path class="st8" d="M807.3,838.5H671.5l10.3,75.7H797L807.3,838.5z"/>
<path class="st9" d="M719.7,838.5h-48.2l10.3,75.7h48.4L719.7,838.5z"/>
<path class="st4" d="M950.2,957.9c27.1,0,54.3,0,81.4,0c6.7,0,11.5-4.2,12.2-9.3l20.5-151.2c0.7-5.1-5.5-9.3-12.2-9.3
	c-40.9,0-81.7,0-122.6,0c-6.7,0-12.9,4.2-12.2,9.3l20.5,151.2C938.8,953.7,943.5,957.9,950.2,957.9z"/>
<path class="st7" d="M950.2,957.9h37.6l-23.7-169.8h-34.6c-6.7,0-12.9,4.2-12.2,9.3l20.5,151.2C938.8,953.7,943.5,957.9,950.2,957.9
	z"/>
<path class="st1" d="M1074.5,798.5c3.4,0,6.2-2.7,6.2-6.2v-0.8c0-3.4-2.7-6.2-6.2-6.2H907.3c-3.4,0-6.2,2.7-6.2,6.2v0.8
	c0,3.4,2.7,6.2,6.2,6.2H1074.5z"/>
<path class="st8" d="M1058.9,838.5H923l10.4,75.7h115.1L1058.9,838.5z"/>
<path class="st9" d="M971.3,838.5H923l10.4,75.7h48.4L971.3,838.5z"/>
<path class="st4" d="M1201.9,957.9c27.1,0,54.3,0,81.4,0c6.7,0,11.5-4.2,12.2-9.3l20.5-151.2c0.7-5.1-5.5-9.3-12.2-9.3
	c-40.9,0-81.7,0-122.6,0c-6.7,0-12.9,4.2-12.2,9.3l20.5,151.2C1190.4,953.7,1195.2,957.9,1201.9,957.9z"/>
<path class="st7" d="M1201.9,957.9h37.6l-23.7-169.8h-34.6c-6.7,0-12.9,4.2-12.2,9.3l20.5,151.2
	C1190.4,953.7,1195.2,957.9,1201.9,957.9z"/>
<path class="st1" d="M1326.1,798.5c3.4,0,6.2-2.7,6.2-6.2v-0.8c0-3.4-2.7-6.2-6.2-6.2h-167.2c-3.4,0-6.2,2.7-6.2,6.2v0.8
	c0,3.4,2.7,6.2,6.2,6.2H1326.1z"/>
<path class="st8" d="M1310.4,838.5h-135.7l10.3,75.7h115.2L1310.4,838.5z"/>
<path class="st9" d="M1222.8,838.5h-48.2l10.3,75.7h48.4L1222.8,838.5z"/>
<path class="st10" d="M2496.2,1168.6c16.7,0,30.4-13.7,30.4-30.4v-45.8c0-16.7-13.7-30.4-30.4-30.4H258.3
	c-16.7,0-30.4,13.7-30.4,30.4v45.8c0,16.7,13.7,30.4,30.4,30.4H2496.2z"/>
<path class="st8" d="M475.5,1168.6h199.1v662.1H475.5V1168.6z"/>
<path class="st8" d="M873.8,1168.6h199.1v662.1H873.8V1168.6z"/>
<path class="st8" d="M1272.1,1168.6h199.1v662.1h-199.1V1168.6z"/>
<path class="st8" d="M2068.6,1168.6h199.1v662.1h-199.1V1168.6z"/>
<path class="st8" d="M1670.4,1168.6h199.1v662.1h-199.1V1168.6z"/>
<path class="st9" d="M873.8,1168.6h199.1v68.8H873.8V1168.6z"/>
<path class="st9" d="M475.5,1168.6h199.1v68.8H475.5V1168.6z"/>
<path class="st9" d="M1272.1,1168.6h199.1v68.8h-199.1V1168.6z"/>
<path class="st9" d="M1670.4,1168.6h199.1v68.8h-199.1V1168.6z"/>
<path class="st9" d="M2068.6,1168.6h199.1v68.8h-199.1V1168.6z"/>
<path class="st2" d="M2350.5,1138.9c13,0,23.5-10.5,23.5-23.5l0,0c0-13-10.5-23.5-23.5-23.5h-310c-13,0-23.5,10.5-23.5,23.5l0,0
	c0,13,10.5,23.5,23.5,23.5H2350.5z"/>
<path class="st2" d="M1939.5,1138.9c13,0,23.5-10.5,23.5-23.5l0,0c0-13-10.5-23.5-23.5-23.5h-26.1c-13,0-23.5,10.5-23.5,23.5l0,0
	c0,13,10.5,23.5,23.5,23.5H1939.5z"/>
<path class="st11" d="M2383.3,1003.2c24.9,0,45.2,20.4,45.2,45.2v-45.3c0-24.9-20.4-45.2-45.2-45.2H371.2
	c-24.9,0-45.2,20.4-45.2,45.2v45.3c0-24.9,20.4-45.2,45.2-45.2H2383.3z"/>
<path class="st11" d="M484.6,909.1c9.3,0,17-7.7,17-17V587.3c0-9.3-7.7-17-17-17l0,0c-9.3,0-17,7.7-17,17V892
	C467.5,901.4,475.2,909.1,484.6,909.1L484.6,909.1z"/>
<g transform="matrix(1.3682442727906736, 0, 0, 1.3682442727906736, -521.875780117558, -370.1222928383927)">
	<path class="st11" d="M1658,734.9h406.3v235.6H1658V734.9z"/>
	<path class="st10" d="M1680.3,752.7H2042v200.1h-361.7V752.7z"/>
	<path class="st10" d="M1761.7,752.7H2042v200.1h-280.3V752.7z"/>
	<path class="st10" d="M1793.6,752.7l248.4,85.9v-85.9H1793.6z"/>
	<g>
		<path class="st12" d="M1806.2,952.8c3.4,0,6.2-2.8,6.2-6.2v-86c0-17-13.9-30.9-30.9-30.9l0,0c-17,0-30.9,13.9-30.9,30.9v86
			c0,3.4,2.8,6.2,6.2,6.2H1806.2z"/>
		<path class="st13" d="M1750.6,881.8h61.7V913h-61.7V881.8z"/>
		<path class="st12" d="M1781.5,867.2c4.4,0,8-3.6,8-8v-73.5c0-4.4-3.6-8-8-8l0,0c-4.4,0-8,3.6-8,8v73.5
			C1773.5,863.6,1777.1,867.2,1781.5,867.2L1781.5,867.2z"/>
		<path class="st14" d="M1803.9,897.4c0,12.4-10,22.4-22.4,22.4l0,0c-12.4,0-22.4-10-22.4-22.4v0c0-12.4,10-22.4,22.4-22.4l0,0
			C1793.9,875,1803.9,885,1803.9,897.4L1803.9,897.4z"/>
		<path class="st14" d="M1789.9,795.6c1.8,0,3.3-1.5,3.3-3.3v-14.4c0-1.8-1.5-3.3-3.3-3.3h-16.8c-1.8,0-3.3,1.5-3.3,3.3v14.4
			c0,1.8,1.5,3.3,3.3,3.3H1789.9z"/>
		<g>
			<path class="st12" d="M1880.7,952.8c3.4,0,6.2-2.8,6.2-6.2v-86c0-17-13.9-30.9-30.9-30.9l0,0c-17,0-30.9,13.9-30.9,30.9v86
				c0,3.4,2.8,6.2,6.2,6.2H1880.7z"/>
			<path class="st13" d="M1825.2,881.8h61.7V913h-61.7V881.8z"/>
			<path class="st12" d="M1856,867.2c4.4,0,8-3.6,8-8v-73.5c0-4.4-3.6-8-8-8l0,0c-4.4,0-8,3.6-8,8v73.5
				C1848.1,863.6,1851.6,867.2,1856,867.2L1856,867.2z"/>
			<path class="st14" d="M1878.4,897.4c0,12.4-10,22.4-22.4,22.4l0,0c-12.4,0-22.4-10-22.4-22.4v0c0-12.4,10-22.4,22.4-22.4l0,0
				C1868.4,875,1878.4,885,1878.4,897.4L1878.4,897.4z"/>
			<path class="st14" d="M1864.4,795.6c1.8,0,3.3-1.5,3.3-3.3v-14.4c0-1.8-1.5-3.3-3.3-3.3h-16.8c-1.8,0-3.3,1.5-3.3,3.3v14.4
				c0,1.8,1.5,3.3,3.3,3.3H1864.4z"/>
		</g>
		<g>
			<path class="st12" d="M1955.3,952.8c3.4,0,6.2-2.8,6.2-6.2v-86c0-17-13.9-30.9-30.9-30.9l0,0c-17,0-30.9,13.9-30.9,30.9v86
				c0,3.4,2.8,6.2,6.2,6.2H1955.3z"/>
			<path class="st13" d="M1899.7,881.8h61.7V913h-61.7V881.8z"/>
			<path class="st12" d="M1930.6,867.2c4.4,0,8-3.6,8-8v-73.5c0-4.4-3.6-8-8-8l0,0c-4.4,0-8,3.6-8,8v73.5
				C1922.6,863.6,1926.2,867.2,1930.6,867.2L1930.6,867.2z"/>
			<path class="st14" d="M1953,897.4c0,12.4-10,22.4-22.4,22.4l0,0c-12.4,0-22.4-10-22.4-22.4v0c0-12.4,10-22.4,22.4-22.4l0,0
				C1943,875,1953,885,1953,897.4L1953,897.4z"/>
			<path class="st14" d="M1939,795.6c1.8,0,3.3-1.5,3.3-3.3v-14.4c0-1.8-1.5-3.3-3.3-3.3h-16.8c-1.8,0-3.3,1.5-3.3,3.3v14.4
				c0,1.8,1.5,3.3,3.3,3.3H1939z"/>
		</g>
	</g>
</g>
<path class="st11" d="M1746.7,772.2h555.9v40.6h-555.9V772.2z"/>
<path class="st8" d="M1261.8,0l-28.3,436.6h259.3V0H1261.8z"/>
<path class="st3" d="M1031,0l-28.3,436.6h230.8L1261.8,0H1031z"/>
<path class="st3" d="M1492.8,0v436.6h259.1L1723.6,0H1492.8z"/>
<path class="st8" d="M1954.4,0h-230.8l28.3,436.6h230.8L1954.4,0z"/>
<path class="st3" d="M2185.4,0h-231l28.3,436.6h231L2185.4,0z"/>
<path class="st8" d="M2416.2,0h-230.8l28.3,436.6h230.8L2416.2,0z"/>
<path class="st8" d="M1031,0H800.1l-28.3,436.6h230.8L1031,0z"/>
<path class="st3" d="M569.2,0l-28.3,436.6h231L800.1,0H569.2z"/>
<path class="st8" d="M569.2,0H338.4L310,436.6h230.8L569.2,0z"/>
<path class="st15" d="M380.6,361.8c16.4,0,31.1-13.4,32.3-30l20.2-256.5c1.4-16.4-11.1-30-27.5-30c-16.4,0-31.1,13.4-32.3,30
	l-20.2,256.5C351.8,348.4,364.1,361.8,380.6,361.8z"/>
<path class="st15" d="M843.9,232.6l13.4-169.1c0.8-10.8-7.4-19.7-18.2-19.7l0,0c-10.8,0-20.4,8.9-21.3,19.7l-13.4,169.1
	c-0.8,10.8,7.4,19.7,18.2,19.7C833.5,252.3,843.1,243.4,843.9,232.6z"/>
<path class="st10" d="M2428.9,1830.6c8.6,0,15.6-7,15.6-15.6v-69.4c0-8.6-7-15.6-15.6-15.6H325.6c-8.6,0-15.6,7-15.6,15.6v69.4
	c0,8.6,7,15.6,15.6,15.6H2428.9z"/>
<path class="st2" d="M2428.9,1757.4c8.6,0,15.6,7,15.6,15.6v-27.4c0-8.6-7-15.6-15.6-15.6H325.6c-8.6,0-15.6,7-15.6,15.6v27.4
	c0-8.6,7-15.6,15.6-15.6H2428.9z"/>
<g transform="matrix(1.3682442727906736, 0, 0, 1.3682442727906736, -521.875780117558, -370.1222928383927)">
	<g>
		<path class="st10" d="M788.4,1608.4l21.9-390c6.3-111.9-80.1-203.5-192.1-203.5c-111.9,0-208.6,91.6-214.9,203.5l-21.9,390h46.5
			l6.8-121.1h314l-6.8,121.1H788.4z"/>
		<path class="st0" d="M763.6,1222.8c4.8-86.3-61.8-157-148.2-157l0,0c-86.3,0-160.9,70.6-165.8,157l-12.5,222.5h314L763.6,1222.8z"
			/>
	</g>
	<g>
		<path class="st2" d="M848.7,1608.4h46.5l-46.3-390c-13.3-111.9-115.7-203.5-227.7-203.5c-111.9,0-192.6,91.6-179.3,203.5l46.3,390
			h46.5l-14.4-121h314L848.7,1608.4z"/>
		<path class="st0" d="M829.3,1445.2l-26.4-222.5c-10.3-86.3-89.3-157-175.6-157l0,0c-86.3,0-148.6,70.6-138.3,157l26.4,222.5H829.3
			z"/>
	</g>
</g>
<path class="st3" d="M495,1300.9c9.6,0,17.4-7.8,17.4-17.4s-7.8-17.4-17.4-17.4H268.2c-9.6,0-17.4,7.8-17.4,17.4s7.8,17.4,17.4,17.4
	H495z"/>
<path class="st3" d="M417.5,1363.2H262.7c-6.6,0-11.1,5.3-10.3,11.9l0,0c0.8,6.6,7,11.9,13.4,11.9h154.9c6.6,0,11.1-5.3,10.3-11.9
	l0,0C430,1368.5,424,1363.2,417.5,1363.2z"/>
<path class="st3" d="M422.7,1401.8H267.8c-6.6,0-11.1,5.3-10.3,11.9l0,0c0.8,6.6,7,11.9,13.4,11.9h154.9c6.6,0,11.1-5.3,10.3-11.9
	l0,0C435.2,1407.1,429.2,1401.8,422.7,1401.8z"/>
<path class="st3" d="M427.8,1440.4H273c-6.6,0-11.1,5.3-10.3,11.9l0,0c0.8,6.6,7,11.9,13.4,11.9H431c6.6,0,11.1-5.3,10.3-11.9l0,0
	C440.4,1445.7,434.4,1440.4,427.8,1440.4z"/>
<g transform="matrix(1.3682442727906736, 0, 0, 1.3682442727906736, -521.875780117558, -370.1222928383927)">
	<path class="st16" d="M2020.1,1608.2c3.4,0,6.3-2.8,6.3-6.3v-24.5c0-3.4-2.8-6.3-6.3-6.3h-217.3c-3.4,0-6.3,2.8-6.3,6.3v24.6
		c0,3.4,2.8,6.3,6.3,6.3L2020.1,1608.2L2020.1,1608.2z"/>
	<path class="st17" d="M2010.6,1601.1c3.9,0,7.1-3.2,7.1-7.1v-10.6c0-3.9-3.2-7.1-7.1-7.1h-151.5c-3.9,0-7,3.2-7,7.1v10.6
		c0,3.9,3.2,7.1,7,7.1H2010.6z"/>
	<path class="st18" d="M1844,1571.1h-41.8c-3.1,0-5.7,2.8-5.7,6.3v24.6c0,3.4,2.6,6.3,5.7,6.3h41.8c-3.1,0-5.7-2.8-5.7-6.3v-24.6
		C1838.3,1573.9,1840.8,1571.1,1844,1571.1z"/>
</g>
<path class="st16" d="M2052.2,1820l228.4-549.8c3.6-8.8-0.5-18.7-9.3-22.4c-8.8-3.6-18.7,0.5-22.4,9.3l-228.4,549.8
	c-3.6,8.8,0.5,18.7,9.3,22.4C2038.5,1832.9,2048.5,1828.8,2052.2,1820z"/>
<path class="st16" d="M1976.2,1820l228.4-549.8c3.6-8.8-0.5-18.7-9.3-22.4c-8.8-3.6-18.7,0.5-22.4,9.3l-228.4,549.8
	c-3.6,8.8,0.5,18.7,9.3,22.4C1962.5,1832.9,1972.5,1828.8,1976.2,1820z"/>
<path class="st17" d="M2052.2,1820l217.4-523.2c-8.5-3-18.1,1.1-21.5,9.6l-217.6,523.2C2039.1,1832.6,2048.7,1828.5,2052.2,1820z"/>
<path class="st17" d="M1976.2,1820l217.4-523.2c-8.5-3-18.1,1.1-21.5,9.6l-217.4,523.2C1963.2,1832.6,1972.6,1828.5,1976.2,1820z"/>
<path class="st13" d="M2260.8,1238.4c11.4,0,20.8-9.3,20.8-20.8v-81.4c0-11.4-9.3-20.8-20.8-20.8H1957c-11.4,0-20.8,9.3-20.8,20.8
	v81.4c0,11.4,9.3,20.8,20.8,20.8H2260.8z"/>
<path class="st12" d="M2260.8,1238.4c11.4,0,20.7-9.3,20.8-20.7h-345.3c0.1,11.4,9.4,20.7,20.8,20.7H2260.8z"/>
<path class="st16" d="M2272.9,1289.2c4.7,0,8.6-3.8,8.6-8.6v-33.7c0-4.7-3.8-8.6-8.6-8.6h-328.1c-4.7,0-8.6,3.8-8.6,8.6v33.7
	c0,4.7,3.8,8.6,8.6,8.6H2272.9z"/>
<path class="st17" d="M2258.8,1279.4c5.3,0,9.7-4.4,9.7-9.7v-14.5c0-5.3-4.4-9.7-9.7-9.7h-229.5c-5.3,0-9.7,4.4-9.7,9.7v14.5
	c0,5.3,4.4,9.7,9.7,9.7H2258.8z"/>
<path class="st18" d="M2007.5,1238.4h-62.8c-4.7,0-8.6,3.8-8.6,8.6v33.7c0,4.7,3.8,8.6,8.6,8.6h62.8c-4.7,0-8.6-3.8-8.6-8.6V1247
	C1999,1242.2,2002.8,1238.4,2007.5,1238.4z"/>
<path class="st12" d="M2044.3,1115.4h-87.4c-11.4,0-20.8,9.3-20.8,20.8v81.4c0,11.4,9.3,20.8,20.8,20.8h87.4
	c-11.4,0-20.8-9.3-20.8-20.8v-81.4C2023.6,1124.8,2032.9,1115.4,2044.3,1115.4z"/>
<path class="st12" d="M2044.3,1238.4c-11.4,0-20.7-9.3-20.8-20.7h-87.3c0.1,11.4,9.4,20.7,20.8,20.7H2044.3z"/>
<path class="st16" d="M2172.1,1615.9c3.7,0,6.6-3,6.6-6.6v-26c0-3.7-3-6.6-6.6-6.6h-229.3c-3.7,0-6.6,3-6.6,6.6v26
	c0,3.7,3,6.6,6.6,6.6H2172.1z"/>
<path class="st17" d="M2162.1,1608.4c4.1,0,7.4-3.3,7.4-7.4v-11.2c0-4.1-3.3-7.4-7.4-7.4h-159.8c-4.1,0-7.4,3.3-7.4,7.4v11.2
	c0,4.1,3.3,7.4,7.4,7.4H2162.1z"/>
<path class="st18" d="M1986.3,1576.8h-44.1c-3.3,0-6,3-6,6.6v26c0,3.7,2.7,6.6,6,6.6h44.1c-3.3,0-6-3-6-6.6v-26
	C1980.3,1579.8,1983,1576.8,1986.3,1576.8z"/>
<g transform="matrix(1.3682442727906736, 0, 0, 1.3682442727906736, -521.875780117558, -370.1222928383927)">
	<path class="st16" d="M1663.8,1608.2c3.4,0,6.3-2.8,6.3-6.3v-24.5c0-3.4-2.8-6.3-6.3-6.3h-217.3c-3.4,0-6.3,2.8-6.3,6.3v24.6
		c0,3.4,2.8,6.3,6.3,6.3L1663.8,1608.2L1663.8,1608.2z"/>
	<path class="st17" d="M1654.4,1601.1c3.9,0,7.1-3.2,7.1-7.1v-10.6c0-3.9-3.2-7.1-7.1-7.1h-151.5c-3.9,0-7,3.2-7,7.1v10.6
		c0,3.9,3.2,7.1,7,7.1H1654.4z"/>
	<path class="st18" d="M1487.7,1571.1h-41.8c-3.1,0-5.7,2.8-5.7,6.3v24.6c0,3.4,2.6,6.3,5.7,6.3h41.8c-3.1,0-5.7-2.8-5.7-6.3v-24.6
		C1482,1573.9,1484.6,1571.1,1487.7,1571.1z"/>
</g>
<path class="st16" d="M1564.7,1820l228.4-549.8c3.6-8.8-0.5-18.7-9.3-22.4c-8.8-3.6-18.7,0.5-22.4,9.3L1533,1806.9
	c-3.6,8.8,0.5,18.7,9.3,22.4C1551,1832.9,1561.2,1828.8,1564.7,1820z"/>
<path class="st16" d="M1488.6,1820l228.4-549.8c3.6-8.8-0.5-18.7-9.3-22.4c-8.8-3.6-18.7,0.5-22.4,9.3l-228.4,549.8
	c-3.6,8.8,0.5,18.7,9.3,22.4C1475.1,1832.9,1485.1,1828.8,1488.6,1820z"/>
<path class="st17" d="M1564.7,1820l217.4-523.2c-8.5-3-18.1,1.1-21.5,9.6l-217.4,523.2C1551.7,1832.6,1561.2,1828.5,1564.7,1820z"/>
<path class="st17" d="M1488.6,1820l217.4-523.2c-8.5-3-18.1,1.1-21.5,9.6l-217.4,523.2C1475.7,1832.6,1485.2,1828.5,1488.6,1820z"/>
<path class="st13" d="M1773.2,1238.4c11.4,0,20.8-9.3,20.8-20.8v-81.4c0-11.4-9.3-20.8-20.8-20.8h-303.8c-11.4,0-20.8,9.3-20.8,20.8
	v81.4c0,11.4,9.3,20.8,20.8,20.8H1773.2z"/>
<path class="st12" d="M1773.2,1238.4c11.4,0,20.7-9.3,20.8-20.7h-345.2c0.1,11.4,9.4,20.7,20.8,20.7H1773.2z"/>
<path class="st16" d="M1785.4,1289.2c4.7,0,8.6-3.8,8.6-8.6v-33.7c0-4.7-3.8-8.6-8.6-8.6h-328.1c-4.7,0-8.6,3.8-8.6,8.6v33.7
	c0,4.7,3.8,8.6,8.6,8.6H1785.4z"/>
<path class="st17" d="M1771.3,1279.4c5.3,0,9.7-4.4,9.7-9.7v-14.5c0-5.3-4.4-9.7-9.7-9.7h-229.5c-5.3,0-9.7,4.4-9.7,9.7v14.5
	c0,5.3,4.4,9.7,9.7,9.7H1771.3z"/>
<path class="st18" d="M1520.1,1238.4h-62.8c-4.7,0-8.6,3.8-8.6,8.6v33.7c0,4.7,3.8,8.6,8.6,8.6h62.8c-4.7,0-8.6-3.8-8.6-8.6V1247
	C1511.5,1242.2,1515.3,1238.4,1520.1,1238.4z"/>
<path class="st12" d="M1556.9,1115.4h-87.4c-11.4,0-20.8,9.3-20.8,20.8v81.4c0,11.4,9.3,20.8,20.8,20.8h87.4
	c-11.4,0-20.8-9.3-20.8-20.8v-81.4C1536.1,1124.8,1545.4,1115.4,1556.9,1115.4z"/>
<path class="st12" d="M1556.9,1238.4c-11.4,0-20.7-9.3-20.8-20.7h-87.4c0.1,11.4,9.4,20.7,20.8,20.7H1556.9z"/>
<path class="st16" d="M1684.7,1615.9c3.7,0,6.6-3,6.6-6.6v-26c0-3.7-3-6.6-6.6-6.6h-229.3c-3.7,0-6.6,3-6.6,6.6v26
	c0,3.7,3,6.6,6.6,6.6H1684.7z"/>
<path class="st17" d="M1674.7,1608.4c4.1,0,7.4-3.3,7.4-7.4v-11.2c0-4.1-3.3-7.4-7.4-7.4h-159.8c-4.1,0-7.4,3.3-7.4,7.4v11.2
	c0,4.1,3.3,7.4,7.4,7.4H1674.7z"/>
<path class="st18" d="M1498.9,1576.8h-44.1c-3.3,0-6,3-6,6.6v26c0,3.7,2.7,6.6,6,6.6h44.1c-3.3,0-6-3-6-6.6v-26
	C1492.9,1579.8,1495.5,1576.8,1498.9,1576.8z"/>
<g transform="matrix(1.3682442727906736, 0, 0, 1.3682442727906736, -521.875780117558, -370.1222928383927)">
	<path class="st16" d="M1307.6,1608.2c3.4,0,6.3-2.8,6.3-6.3v-24.5c0-3.4-2.8-6.3-6.3-6.3h-217.3c-3.4,0-6.3,2.8-6.3,6.3v24.6
		c0,3.4,2.8,6.3,6.3,6.3L1307.6,1608.2L1307.6,1608.2z"/>
	<path class="st17" d="M1298.1,1601.1c3.9,0,7.1-3.2,7.1-7.1v-10.6c0-3.9-3.2-7.1-7.1-7.1h-151.5c-3.9,0-7,3.2-7,7.1v10.6
		c0,3.9,3.2,7.1,7,7.1H1298.1z"/>
	<path class="st18" d="M1131.5,1571.1h-41.8c-3.1,0-5.7,2.8-5.7,6.3v24.6c0,3.4,2.6,6.3,5.7,6.3h41.8c-3.1,0-5.7-2.8-5.7-6.3v-24.6
		C1125.8,1573.9,1128.3,1571.1,1131.5,1571.1z"/>
</g>
<path class="st16" d="M1077.4,1820l228.4-549.8c3.6-8.8-0.5-18.7-9.3-22.4c-8.8-3.6-18.7,0.5-22.4,9.3l-228.4,549.8
	c-3.6,8.8,0.5,18.7,9.3,22.4C1063.7,1832.9,1073.7,1828.8,1077.4,1820z"/>
<path class="st16" d="M1001.3,1820l228.4-549.8c3.6-8.8-0.5-18.7-9.3-22.4c-8.8-3.6-18.7,0.5-22.4,9.3l-228.4,549.8
	c-3.6,8.8,0.5,18.7,9.3,22.4C987.6,1832.9,997.6,1828.8,1001.3,1820z"/>
<path class="st17" d="M1077.4,1820l217.4-523.2c-8.5-3-18.1,1.1-21.5,9.6l-217.4,523.2C1064.2,1832.6,1073.8,1828.5,1077.4,1820z"/>
<path class="st17" d="M1001.3,1820l217.4-523.2c-8.5-3-18.1,1.1-21.5,9.6l-217.4,523.2C988.3,1832.6,997.7,1828.5,1001.3,1820z"/>
<path class="st13" d="M1285.9,1238.4c11.4,0,20.8-9.3,20.8-20.8v-81.4c0-11.4-9.3-20.8-20.8-20.8H982.1c-11.4,0-20.8,9.3-20.8,20.8
	v81.4c0,11.4,9.3,20.8,20.8,20.8H1285.9z"/>
<path class="st12" d="M1285.9,1238.4c11.4,0,20.7-9.3,20.8-20.7H961.5c0.1,11.4,9.4,20.7,20.8,20.7H1285.9z"/>
<path class="st16" d="M1298.1,1289.2c4.7,0,8.6-3.8,8.6-8.6v-33.7c0-4.7-3.8-8.6-8.6-8.6H969.9c-4.7,0-8.6,3.8-8.6,8.6v33.7
	c0,4.7,3.8,8.6,8.6,8.6H1298.1z"/>
<path class="st17" d="M1284,1279.4c5.3,0,9.7-4.4,9.7-9.7v-14.5c0-5.3-4.4-9.7-9.7-9.7h-229.5c-5.3,0-9.7,4.4-9.7,9.7v14.5
	c0,5.3,4.4,9.7,9.7,9.7H1284z"/>
<path class="st18" d="M1032.6,1238.4h-62.8c-4.7,0-8.6,3.8-8.6,8.6v33.7c0,4.7,3.8,8.6,8.6,8.6h62.8c-4.7,0-8.6-3.8-8.6-8.6V1247
	C1024.1,1242.2,1028,1238.4,1032.6,1238.4z"/>
<path class="st12" d="M1069.4,1115.4H982c-11.4,0-20.8,9.3-20.8,20.8v81.4c0,11.4,9.3,20.8,20.8,20.8h87.4
	c-11.4,0-20.8-9.3-20.8-20.8v-81.4C1048.8,1124.8,1058.1,1115.4,1069.4,1115.4z"/>
<path class="st12" d="M1069.4,1238.4c-11.4,0-20.7-9.3-20.8-20.7h-87.4c0.1,11.4,9.4,20.7,20.8,20.7H1069.4z"/>
<path class="st16" d="M1197.2,1615.9c3.7,0,6.6-3,6.6-6.6v-26c0-3.7-3-6.6-6.6-6.6H967.9c-3.7,0-6.6,3-6.6,6.6v26
	c0,3.7,3,6.6,6.6,6.6H1197.2z"/>
<path class="st17" d="M1187.2,1608.4c4.1,0,7.4-3.3,7.4-7.4v-11.2c0-4.1-3.3-7.4-7.4-7.4h-159.8c-4.1,0-7.4,3.3-7.4,7.4v11.2
	c0,4.1,3.3,7.4,7.4,7.4H1187.2z"/>
<path class="st18" d="M1011.4,1576.8h-44.1c-3.3,0-6,3-6,6.6v26c0,3.7,2.7,6.6,6,6.6h44.1c-3.3,0-6-3-6-6.6v-26
	C1005.4,1579.8,1008.1,1576.8,1011.4,1576.8z"/>
<path class="st8" d="M1623.6,307c0,136-110.3,246.3-246.3,246.3l0,0c-136,0-246.3-110.3-246.3-246.3s110.3-246.3,246.3-246.3
	S1623.6,171,1623.6,307z"/>
<path class="st2" d="M1457.1,227.2c36.1,36.1,29.6,101-14.5,145.1l0,0c-44.1,44.1-109.1,50.6-145.1,14.5l0,0
	c-36.1-36.1-29.6-101,14.5-145.1l0,0C1356,197.7,1421,191.2,1457.1,227.2L1457.1,227.2z"/>
<path class="st10" d="M1381.7,312.6c23-32.4,46.1-65.1,78.7-82.1c-1.1-1.2-2.2-2.3-3.3-3.4c-3.1-3.1-6.4-5.9-10-8.3
	c-33,19-56.5,52.1-79.8,85.1c-22.2,31.2-44.1,62.1-74,78.4c1.4,1.5,2.7,3,4.1,4.5c2.7,2.7,5.6,5.2,8.6,7.5
	C1336.6,376.1,1359.1,344.5,1381.7,312.6z"/>
<path class="st19" d="M1202.5,206.2c-4.7,8.2-1.9,18.6,6.3,23.3s18.6,1.9,23.3-6.3c14.9-25.9,36.3-46.9,61.3-61.3l0,0
	c25-14.5,53.8-22.4,83.7-22.4c30,0,58.8,7.9,83.7,22.4l0,0c25,14.5,46.4,35.4,61.3,61.3c4.7,8.2,15.1,10.9,23.3,6.3
	s10.9-15.1,6.3-23.3c-18.1-31.2-43.6-56.4-73.9-73.9l0,0c-30.2-17.5-64.9-27.1-101-27.1c-36.1,0-70.7,9.6-101,27.1l0,0
	C1246.2,149.7,1220.6,175,1202.5,206.2z"/>
<path class="st19" d="M1254.4,467.1c34.3,26.4,77.2,41.7,122.9,41.7c45.7,0,88.4-15.3,122.9-41.7c34.3-26.4,60.3-63.8,72.1-108
	c2.5-9.2-3-18.5-12-20.9c-9.2-2.5-18.5,3-20.9,12c-9.9,36.7-31.3,67.7-59.8,89.6c-28.6,21.9-64.2,34.6-102.1,34.6
	c-38,0-73.6-12.7-102.1-34.6c-28.5-21.9-49.9-53-59.8-89.6c-2.5-9.2-11.8-14.5-20.9-12c-9.2,2.5-14.5,11.8-12,20.9
	C1194.2,403.4,1220.1,440.7,1254.4,467.1z"/>
<path class="st19" d="M1221,279.1c0,10-8.1,18.1-18.1,18.1c-10,0-18.1-8.1-18.1-18.1s8.1-18.1,18.1-18.1
	C1212.9,261.1,1221,269.1,1221,279.1z"/>
<path class="st19" d="M1569.6,279.1c0,10-8.1,18.1-18.1,18.1s-18.1-8.1-18.1-18.1s8.1-18.1,18.1-18.1S1569.6,269.1,1569.6,279.1z"/>
</svg>
