<svg id="Tram" xmlns="http://www.w3.org/2000/svg" viewBox="0 0 1145 256">
  <defs>
    <style>
      .cls-1 {
        fill: #cdd7da;
      }

      .cls-2 {
        fill: #4da763;
      }

      .cls-3 {
        fill: #d3d6d0;
      }

      .cls-4 {
        fill: #ce283d;
      }

      .cls-5 {
        fill: #424242;
      }

      .cls-6 {
        fill: #535353;
      }

      .cls-7 {
        fill: #9f9300;
      }

      .cls-8 {
        fill: none;
        stroke: #424242;
        stroke-miterlimit: 10;
        stroke-width: 5px;
      }
    </style>
  </defs>
  <g id="tram-bottom">
    <path id="head-light" class="cls-1" d="M1139,220.69c0,4.08-2.58,7.73-5.62,7.43-4.32-.42-5.56-3.66-5.77-7.37-.24-4.33,2.53-7.75,5.94-7.63C1136.82,213.23,1139,216.29,1139,220.69Z"/>
    <path id="head-light-2" data-name="head-light" class="cls-1" d="M17.94,220.31c.08,4.47-2.47,7.94-5.78,7.89-3.06,0-5.92-3.6-5.7-7.56.21-3.62,1.18-7.06,5.65-7.48C15.47,212.85,17.87,215.94,17.94,220.31Z"/>
    <path id="tram-body-bottom" class="cls-2" d="M1143.56,205.29c-5.64-.07-11.29-.21-16.93-.2q-50.82,0-101.63.06h-10a2,2,0,0,0-1.23,0l-.07,0-2.36,0h-1.42l-2,0h2l-.34-.11H960.27l-.48,0-87.68,0H752v.48l-.8-.36h-3.43l.05,0-10.12.06h-1l0-.13v0H706l0,0,.12.06H698l-29.87,0a0,0,0,0,0,0,0s0,0,0,0c0,.18,0,.37,0,.55l-.11-.41a.68.68,0,0,1,0-.14H654.87l-62.87,0-110,0H475.5v-.06H392.24l-.54.2-2.36,0c-3.45,0-6.9-.09-10.34-.12l-3,0h-2.1l-38.23,0H323.5L271,205H181c-.42,0-.85,0-1.27,0H135.67s0,0,0,0a0,0,0,0,0,0,0h-7.51q-30,0-60,0-6.59,0-13.18,0H48.07q-23.19.32-45.89,1c-5.07,10.48-2.61,22.39,6.41,29.67,6.58,5.3,14.48,7.09,22.65,7.49,7.44.36,14.9.15,22.35.2l32.12,0,24-.16,46.32.13h.69l61.07,0h10a0,0,0,0,1,0,0h2.7l61.15.06,91.14,0s0,0,0,.06h4.82l22.56-.05H412c21.54,0,49.06-.12,81.33-.24h.27l25.71.2q39.21-.1,78.4-.19c8.49,0,17,.09,25.46.15l34.64-.29,78.68.11a.34.34,0,0,1,0,.1l15.55.05,4.61,0h25.61q15.93,0,31.84,0l99.23,0h35.6l12.11,0,4.8,0,33.64-.13,5.68,0h4.93l5.29,0-3.53,0H1008v0h.95l.91,0h.23l5,0,2.49,0,42.46.3,31.9-.07c9.63-.37,19.31.63,28.91-.82,13.49-2.05,22.68-9.69,24.74-20.53C1146.59,216.17,1145.22,210.71,1143.56,205.29ZM12.16,228.2c-3.06,0-5.92-3.6-5.7-7.56.21-3.62,1.18-7.06,5.65-7.48,3.36-.31,5.76,2.78,5.83,7.15S15.47,228.25,12.16,228.2Zm1121.26-.08c-4.32-.42-5.56-3.66-5.77-7.37-.24-4.33,2.53-7.75,5.94-7.63,3.23.11,5.44,3.17,5.45,7.57C1139.06,224.77,1136.46,228.42,1133.42,228.12Z"/>
  </g>
  <path id="tram-bottom-top" class="cls-3" d="M1142,201a28.28,28.28,0,0,0-2.33-6c-.18-.33-.35-.59-.45-.76l-.3-.24c-10.91.44-19.05.69-22.42.84a4.65,4.65,0,0,1-3.44-1,4.55,4.55,0,0,1-1.15-3.28l-16.17-37c-9.88-18-20.15-35.7-32.66-52-1.23-1.19-2.73-2.16-3.27-3.93l18.92-.3c-.77-.84-1.67-1.75-2.68-2.69-13.62-12.67-30.78-14.82-35.68-15.18-10-.74-20.21-.21-30.32-.13H1005l-6,0H925.46q-55.87-.3-111.73,0-17.64.09-35.29.26h0l-9.43.09V80H752v-.35c-16-.17-30.23-.27-42.59-.32,0,0-31.77-.13-64.14,0h-2l-36.1-.07-73.93.06H399.5l-2.6,0c-2.68,0-5.24-.08-7.66-.1-6.74,0-12.45,0-17,.07l-3.7.07H325.45q-108.6,0-217.2,0a37.23,37.23,0,0,0-6.42.5c-13.34,2.31-24.61,8.89-35,17.15l19,.3c-.54,1.77-2,2.74-3.27,3.93-12.51,16.32-22.78,34.05-32.66,52l-16.17,37c-.11,3-1.36,4.35-4.59,4.25-7.74-.24-15.5-.18-23.24-.24q-1.53,4.66-3.05,9.34L2,206h.18c.19-.41.39-.8.61-1.2,15.09.08,30.19.22,45.28.23q42.54-.59,83.52-.06H136c0-.38,0-.76,0-1.14a.6.6,0,0,1,0-.19h0c0-3.16,0-6.33.07-9.49s0-5.52,0-6.91c.14-23.93.45-34.13.11-47,0-1.52-.09-3-.13-4.55q0-8.72,0-17.43c-.07-7-.06-14-.24-20.93-.07-2.64.51-3.88,3.54-3.84,13.8.16,27.6,0,41.4.19,1.57,0,4.51-1.08,4,2.59q0,46.1.11,92.18c0,2.16.06,4.32.08,6.48h0c0,3.34,0,6.67,0,10H188v0l64.16,0H271l52.5,0h69v0H393v0h12.25l.06-10.79c0-3.09,0-5.53,0-6.92.1-24,.34-34.18.08-47,0-1.52-.07-3-.1-4.56q0-8.72,0-17.45c-.06-7-.05-14-.19-21a5.06,5.06,0,0,1,.56-3,2.38,2.38,0,0,1,2.18-.8c2.26.17,14.74.19,32,.2l2.13.24c17.89-.31,30.81-.51,33.6-.59.69,0,2.6-.09,3.07,1.15a2.48,2.48,0,0,1,0,1.44q0,46.16.08,92.31c0,2.16.05,4.33.06,6.49h0c0,3.45,0,6.9,0,10.34H482v.05l110,0h0l34.33,0h13.49l24.33,0q0-6.59.07-13.16c0-3.08,0-5.52,0-6.91.1-24,.34-34.18.08-47,0-1.52-.07-3-.1-4.56q0-8.73,0-17.45c0-7,0-14-.19-21a5.17,5.17,0,0,1,.56-3.06,2.4,2.4,0,0,1,2.18-.79c2.26.17,14.74.19,32,.19l2.14.25c17.88-.32,30.8-.51,33.59-.59.7,0,2.6-.09,3.07,1.15a2.48,2.48,0,0,1,0,1.44q0,46.16.08,92.31c0,2.16.05,4.33.06,6.49h0q0,6.28,0,12.56H845v0h27.11l69.66,0h18.5l.73,0h.16c0-3.7.05-7.41.08-11.11,0-3.08,0-5.52,0-6.91.14-23.93.45-34.13.11-47,0-1.52-.09-3-.13-4.55q0-8.72,0-17.43c-.07-7-.06-14-.24-20.93-.07-2.64.51-3.88,3.54-3.84,13.8.16,27.6,0,41.4.19,1.57,0,4.51-1.08,4,2.59q0,46.1.11,92.18c0,2.16.06,4.32.08,6.48h0c0,3.43,0,6.85,0,10.28h.07v.05h4l.13-.05H1025v.15q50.8,0,101.63-.06c5.64,0,11.29.13,16.93.2C1142.83,203.49,1142.32,202,1142,201ZM122.74,164.11c.09,7.31.39,14.63.21,21.93-.14,5.44-3.38,8.27-9.15,8.29-18.48.07-37,0-55.43,0-4.33,0-8.66-.14-13,.07-3.82.19-4.53-1.09-2.54-4.21,4.69-12.69,9.44-25.36,16.43-37a20.16,20.16,0,0,0,1.24-3.11,313,313,0,0,1,31.25-49.7l2-2.91,1.94-.39,16,0,1.94,0c8.57,1.39,10.1,4,9,15.25.4,17,.5,34,0,51.06A.58.58,0,0,1,122.74,164.11Zm929.08-66.39-.85-.55C1051.8,96.5,1051.74,97.21,1051.82,97.72Zm48.38,97.05c-4.31-.21-8.64-.07-13-.07-18.47,0-37,.06-55.43,0-5.77,0-9-2.85-9.15-8.29-.18-7.3.12-14.62.21-21.93a.58.58,0,0,1,0-.74c-.55-17-.45-34,0-51.06-1.07-11.28.46-13.86,9-15.25l1.94,0,16,0,1.94.39,2,2.91a313,313,0,0,1,31.25,49.7,20.16,20.16,0,0,0,1.24,3.11c7,11.67,11.74,24.34,16.43,37C1104.73,193.68,1104,195,1100.2,194.77Z"/>
  <g id="tram-body-lights">
    <path class="cls-4" d="M748.71,197.88c-.27,1.53-1,2.41-2.29,2.46a2,2,0,0,1-2.22-2.14,2.25,2.25,0,0,1,2.46-2.47A2.31,2.31,0,0,1,748.71,197.88Z"/>
    <path class="cls-4" d="M399.73,198.34c0,1.49-.9,1.95-2.24,1.84a1.9,1.9,0,0,1-2.05-2.18,2.2,2.2,0,0,1,2.6-2.23C399.4,196,399.75,197.1,399.73,198.34Z"/>
    <path class="cls-4" d="M657.84,198.48c-.22,1.53-1.27,1.78-2.54,1.58-1.47-.22-1.88-1.21-1.63-2.52a1.92,1.92,0,0,1,2.5-1.72C657.55,196.12,657.86,197.23,657.84,198.48Z"/>
    <path class="cls-4" d="M489.32,198.18a1.85,1.85,0,0,1-2.16,2,2.23,2.23,0,0,1,.26-4.44C488.84,195.86,489.32,197,489.32,198.18Z"/>
    <path class="cls-4" d="M1017.76,198c0,1.26-.62,2.12-1.22,2.21-2.1.12-3-.47-3.11-1.82a2.09,2.09,0,0,1,2.22-2.54A2,2,0,0,1,1017.76,198Z"/>
    <path class="cls-4" d="M131.19,197.77a2.22,2.22,0,0,1-2.27,2.58c-1.42,0-1.91-1.09-2-2.29a2.27,2.27,0,0,1,2-2.35A2.08,2.08,0,0,1,131.19,197.77Z"/>
  </g>
  <g id="tyres">
    <path class="cls-5" d="M85.71,243.32c-.59,2.94-2.31,5.29-4.06,7.62-8.61,6.49-15.17,6.55-23.85.22-1.84-2.36-3.82-4.66-4.21-7.8Z"/>
    <path class="cls-5" d="M1087.88,251.09c-7.42,5.82-15,6.18-22.88.87l-.34-.36-.42.1c-1.25-2.88-4-5-4.29-8.38l31.9-.07C1092.05,246.63,1089.54,248.65,1087.88,251.09Z"/>
    <path class="cls-5" d="M917.82,243.28c-.25,3.08-2.26,5.25-3.91,7.62-10.1,7.49-17.92,6.6-26.94-3.58-1.89,6.44-6.93,5.48-11.71,5.43-7-.07-14-.11-20.91.12-4.34.14-7.92-.58-9.26-5.48-8.93,10-16.8,11-26.94,3.7-1.7-2.42-3.66-4.7-4.09-7.79l99.23,0Z"/>
    <path class="cls-5" d="M623.13,243.31c-.63,3.58-3,6.09-5.23,8.74-10.4,6.08-16.6,5.08-25.66-4.44-2,5.34-6.23,5.41-10.92,5.24-7.45-.27-14.91-.09-22.36-.09-5.65,0-5.65,0-9-5.22-2.18,2.14-3.9,4.71-6.6,6.16-7.3,3.92-13.62,2.59-21.91-4.71l-2.22-5.64q39.21-.1,78.4-.19C606.16,243.14,614.65,243.25,623.13,243.31Z"/>
    <path class="cls-5" d="M331.57,243.45c-.5,3-2.37,5.2-4.08,7.52-6.79,5.82-14.12,6-21.85,2.08l-4.85-5.58-3.18,4.67-4.09.65-1.82,0h-2.19a17.88,17.88,0,0,0-6.8,0,76.92,76.92,0,0,0-17.16-.05.8.8,0,0,0-.84,0l-2.14-.23c-2.07-1-2.57-3.44-4-5.13l-5.08,5.75c-8.32,4.05-16,3.54-22.69-3.31-1.33-2-2.73-4-3.1-6.54h6.79C280,243.61,313.61,243.53,331.57,243.45Z"/>
  </g>
  <g id="glasses">
    <g id="glass">
      <path class="cls-6" d="M85.79,97.32c-.54,1.77-2,2.74-3.27,3.93-12.51,16.32-22.78,34.05-32.66,52l-16.17,37c-.11,3-1.36,4.35-4.59,4.25-7.74-.24-15.5-.18-23.24-.24-.67-2.64,1.82-3.79,2.7-5.7,3.16-10.12,7.89-19.52,13.16-28.67l.92-2A270.76,270.76,0,0,1,58,104.83a23.55,23.55,0,0,1,3-2.56A16.34,16.34,0,0,1,66.79,97Z"/>
      <path class="cls-6" d="M122.74,164.11c.09,7.31.39,14.63.21,21.93-.14,5.44-3.38,8.27-9.15,8.29-18.48.07-37,0-55.43,0-4.33,0-8.66-.14-13,.07-3.82.19-4.53-1.09-2.54-4.21,4.69-12.69,9.44-25.36,16.43-37a20.16,20.16,0,0,0,1.24-3.11,313,313,0,0,1,31.25-49.7l2-2.91,1.94-.39,16,0,1.94,0c8.57,1.39,10.1,4,9,15.25.4,17,.5,34,0,51.06A.58.58,0,0,1,122.74,164.11Z"/>
    </g>
    <g id="glass-2" data-name="glass">
      <path class="cls-6" d="M1139,194h-.08c-10.91.44-19.05.69-22.42.84a4.65,4.65,0,0,1-3.44-1,4.55,4.55,0,0,1-1.15-3.28l-16.17-37c-9.88-18-20.15-35.7-32.66-52-1.23-1.19-2.73-2.16-3.27-3.93l18.92-.3h.08l5.3,5.67a200.1,200.1,0,0,1,38.85,55.2c.31.66.62,1.32.92,2,5.27,9.15,10,18.55,13.16,28.67Z"/>
      <path class="cls-6" d="M1100.2,194.77c-4.31-.21-8.64-.07-13-.07-18.47,0-37,.06-55.43,0-5.77,0-9-2.85-9.15-8.29-.18-7.3.12-14.62.21-21.93a.58.58,0,0,1,0-.74c-.55-17-.45-34,0-51.06-1.07-11.28.46-13.86,9-15.25l1.94,0,16,0,1.94.39,2,2.91a313,313,0,0,1,31.25,49.7,20.16,20.16,0,0,0,1.24,3.11c7,11.67,11.74,24.34,16.43,37C1104.73,193.68,1104,195,1100.2,194.77Z"/>
    </g>
  </g>
  <g id="doors">
    <g id="door">
      <path class="cls-7" d="M184.82,188.49q-.06-46.08-.11-92.18c.55-3.67-2.39-2.57-4-2.59-13.8-.14-27.6,0-41.4-.19-3,0-3.61,1.2-3.54,3.84.18,7,.17,13.95.24,20.93q0,8.72,0,17.43c0,1.52.09,3,.13,4.55.34,12.83,0,23-.11,47,0,1.39,0,3.83,0,6.91s-.05,6.33-.07,9.49h0v.19c0,.38,0,.76,0,1.14l-.21,28h.15l4.71.06c-.75-4.68,1-6.25,5.9-6,9,.42,18,.39,26.94,0,4.8-.21,7.29.82,6.32,6.07l5-.11.06-19,0-9c0-3.34,0-6.67,0-10h0C184.88,192.81,184.83,190.65,184.82,188.49ZM141.24,118.2c0-.63,0-1.26,0-1.88a14,14,0,0,1,0-11c.08-6,.09-6.88,4.55-6.92.58,0,1.24,0,2,0h9.67l17.31.09.51,0,.55-.06.54-.06a4.34,4.34,0,0,1,1,0l.27.06a2.22,2.22,0,0,1,1.26.89l1.07.06h0q-.12,27-.23,53.94c0,.2,0,.4,0,.6s0,.4.06.6,0,.4.07.6c.07.57.15,1.14.23,1.71s.12,1,.17,1.44c0,.24,0,.48.05.72,0,.47,0,.93,0,1.4,0,.22,0,.45-.06.67a11,11,0,0,1-.27,1.34c-.09.29-.19.59-.31.89,0,10.59,0,21.18,0,31.77q0,5,0,10,0,5.26.09,10.53a10.1,10.1,0,0,1-.06,1.39,6.5,6.5,0,0,1-.18,1,3.05,3.05,0,0,1-.35.88l-.16.24h0a2,2,0,0,1-.53.52,1.22,1.22,0,0,1-.32.2,2.71,2.71,0,0,1-.78.31,7.91,7.91,0,0,1-1,.17,15.26,15.26,0,0,1-1.56,0c-7.54-.17-15.07-.19-22.6-.13l-7.23.1h-.43c-3.22,0-4.6-.84-4.42-4.2.21-3.68.21-7.37.21-11.06,0-1.29,0-2.58,0-3.87,0-1.09,0-2.84,0-5,0-14.71.6-21.48.75-37.44,0-3-1.65-7.58-.28-13.2a11.2,11.2,0,0,0-.67-8.22q0-.49.06-1c.05-1,.09-2,.15-3a5.33,5.33,0,0,1-.17-1c.05-3.67.09-7.34.15-11-.15-.66-.3-1.32-.44-2Z"/>
      <path class="cls-1" d="M179.76,233.11l-39.16-.06c-.75-4.68,1-6.25,5.9-6,9,.42,18,.39,26.94,0C178.24,226.83,180.73,227.86,179.76,233.11Z"/>
      <rect class="cls-6" x="140" y="97" width="41" height="124" rx="2.62"/>
    </g>
    <g id="big-door">
      <path class="cls-7" d="M701.94,186.26,701.85,94c-.1-.76-.21-1.52-.31-2.28l-.61-.07-2.14-.25c-17.26,0-29.74,0-32-.19a2.4,2.4,0,0,0-2.18.79,5.17,5.17,0,0,0-.56,3.06c.14,7,.14,14,.19,21q0,8.73,0,17.45c0,1.53.07,3,.1,4.56.26,12.85,0,23.06-.08,47,0,1.39,0,3.83,0,6.91q0,6.59-.07,13.16v.08L664,230.82h.12l3.64.06a14.21,14.21,0,0,1-.13-2.06,2.26,2.26,0,0,1,0-.27.2.2,0,0,1,0-.11c0-.3.06-.58.11-.84,0,0,0-.06,0-.08a2.94,2.94,0,0,1,1.64-2.27,5.9,5.9,0,0,1,2.92-.4,180.76,180.76,0,0,0,20.82,0c3.7-.21,5.63.81,4.89,6v0l1.3,0,2.58-.07v-.33c0-2.08,0-4.15,0-6.23l0-12.49q0-3.36,0-6.72a.06.06,0,0,0,0-.06c0-4.08,0-8.15,0-12.24h0C702,190.58,701.94,188.42,701.94,186.26Zm-33.69-70.39c0-.63,0-1.26,0-1.88a17.9,17.9,0,0,1,0-11.07c.06-6,.07-6.89,3.52-6.93.45,0,1,0,1.53,0h7.47l13.38.09.4,0,.42-.06.42-.06a2.61,2.61,0,0,1,.79,0l.21.06a1.79,1.79,0,0,1,1,.89l.83.06h0q-.09,27-.18,54c0,.2,0,.4,0,.6s0,.4,0,.6,0,.4.06.6c0,.57.11,1.14.17,1.71s.1,1,.14,1.44c0,.24,0,.49,0,.73,0,.47,0,.93,0,1.4,0,.22,0,.45,0,.67,0,.44-.12.89-.21,1.34-.07.29-.15.59-.24.89,0,10.61,0,21.21,0,31.82q0,6.12,0,12.24s0,0,0,.06c0,2.75,0,5.51.05,8.26,0,.52,0,1,0,1.4s-.08.69-.14,1a4.37,4.37,0,0,1-.27.88l-.13.24h0a1.63,1.63,0,0,1-.41.52.88.88,0,0,1-.24.2,1.85,1.85,0,0,1-.61.31,4.75,4.75,0,0,1-.74.17,9.15,9.15,0,0,1-1.21,0c-5.82-.17-11.64-.19-17.46-.13l-5.59.1h-.34c-2.48,0-3.55-.84-3.41-4.2.12-2.89.15-5.79.15-8.69a.11.11,0,0,0,0-.08c0-2.07,0-4.13,0-6.19,0-1.09,0-2.84,0-5,0-14.73.46-21.51.58-37.49,0-3-1.28-7.6-.22-13.22a14.29,14.29,0,0,0-.51-8.23c0-.34,0-.67,0-1,0-1,.07-2,.12-3a6.28,6.28,0,0,1-.13-1c0-3.68.07-7.35.11-11-.11-.66-.23-1.32-.34-2Z"/>
      <rect class="cls-6" x="667.29" y="94.64" width="31.69" height="124.17" rx="2.62"/>
      <path class="cls-7" d="M737.66,185.91q0-46.14-.08-92.31a2.48,2.48,0,0,0,0-1.44c-.47-1.24-2.37-1.17-3.07-1.15-2.79.08-15.71.27-33.59.59h-.59c-.15.69-.36,1.75-.56,3-1.19,7.75.19,11.09.19,21q0,8.73,0,17.46c0,1.52.07,3,.1,4.55.26,12.85,0,23.06-.09,47,0,1.39,0,3.84,0,6.92q0,6.71-.08,13.42v.06q0,9.62-.1,19.22c0,2.06,0,4.13,0,6.19h.11l2.07,0,1.57,0c-.58-4.68.79-6.26,4.56-6a180.94,180.94,0,0,0,20.83,0,7.59,7.59,0,0,1,2.94.27,3.32,3.32,0,0,1,.71.34c1.2.78,1.67,2.41,1.23,5.47h.5l3.39-.1q0-9.53.05-19c0-2.1,0-4.21,0-6.31V205q0-6.27,0-12.56h0C737.71,190.24,737.67,188.07,737.66,185.91ZM704,115.52c0-.63,0-1.26,0-1.88a17.82,17.82,0,0,1,0-11.07c.06-6,.07-6.89,3.51-6.93.45,0,1,0,1.53,0h7.48l13.38.09.39,0,.43-.06.41-.06a2.6,2.6,0,0,1,.79,0l.21.06a1.79,1.79,0,0,1,1,.9l.82.06h0l-.18,54,0,.6c0,.2,0,.4,0,.6s0,.4.05.6l.18,1.72c.05.48.09,1,.13,1.44,0,.24,0,.48,0,.72,0,.47,0,.93,0,1.4,0,.22,0,.45-.05.67a10.63,10.63,0,0,1-.21,1.34c-.06.29-.14.59-.23.89,0,10.61,0,21.21,0,31.82q0,6.27,0,12.56,0,4,0,8a12.1,12.1,0,0,1,0,1.39,8.42,8.42,0,0,1-.14,1,3.38,3.38,0,0,1-.27.88l-.12.24h0a2,2,0,0,1-.41.52.92.92,0,0,1-.25.2,1.9,1.9,0,0,1-.6.31,5,5,0,0,1-.74.17,9.21,9.21,0,0,1-1.21,0c-5.83-.17-11.65-.19-17.47-.13l-5.59.1h-.33c-2.49.05-3.56-.84-3.42-4.2.12-2.81.15-5.63.16-8.44V205c0-2.15,0-4.3,0-6.45,0-1.09,0-2.85,0-5,0-14.73.46-21.51.58-37.49,0-3-1.28-7.59-.22-13.22a14.3,14.3,0,0,0-.52-8.23c0-.33,0-.66,0-1,0-1,.07-2,.11-3a7.8,7.8,0,0,1-.13-1c0-3.67.07-7.35.12-11-.12-.66-.23-1.33-.34-2C703.33,116.27,703.65,115.89,704,115.52Z"/>
      <path class="cls-1" d="M734.16,230.94l-66.25-.07c-1.27-5.39,1.72-7.2,10-6.94,15.16.49,30.4.45,45.58,0C731.59,223.7,735.8,224.89,734.16,230.94Z"/>
      <rect class="cls-6" x="703.02" y="94.29" width="31.69" height="124.17" rx="2.62"/>
    </g>
    <g id="big-door-2" data-name="big-door">
      <path class="cls-7" d="M443,188.56q-.06-46.16-.09-92.31c-.1-.76-.21-1.52-.31-2.28L442,93.9l-2.13-.24c-17.26,0-29.74,0-32-.2a2.38,2.38,0,0,0-2.18.8,5.06,5.06,0,0,0-.56,3c.14,7,.13,14,.19,21q0,8.73,0,17.45c0,1.53.07,3,.1,4.56.26,12.85,0,23.06-.08,47,0,1.39,0,3.83,0,6.92L405.25,205h0q-.08,14-.16,28.09h.11l3.65.06a15.79,15.79,0,0,1-.13-2.06,2.26,2.26,0,0,1,0-.27.28.28,0,0,1,0-.13c0-.27,0-.53.1-.76a.68.68,0,0,1,0-.15,3,3,0,0,1,1.65-2.27,6,6,0,0,1,2.91-.39,180.76,180.76,0,0,0,20.82,0c3.7-.21,5.62.81,4.88,6v0l1.3,0,2.59-.07v-.33c0-2.08,0-4.15,0-6.23l0-12.49q0-4.53,0-9v0c0-3.31,0-6.62,0-9.94h0C443.07,192.88,443,190.72,443,188.56Zm-33.69-70.39c0-.63,0-1.26,0-1.88a17.9,17.9,0,0,1,0-11.07c.06-6,.07-6.89,3.52-6.93.44,0,.95,0,1.53,0h7.47l13.38.09.4,0,.42-.06.42-.06a2.61,2.61,0,0,1,.79,0l.2.06a1.81,1.81,0,0,1,1,.89l.83.06h0q-.09,27-.18,54l0,.6c0,.2,0,.4.05.6s0,.4,0,.6l.18,1.71c.05.48.1,1,.13,1.45,0,.24,0,.48,0,.72,0,.47,0,.93,0,1.4,0,.22,0,.45,0,.67,0,.44-.12.89-.21,1.34-.07.29-.15.59-.24.89,0,10.61,0,21.21,0,31.82,0,3.31,0,6.63,0,9.94,0,0,0,0,0,0q0,5.29.06,10.59a12.1,12.1,0,0,1-.05,1.39,8.54,8.54,0,0,1-.13,1,3.8,3.8,0,0,1-.28.88c0,.08-.08.16-.12.24h0a1.78,1.78,0,0,1-.41.52.92.92,0,0,1-.25.2,1.71,1.71,0,0,1-.6.31,4.75,4.75,0,0,1-.74.17,9.21,9.21,0,0,1-1.21,0c-5.82-.17-11.65-.19-17.47-.13l-5.58.1H412c-2.49.05-3.55-.84-3.41-4.2.16-3.7.16-7.41.16-11.12v0c0-1.27,0-2.53,0-3.8,0-1.1,0-2.85,0-5,0-14.73.46-21.51.58-37.49,0-3-1.28-7.59-.22-13.22a14.21,14.21,0,0,0-.52-8.23c0-.33,0-.66.05-1,0-1,.07-2,.12-3a6.28,6.28,0,0,1-.13-1c0-3.68.07-7.35.11-11-.11-.66-.23-1.32-.34-2Z"/>
      <rect class="cls-6" x="408.38" y="96.94" width="31.69" height="124.17" rx="2.62"/>
      <path class="cls-7" d="M478.75,188.21q0-46.14-.08-92.31a2.48,2.48,0,0,0,0-1.44c-.47-1.24-2.38-1.17-3.07-1.15-2.79.08-15.71.28-33.6.59h-.59c-.14.69-.35,1.75-.55,3-1.2,7.75.18,11.09.18,21v17.46c0,1.52.07,3,.1,4.55.26,12.85,0,23.06-.09,47,0,1.39,0,3.84,0,6.92,0,3.71,0,7.41-.07,11.12v0l-.12,21.54c0,2.06,0,4.13,0,6.19h.12l2.07,0,1.57,0c-.58-4.68.79-6.26,4.56-6a180.76,180.76,0,0,0,20.82,0,7.71,7.71,0,0,1,3,.28l.26.11a3,3,0,0,1,.4.21c1.19.79,1.66,2.42,1.22,5.47h.5l3.39-.1q0-9.53,0-19l0-8.63v-.06c0-3.44,0-6.89,0-10.34h0C478.8,192.54,478.76,190.37,478.75,188.21Zm-33.68-70.39c0-.63,0-1.26,0-1.88a17.9,17.9,0,0,1,0-11.07c.07-6,.07-6.89,3.52-6.93.45,0,1,0,1.53,0h7.48l13.38.09.39-.05.43-.06.41-.06a2.61,2.61,0,0,1,.79,0l.21.06a1.78,1.78,0,0,1,1,.9l.83.06h0l-.18,54c0,.2,0,.4,0,.6s0,.4.05.6,0,.4.05.6c.05.58.12,1.15.18,1.72s.09,1,.13,1.44c0,.24,0,.48,0,.72,0,.47,0,.93,0,1.4,0,.22,0,.45-.05.67A10.63,10.63,0,0,1,475,162c-.07.29-.14.6-.24.9,0,10.6,0,21.21,0,31.81,0,3.43,0,6.86,0,10.29v.05c0,3.41,0,6.82.07,10.23,0,.51,0,1-.05,1.39a8.42,8.42,0,0,1-.14,1,3.38,3.38,0,0,1-.27.88l-.12.24h0a2,2,0,0,1-.41.52,1.55,1.55,0,0,1-.25.21,1.9,1.9,0,0,1-.6.31,4.89,4.89,0,0,1-.75.17,9,9,0,0,1-1.2,0c-5.83-.17-11.65-.19-17.47-.13L448,220h-.33c-2.49.05-3.56-.85-3.42-4.21.16-3.58.16-7.17.17-10.75V205c0-1.39,0-2.77,0-4.15,0-1.09,0-2.85,0-5,0-14.73.47-21.51.58-37.49,0-3-1.27-7.59-.21-13.22a14.3,14.3,0,0,0-.52-8.23c0-.33,0-.66.05-1,0-1,.07-2,.11-3a6.28,6.28,0,0,1-.13-1c0-3.67.07-7.35.12-11-.12-.66-.23-1.32-.34-2C444.42,118.57,444.74,118.19,445.07,117.82Z"/>
      <path class="cls-1" d="M475.25,233.24,409,233.17c-1.27-5.39,1.72-7.2,10-6.94,15.16.49,30.4.45,45.58,0C472.68,226,476.89,227.19,475.25,233.24Z"/>
      <rect class="cls-6" x="444.11" y="96.59" width="31.69" height="124.17" rx="2.62"/>
    </g>
    <g id="door-2" data-name="door">
      <path class="cls-7" d="M1010,188.23q-.06-46.08-.11-92.18c.55-3.67-2.39-2.57-4-2.59-13.8-.14-27.6,0-41.4-.19-3,0-3.61,1.2-3.54,3.84.18,7,.17,14,.24,20.93q0,8.71,0,17.43c0,1.52.09,3,.13,4.55.34,12.83,0,23-.11,47,0,1.39,0,3.83,0,6.91,0,3.7-.06,7.41-.08,11.11v0l-.21,27.7h.15l4.71.06c-.75-4.68,1-6.25,5.9-6,9,.42,18,.39,26.94,0,4.8-.21,7.29.82,6.32,6.07l5-.11.06-19,0-8.53V205c0-3.43,0-6.85,0-10.28h0C1010.09,192.55,1010,190.39,1010,188.23Zm-43.58-70.29c0-.63,0-1.26,0-1.88a14,14,0,0,1,0-11c.08-6,.09-6.88,4.55-6.92.58,0,1.24,0,2,0h9.67l17.31.09.51,0,.55-.06.54-.06a4.34,4.34,0,0,1,1,0l.27.06a2.22,2.22,0,0,1,1.26.89l1.07.06h0q-.12,27-.23,53.94c0,.2,0,.4,0,.6s0,.4.06.6,0,.4.07.6c.07.57.15,1.14.23,1.71s.12,1,.17,1.44c0,.24,0,.48,0,.72,0,.47,0,.93,0,1.4,0,.22,0,.45-.06.67a11,11,0,0,1-.27,1.34c-.09.29-.19.59-.31.89,0,10.59,0,21.18,0,31.77l0,10.28v.05c0,3.4,0,6.81.09,10.21a10.1,10.1,0,0,1-.06,1.39,6.5,6.5,0,0,1-.18,1,3.05,3.05,0,0,1-.35.88l-.16.24h0a2,2,0,0,1-.53.52,1.22,1.22,0,0,1-.32.2,2.71,2.71,0,0,1-.78.31,7.91,7.91,0,0,1-1,.17,15.26,15.26,0,0,1-1.56,0c-7.54-.17-15.07-.19-22.6-.13l-7.23.1h-.43c-3.22.05-4.6-.84-4.42-4.2.2-3.58.21-7.17.21-10.75a0,0,0,0,0,0,0c0-1.38,0-2.77,0-4.15,0-1.09,0-2.84,0-5,0-14.71.6-21.48.75-37.44,0-3-1.65-7.58-.28-13.2a11.2,11.2,0,0,0-.67-8.22q0-.5.06-1c.05-1,.09-2,.15-3a5.33,5.33,0,0,1-.17-1c0-3.67.09-7.34.15-11-.15-.66-.3-1.32-.44-2Z"/>
      <path class="cls-1" d="M1005,232.85l-39.16-.06c-.75-4.68,1-6.25,5.9-6,9,.42,18,.39,26.94,0C1003.45,226.57,1005.94,227.6,1005,232.85Z"/>
      <rect class="cls-6" x="965.21" y="96.74" width="41" height="124" rx="2.62"/>
    </g>
  </g>
  <g id="windows">
    <g id="window">
      <path class="cls-6" d="M284.55,104.2v77.12a4.36,4.36,0,0,1,0,.51,4.94,4.94,0,0,1-2.81,4h0a4.85,4.85,0,0,1-2.12.48H210.52a5,5,0,0,1-5-5V104.2a4.9,4.9,0,0,1,.76-2.62h0a5,5,0,0,1,4.21-2.34h69.06A5,5,0,0,1,284.55,104.2Z"/>
      <path class="cls-8" d="M284.55,105.26v76.06a4.36,4.36,0,0,1,0,.51,5,5,0,0,1-3.1,4.11h0a4.81,4.81,0,0,1-1.83.35H211.52a4.89,4.89,0,0,1-1.58-.26h0a5,5,0,0,1-3.38-4.71V105.26a5,5,0,0,1,5-5h68.06A5,5,0,0,1,284.55,105.26Z"/>
    </g>
    <g id="window-2" data-name="window">
      <path class="cls-6" d="M383.32,103.77v77.11a4.36,4.36,0,0,1,0,.51,4.81,4.81,0,0,1-1,2.56,4.9,4.9,0,0,1-3.43,1.92h0a4.19,4.19,0,0,1-.5,0H309.12a5,5,0,0,1-4.77-4.45,0,0,0,0,1,0,0h0a3.44,3.44,0,0,1,0-.46V103.77a5,5,0,0,1,5-5h69.06a5,5,0,0,1,4.33,2.53h0A4.87,4.87,0,0,1,383.32,103.77Z"/>
      <path class="cls-8" d="M383.32,104.82v76.06a4.36,4.36,0,0,1,0,.51,4.84,4.84,0,0,1-1,2.48h0a5,5,0,0,1-4,2H310.29a5,5,0,0,1-5-5V104.82a5,5,0,0,1,5-5h68.06a5,5,0,0,1,5,5Z"/>
    </g>
  </g>
  <g id="windows-2" data-name="windows">
    <g id="window-3" data-name="window">
      <path class="cls-6" d="M841.61,103.89V181a4.36,4.36,0,0,1,0,.51,4.94,4.94,0,0,1-2.81,4h0a4.85,4.85,0,0,1-2.12.48H767.58a5,5,0,0,1-5-5V103.89a4.9,4.9,0,0,1,.76-2.62h0a5,5,0,0,1,4.21-2.34h69.06A5,5,0,0,1,841.61,103.89Z"/>
      <path class="cls-8" d="M841.61,105V181a4.36,4.36,0,0,1,0,.51,5,5,0,0,1-3.1,4.11h0a4.81,4.81,0,0,1-1.83.35H768.58a4.89,4.89,0,0,1-1.58-.26h0a5,5,0,0,1-3.38-4.71V105a5,5,0,0,1,5-5h68.06A5,5,0,0,1,841.61,105Z"/>
    </g>
    <g id="window-4" data-name="window">
      <path class="cls-6" d="M940.38,103.46v77.11a4.36,4.36,0,0,1,0,.51,4.81,4.81,0,0,1-1,2.56,4.9,4.9,0,0,1-3.43,1.92h0a4.19,4.19,0,0,1-.5,0H866.18a5,5,0,0,1-4.77-4.45,0,0,0,0,1,0,0h0a3.44,3.44,0,0,1,0-.46V103.46a5,5,0,0,1,5-5h69.06a5,5,0,0,1,4.33,2.53h0A4.87,4.87,0,0,1,940.38,103.46Z"/>
      <path class="cls-8" d="M940.38,104.51v76.06a4.36,4.36,0,0,1,0,.51,4.84,4.84,0,0,1-1,2.48h0a5,5,0,0,1-4,2H867.35a5,5,0,0,1-5-5V104.51a5,5,0,0,1,5-5h68.06a5,5,0,0,1,5,5Z"/>
    </g>
  </g>
  <g id="division">
    <path class="cls-5" d="M565.24,79.14V243h-17V79.08l9.71.12h.14C560.47,79.17,562.86,79.15,565.24,79.14Z"/>
    <path class="cls-5" d="M594.37,79.06V243.44h-17V79l9.71.12h.14C589.6,79.09,592,79.07,594.37,79.06Z"/>
    <path class="cls-5" d="M613.86,49.79c-11.39,6.5-22.85,12.88-34.28,19.33-1.52.86-3,1.83-4.47,2.75.08.43.16.86.23,1.3,5.84,0,11.69-.16,17.52,0,5.5.18,11,.61,14.35,6.1l-73.93.06c1.69-4.1,5.62-4.71,9.2-5.75a9.39,9.39,0,0,1,4-.38c12.5,2,22.84-3.19,33.07-9.43s20.75-11.89,31.21-17.7c2.91-1.61,3.77-2.67.33-4.92Q586.23,25,561.67,8.38c-2.49-1.68-4.95-1.55-7.61-1.21-2.08.27-4.23.34-4.4-2.56-.14-2.55,1.74-2.79,3.7-2.94q9-.64,17.91-1.4c2-.17,4.36-.69,4.71,2.13.39,3.14-2.08,3.2-4.34,3.32a26.46,26.46,0,0,0-3.43.65c6.33,5.44,13.18,9.15,19.57,13.51,8.79,6,17.73,11.76,26.56,17.69C620.3,41.58,620.14,46.2,613.86,49.79Z"/>
  </g>
</svg>
