<?xml version="1.0" encoding="utf-8"?>
<!-- Generator: Adobe Illustrator 24.1.0, SVG Export Plug-In . SVG Version: 6.00 Build 0)  -->
<svg version="1.1" id="eom6upf85pu1" text-rendering="geometricPrecision" shape-rendering="geometricPrecision"
	 xmlns="http://www.w3.org/2000/svg" xmlns:xlink="http://www.w3.org/1999/xlink" x="0px" y="0px" viewBox="0 0 466.5 905.4"
	 style="enable-background:new 0 0 466.5 905.4;" xml:space="preserve">
<style type="text/css">
	.st0{fill:#C3996B;}
	.st1{fill:#754D29;}
	.st2{fill:#84786E;}
	.st3{fill:#2A2218;}
	.st4{fill:#C5B9B5;}
	.st5{fill:#946822;}
	.st6{fill:#F0DE0E;}
	.st7{fill:#EBC31C;}
	.st8{fill:#C7901A;}
	.st9{fill:#FEDECB;}
	.st10{fill:#9E6527;}
	.st11{fill:#835B24;}
	.st12{fill:#946821;}
	.st13{fill:#FFFFFF;}
</style>
<g id="eom6upf85pu2" transform="matrix(2.24216000000000 0 0 2.24216000000000 -1726.48000000000002 -996.93799999999999)">
	<path id="eom6upf85pu3" class="st0" d="M818.9,842.7l-10.2,1.1c0,0-0.2,4.1,1.9,6.1s10.6,2.4,20.1,2.6s17.1-0.9,18-2.2s0-6.3,0-6.3
		L818.9,842.7z"/>
	<path id="eom6upf85pu4" class="st1" d="M814.1,810.8c0,0-2.2,13-1.9,16c0.2,3-2.6,1.7-3.5,6.7c-0.9,5,0,11,0,11s9.5,2.8,23.8,2.2
		c14.3-0.6,16.2-0.9,16.2-0.9s2.6-11.3-1.5-16.9c0,0-1.1-11.5-1.3-13.9c-0.2-2.4-0.4-4.1-0.4-4.1L814.1,810.8z"/>
	<path id="eom6upf85pu5" class="st2" d="M815,809.8c0,0-2.2-0.9-2.2,1.1s-0.9,4.1,0.4,5c1.3,0.9,7.6,3.2,20.1,3.2
		c12.6,0,14.1-1.3,14.5-2.6c0.4-1.3,0.4-3.9,0.4-3.9l-4.3-2.4L815,809.8z"/>
	<g id="eom6upf85pu6">
		<g id="eom6upf85pu7">
			<path id="eom6upf85pu8" class="st3" d="M819.3,829c-0.1-0.2,0-0.5,0.2-0.6l0,0c0,0,7.8-3.1,15.5-3.1l0,0c1.2,0,2.4,0.1,3.6,0.3
				l0,0c0.2,0,0.4,0.3,0.4,0.5l0,0c0,0.2-0.3,0.4-0.5,0.4l0,0c-1.1-0.2-2.3-0.3-3.5-0.3l0,0c-7.4,0-15.1,3-15.1,3l0,0l0,0
				c-0.1,0-0.1,0-0.2,0l0,0C819.6,829.2,819.4,829.1,819.3,829L819.3,829z"/>
		</g>
		<g id="eom6upf85pu9">
			<path id="eom6upf85pu10" class="st3" d="M819.3,826.1c-0.1-0.2,0-0.5,0.2-0.6l0,0c0,0,7.8-3.1,15.5-3.1l0,0
				c1.2,0,2.4,0.1,3.6,0.3l0,0c0.2,0,0.4,0.3,0.4,0.5l0,0c0,0.2-0.3,0.4-0.5,0.4l0,0c-1.1-0.2-2.3-0.3-3.5-0.3l0,0
				c-7.4,0-15.1,3-15.1,3l0,0l0,0c-0.1,0-0.1,0-0.2,0l0,0C819.6,826.4,819.4,826.3,819.3,826.1L819.3,826.1z"/>
		</g>
		<g id="eom6upf85pu11">
			<path id="eom6upf85pu12" class="st3" d="M819.3,822.9c-0.1-0.2,0-0.5,0.2-0.6l0,0c0,0,7.8-3.1,15.5-3.1l0,0
				c1.2,0,2.4,0.1,3.6,0.3l0,0c0.2,0,0.4,0.3,0.4,0.5l0,0c0,0.2-0.3,0.4-0.5,0.4l0,0c-1.1-0.2-2.3-0.2-3.5-0.2l0,0
				c-7.4,0-15.1,3-15.1,3l0,0l0,0c-0.1,0-0.1,0-0.2,0l0,0C819.6,823.2,819.4,823.1,819.3,822.9L819.3,822.9z"/>
		</g>
	</g>
	<g id="eom6upf85pu13">
		<g id="eom6upf85pu14">
			<path id="eom6upf85pu15" class="st3" d="M839,829c0.1-0.2,0-0.5-0.2-0.6l0,0c0,0-7.8-3.1-15.5-3.1l0,0c-1.2,0-2.4,0.1-3.6,0.3
				l0,0c-0.2,0-0.4,0.3-0.4,0.5l0,0c0,0.2,0.3,0.4,0.5,0.4l0,0c1.1-0.2,2.3-0.3,3.5-0.3l0,0c7.4,0,15.1,3,15.1,3l0,0l0,0
				c0.1,0,0.1,0,0.2,0l0,0C838.7,829.2,838.9,829.1,839,829L839,829z"/>
		</g>
		<g id="eom6upf85pu16">
			<path id="eom6upf85pu17" class="st3" d="M839,826.1c0.1-0.2,0-0.5-0.2-0.6l0,0c0,0-7.8-3.1-15.5-3.1l0,0c-1.2,0-2.4,0.1-3.6,0.3
				l0,0c-0.2,0-0.4,0.3-0.4,0.5l0,0c0,0.2,0.3,0.4,0.5,0.4l0,0c1.1-0.2,2.3-0.3,3.5-0.3l0,0c7.4,0,15.1,3,15.1,3l0,0l0,0
				c0.1,0,0.1,0,0.2,0l0,0C838.7,826.4,838.9,826.3,839,826.1L839,826.1z"/>
		</g>
		<g id="eom6upf85pu18">
			<path id="eom6upf85pu19" class="st3" d="M839,822.9c0.1-0.2,0-0.5-0.2-0.6l0,0c0,0-7.8-3.1-15.5-3.1l0,0c-1.2,0-2.4,0.1-3.6,0.3
				l0,0c-0.2,0-0.4,0.3-0.4,0.5l0,0c0,0.2,0.3,0.4,0.5,0.4l0,0c1.1-0.2,2.3-0.2,3.5-0.2l0,0c7.4,0,15.1,3,15.1,3l0,0l0,0
				c0.1,0,0.1,0,0.2,0l0,0C838.7,823.2,838.9,823.1,839,822.9L839,822.9z"/>
		</g>
	</g>
</g>
<path id="eom6upf85pu20" class="st0" d="M349.8,892.5l22.9,2.5c0,0,0.4,9.2-4.3,13.7c-4.7,4.5-23.8,5.4-45.1,5.8
	c-21.3,0.4-38.3-2-40.4-4.9c-2-2.9,0-14.1,0-14.1L349.8,892.5z"/>
<path id="eom6upf85pu21" class="st1" d="M360.3,821c0,0,4.9,29.1,4.3,35.9c-0.4,6.7,5.8,3.8,7.8,15c2,11.2,0,24.7,0,24.7
	s-21.3,6.3-53.4,4.9c-32.1-1.3-36.3-2-36.3-2s-5.8-25.3,3.4-37.9c0,0,2.5-25.8,2.9-31.2c0.4-5.4,0.9-9.2,0.9-9.2L360.3,821z"/>
<path id="eom6upf85pu22" class="st2" d="M358.5,818.8c0,0,4.9-2,4.9,2.5s2,9.2-0.9,11.2c-2.9,2-17,7.2-45.1,7.2
	c-28.3,0-31.6-2.9-32.5-5.8c-0.9-2.9-0.9-8.7-0.9-8.7l9.6-5.4L358.5,818.8z"/>
<g id="eom6upf85pu23" transform="matrix(2.24216000000000 0 0 2.24216000000000 -1726.48000000000002 -996.93799999999999)">
	<path id="eom6upf85pu24" class="st3" d="M925.5,829c0.1-0.2,0-0.5-0.2-0.6l0,0c0,0-7.8-3.1-15.5-3.1l0,0c-1.2,0-2.4,0.1-3.6,0.3
		l0,0c-0.2,0-0.4,0.3-0.4,0.5l0,0c0,0.2,0.3,0.4,0.5,0.4l0,0c1.1-0.2,2.3-0.3,3.5-0.3l0,0c7.4,0,15.1,3,15.1,3l0,0l0,0
		c0.1,0,0.1,0,0.2,0l0,0C925.3,829.2,925.5,829.1,925.5,829L925.5,829z"/>
</g>
<path id="eom6upf85pu25" class="st3" d="M348.7,855.3c0.2-0.4,0-1.1-0.4-1.3l0,0c0,0-17.5-7-34.8-7l0,0c-2.7,0-5.4,0.2-8.1,0.7l0,0
	c-0.4,0-0.9,0.7-0.9,1.1l0,0c0,0.4,0.7,0.9,1.1,0.9l0,0c2.5-0.4,5.2-0.7,7.8-0.7l0,0c16.6,0,33.9,6.7,33.9,6.7l0,0l0,0
	c0.2,0,0.2,0,0.4,0l0,0C348.2,856,348.7,855.8,348.7,855.3L348.7,855.3z"/>
<path id="eom6upf85pu26" class="st3" d="M348.7,848.2c0.2-0.4,0-1.1-0.4-1.3l0,0c0,0-17.5-7-34.8-7l0,0c-2.7,0-5.4,0.2-8.1,0.7l0,0
	c-0.4,0-0.9,0.7-0.9,1.1l0,0c0,0.4,0.7,0.9,1.1,0.9l0,0c2.5-0.4,5.2-0.4,7.8-0.4l0,0c16.6,0,33.9,6.7,33.9,6.7l0,0l0,0
	c0.2,0,0.2,0,0.4,0l0,0C348.2,848.8,348.7,848.6,348.7,848.2L348.7,848.2z"/>
<g id="eom6upf85pu27" transform="matrix(2.24216000000000 0 0 2.24216000000000 -1726.48000000000002 -996.93799999999999)">
	<path id="eom6upf85pu28" class="st3" d="M905.9,829c-0.1-0.2,0-0.5,0.2-0.6l0,0c0,0,7.8-3.1,15.5-3.1l0,0c1.2,0,2.4,0.1,3.6,0.3
		l0,0c0.2,0,0.4,0.3,0.4,0.5l0,0c0,0.2-0.3,0.4-0.5,0.4l0,0c-1.1-0.2-2.3-0.3-3.5-0.3l0,0c-7.4,0-15.1,3-15.1,3l0,0l0,0
		c-0.1,0-0.1,0-0.2,0l0,0C906.1,829.2,906,829.1,905.9,829L905.9,829z"/>
</g>
<path id="eom6upf85pu29" class="st3" d="M304.7,855.3c-0.2-0.4,0-1.1,0.4-1.3l0,0c0,0,17.5-7,34.8-7l0,0c2.7,0,5.4,0.2,8.1,0.7l0,0
	c0.4,0,0.9,0.7,0.9,1.1l0,0c0,0.4-0.7,0.9-1.1,0.9l0,0c-2.5-0.4-5.2-0.7-7.8-0.7l0,0c-16.6,0-33.9,6.7-33.9,6.7l0,0l0,0
	c-0.2,0-0.2,0-0.4,0l0,0C305.2,856,305,855.8,304.7,855.3L304.7,855.3z"/>
<path id="eom6upf85pu30" class="st3" d="M304.7,848.2c-0.2-0.4,0-1.1,0.4-1.3l0,0c0,0,17.5-7,34.8-7l0,0c2.7,0,5.4,0.2,8.1,0.7l0,0
	c0.4,0,0.9,0.7,0.9,1.1l0,0c0,0.4-0.7,0.9-1.1,0.9l0,0c-2.5-0.4-5.2-0.4-7.8-0.4l0,0c-16.6,0-33.9,6.7-33.9,6.7l0,0l0,0
	c-0.2,0-0.2,0-0.4,0l0,0C305.2,848.8,305,848.6,304.7,848.2L304.7,848.2z"/>
<path id="eom6upf85pu31" class="st4" d="M363,505.3l-134.1,20l-134.1-20c0,0-20.6,130.9-20.6,202.9c0,72,19.7,115.5,30.5,121.3
	c10.8,5.8,32.5,4.3,58.3,1.3c25.6-2.9,53.1-192.6,65-206.3c0.4-0.4,0.7-0.7,0.9-1.1c0.2,0.4,0.7,0.7,0.9,1.1
	c11.9,13.7,41.5,207.6,67,210.5c25.6,2.9,45.3,0,56.3-5.8c10.8-5.8,30.5-49.6,30.5-121.3S363,505.3,363,505.3z"/>
<path id="eom6upf85pu32" class="st5" d="M370,491.7c0,29-62.7,52.5-140.1,52.5S89.7,520.6,89.7,491.7c0-29,62.7-52.5,140.1-52.5
	S370,462.7,370,491.7z"/>
<path id="eom6upf85pu33" class="st6" d="M362.1,286.9c-23.3-83.4-118.4-92.2-118.4-92.2l-13.5,17.7l-13.5-17.7
	c0,0-95.1,8.7-118.4,92.2s-25.3,175.6-9.6,200c14.1,22,61,34.5,130.7,36.5v0.2c3.6,0,7.2,0,10.8,0s7.2,0,10.8,0v-0.2
	c69.5-2,116.6-14.6,130.7-36.5C387.2,462.5,385.4,370.3,362.1,286.9z"/>
<path id="eom6upf85pu34" class="st6" d="M328.7,232.2c0,0,91.3,69.3,103.6,93.3c12.3,24-14.1,49.8-33.6,53.1
	c-19.5,3.1-65.2-66.6-65.2-66.6L328.7,232.2z"/>
<path id="eom6upf85pu35" class="st7" d="M416.6,315.6c0,0,9.6-6.5,18.2-3.8c8.5,2.7,21.3,22,24.7,33c3.1,11-14.1,48.4-46.6,51.1
	c-32.3,2.7-39.5-25.8-39.5-25.8L416.6,315.6z"/>
<path id="eom6upf85pu36" class="st6" d="M133.7,232.2c0,0-91.3,69.3-103.6,93.3c-12.3,24,14.1,49.8,33.6,53.1
	c19.5,3.1,65.2-66.6,65.2-66.6L133.7,232.2z"/>
<path id="eom6upf85pu37" class="st8" d="M352.7,512.1c0-17.5,6.7-20.4,5.8-56.3c-0.9-35.9-37.9-236.8-37.9-236.8l-23.3-12.6
	c0,0,10.3,57.2,19.1,118.4H145.5c4-59.9,9.2-114.6,9.2-114.6s-13.7,2.9-21.3,13.7c0,0-37.9,226-28.3,256.3
	c9.6,30,13.7,36.8,13.7,36.8s-16.6,145.5-16.6,187.2c0,41.7,0,41.7,0,41.7S181,769.2,246,769.2s129.1-27.1,129.1-27.1
	S352.7,529.5,352.7,512.1z"/>
<g id="eom6upf85pu38" transform="matrix(2.24216000000000 0 0 2.24216000000000 -1726.48000000000002 -996.93799999999999)">
	<path id="eom6upf85pu39" class="st9" d="M774,602.3c0,0-8,27.8-1.3,50c6.7,22.2,27.8,34.9,27.8,34.9s-0.9,11.5,6.1,15.3
		c6.9,3.7,17.3-3,18.2-14c0.9-11-1.2-16.2-4.3-17.6c-3.2-1.4-4.6-0.3-6.1-2.9c-1.4-2.6-1.4-2.6-1.4-2.6s-0.4-24.8-8.5-47.6l0-1.4
		c0,0-5.8,5.2-15,1.2C780.1,613.5,774,602.3,774,602.3z"/>
</g>
<g id="eom6upf85pu40" transform="matrix(2.24216000000000 0 0 2.24216000000000 -1726.48000000000002 -996.93799999999999)">
	<path id="eom6upf85pu41" class="st9" d="M974,604.2c0,0,8.1,27.7,1.4,49.9c-6.6,22.2-27.7,34.9-27.7,34.9s0.9,11.5-6.1,15.3
		c-6.9,3.7-17.3-2.9-18.2-13.9c-0.9-11,1.2-16.2,4.3-17.6c3.2-1.4,4.6-0.3,6.1-2.9c1.4-2.6,1.4-2.6,1.4-2.6s0.3-24.8,8.4-47.6v-1.4
		c0,0,5.8,5.2,15,1.2C968,615.4,974,604.2,974,604.2z"/>
</g>
<path id="eom6upf85pu42" class="st9" d="M180.1,157.3c0,8.1-6.5,14.6-14.6,14.6l0,0c-8.1,0-14.6-6.5-14.6-14.6v-24.4
	c0-8.1,6.5-14.6,14.6-14.6l0,0c8.1,0,14.6,6.5,14.6,14.6V157.3z"/>
<path id="eom6upf85pu43" class="st9" d="M313.5,157.3c0,8.1-6.5,14.6-14.6,14.6l0,0c-8.1,0-14.6-6.5-14.6-14.6v-24.4
	c0-8.1,6.5-14.6,14.6-14.6l0,0c8.1,0,14.6,6.5,14.6,14.6V157.3z"/>
<path id="eom6upf85pu44" class="st10" d="M167.1,146.4c0,0-13.9-61.4-17.9-79.8c-4-18.4,0.4-39.9,4.9-42.8c4.5-2.9,9.9,0,9.9,0
	s8.5-13,45.5-20.4c37-7.4,83.4-1.6,93.7,9.4c10.1,11,11.9,12.1,11.9,12.1s5.4,4,6.5,11.4c1.1,7.4-22.4,101.8-22.4,101.8L167.1,146.4
	z"/>
<path id="eom6upf85pu45" class="st9" d="M234.1,68.8L234.1,68.8h-2h-2V69l-65.7,2.2c0,0,0,116.4,0,127.8c0,11.4,12.8,21.1,12.8,21.1
	c0,24,45.1,22,54.7,21.3c9.6,0.7,54.7,2.7,54.7-21.3c0,0,12.8-9.9,12.8-21.1c0-11.4,0-127.8,0-127.8L234.1,68.8z"/>
<path id="eom6upf85pu46" class="st11" d="M184.8,115.9c0,0,6.5-5.4,12.1-5.4c5.6,0,13.5,3.4,17,3.4c3.6,0,4.9-7.8,4.9-7.8
	s-9.9-4.9-20.9-4c-11,0.9-17.5,7.4-17.5,7.4L184.8,115.9z"/>
<path id="eom6upf85pu47" class="st11" d="M285.4,115.9c0,0-6.5-5.4-12.1-5.4c-5.6,0-13.5,3.4-17,3.4c-3.6,0-4.9-7.8-4.9-7.8
	s9.9-4.9,20.9-4c11,0.9,17.5,7.4,17.5,7.4L285.4,115.9z"/>
<path id="eom6upf85pu48" class="st11" d="M262.1,130.2c0-2,1.3-3.8,3.4-4.9c-0.7-0.4-1.6-0.7-2.5-0.7c-3.8,0-7,4.9-7,11
	c0,6.1,3.1,11,7,11c3.8,0,6.7-4.5,7-10.3C265.7,136,262.1,133.6,262.1,130.2z"/>
<path id="eom6upf85pu49" class="st11" d="M199.6,130.2c0-2,1.3-3.8,3.4-4.9c-0.7-0.4-1.6-0.7-2.5-0.7c-3.8,0-7,4.9-7,11
	c0,6.1,3.1,11,7,11c3.8,0,6.7-4.5,7-10.3C203.2,136,199.6,133.6,199.6,130.2z"/>
<path id="eom6upf85pu50" class="st7" d="M45.8,315.6c0,0-9.6-6.5-18.2-3.8c-8.5,2.7-21.3,22-24.7,33c-3.1,11,14.1,48.4,46.6,51.1
	c32.3,2.7,39.5-25.8,39.5-25.8L45.8,315.6z"/>
<path id="eom6upf85pu51" class="st12" d="M293.3,545.9H161.2v50.9c0,0,0,0,0,0.2l0,0c1.1,3.6,15.7,42.6,68.6,42.6
	c55.6,0,72.6-47.3,72.6-47.3v-46.4H293.3z"/>
<path id="eom6upf85pu52" class="st13" d="M231.9,205.4h-25.8c0,0,0.2,17.9,25.8,17.9c25.8,0,25.8-17.9,25.8-17.9H231.9z"/>
<path id="eom6upf85pu53" class="st10" d="M234.3,179.8L234.3,179.8c-0.4,0-0.7,0-1.1,0c-0.4,0-0.7,0-1.1,0l0,0
	c-52,0.9-46,27.1-46,27.1h94.2C280.3,206.7,286.3,180.4,234.3,179.8z"/>
<path id="eom6upf85pu54" class="st10" d="M-444.1-65.4"/>
<script>
	<![CDATA[
		!function(t,n){"object"==typeof exports&&"undefined"!=typeof module?module.exports=n():"function"==typeof define&&define.amd?define(n):(t=t||self).__SVGATOR_PLAYER__=n()}(this,(function(){"use strict";function t(n){return(t="function"==typeof Symbol&&"symbol"==typeof Symbol.iterator?function(t){return typeof t}:function(t){return t&&"function"==typeof Symbol&&t.constructor===Symbol&&t!==Symbol.prototype?"symbol":typeof t})(n)}function n(t,n){if(!(t instanceof n))throw new TypeError("Cannot call a class as a function")}function r(t,n){for(var r=0;r<n.length;r++){var e=n[r];e.enumerable=e.enumerable||!1,e.configurable=!0,"value"in e&&(e.writable=!0),Object.defineProperty(t,e.key,e)}}function e(t,n,e){return n&&r(t.prototype,n),e&&r(t,e),t}var i=1e-5,u=Math.abs;function o(t){return t}function a(t,n,r){var e=1-r;return 3*r*e*(t*e+n*r)+r*r*r}function l(){var t=arguments.length>0&&void 0!==arguments[0]?arguments[0]:0,n=arguments.length>1&&void 0!==arguments[1]?arguments[1]:0,r=arguments.length>2&&void 0!==arguments[2]?arguments[2]:1,e=arguments.length>3&&void 0!==arguments[3]?arguments[3]:1;return t<0||t>1||r<0||r>1?null:u(t-n)<=i&&u(r-e)<=i?o:function(o){if(o<=0)return t>0?o*n/t:0===n&&r>0?o*e/r:0;if(o>=1)return r<1?1+(o-1)*(e-1)/(r-1):1===r&&t<1?1+(o-1)*(n-1)/(t-1):1;for(var l,f=0,s=1;f<s;){var c=a(t,r,l=(f+s)/2);if(u(o-c)<i)break;c<o?f=l:s=l}return a(n,e,l)}}function f(){return 1}function s(t){return 1===t?1:0}function c(){var t=arguments.length>0&&void 0!==arguments[0]?arguments[0]:1,n=arguments.length>1&&void 0!==arguments[1]?arguments[1]:0;if(1===t){if(0===n)return s;if(1===n)return f}var r=1/t;return function(t){return t>=1?1:(t+=n*r)-t%r}}function v(t){var n=arguments.length>1&&void 0!==arguments[1]?arguments[1]:2;if(Number.isInteger(t))return t;var r=Math.pow(10,n);return Math.round(t*r)/r}var h=Math.PI/180;function y(t,n,r){return t>=.5?r:n}function d(t,n,r){return 0===t||n===r?n:t*(r-n)+n}function g(t,n,r){var e=d(t,n,r);return e<=0?0:e}function m(t,n,r){return 0===t?n:1===t?r:{x:d(t,n.x,r.x),y:d(t,n.y,r.y)}}function p(t,n,r){return 0===t?n:1===t?r:{x:g(t,n.x,r.x),y:g(t,n.y,r.y)}}function b(t,n,r){var e=function(t,n,r){return Math.round(d(t,n,r))}(t,n,r);return e<=0?0:e>=255?255:e}function w(t,n,r){return 0===t?n:1===t?r:{r:b(t,n.r,r.r),g:b(t,n.g,r.g),b:b(t,n.b,r.b),a:d(t,null==n.a?1:n.a,null==r.a?1:r.a)}}function A(t,n,r){if(0===t)return n;if(1===t)return r;var e=n.length;if(e!==r.length)return y(t,n,r);for(var i=[],u=0;u<e;u++)i.push(w(t,n[u],r[u]));return i}function x(t,n,r){var e=n.length;if(e!==r.length)return y(t,n,r);for(var i=new Array(e),u=0;u<e;u++)i[u]=d(t,n[u],r[u]);return i}function k(t,n){for(var r=[],e=0;e<t;e++)r.push(n);return r}function S(t,n){if(--n<=0)return t;var r=(t=Object.assign([],t)).length;do{for(var e=0;e<r;e++)t.push(t[e])}while(--n>0);return t}var _=6,M=/\.0+$/g;function I(t){return Number.isInteger(t)?t+"":t.toFixed(_).replace(M,"")}function E(t){var n=arguments.length>1&&void 0!==arguments[1]?arguments[1]:" ";return t&&t.length?t.map(I).join(n):""}function F(t){return I(t.x)+","+I(t.y)}function B(t){return t?null==t.a||t.a>=1?"rgb("+t.r+","+t.g+","+t.b+")":"rgba("+t.r+","+t.g+","+t.b+","+t.a+")":"transparent"}var j={f:null,i:p,u:function(t,n){return function(r){var e=n(r);t.setAttribute("rx",I(e.x)),t.setAttribute("ry",I(e.y))}}},q={f:null,i:function(t,n,r){return 0===t?n:1===t?r:{width:g(t,n.width,r.width),height:g(t,n.height,r.height)}},u:function(t,n){return function(r){var e=n(r);t.setAttribute("width",I(e.width)),t.setAttribute("height",I(e.height))}}},P=Math.sin,O=Math.cos,z=Math.acos,L=Math.asin,C=Math.tan,R=Math.atan2,T=Math.PI/180,V=180/Math.PI,D=Math.sqrt,N=function(){function t(){var r=arguments.length>0&&void 0!==arguments[0]?arguments[0]:1,e=arguments.length>1&&void 0!==arguments[1]?arguments[1]:0,i=arguments.length>2&&void 0!==arguments[2]?arguments[2]:0,u=arguments.length>3&&void 0!==arguments[3]?arguments[3]:1,o=arguments.length>4&&void 0!==arguments[4]?arguments[4]:0,a=arguments.length>5&&void 0!==arguments[5]?arguments[5]:0;n(this,t),this.m=[r,e,i,u,o,a],this.i=null,this.w=null,this.s=null}return e(t,[{key:"point",value:function(t,n){var r=this.m;return{x:r[0]*t+r[2]*n+r[4],y:r[1]*t+r[3]*n+r[5]}}},{key:"translateSelf",value:function(){var t=arguments.length>0&&void 0!==arguments[0]?arguments[0]:0,n=arguments.length>1&&void 0!==arguments[1]?arguments[1]:0;if(!t&&!n)return this;var r=this.m;return r[4]+=r[0]*t+r[2]*n,r[5]+=r[1]*t+r[3]*n,this.w=this.s=this.i=null,this}},{key:"rotateSelf",value:function(){var t=arguments.length>0&&void 0!==arguments[0]?arguments[0]:0;if(t%=360){var n=P(t*=T),r=O(t),e=this.m,i=e[0],u=e[1];e[0]=i*r+e[2]*n,e[1]=u*r+e[3]*n,e[2]=e[2]*r-i*n,e[3]=e[3]*r-u*n,this.w=this.s=this.i=null}return this}},{key:"scaleSelf",value:function(){var t=arguments.length>0&&void 0!==arguments[0]?arguments[0]:1,n=arguments.length>1&&void 0!==arguments[1]?arguments[1]:1;if(1!==t||1!==n){var r=this.m;r[0]*=t,r[1]*=t,r[2]*=n,r[3]*=n,this.w=this.s=this.i=null}return this}},{key:"skewSelf",value:function(t,n){if(n%=360,(t%=360)||n){var r=this.m,e=r[0],i=r[1],u=r[2],o=r[3];t&&(t=C(t*T),r[2]+=e*t,r[3]+=i*t),n&&(n=C(n*T),r[0]+=u*n,r[1]+=o*n),this.w=this.s=this.i=null}return this}},{key:"resetSelf",value:function(){var t=arguments.length>0&&void 0!==arguments[0]?arguments[0]:1,n=arguments.length>1&&void 0!==arguments[1]?arguments[1]:0,r=arguments.length>2&&void 0!==arguments[2]?arguments[2]:0,e=arguments.length>3&&void 0!==arguments[3]?arguments[3]:1,i=arguments.length>4&&void 0!==arguments[4]?arguments[4]:0,u=arguments.length>5&&void 0!==arguments[5]?arguments[5]:0,o=this.m;return o[0]=t,o[1]=n,o[2]=r,o[3]=e,o[4]=i,o[5]=u,this.w=this.s=this.i=null,this}},{key:"recomposeSelf",value:function(){var t=arguments.length>0&&void 0!==arguments[0]?arguments[0]:null,n=arguments.length>1&&void 0!==arguments[1]?arguments[1]:null,r=arguments.length>2&&void 0!==arguments[2]?arguments[2]:null,e=arguments.length>3&&void 0!==arguments[3]?arguments[3]:null,i=arguments.length>4&&void 0!==arguments[4]?arguments[4]:null;return this.isIdentity||this.resetSelf(),t&&(t.x||t.y)&&this.translateSelf(t.x,t.y),n&&this.rotateSelf(n),r&&(r.x&&this.skewSelf(r.x,0),r.y&&this.skewSelf(0,r.y)),!e||1===e.x&&1===e.y||this.scaleSelf(e.x,e.y),i&&(i.x||i.y)&&this.translateSelf(i.x,i.y),this}},{key:"decompose",value:function(){var t=arguments.length>0&&void 0!==arguments[0]?arguments[0]:0,n=arguments.length>1&&void 0!==arguments[1]?arguments[1]:0,r=this.m,e=r[0]*r[0]+r[1]*r[1],i=[[r[0],r[1]],[r[2],r[3]]],u=D(e);if(0===u)return{origin:{x:r[4],y:r[5]},translate:{x:t,y:n},scale:{x:0,y:0},skew:{x:0,y:0},rotate:0};i[0][0]/=u,i[0][1]/=u;var o=r[0]*r[3]-r[1]*r[2]<0;o&&(u=-u);var a=i[0][0]*i[1][0]+i[0][1]*i[1][1];i[1][0]-=i[0][0]*a,i[1][1]-=i[0][1]*a;var l=D(i[1][0]*i[1][0]+i[1][1]*i[1][1]);if(0===l)return{origin:{x:r[4],y:r[5]},translate:{x:t,y:n},scale:{x:u,y:0},skew:{x:0,y:0},rotate:0};i[1][0]/=l,i[1][1]/=l,a/=l;var f=0;return i[1][1]<0?(f=z(i[1][1])*V,i[0][1]<0&&(f=360-f)):f=L(i[0][1])*V,o&&(f=-f),a=R(a,D(i[0][0]*i[0][0]+i[0][1]*i[0][1]))*V,{origin:{x:r[4],y:r[5]},translate:{x:t,y:n},scale:{x:u,y:l},skew:{x:a,y:0},rotate:f}}},{key:"toString",value:function(){return null===this.s&&(this.s="matrix("+this.m.map($).join(" ")+")"),this.s}},{key:"determinant",get:function(){var t=this.m;return t[0]*t[3]-t[1]*t[2]}},{key:"isIdentity",get:function(){if(null===this.i){var t=this.m;this.i=1===t[0]&&0===t[1]&&0===t[2]&&1===t[3]&&0===t[4]&&0===t[5]}return this.i}}]),t}(),G=/\.0+$/;function $(t){return Number.isInteger(t)?t:t.toFixed(14).replace(G,"")}Object.freeze({M:2,L:2,Z:0,H:1,V:1,C:6,Q:4,T:2,S:4,A:7});function H(t,n,r){return t+(n-t)*r}function Q(t,n,r){var e=arguments.length>3&&void 0!==arguments[3]&&arguments[3],i={x:H(t.x,n.x,r),y:H(t.y,n.y,r)};return e&&(i.a=function(t,n){return Math.atan2(n.y-t.y,n.x-t.x)}(t,n)),i}function U(t,n,r,e){var i=1-e;return i*i*t+2*i*e*n+e*e*r}function Y(t,n,r,e){return 2*(1-e)*(n-t)+2*e*(r-n)}function Z(t,n,r,e){var i=arguments.length>4&&void 0!==arguments[4]&&arguments[4],u={x:U(t.x,n.x,r.x,e),y:U(t.y,n.y,r.y,e)};return i&&(u.a=function(t,n,r,e){return Math.atan2(Y(t.y,n.y,r.y,e),Y(t.x,n.x,r.x,e))}(t,n,r,e)),u}function J(t,n,r,e,i){var u=i*i;return i*u*(e-t+3*(n-r))+3*u*(t+r-2*n)+3*i*(n-t)+t}function K(t,n,r,e,i){var u=1-i;return 3*(u*u*(n-t)+2*u*i*(r-n)+i*i*(e-r))}function W(t,n,r,e,i){var u=arguments.length>5&&void 0!==arguments[5]&&arguments[5],o={x:J(t.x,n.x,r.x,e.x,i),y:J(t.y,n.y,r.y,e.y,i)};return u&&(o.a=function(t,n,r,e,i){return Math.atan2(K(t.y,n.y,r.y,e.y,i),K(t.x,n.x,r.x,e.x,i))}(t,n,r,e,i)),o}function X(t,n,r){var e,i=arguments.length>3&&void 0!==arguments[3]&&arguments[3];if(nt(n)){if(null!=(e=r).start&&!nt(e))return Z(n,r.start,r,t,i)}else if(nt(r)){if(n.end)return Z(n,n.end,r,t,i)}else{if(n.end)return r.start?W(n,n.end,r.start,r,t,i):Z(n,n.end,r,t,i);if(r.start)return Z(n,r.start,r,t,i)}return Q(n,r,t,i)}function tt(t,n,r){var e=X(t,n,r,!0);return e.a=function(t){return arguments.length>1&&void 0!==arguments[1]&&arguments[1]?t+Math.PI:t}(e.a)/h,e}function nt(t){return!t.type||"corner"===t.type}var rt=new N;var et={f:function(t){return t?t.join(" "):""},i:function(n,r,e){if(0===n)return r;if(1===n)return e;var i=r.length;if(i!==e.length)return y(n,r,e);for(var u,o=new Array(i),a=0;a<i;a++){if((u=t(r[a]))!==t(e[a]))return y(n,r,e);if("number"===u)o[a]=d(n,r[a],e[a]);else{if(r[a]!==e[a])return y(n,r,e);o[a]=r[a]}}return o}},it={f:null,i:x,u:function(t,n){return function(r){var e=n(r);t.setAttribute("x1",I(e[0])),t.setAttribute("y1",I(e[1])),t.setAttribute("x2",I(e[2])),t.setAttribute("y2",I(e[3]))}}},ut={f:I,i:d},ot={f:I,i:function(t,n,r){var e=d(t,n,r);return e<=0?0:e>=1?1:e}},at={f:E,i:function(t,n,r){var e,i,u,o=n.length,a=r.length;if(o!==a)if(0===o)n=k(o=a,0);else if(0===a)a=o,r=k(o,0);else{var l=(u=(e=o)*(i=a)/function(t,n){for(var r;n;)r=n,n=t%n,t=r;return t||1}(e,i))<0?-u:u;n=S(n,Math.floor(l/o)),r=S(r,Math.floor(l/a)),o=a=l}for(var f=[],s=0;s<o;s++)f.push(v(g(t,n[s],r[s]),6));return f}};function lt(t,n,r,e,i,u,o,a){return n=function(t,n,r){for(var e,i,u,o=t.length-1,a={},l=0;l<=o;l++)(e=t[l]).e&&(e.e=n(e.e)),e.v&&"g"===(i=e.v).t&&i.r&&(u=r.getElementById(i.r))&&(a[i.r]=u.querySelectorAll("stop"));return a}(t,e,a),function(e){var i,u=r(e,t,ft);return u?"c"===u.t?B(u.v):"g"===u.t?(n[u.r]&&function(t,n){for(var r=0,e=t.length;r<e;r++)t[r].setAttribute("stop-color",B(n[r]))}(n[u.r],u.v),(i=u.r)?"url(#"+i+")":"none"):"none":"none"}}function ft(t,n,r){if(0===t)return n;if(1===t)return r;if(n&&r){var e=n.t;if(e===r.t)switch(n.t){case"c":return{t:e,v:w(t,n.v,r.v)};case"g":if(n.r===r.r)return{t:e,v:A(t,n.v,r.v),r:n.r}}}return y(t,n,r)}var st={blur:p,brightness:g,contrast:g,"drop-shadow":function(t,n,r){return 0===t?n:1===t?r:{blur:p(t,n.blur,r.blur),offset:m(t,n.offset,r.offset),color:w(t,n.color,r.color)}},grayscale:g,"hue-rotate":d,invert:g,opacity:g,saturate:g,sepia:g};function ct(t,n,r){if(0===t)return n;if(1===t)return r;var e=n.length;if(e!==r.length)return y(t,n,r);for(var i,u=[],o=0;o<e;o++){if(n[o].type!==r[o].type)return n;if(!(i=st[n[o].type]))return y(t,n,r);u.push({type:n.type,value:i(t,n[o].value,r[o].value)})}return u}var vt={blur:function(t){return t?function(n){t.setAttribute("stdDeviation",F(n))}:null},brightness:function(t,n,r){return(t=yt(r,n))?function(n){n=I(n),t.map((function(t){return t.setAttribute("slope",n)}))}:null},contrast:function(t,n,r){return(t=yt(r,n))?function(n){var r=I((1-n)/2);n=I(n),t.map((function(t){t.setAttribute("slope",n),t.setAttribute("intercept",r)}))}:null},"drop-shadow":function(t,n,r){var e=r.getElementById(n+"-blur");if(!e)return null;var i=r.getElementById(n+"-offset");if(!i)return null;var u=r.getElementById(n+"-flood");return u?function(t){e.setAttribute("stdDeviation",F(t.blur)),i.setAttribute("dx",I(t.offset.x)),i.setAttribute("dy",I(t.offset.y)),u.setAttribute("flood-color",B(t.color))}:null},grayscale:function(t){return t?function(n){t.setAttribute("values",E(function(t){return[.2126+.7874*(t=1-t),.7152-.7152*t,.0722-.0722*t,0,0,.2126-.2126*t,.7152+.2848*t,.0722-.0722*t,0,0,.2126-.2126*t,.7152-.7152*t,.0722+.9278*t,0,0,0,0,0,1,0]}(n)))}:null},"hue-rotate":function(t){return t?function(n){return t.setAttribute("values",I(n))}:null},invert:function(t,n,r){return(t=yt(r,n))?function(n){n=I(n)+" "+I(1-n),t.map((function(t){return t.setAttribute("tableValues",n)}))}:null},opacity:function(t,n,r){return(t=r.getElementById(n+"-A"))?function(n){return t.setAttribute("tableValues","0 "+I(n))}:null},saturate:function(t){return t?function(n){return t.setAttribute("values",I(n))}:null},sepia:function(t){return t?function(n){return t.setAttribute("values",E(function(t){return[.393+.607*(t=1-t),.769-.769*t,.189-.189*t,0,0,.349-.349*t,.686+.314*t,.168-.168*t,0,0,.272-.272*t,.534-.534*t,.131+.869*t,0,0,0,0,0,1,0]}(n)))}:null}};var ht=["R","G","B"];function yt(t,n){var r=ht.map((function(r){return t.getElementById(n+"-"+r)||null}));return-1!==r.indexOf(null)?null:r}var dt={fill:lt,"fill-opacity":ot,stroke:lt,"stroke-opacity":ot,"stroke-width":ut,"stroke-dashoffset":{f:I,i:d},"stroke-dasharray":at,opacity:ot,transform:function(n,r,e,i){if(!(n=function(n,r){if(!n||"object"!==t(n))return null;var e=!1;for(var i in n)n.hasOwnProperty(i)&&(n[i]&&n[i].length?(n[i].forEach((function(t){t.e&&(t.e=r(t.e))})),e=!0):delete n[i]);return e?n:null}(n,i)))return null;var u=function(t,i,u){var o=arguments.length>3&&void 0!==arguments[3]?arguments[3]:null;return n[t]?e(i,n[t],u):r&&r[t]?r[t]:o};return r&&r.a&&n.o?function(t){var r=e(t,n.o,tt);return rt.recomposeSelf(r,u("r",t,d,0)+r.a,u("k",t,m),u("s",t,m),u("t",t,m)).toString()}:function(t){return rt.recomposeSelf(u("o",t,X,null),u("r",t,d,0),u("k",t,m),u("s",t,m),u("t",t,m)).toString()}},"#filter":function(t,n,r,e,i,u,o,a){if(!n.items||!t||!t.length)return null;var l=function(t,n){var r=(t=t.map((function(t){return t&&vt[t[0]]?(n.getElementById(t[1]),vt[t[0]](n.getElementById(t[1]),t[1],n)):null}))).length;return function(n){for(var e=0;e<r;e++)t[e]&&t[e](n[e].value)}}(n.items,a);return l?(t=function(t,n){return t.map((function(t){return t.e=n(t.e),t}))}(t,e),function(n){l(r(n,t,ct))}):null},"#line":it,points:{f:E,i:x},d:et,r:ut,"#size":q,"#radius":j,_:function(t,n){if(Array.isArray(t))for(var r=0;r<t.length;r++)this[t[r]]=n;else this[t]=n}},gt=function(){function t(r){n(this,t),this.list=r,this.length=r.length}return e(t,[{key:"setAttribute",value:function(t,n){for(var r=this.list,e=0;e<this.length;e++)r[e].setAttribute(t,n)}},{key:"removeAttribute",value:function(t){for(var n=this.list,r=0;r<this.length;r++)n[r].removeAttribute(t)}},{key:"style",value:function(t,n){for(var r=this.list,e=0;e<this.length;e++)r[e].style[t]=n}}]),t}(),mt=/-./g,pt=function(t,n){return n.toUpperCase()};function bt(t){return"function"==typeof t?t:y}function wt(t){return t?"function"==typeof t?t:Array.isArray(t)?function(t){var n=arguments.length>1&&void 0!==arguments[1]?arguments[1]:o;if(!Array.isArray(t))return n;switch(t.length){case 1:return c(t[0])||n;case 2:return c(t[0],t[1])||n;case 4:return l(t[0],t[1],t[2],t[3])||n}return n}(t,null):function(t,n){var r=arguments.length>2&&void 0!==arguments[2]?arguments[2]:o;switch(t){case"linear":return o;case"steps":return c(n.steps||1,n.jump||0)||r;case"bezier":case"cubic-bezier":return l(n.x1||0,n.y1||0,n.x2||0,n.y2||0)||r}return r}(t.type,t.value,null):null}function At(t,n,r){var e=arguments.length>3&&void 0!==arguments[3]&&arguments[3],i=n.length-1;if(t<=n[0].t)return e?[0,0,n[0].v]:n[0].v;if(t>=n[i].t)return e?[i,1,n[i].v]:n[i].v;var u,o=n[0],a=null;for(u=1;u<=i;u++){if(!(t>n[u].t)){a=n[u];break}o=n[u]}return null==a?e?[i,1,n[i].v]:n[i].v:o.t===a.t?e?[u,1,a.v]:a.v:(t=(t-o.t)/(a.t-o.t),o.e&&(t=o.e(t)),e?[u,t,r(t,o.v,a.v)]:r(t,o.v,a.v))}function xt(t,n){var r=arguments.length>2&&void 0!==arguments[2]?arguments[2]:null;return t&&t.length?"function"!=typeof n?null:("function"!=typeof r&&(r=null),function(e){var i=At(e,t,n);return null!=i&&r&&(i=r(i)),i}):null}function kt(t,n){return t.t-n.t}function St(n,r,e,i,u){var o,a="@"===e[0],l="#"===e[0],f=dt[e],s=y;switch(a?(o=e.substr(1),e=o.replace(mt,pt)):l&&(e=e.substr(1)),t(f)){case"function":if(s=f(i,u,At,wt,e,a,r,n),l)return s;break;case"string":s=xt(i,bt(f));break;case"object":if((s=xt(i,bt(f.i),f.f))&&"function"==typeof f.u)return f.u(r,s,e,a,n)}return s?function(t,n,r){if(arguments.length>3&&void 0!==arguments[3]&&arguments[3])return t instanceof gt?function(e){return t.style(n,r(e))}:function(e){return t.style[n]=r(e)};if(Array.isArray(n)){var e=n.length;return function(i){var u=r(i);if(null==u)for(var o=0;o<e;o++)t[o].removeAttribute(n);else for(var a=0;a<e;a++)t[a].setAttribute(n,u)}}return function(e){var i=r(e);null==i?t.removeAttribute(n):t.setAttribute(n,i)}}(r,e,s,a):null}function _t(n,r,e,i){if(!i||"object"!==t(i))return null;var u=null,o=null;return Array.isArray(i)?o=function(t){if(!t||!t.length)return null;for(var n=0;n<t.length;n++)t[n].e&&(t[n].e=wt(t[n].e));return t.sort(kt)}(i):(o=i.keys,u=i.data||null),o?St(n,r,e,o,u):null}function Mt(t,n,r){if(!r)return null;var e=[];for(var i in r)if(r.hasOwnProperty(i)){var u=_t(t,n,i,r[i]);u&&e.push(u)}return e.length?e:null}function It(t,n){if(!n.duration||n.duration<0)return null;var r=function(t,n){if(!n)return null;var r=[];if(Array.isArray(n))for(var e=n.length,i=0;i<e;i++){var u=n[i];if(2===u.length){var o=null;if("string"==typeof u[0])o=t.getElementById(u[0]);else if(Array.isArray(u[0])){o=[];for(var a=0;a<u[0].length;a++)if("string"==typeof u[0][a]){var l=t.getElementById(u[0][a]);l&&o.push(l)}o=o.length?1===o.length?o[0]:new gt(o):null}if(o){var f=Mt(t,o,u[1]);f&&(r=r.concat(f))}}}else for(var s in n)if(n.hasOwnProperty(s)){var c=t.getElementById(s);if(c){var v=Mt(t,c,n[s]);v&&(r=r.concat(v))}}return r.length?r:null}(t,n.elements);return r?function(t,n){var r=arguments.length>2&&void 0!==arguments[2]?arguments[2]:1/0,e=arguments.length>3&&void 0!==arguments[3]?arguments[3]:1,i=arguments.length>4&&void 0!==arguments[4]&&arguments[4],u=arguments.length>5&&void 0!==arguments[5]?arguments[5]:1,o=t.length,a=e>0?n:0;i&&r%2==0&&(a=n-a);var l=null;return function(f,s){var c=f%n,v=1+(f-c)/n;s*=e,i&&v%2==0&&(s=-s);var h=!1;if(v>r)c=a,h=!0,-1===u&&(c=e>0?0:n);else if(s<0&&(c=n-c),c===l)return!1;l=c;for(var y=0;y<o;y++)t[y](c);return h}}(r,n.duration,n.iterations||1/0,n.direction||1,!!n.alternate,n.fill||1):null}var Et=function(){function t(r){var e=arguments.length>1&&void 0!==arguments[1]?arguments[1]:{};n(this,t),this._id=0,this._running=!1,this._animations=r,this.direction=e.direction||1,this.speed=e.speed||1,this.fps=e.fps||100,this.offset=e.offset||0}return e(t,[{key:"_start",value:function(){var t=this,n=arguments.length>0&&void 0!==arguments[0]?arguments[0]:0,r=-1/0,e=null,i={},u=function u(o){t._running=!0,null==e&&(e=o);var a=Math.round((o-e+n)*t.speed),l=t.fps?1e3/t.fps:0;if(a>r+l){t.offset=a,r=a;for(var f=t._animations,s=f.length,c=0,v=0;v<s;v++)i[v]?c++:(i[v]=f[v](a,t.direction),i[v]&&c++);if(c===s)return void t._stop()}t._id=window.requestAnimationFrame(u)};this._id=window.requestAnimationFrame(u)}},{key:"_stop",value:function(){this._id&&window.cancelAnimationFrame(this._id),this._running=!1}},{key:"play",value:function(){this._running||this._start(this.offset)}},{key:"stop",value:function(){this._stop(),this.offset=0;var t=this.direction,n=this._animations;requestAnimationFrame((function(){for(var r=0;r<n.length;r++)n[r](0,t)}))}},{key:"restart",value:function(){this._stop(),this.offset=0,this._start()}},{key:"pause",value:function(){this._stop()}},{key:"reverse",value:function(){this.direction=-this.direction}}],[{key:"build",value:function(n){if(!(n=function(t){if(!t||!t.root||!Array.isArray(t.animations))return null;var n=window.document.getElementById(t.root);if(!n)return null;var r=t.animations.map((function(t){return It(n,t)})).filter((function(t){return!!t}));return r.length?{element:n,animations:r,options:t.options||void 0}:null}(n)))return null;var r=n.element,e=n.options||{},i=new t(n.animations,n.options);return function(t,n,r){var e=arguments.length>3&&void 0!==arguments[3]?arguments[3]:null;if("click"===r){return void n.addEventListener("click",(function r(){n.removeEventListener("click",r),t.play()}))}if("hover"===r)return n.addEventListener("mouseenter",(function(){return t.play()})),void n.addEventListener("mouseleave","freeze"===e?function(){return t.pause()}:function(){return t.stop()});t.play()}(i,r,e.start,e.hover),i}}]),t}();return function(){for(var t=0,n=["ms","moz","webkit","o"],r=0;r<n.length&&!window.requestAnimationFrame;++r)window.requestAnimationFrame=window[n[r]+"RequestAnimationFrame"],window.cancelAnimationFrame=window[n[r]+"CancelAnimationFrame"]||window[n[r]+"CancelRequestAnimationFrame"];window.requestAnimationFrame||(window.requestAnimationFrame=function(n){var r=Date.now(),e=Math.max(0,16-(r-t)),i=window.setTimeout((function(){n(r+e)}),e);return t=r+e,i},window.cancelAnimationFrame=window.clearTimeout)}(),Et}));
__SVGATOR_PLAYER__.build({"root":"eom6upf85pu1","animations":[{"duration":600000,"direction":1,"iterations":10,"fill":1,"alternate":false,"elements":{"eom6upf85pu52":{"transform":{"data":{"s":{"x":2.24216,"y":2.239973663233654}},"keys":{"o":[{"t":0,"v":{"x":-1745.5373214300002,"y":-975.4751039999999,"type":"corner"}},{"t":100,"v":{"x":-1745.5373214300002,"y":-983.4082923049998,"type":"corner"}},{"t":200,"v":{"x":-1745.5373214300002,"y":-987.5650336549998,"type":"corner"}},{"t":300,"v":{"x":-1745.5373214300002,"y":-986.1076296549998,"type":"corner"}},{"t":400,"v":{"x":-1745.5373214300002,"y":-982.9598603049999,"type":"corner"}},{"t":500,"v":{"x":-1745.5373214300002,"y":-975.4483976549998,"type":"corner"}},{"t":600,"v":{"x":-1745.5373214300002,"y":-975.4751039999999,"type":"corner"}},{"t":700,"v":{"x":-1745.5373214300002,"y":-973.9999656499999,"type":"corner"}}]}}}}}],"options":{"start":"hover","hover":"freeze"}})
		]]>
</script>
</svg>
